%TF.GenerationSoftware,KiCad,Pcbnew,(5.1.6)-1*%
%TF.CreationDate,2020-09-10T03:51:47+02:00*%
%TF.ProjectId,Esp32TinyTester,45737033-3254-4696-9e79-546573746572,rev?*%
%TF.SameCoordinates,Original*%
%TF.FileFunction,Copper,L1,Top*%
%TF.FilePolarity,Positive*%
%FSLAX46Y46*%
G04 Gerber Fmt 4.6, Leading zero omitted, Abs format (unit mm)*
G04 Created by KiCad (PCBNEW (5.1.6)-1) date 2020-09-10 03:51:47*
%MOMM*%
%LPD*%
G01*
G04 APERTURE LIST*
%TA.AperFunction,EtchedComponent*%
%ADD10C,0.381000*%
%TD*%
%TA.AperFunction,ComponentPad*%
%ADD11R,1.700000X1.700000*%
%TD*%
%TA.AperFunction,ComponentPad*%
%ADD12O,1.700000X1.700000*%
%TD*%
%TA.AperFunction,SMDPad,CuDef*%
%ADD13O,0.900000X2.500000*%
%TD*%
%TA.AperFunction,SMDPad,CuDef*%
%ADD14O,2.500000X0.900000*%
%TD*%
%TA.AperFunction,SMDPad,CuDef*%
%ADD15R,6.000000X6.000000*%
%TD*%
%TA.AperFunction,SMDPad,CuDef*%
%ADD16R,0.900000X1.200000*%
%TD*%
%TA.AperFunction,SMDPad,CuDef*%
%ADD17R,1.300000X1.550000*%
%TD*%
%TA.AperFunction,SMDPad,CuDef*%
%ADD18C,1.200000*%
%TD*%
%TA.AperFunction,SMDPad,CuDef*%
%ADD19R,2.500000X0.950000*%
%TD*%
%TA.AperFunction,SMDPad,CuDef*%
%ADD20R,1.150000X1.500000*%
%TD*%
%TA.AperFunction,SMDPad,CuDef*%
%ADD21R,2.200000X1.150000*%
%TD*%
%TA.AperFunction,SMDPad,CuDef*%
%ADD22R,1.250000X1.160000*%
%TD*%
%TA.AperFunction,SMDPad,CuDef*%
%ADD23R,1.200000X1.160000*%
%TD*%
%TA.AperFunction,SMDPad,CuDef*%
%ADD24R,1.240000X0.800000*%
%TD*%
%TA.AperFunction,SMDPad,CuDef*%
%ADD25C,1.524000*%
%TD*%
%TA.AperFunction,SMDPad,CuDef*%
%ADD26R,0.700000X0.510000*%
%TD*%
%TA.AperFunction,SMDPad,CuDef*%
%ADD27R,3.750000X2.500000*%
%TD*%
%TA.AperFunction,SMDPad,CuDef*%
%ADD28R,2.500000X3.750000*%
%TD*%
%TA.AperFunction,SMDPad,CuDef*%
%ADD29R,0.750000X1.200000*%
%TD*%
%TA.AperFunction,SMDPad,CuDef*%
%ADD30R,1.600000X3.500000*%
%TD*%
%TA.AperFunction,SMDPad,CuDef*%
%ADD31R,1.200000X0.900000*%
%TD*%
%TA.AperFunction,SMDPad,CuDef*%
%ADD32R,3.500000X3.500000*%
%TD*%
%TA.AperFunction,ComponentPad*%
%ADD33C,1.800000*%
%TD*%
%TA.AperFunction,ComponentPad*%
%ADD34R,1.800000X1.800000*%
%TD*%
%TA.AperFunction,SMDPad,CuDef*%
%ADD35R,3.900000X6.200000*%
%TD*%
%TA.AperFunction,SMDPad,CuDef*%
%ADD36R,3.300000X4.400000*%
%TD*%
%TA.AperFunction,ComponentPad*%
%ADD37O,3.010000X1.510000*%
%TD*%
%TA.AperFunction,SMDPad,CuDef*%
%ADD38R,1.550000X1.300000*%
%TD*%
%TA.AperFunction,SMDPad,CuDef*%
%ADD39R,0.900000X0.800000*%
%TD*%
%TA.AperFunction,SMDPad,CuDef*%
%ADD40R,1.200000X2.200000*%
%TD*%
%TA.AperFunction,SMDPad,CuDef*%
%ADD41R,5.800000X6.400000*%
%TD*%
%TA.AperFunction,SMDPad,CuDef*%
%ADD42R,2.750000X3.050000*%
%TD*%
%TA.AperFunction,SMDPad,CuDef*%
%ADD43R,0.400000X1.100000*%
%TD*%
%TA.AperFunction,SMDPad,CuDef*%
%ADD44R,0.600000X1.200000*%
%TD*%
%TA.AperFunction,SMDPad,CuDef*%
%ADD45R,1.200000X0.600000*%
%TD*%
%TA.AperFunction,ViaPad*%
%ADD46C,0.800000*%
%TD*%
%TA.AperFunction,Conductor*%
%ADD47C,0.250000*%
%TD*%
%TA.AperFunction,Conductor*%
%ADD48C,1.000000*%
%TD*%
%TA.AperFunction,Conductor*%
%ADD49C,2.000000*%
%TD*%
%TA.AperFunction,Conductor*%
%ADD50C,3.000000*%
%TD*%
G04 APERTURE END LIST*
D10*
X71529080Y-140000000D02*
G75*
G03*
X71529080Y-140000000I-1529080J0D01*
G01*
X71790700Y-140000000D02*
G75*
G03*
X71790700Y-140000000I-1790700J0D01*
G01*
X146279080Y-55250000D02*
G75*
G03*
X146279080Y-55250000I-1529080J0D01*
G01*
X146540700Y-55250000D02*
G75*
G03*
X146540700Y-55250000I-1790700J0D01*
G01*
D11*
X75870000Y-57540000D03*
D12*
X75870000Y-55000000D03*
X78410000Y-57540000D03*
X78410000Y-55000000D03*
X80950000Y-57540000D03*
X80950000Y-55000000D03*
X83490000Y-57540000D03*
X83490000Y-55000000D03*
X86030000Y-57540000D03*
X86030000Y-55000000D03*
X88570000Y-57540000D03*
X88570000Y-55000000D03*
X91110000Y-57540000D03*
X91110000Y-55000000D03*
X93650000Y-57540000D03*
X93650000Y-55000000D03*
X96190000Y-57540000D03*
X96190000Y-55000000D03*
X98730000Y-57540000D03*
X98730000Y-55000000D03*
X101270000Y-57540000D03*
X101270000Y-55000000D03*
X103810000Y-57540000D03*
X103810000Y-55000000D03*
X106350000Y-57540000D03*
X106350000Y-55000000D03*
X108890000Y-57540000D03*
X108890000Y-55000000D03*
X111430000Y-57540000D03*
X111430000Y-55000000D03*
X113970000Y-57540000D03*
X113970000Y-55000000D03*
X116510000Y-57540000D03*
X116510000Y-55000000D03*
X119050000Y-57540000D03*
X119050000Y-55000000D03*
X121590000Y-57540000D03*
X121590000Y-55000000D03*
X124130000Y-57540000D03*
X124130000Y-55000000D03*
D13*
X142250000Y-118000000D03*
X140980000Y-118000000D03*
X139710000Y-118000000D03*
X138440000Y-118000000D03*
X137170000Y-118000000D03*
X135900000Y-118000000D03*
X134630000Y-118000000D03*
X133360000Y-118000000D03*
X132090000Y-118000000D03*
X130820000Y-118000000D03*
X129550000Y-118000000D03*
X128280000Y-118000000D03*
X127010000Y-118000000D03*
X125740000Y-118000000D03*
D14*
X124250000Y-114715000D03*
X124250000Y-113445000D03*
X124250000Y-112175000D03*
X124250000Y-110905000D03*
X124250000Y-109635000D03*
X124250000Y-108365000D03*
X124250000Y-107095000D03*
X124250000Y-105825000D03*
X124250000Y-104555000D03*
X124250000Y-103285000D03*
D13*
X125740000Y-100000000D03*
X127010000Y-100000000D03*
X128280000Y-100000000D03*
X129550000Y-100000000D03*
X130820000Y-100000000D03*
X132090000Y-100000000D03*
X133360000Y-100000000D03*
X134630000Y-100000000D03*
X135900000Y-100000000D03*
X137170000Y-100000000D03*
X138440000Y-100000000D03*
X139710000Y-100000000D03*
X140980000Y-100000000D03*
X142250000Y-100000000D03*
D15*
X134550000Y-108700000D03*
D16*
X118200000Y-123900000D03*
X118200000Y-126100000D03*
X132200000Y-123900000D03*
X132200000Y-126100000D03*
D17*
X121750000Y-124020000D03*
X126250000Y-124020000D03*
X126250000Y-131980000D03*
X121750000Y-131980000D03*
X135750000Y-124020000D03*
X140250000Y-124020000D03*
X140250000Y-131980000D03*
X135750000Y-131980000D03*
D18*
X132250000Y-133750000D03*
X117500000Y-129750000D03*
D19*
X145975000Y-78930000D03*
D20*
X133850000Y-90940000D03*
D21*
X134644999Y-78855000D03*
D20*
X133849999Y-83160001D03*
D21*
X146125000Y-93320000D03*
D22*
X143975000Y-92915000D03*
D23*
X134975000Y-92915000D03*
D24*
X146605000Y-83750000D03*
X146605000Y-84850000D03*
X146605000Y-85950000D03*
X146605000Y-87050000D03*
X146605000Y-88150000D03*
X146605000Y-89250000D03*
X146605000Y-90350000D03*
X146605000Y-91450000D03*
D18*
X70250000Y-91350000D03*
X70250000Y-96430000D03*
X70250000Y-93890000D03*
X70250000Y-98970000D03*
X70250000Y-101500000D03*
X109750000Y-74250000D03*
X95250000Y-69750000D03*
X98460000Y-83960000D03*
X101000000Y-83960000D03*
X103540000Y-83960000D03*
X106080000Y-83960000D03*
X108620000Y-83960000D03*
D25*
X83500000Y-85750000D03*
X59750000Y-102750000D03*
D16*
X81350000Y-68500000D03*
X84650000Y-68500000D03*
X92000000Y-75850000D03*
X92000000Y-73650000D03*
X115400000Y-61000000D03*
X112100000Y-61000000D03*
X122400000Y-63500000D03*
X119100000Y-63500000D03*
X109100000Y-68500000D03*
X112400000Y-68500000D03*
D26*
X116590000Y-75550000D03*
X116590000Y-76500000D03*
X116590000Y-77450000D03*
X118910000Y-77450000D03*
X118910000Y-76500000D03*
X118910000Y-75550000D03*
X61540000Y-67770000D03*
X61540000Y-68720000D03*
X61540000Y-69670000D03*
X63860000Y-69670000D03*
X63860000Y-68720000D03*
X63860000Y-67770000D03*
D27*
X67375000Y-86750000D03*
X61125000Y-86750000D03*
D28*
X66500000Y-75755000D03*
X66500000Y-82005000D03*
X98000000Y-121625000D03*
X98000000Y-127875000D03*
X125750000Y-88875000D03*
X125750000Y-82625000D03*
D29*
X107000000Y-76050000D03*
X107000000Y-77950000D03*
X93750000Y-74050000D03*
X93750000Y-75950000D03*
D27*
X98625000Y-132750000D03*
X104875000Y-132750000D03*
D28*
X113750000Y-88875000D03*
X113750000Y-82625000D03*
D30*
X72750000Y-76800000D03*
X72750000Y-82200000D03*
D31*
X92750000Y-124100000D03*
X92750000Y-127400000D03*
D16*
X85650000Y-66000000D03*
X82350000Y-66000000D03*
X88350000Y-66000000D03*
X91650000Y-66000000D03*
X98650000Y-63500000D03*
X95350000Y-63500000D03*
X78600000Y-61000000D03*
X81900000Y-61000000D03*
X90650000Y-68500000D03*
X87350000Y-68500000D03*
X93650000Y-61000000D03*
X90350000Y-61000000D03*
X80900000Y-63500000D03*
X77600000Y-63500000D03*
X86900000Y-63500000D03*
X83600000Y-63500000D03*
X92650000Y-63500000D03*
X89350000Y-63500000D03*
X95850000Y-61000000D03*
X99150000Y-61000000D03*
X108100000Y-66000000D03*
X111400000Y-66000000D03*
X84350000Y-61000000D03*
X87650000Y-61000000D03*
X114100000Y-66000000D03*
X117400000Y-66000000D03*
X110400000Y-63500000D03*
X107100000Y-63500000D03*
X100850000Y-61000000D03*
X104150000Y-61000000D03*
X104650000Y-63500000D03*
X101350000Y-63500000D03*
X117600000Y-61000000D03*
X120900000Y-61000000D03*
X109400000Y-61000000D03*
X106100000Y-61000000D03*
X116400000Y-63500000D03*
X113100000Y-63500000D03*
X94850000Y-66000000D03*
X98150000Y-66000000D03*
X73600000Y-61000000D03*
X76900000Y-61000000D03*
X118400000Y-68500000D03*
X115100000Y-68500000D03*
X105150000Y-66000000D03*
X101850000Y-66000000D03*
X126150000Y-61000000D03*
X122850000Y-61000000D03*
D32*
X87400000Y-124000000D03*
X80600000Y-124000000D03*
D33*
X111250000Y-140290000D03*
D34*
X111250000Y-137750000D03*
D35*
X91450000Y-141200000D03*
X78550000Y-141200000D03*
D36*
X85700000Y-132200000D03*
D12*
X106370000Y-110500000D03*
X103830000Y-110500000D03*
X101290000Y-110500000D03*
X98750000Y-110500000D03*
X96210000Y-110500000D03*
D11*
X93670000Y-110500000D03*
X83500000Y-101250000D03*
D12*
X83500000Y-98710000D03*
X83500000Y-96170000D03*
X83500000Y-93630000D03*
X83500000Y-91090000D03*
X83500000Y-88550000D03*
D37*
X143000000Y-73500000D03*
X143000000Y-70960000D03*
X143000000Y-68420000D03*
D34*
X129750000Y-137750000D03*
D33*
X129750000Y-140290000D03*
D38*
X119980000Y-113750000D03*
X119980000Y-109250000D03*
X112020000Y-109250000D03*
X112020000Y-113750000D03*
X119980000Y-101750000D03*
X119980000Y-106250000D03*
X112020000Y-106250000D03*
X112020000Y-101750000D03*
D26*
X68940000Y-67770000D03*
X68940000Y-68720000D03*
X68940000Y-69670000D03*
X66620000Y-69670000D03*
X66620000Y-68720000D03*
X66620000Y-67770000D03*
X71700000Y-67770000D03*
X71700000Y-68720000D03*
X71700000Y-69670000D03*
X74020000Y-69670000D03*
X74020000Y-68720000D03*
X74020000Y-67770000D03*
D39*
X74400000Y-89040000D03*
X76400000Y-88090000D03*
X76400000Y-89990000D03*
D26*
X121840000Y-75550000D03*
X121840000Y-76500000D03*
X121840000Y-77450000D03*
X124160000Y-77450000D03*
X124160000Y-76500000D03*
X124160000Y-75550000D03*
D39*
X130000000Y-76200000D03*
X130000000Y-74300000D03*
X128000000Y-75250000D03*
D31*
X53860000Y-93280000D03*
X56060000Y-93280000D03*
X61560000Y-93280000D03*
X59360000Y-93280000D03*
X56060000Y-96280000D03*
X53860000Y-96280000D03*
X59360000Y-96280000D03*
X61560000Y-96280000D03*
X56060000Y-99280000D03*
X53860000Y-99280000D03*
X59360000Y-99280000D03*
X61560000Y-99280000D03*
X67060000Y-96280000D03*
X64860000Y-96280000D03*
D16*
X106750000Y-114650000D03*
X106750000Y-116850000D03*
X104000000Y-114650000D03*
X104000000Y-116850000D03*
X133750000Y-68850000D03*
X133750000Y-66650000D03*
X133750000Y-73100000D03*
X133750000Y-70900000D03*
X137000000Y-70900000D03*
X137000000Y-73100000D03*
D31*
X73850000Y-85500000D03*
X71650000Y-85500000D03*
D16*
X137000000Y-66650000D03*
X137000000Y-68850000D03*
X121250000Y-116400000D03*
X121250000Y-118600000D03*
X93000000Y-101150000D03*
X93000000Y-103350000D03*
X95000000Y-103350000D03*
X95000000Y-101150000D03*
X97000000Y-101150000D03*
X97000000Y-103350000D03*
X129750000Y-143300000D03*
X129750000Y-145500000D03*
X111000000Y-143400000D03*
X111000000Y-145600000D03*
X120500000Y-143400000D03*
X120500000Y-145600000D03*
X99000000Y-103350000D03*
X99000000Y-101150000D03*
X91000000Y-101150000D03*
X91000000Y-103350000D03*
X101000000Y-101150000D03*
X101000000Y-103350000D03*
X103000000Y-103350000D03*
X103000000Y-101150000D03*
X105000000Y-101150000D03*
X105000000Y-103350000D03*
X107000000Y-103350000D03*
X107000000Y-101150000D03*
X109000000Y-101150000D03*
X109000000Y-103350000D03*
X91000000Y-87150000D03*
X91000000Y-89350000D03*
X93000000Y-89350000D03*
X93000000Y-87150000D03*
X94990000Y-87150000D03*
X94990000Y-89350000D03*
X96980000Y-87180000D03*
X96980000Y-89380000D03*
X99000000Y-89350000D03*
X99000000Y-87150000D03*
X101000000Y-87150000D03*
X101000000Y-89350000D03*
X103000000Y-89350000D03*
X103000000Y-87150000D03*
X105000000Y-87150000D03*
X105000000Y-89350000D03*
X107000000Y-89350000D03*
X107000000Y-87150000D03*
X109000000Y-89350000D03*
X109000000Y-87150000D03*
D31*
X128350000Y-77750000D03*
X126150000Y-77750000D03*
D33*
X120500000Y-140290000D03*
D34*
X120500000Y-137750000D03*
D40*
X57880000Y-83080000D03*
X62440000Y-83080000D03*
D41*
X60160000Y-76780000D03*
D42*
X61685000Y-75105000D03*
X58635000Y-78455000D03*
X58635000Y-75105000D03*
X61685000Y-78455000D03*
D40*
X117470000Y-89950000D03*
X122030000Y-89950000D03*
D41*
X119750000Y-83650000D03*
D42*
X121275000Y-81975000D03*
X118225000Y-85325000D03*
X118225000Y-81975000D03*
X121275000Y-85325000D03*
D43*
X96425000Y-98100000D03*
X97075000Y-98100000D03*
X97725000Y-98100000D03*
X98375000Y-98100000D03*
X99025000Y-98100000D03*
X99675000Y-98100000D03*
X100325000Y-98100000D03*
X100975000Y-98100000D03*
X101625000Y-98100000D03*
X102275000Y-98100000D03*
X102925000Y-98100000D03*
X103575000Y-98100000D03*
X103575000Y-92400000D03*
X102925000Y-92400000D03*
X102275000Y-92400000D03*
X101625000Y-92400000D03*
X100975000Y-92400000D03*
X100325000Y-92400000D03*
X99675000Y-92400000D03*
X99025000Y-92400000D03*
X98375000Y-92400000D03*
X97725000Y-92400000D03*
X97075000Y-92400000D03*
X96425000Y-92400000D03*
D44*
X102800000Y-81250000D03*
X102000000Y-81250000D03*
X101200000Y-81250000D03*
X100400000Y-81250000D03*
X99600000Y-81250000D03*
X98800000Y-81250000D03*
X98000000Y-81250000D03*
X97200000Y-81250000D03*
D45*
X95750000Y-79800000D03*
X95750000Y-79000000D03*
X95750000Y-78200000D03*
X95750000Y-77400000D03*
X95750000Y-76600000D03*
X95750000Y-75800000D03*
X95750000Y-75000000D03*
X95750000Y-74200000D03*
D44*
X97200000Y-72750000D03*
X98000000Y-72750000D03*
X98800000Y-72750000D03*
X99600000Y-72750000D03*
X100400000Y-72750000D03*
X101200000Y-72750000D03*
X102000000Y-72750000D03*
X102800000Y-72750000D03*
D45*
X104250000Y-74200000D03*
X104250000Y-75000000D03*
X104250000Y-75800000D03*
X104250000Y-76600000D03*
X104250000Y-77400000D03*
X104250000Y-78200000D03*
X104250000Y-79000000D03*
X104250000Y-79800000D03*
D42*
X102475000Y-124675000D03*
X105525000Y-128025000D03*
X105525000Y-124675000D03*
X102475000Y-128025000D03*
D41*
X104000000Y-126350000D03*
D40*
X101720000Y-120050000D03*
X106280000Y-120050000D03*
D46*
X140500000Y-115500000D03*
X140500000Y-120500000D03*
X75500000Y-138500000D03*
X75500000Y-137000000D03*
X75500000Y-140000000D03*
X75500000Y-141500000D03*
X75500000Y-143000000D03*
X75500000Y-144500000D03*
X81500000Y-143000000D03*
X81500000Y-144500000D03*
X94500000Y-143000000D03*
X94500000Y-141500000D03*
X81500000Y-141500000D03*
X81500000Y-140000000D03*
X77000000Y-137000000D03*
X78500000Y-137000000D03*
X94500000Y-140000000D03*
X81500000Y-138500000D03*
X81500000Y-137000000D03*
X80000000Y-137000000D03*
X90000000Y-137000000D03*
X88500000Y-138500000D03*
X88500000Y-137000000D03*
X94500000Y-144500000D03*
X88500000Y-144500000D03*
X88500000Y-143000000D03*
X88500000Y-140000000D03*
X88500000Y-141500000D03*
X132500000Y-110500000D03*
X134500000Y-110500000D03*
X136500000Y-110500000D03*
X134500000Y-108500000D03*
X134500000Y-106750000D03*
X136250000Y-102000000D03*
X134750000Y-102000000D03*
X106200000Y-130200000D03*
X107600000Y-130200000D03*
X107600000Y-128800000D03*
X107600000Y-127400000D03*
X107600000Y-126000000D03*
X107600000Y-124600000D03*
X107600000Y-123200000D03*
X103400000Y-130200000D03*
X102200000Y-130200000D03*
X120600000Y-89600000D03*
X120600000Y-90800000D03*
X123600000Y-89400000D03*
X123600000Y-90800000D03*
X123600000Y-88200000D03*
X132200000Y-122500000D03*
X118200000Y-123800000D03*
X139750000Y-122250000D03*
X135800000Y-130250000D03*
X119750000Y-118500000D03*
X135750000Y-122250000D03*
X121600000Y-87400000D03*
X120000000Y-87400000D03*
X118200000Y-87400000D03*
X116200000Y-85200000D03*
X116200000Y-84000000D03*
X116200000Y-82600000D03*
X116200000Y-81200000D03*
X111600000Y-81200000D03*
X111600000Y-83000000D03*
X114600000Y-85200000D03*
X112750000Y-85200000D03*
X113000000Y-92000000D03*
X114750000Y-92000000D03*
X140250000Y-97750000D03*
X140000000Y-102750000D03*
X141400000Y-93000000D03*
X135400000Y-91200000D03*
X141800000Y-89400000D03*
X135000000Y-81200000D03*
X138000000Y-120250000D03*
X135500000Y-70000000D03*
X128250000Y-79250000D03*
X125250000Y-76000000D03*
X123000000Y-76000000D03*
X120250000Y-74250000D03*
X123000000Y-74250000D03*
X117750000Y-76000000D03*
X117750000Y-74250000D03*
X120500000Y-76500000D03*
X115500000Y-76000000D03*
X121750000Y-78750000D03*
X116500000Y-78750000D03*
X62500000Y-84750000D03*
X63750000Y-85250000D03*
X60750000Y-88750000D03*
X62000000Y-88750000D03*
X58500000Y-88000000D03*
X58500000Y-86750000D03*
X58500000Y-85500000D03*
X85250000Y-121250000D03*
X84500000Y-126250000D03*
X84500000Y-125000000D03*
X84500000Y-123500000D03*
X84500000Y-122250000D03*
X85500000Y-127000000D03*
X86750000Y-127000000D03*
X88000000Y-127000000D03*
X90250000Y-126250000D03*
X89250000Y-127000000D03*
X95250000Y-123750000D03*
X94000000Y-121250000D03*
X92750000Y-121250000D03*
X95250000Y-122500000D03*
X94000000Y-122500000D03*
X95250000Y-121250000D03*
X90250000Y-125000000D03*
X91500000Y-121250000D03*
X90250000Y-122500000D03*
X92750000Y-122500000D03*
X89000000Y-121250000D03*
X90250000Y-123750000D03*
X91500000Y-122500000D03*
X90250000Y-121250000D03*
X86500000Y-121250000D03*
X87750000Y-121250000D03*
X75250000Y-68250000D03*
X60250000Y-68250000D03*
X62750000Y-68500000D03*
X65250000Y-68500000D03*
X67750000Y-68250000D03*
X62750000Y-66250000D03*
X67750000Y-66250000D03*
X70250000Y-68500000D03*
X73000000Y-68250000D03*
X73000000Y-66250000D03*
X70500000Y-84000000D03*
X105500000Y-117250000D03*
X83500000Y-85750000D03*
X70250000Y-101500000D03*
X70250000Y-96500000D03*
X62000000Y-72000000D03*
X66500000Y-72000000D03*
X71750000Y-72000000D03*
X70250000Y-93890000D03*
X70250000Y-91350000D03*
X70250000Y-99000000D03*
X129000000Y-92500000D03*
X131500000Y-115500000D03*
X133500000Y-115750000D03*
X135750000Y-113750000D03*
X133000000Y-96250000D03*
X132500000Y-95000000D03*
X132500000Y-108500000D03*
X132500000Y-106750000D03*
X136500000Y-106750000D03*
X136750000Y-114750000D03*
X136500000Y-112750000D03*
X93500000Y-92500000D03*
X92500000Y-72250000D03*
X93250000Y-77000000D03*
X126000000Y-93000000D03*
X123000000Y-101750000D03*
X141500000Y-103000000D03*
X133250000Y-102000000D03*
X129500000Y-98000000D03*
X127400000Y-102800000D03*
X94500000Y-73000000D03*
X105500000Y-76500000D03*
X97200000Y-77430000D03*
X95220000Y-98100000D03*
X82300000Y-67550000D03*
X77600000Y-62150000D03*
X84350000Y-62400000D03*
X89300000Y-65050000D03*
X95350000Y-64650000D03*
X104650000Y-64850000D03*
X110325000Y-61925000D03*
X111575000Y-67675000D03*
X116575000Y-64925000D03*
X121950000Y-61800000D03*
X141800000Y-97750000D03*
X109000000Y-104750000D03*
X107000000Y-104750000D03*
X104930000Y-104750000D03*
X103000000Y-104750000D03*
X101050000Y-104750000D03*
X98970000Y-104750000D03*
X96970000Y-104750000D03*
X95010000Y-104750000D03*
X93000000Y-104750000D03*
X91000000Y-104750000D03*
X91000000Y-85750000D03*
X93000000Y-85750000D03*
X95000000Y-85750000D03*
X97000000Y-85750000D03*
X99000000Y-85750000D03*
X101010000Y-85750000D03*
X102980000Y-85750000D03*
X104960000Y-85750000D03*
X107000000Y-85750000D03*
X109000000Y-85750000D03*
X97080000Y-93800000D03*
X97060000Y-96680000D03*
X128500000Y-96500000D03*
X104250000Y-99750000D03*
X108500000Y-99750000D03*
X95750000Y-100250000D03*
X127424999Y-80075001D03*
X98000000Y-130500000D03*
X119980000Y-107820000D03*
X112020000Y-107780000D03*
X136500000Y-108600000D03*
X92750000Y-137750000D03*
X94075000Y-138575000D03*
X67375000Y-84625000D03*
X69995000Y-82005000D03*
X70995000Y-82005000D03*
X69540000Y-89040000D03*
X59500000Y-88750000D03*
X63250000Y-88750000D03*
X63750000Y-87750000D03*
X59500000Y-84750000D03*
X60750000Y-84750000D03*
X63750000Y-86500000D03*
X121000000Y-92000000D03*
X123000000Y-92000000D03*
X122000000Y-91000000D03*
X102500000Y-77500000D03*
X144500000Y-87000000D03*
X126000000Y-97250000D03*
X105000000Y-130200000D03*
X70250000Y-66250000D03*
X65250000Y-66250000D03*
X130820000Y-96680000D03*
X124250000Y-97250000D03*
X128500000Y-104500000D03*
X131700000Y-120500000D03*
X126250000Y-122250000D03*
D47*
X96425000Y-98100000D02*
X95220000Y-98100000D01*
X107000000Y-76050000D02*
X106950000Y-76000000D01*
X106950000Y-76000000D02*
X106126408Y-76000000D01*
X105626408Y-76500000D02*
X105500000Y-76500000D01*
X106126408Y-76000000D02*
X105626408Y-76500000D01*
X105400000Y-76600000D02*
X105500000Y-76500000D01*
X104250000Y-76600000D02*
X105400000Y-76600000D01*
X104150000Y-63000000D02*
X104650000Y-63500000D01*
X104150000Y-61000000D02*
X104150000Y-63000000D01*
X104650000Y-65500000D02*
X105150000Y-66000000D01*
X104650000Y-63500000D02*
X104650000Y-64850000D01*
X95850000Y-63000000D02*
X95350000Y-63500000D01*
X95850000Y-61000000D02*
X95850000Y-63000000D01*
X95350000Y-65500000D02*
X94850000Y-66000000D01*
X95350000Y-63500000D02*
X95350000Y-64650000D01*
X97170000Y-77400000D02*
X97200000Y-77430000D01*
X95750000Y-77400000D02*
X97170000Y-77400000D01*
X115400000Y-62500000D02*
X116400000Y-63500000D01*
X115400000Y-61000000D02*
X115400000Y-62500000D01*
X116400000Y-64750000D02*
X116575000Y-64925000D01*
X116400000Y-63500000D02*
X116400000Y-64750000D01*
X90450000Y-62400000D02*
X89350000Y-63500000D01*
X90450000Y-61000000D02*
X90450000Y-62400000D01*
X89350000Y-65000000D02*
X89300000Y-65050000D01*
X89350000Y-63500000D02*
X89350000Y-65000000D01*
X88350000Y-67500000D02*
X87350000Y-68500000D01*
X88350000Y-66000000D02*
X88350000Y-67500000D01*
X84350000Y-62500000D02*
X83350000Y-63500000D01*
X84350000Y-61000000D02*
X84350000Y-62400000D01*
X82350000Y-67500000D02*
X82300000Y-67550000D01*
X82350000Y-66000000D02*
X82350000Y-67500000D01*
X117650000Y-67750000D02*
X118400000Y-68500000D01*
X117650000Y-66000000D02*
X117650000Y-67750000D01*
X121150000Y-61000000D02*
X122850000Y-61000000D01*
X122400000Y-62250000D02*
X121950000Y-61800000D01*
X122400000Y-63500000D02*
X122400000Y-62250000D01*
X77600000Y-62000000D02*
X78600000Y-61000000D01*
X77600000Y-63500000D02*
X77600000Y-62150000D01*
X76900000Y-61000000D02*
X78600000Y-61000000D01*
X111400000Y-67500000D02*
X111400000Y-66000000D01*
X112400000Y-68500000D02*
X111575000Y-67675000D01*
X111400000Y-64500000D02*
X110400000Y-63500000D01*
X111400000Y-66000000D02*
X111400000Y-64500000D01*
X110400000Y-62000000D02*
X110325000Y-61925000D01*
X110400000Y-63500000D02*
X110400000Y-62000000D01*
X93250000Y-76450000D02*
X93750000Y-75950000D01*
X93250000Y-77000000D02*
X93250000Y-76450000D01*
X82300000Y-67550000D02*
X81350000Y-68500000D01*
X77600000Y-62150000D02*
X77600000Y-62000000D01*
X84350000Y-62400000D02*
X84350000Y-62500000D01*
X89300000Y-65050000D02*
X88350000Y-66000000D01*
X95350000Y-64650000D02*
X95350000Y-65500000D01*
X104650000Y-64850000D02*
X104650000Y-65500000D01*
X110325000Y-61925000D02*
X109400000Y-61000000D01*
X111575000Y-67675000D02*
X111400000Y-67500000D01*
X116575000Y-64925000D02*
X117650000Y-66000000D01*
X121950000Y-61800000D02*
X121150000Y-61000000D01*
X91000000Y-85750000D02*
X91000000Y-87150000D01*
X93000000Y-85750000D02*
X93000000Y-87150000D01*
X95000000Y-87140000D02*
X94990000Y-87150000D01*
X95000000Y-85750000D02*
X95000000Y-87140000D01*
X97000000Y-87160000D02*
X96980000Y-87180000D01*
X97000000Y-85750000D02*
X97000000Y-87160000D01*
X99000000Y-85750000D02*
X99000000Y-87150000D01*
X101010000Y-87140000D02*
X101000000Y-87150000D01*
X101010000Y-85750000D02*
X101010000Y-87140000D01*
X102980000Y-87130000D02*
X103000000Y-87150000D01*
X102980000Y-85750000D02*
X102980000Y-87130000D01*
X104960000Y-87110000D02*
X105000000Y-87150000D01*
X104960000Y-85750000D02*
X104960000Y-87110000D01*
X109000000Y-85750000D02*
X109000000Y-87150000D01*
X107000000Y-85750000D02*
X107000000Y-87150000D01*
X91000000Y-87150000D02*
X91000000Y-87150000D01*
X97075000Y-93795000D02*
X97080000Y-93800000D01*
X97075000Y-92400000D02*
X97075000Y-93795000D01*
X106450000Y-77400000D02*
X107000000Y-77950000D01*
X104250000Y-77400000D02*
X106450000Y-77400000D01*
X92000000Y-72750000D02*
X92500000Y-72250000D01*
X92000000Y-73650000D02*
X92000000Y-72750000D01*
X94700000Y-75000000D02*
X95750000Y-75000000D01*
X93750000Y-74050000D02*
X94700000Y-75000000D01*
X92000000Y-75800000D02*
X93750000Y-74050000D01*
X92000000Y-75850000D02*
X92000000Y-75800000D01*
X109000000Y-104750000D02*
X109000000Y-103350000D01*
X107000000Y-103350000D02*
X107000000Y-104750000D01*
X105000000Y-104680000D02*
X104930000Y-104750000D01*
X105000000Y-103350000D02*
X105000000Y-104680000D01*
X103000000Y-103350000D02*
X103000000Y-104750000D01*
X101000000Y-104700000D02*
X101050000Y-104750000D01*
X101000000Y-103350000D02*
X101000000Y-104700000D01*
X99000000Y-104720000D02*
X98970000Y-104750000D01*
X99000000Y-103350000D02*
X99000000Y-104720000D01*
X97000000Y-104720000D02*
X96970000Y-104750000D01*
X97000000Y-103350000D02*
X97000000Y-104720000D01*
X95000000Y-104740000D02*
X95010000Y-104750000D01*
X95000000Y-103350000D02*
X95000000Y-103350000D01*
X93000000Y-103350000D02*
X93000000Y-104750000D01*
X91000000Y-103350000D02*
X91000000Y-104750000D01*
X95000000Y-103350000D02*
X95000000Y-104740000D01*
X97075000Y-96695000D02*
X97060000Y-96680000D01*
X97075000Y-98100000D02*
X97075000Y-96695000D01*
X92242178Y-79000000D02*
X90324979Y-77082801D01*
X95750000Y-79000000D02*
X92242178Y-79000000D01*
X90324979Y-77082801D02*
X90324979Y-71425021D01*
X91650000Y-62864998D02*
X92000000Y-62514998D01*
X91650000Y-66000000D02*
X91650000Y-62864998D01*
X92000000Y-62514998D02*
X92000000Y-60000000D01*
X92000000Y-60000000D02*
X91250000Y-59250000D01*
X90280000Y-59250000D02*
X88570000Y-57540000D01*
X91250000Y-59250000D02*
X90280000Y-59250000D01*
X98000000Y-71736410D02*
X99875011Y-69861399D01*
X98000000Y-72750000D02*
X98000000Y-71736410D01*
X99875011Y-61974989D02*
X100850000Y-61000000D01*
X99875011Y-69861399D02*
X99875011Y-61974989D01*
X100850000Y-57960000D02*
X101270000Y-57540000D01*
X100850000Y-61000000D02*
X100850000Y-57960000D01*
X104748583Y-68672829D02*
X106750000Y-66671412D01*
X101200000Y-72750000D02*
X101200000Y-71900000D01*
X104427170Y-68672830D02*
X104748583Y-68672829D01*
X101200000Y-71900000D02*
X104427170Y-68672830D01*
X106750000Y-64100000D02*
X107350000Y-63500000D01*
X106750000Y-64750000D02*
X106750000Y-64100000D01*
X106750000Y-64750000D02*
X106750000Y-64600000D01*
X106750000Y-66671412D02*
X106750000Y-64750000D01*
X107649990Y-58780010D02*
X108890000Y-57540000D01*
X107649990Y-61100010D02*
X107649990Y-58780010D01*
X107100000Y-61650000D02*
X107649990Y-61100010D01*
X107100000Y-63500000D02*
X107100000Y-61650000D01*
X93219358Y-81250000D02*
X89424959Y-77455601D01*
X89424959Y-77455601D02*
X89424959Y-73924959D01*
X97200000Y-81250000D02*
X93219358Y-81250000D01*
X89424959Y-73924959D02*
X86574999Y-71074999D01*
X86574999Y-67639999D02*
X87464998Y-66750000D01*
X86574999Y-71074999D02*
X86574999Y-67639999D01*
X87464998Y-65250000D02*
X88500000Y-64214998D01*
X87464998Y-66750000D02*
X87464998Y-65250000D01*
X88500000Y-61850000D02*
X87650000Y-61000000D01*
X88500000Y-64214998D02*
X88500000Y-61850000D01*
X84854999Y-56175001D02*
X86030000Y-55000000D01*
X87650000Y-61000000D02*
X84854999Y-58204999D01*
X84854999Y-58204999D02*
X84854999Y-56175001D01*
X95750000Y-74200000D02*
X95750000Y-72077180D01*
X97900000Y-69927180D02*
X97900000Y-66000000D01*
X95750000Y-72077180D02*
X97900000Y-69927180D01*
X94825001Y-56175001D02*
X93650000Y-55000000D01*
X94825001Y-57914003D02*
X94825001Y-56175001D01*
X96625001Y-59714003D02*
X94825001Y-57914003D01*
X96625001Y-64475001D02*
X96625001Y-59714003D01*
X98150000Y-66000000D02*
X96625001Y-64475001D01*
X97924999Y-82175001D02*
X95925001Y-82175001D01*
X98000000Y-81250000D02*
X98000000Y-82100000D01*
X98000000Y-82100000D02*
X97924999Y-82175001D01*
X95925001Y-82175001D02*
X95450010Y-81700010D01*
X93032957Y-81700009D02*
X88974950Y-77642002D01*
X95450010Y-81700010D02*
X93032957Y-81700009D01*
X88974950Y-77642002D02*
X88974950Y-74111360D01*
X86124989Y-71261399D02*
X86124990Y-67453598D01*
X88974950Y-74111360D02*
X86124989Y-71261399D01*
X86124990Y-67453598D02*
X87014988Y-66563600D01*
X87014988Y-63864988D02*
X86650000Y-63500000D01*
X87014988Y-66563600D02*
X87014988Y-63864988D01*
X83553590Y-57540000D02*
X83490000Y-57540000D01*
X86100010Y-60086420D02*
X83553590Y-57540000D01*
X86100010Y-61085012D02*
X86100010Y-60086420D01*
X86900000Y-61885002D02*
X86100010Y-61085012D01*
X86900000Y-63500000D02*
X86900000Y-61885002D01*
X93750000Y-69750000D02*
X93750000Y-61000000D01*
X91224999Y-72275001D02*
X93750000Y-69750000D01*
X95064998Y-76600000D02*
X93915008Y-77749990D01*
X95750000Y-76600000D02*
X95064998Y-76600000D01*
X92264988Y-77749990D02*
X91224999Y-76710001D01*
X93915008Y-77749990D02*
X92264988Y-77749990D01*
X91224999Y-76710001D02*
X91224999Y-72275001D01*
X93650000Y-61000000D02*
X93650000Y-57540000D01*
X98800000Y-71900000D02*
X100325021Y-70374979D01*
X98800000Y-72750000D02*
X98800000Y-71900000D01*
X100325021Y-64524979D02*
X101350000Y-63500000D01*
X100325021Y-70374979D02*
X100325021Y-64524979D01*
X102445001Y-56175001D02*
X101270000Y-55000000D01*
X102445001Y-62404999D02*
X102445001Y-56175001D01*
X101350000Y-63500000D02*
X102445001Y-62404999D01*
X108064998Y-66000000D02*
X108350000Y-66000000D01*
X102000000Y-72064998D02*
X108064998Y-66000000D01*
X102000000Y-72750000D02*
X102000000Y-72064998D01*
X110065001Y-58063587D02*
X110065001Y-56175001D01*
X110065001Y-56175001D02*
X108890000Y-55000000D01*
X108100000Y-60028588D02*
X110065001Y-58063587D01*
X108100000Y-66000000D02*
X108100000Y-60028588D01*
X97730001Y-90305001D02*
X95945001Y-90305001D01*
X95945001Y-90305001D02*
X94990000Y-89350000D01*
X99025000Y-91600000D02*
X97730001Y-90305001D01*
X99025000Y-92400000D02*
X99025000Y-91600000D01*
X81900000Y-64850000D02*
X81900000Y-61000000D01*
X82704360Y-69750000D02*
X80964998Y-69750000D01*
X80574999Y-66175001D02*
X81900000Y-64850000D01*
X87500000Y-74545640D02*
X82704360Y-69750000D01*
X80964998Y-69750000D02*
X80574999Y-69360001D01*
X80574999Y-69360001D02*
X80574999Y-66175001D01*
X81870000Y-61000000D02*
X78410000Y-57540000D01*
X81900000Y-61000000D02*
X81870000Y-61000000D01*
X93775001Y-84351283D02*
X87500000Y-78076282D01*
X93775001Y-88135001D02*
X93775001Y-84351283D01*
X87500000Y-78076282D02*
X87500000Y-74545640D01*
X94990000Y-89350000D02*
X93775001Y-88135001D01*
X80574999Y-63825001D02*
X80900000Y-63500000D01*
X98974991Y-63944991D02*
X98530000Y-63500000D01*
X98974991Y-69488599D02*
X98974991Y-63944991D01*
X96574999Y-71888591D02*
X98974991Y-69488599D01*
X95750000Y-75800000D02*
X96435002Y-75800000D01*
X96435002Y-75800000D02*
X96675001Y-75560001D01*
X96675001Y-73675001D02*
X96574999Y-73574999D01*
X96675001Y-75560001D02*
X96675001Y-73675001D01*
X96574999Y-73574999D02*
X96574999Y-71888591D01*
X98374999Y-59724999D02*
X96190000Y-57540000D01*
X98374999Y-63224999D02*
X98374999Y-59724999D01*
X98650000Y-63500000D02*
X98374999Y-63224999D01*
X94405011Y-90755011D02*
X93000000Y-89350000D01*
X98375000Y-91600000D02*
X97530011Y-90755011D01*
X97530011Y-90755011D02*
X94405011Y-90755011D01*
X98375000Y-92400000D02*
X98375000Y-91600000D01*
X80124989Y-64275011D02*
X80900000Y-63500000D01*
X80124989Y-69874989D02*
X80124989Y-64275011D01*
X87049990Y-76799990D02*
X80124989Y-69874989D01*
X80900000Y-61769002D02*
X77880998Y-58750000D01*
X80900000Y-63500000D02*
X80900000Y-61769002D01*
X77080000Y-58750000D02*
X75870000Y-57540000D01*
X77880998Y-58750000D02*
X77080000Y-58750000D01*
X87049990Y-78262682D02*
X87049990Y-76799990D01*
X92224999Y-83437691D02*
X87049990Y-78262682D01*
X92224999Y-88574999D02*
X92224999Y-83437691D01*
X93000000Y-89350000D02*
X92224999Y-88574999D01*
X119625011Y-69546401D02*
X119625011Y-64025011D01*
X109371412Y-79800000D02*
X119625011Y-69546401D01*
X119625011Y-64025011D02*
X119100000Y-63500000D01*
X104250000Y-79800000D02*
X109371412Y-79800000D01*
X119100000Y-61164998D02*
X120264998Y-60000000D01*
X119100000Y-63500000D02*
X119100000Y-61164998D01*
X121670000Y-60000000D02*
X124130000Y-57540000D01*
X120264998Y-60000000D02*
X121670000Y-60000000D01*
X102800000Y-72750000D02*
X102800000Y-72700000D01*
X102800000Y-72700000D02*
X106750000Y-68750000D01*
X99600000Y-71736410D02*
X100775031Y-70561379D01*
X99600000Y-72750000D02*
X99600000Y-71736410D01*
X100775031Y-67074969D02*
X101850000Y-66000000D01*
X100775031Y-70561379D02*
X100775031Y-67074969D01*
X92078588Y-78200000D02*
X90774989Y-76896401D01*
X95750000Y-78200000D02*
X92078588Y-78200000D01*
X90774989Y-76896401D02*
X90774989Y-71975011D01*
X92855021Y-91205021D02*
X91000000Y-89350000D01*
X97330021Y-91205021D02*
X92855021Y-91205021D01*
X97725000Y-91600000D02*
X97330021Y-91205021D01*
X97725000Y-92400000D02*
X97725000Y-91600000D01*
X95750000Y-79800000D02*
X92405768Y-79800000D01*
X92405768Y-79800000D02*
X89874969Y-77269201D01*
X99425001Y-61275001D02*
X99150000Y-61000000D01*
X99425001Y-69674999D02*
X99425001Y-61275001D01*
X97200000Y-71900000D02*
X99425001Y-69674999D01*
X97200000Y-72750000D02*
X97200000Y-71900000D01*
X105761409Y-75625001D02*
X110236392Y-71150018D01*
X104424999Y-75625001D02*
X105761409Y-75625001D01*
X104250000Y-75800000D02*
X104424999Y-75625001D01*
X112657804Y-71150018D02*
X114075020Y-69732800D01*
X110236392Y-71150018D02*
X112657804Y-71150018D01*
X114075020Y-66274980D02*
X114350000Y-66000000D01*
X114075020Y-69732800D02*
X114075020Y-66274980D01*
X114100000Y-59950000D02*
X116510000Y-57540000D01*
X114100000Y-66000000D02*
X114100000Y-59950000D01*
X108850000Y-68750000D02*
X109100000Y-68500000D01*
X106750000Y-68750000D02*
X108850000Y-68750000D01*
X101850000Y-66000000D02*
X103374999Y-64475001D01*
X103374999Y-57975001D02*
X103810000Y-57540000D01*
X103374999Y-64475001D02*
X103374999Y-57975001D01*
X92500000Y-70250000D02*
X92500000Y-69250000D01*
X91500000Y-71250000D02*
X92500000Y-70250000D01*
X90774989Y-71975011D02*
X91500000Y-71250000D01*
X92500000Y-69250000D02*
X92500000Y-63500000D01*
X92650000Y-59080000D02*
X91110000Y-57540000D01*
X92650000Y-63500000D02*
X92650000Y-59080000D01*
X75870000Y-55254998D02*
X75870000Y-55000000D01*
X73600000Y-57524998D02*
X75870000Y-55254998D01*
X73600000Y-63986410D02*
X73600000Y-57524998D01*
X86599980Y-76986390D02*
X73600000Y-63986410D01*
X90224999Y-88010001D02*
X90224999Y-82074101D01*
X91000000Y-89350000D02*
X91000000Y-88785002D01*
X91000000Y-88785002D02*
X90224999Y-88010001D01*
X86599980Y-78449082D02*
X86599980Y-76986390D01*
X90224999Y-82074101D02*
X86599980Y-78449082D01*
X109209991Y-79325011D02*
X119175001Y-69360001D01*
X106178599Y-79325011D02*
X109209991Y-79325011D01*
X105853588Y-79000000D02*
X106178599Y-79325011D01*
X104250000Y-79000000D02*
X105853588Y-79000000D01*
X117850000Y-63885002D02*
X117850000Y-61000000D01*
X119175001Y-65210003D02*
X117850000Y-63885002D01*
X119175001Y-69360001D02*
X119175001Y-65210003D01*
X117600000Y-61000000D02*
X118628588Y-61000000D01*
X121590000Y-58038588D02*
X121590000Y-57540000D01*
X118628588Y-61000000D02*
X121590000Y-58038588D01*
X104250000Y-75000000D02*
X105750000Y-75000000D01*
X105750000Y-75000000D02*
X110049990Y-70700010D01*
X113625011Y-69546401D02*
X113625010Y-67453598D01*
X110049990Y-70700010D02*
X112471403Y-70700009D01*
X112471403Y-70700009D02*
X113625011Y-69546401D01*
X113235012Y-67063600D02*
X113235012Y-63635012D01*
X113235012Y-63635012D02*
X113100000Y-63500000D01*
X113625010Y-67453598D02*
X113235012Y-67063600D01*
X115334999Y-56175001D02*
X116510000Y-55000000D01*
X115334999Y-58078591D02*
X115334999Y-56175001D01*
X113100000Y-60313590D02*
X115334999Y-58078591D01*
X113100000Y-63500000D02*
X113100000Y-60313590D01*
X89874969Y-68775031D02*
X90150000Y-68500000D01*
X89874969Y-77269201D02*
X89874969Y-68775031D01*
X88190010Y-59700010D02*
X86030000Y-57540000D01*
X90685012Y-59700010D02*
X88190010Y-59700010D01*
X91125001Y-60139999D02*
X90685012Y-59700010D01*
X91125001Y-62424999D02*
X91125001Y-60139999D01*
X90650000Y-62900000D02*
X91125001Y-62424999D01*
X90650000Y-68500000D02*
X90650000Y-62900000D01*
X99150000Y-57960000D02*
X98730000Y-57540000D01*
X99150000Y-61000000D02*
X99150000Y-57960000D01*
X126150000Y-63657822D02*
X126150000Y-61000000D01*
X108557822Y-81250000D02*
X126150000Y-63657822D01*
X102800000Y-81250000D02*
X108557822Y-81250000D01*
X125305001Y-60155001D02*
X126150000Y-61000000D01*
X125305001Y-56175001D02*
X125305001Y-60155001D01*
X124130000Y-55000000D02*
X125305001Y-56175001D01*
X104250000Y-74200000D02*
X105300000Y-74200000D01*
X105300000Y-74200000D02*
X109250000Y-70250000D01*
X113175001Y-67639999D02*
X112785002Y-67250000D01*
X109250000Y-70250000D02*
X112250000Y-70250000D01*
X113175001Y-69360001D02*
X113175001Y-67639999D01*
X112250000Y-70250000D02*
X112285002Y-70250000D01*
X112285002Y-70250000D02*
X113175001Y-69360001D01*
X112785002Y-65500000D02*
X112035002Y-64750000D01*
X112785002Y-67250000D02*
X112785002Y-65500000D01*
X112035002Y-61064998D02*
X112100000Y-61000000D01*
X112035002Y-64750000D02*
X112035002Y-61064998D01*
X112100000Y-59410000D02*
X113970000Y-57540000D01*
X112100000Y-61000000D02*
X112100000Y-59410000D01*
X106364999Y-78875001D02*
X107635001Y-78875001D01*
X104250000Y-78200000D02*
X105689998Y-78200000D01*
X105689998Y-78200000D02*
X106364999Y-78875001D01*
X115100000Y-71410002D02*
X115100000Y-68500000D01*
X107635001Y-78875001D02*
X115100000Y-71410002D01*
X115624999Y-67975001D02*
X115100000Y-68500000D01*
X115624999Y-63361409D02*
X115624999Y-67975001D01*
X114624999Y-62361409D02*
X115624999Y-63361409D01*
X119050000Y-58774999D02*
X117750000Y-60074999D01*
X114624999Y-60139999D02*
X114624999Y-62361409D01*
X119050000Y-57540000D02*
X119050000Y-58774999D01*
X117750000Y-60074999D02*
X114689999Y-60074999D01*
X114689999Y-60074999D02*
X114624999Y-60139999D01*
X101000000Y-98125000D02*
X100975000Y-98100000D01*
X101000000Y-101150000D02*
X101000000Y-98125000D01*
X105850000Y-92400000D02*
X109000000Y-89250000D01*
X103575000Y-92400000D02*
X105850000Y-92400000D01*
X101625000Y-99775000D02*
X101625000Y-98100000D01*
X103000000Y-101150000D02*
X101625000Y-99775000D01*
X107000000Y-100750000D02*
X105225001Y-98975001D01*
X107000000Y-101150000D02*
X107000000Y-100750000D01*
X102925000Y-98900000D02*
X102925000Y-98100000D01*
X103000001Y-98975001D02*
X102925000Y-98900000D01*
X105225001Y-98975001D02*
X103000001Y-98975001D01*
X101625000Y-93488590D02*
X101625000Y-92400000D01*
X86668591Y-94805001D02*
X87063600Y-95200010D01*
X82935999Y-94805001D02*
X86668591Y-94805001D01*
X87063600Y-95200010D02*
X99913580Y-95200010D01*
X82324999Y-94194001D02*
X82935999Y-94805001D01*
X82324999Y-92265001D02*
X82324999Y-94194001D01*
X99913580Y-95200010D02*
X101625000Y-93488590D01*
X83500000Y-91090000D02*
X82324999Y-92265001D01*
X100408591Y-95954999D02*
X102275000Y-94088590D01*
X86255001Y-95954999D02*
X100408591Y-95954999D01*
X102275000Y-94088590D02*
X102275000Y-92400000D01*
X83500000Y-98710000D02*
X86255001Y-95954999D01*
X132340000Y-109000000D02*
X132340000Y-107090000D01*
X133610000Y-107110000D02*
X133500000Y-107000000D01*
X133610000Y-109000000D02*
X133610000Y-107110000D01*
X136150000Y-107150000D02*
X136000000Y-107000000D01*
X136150000Y-109000000D02*
X136150000Y-108600000D01*
X105000000Y-101150000D02*
X105000000Y-101150000D01*
X105000000Y-100500000D02*
X104250000Y-99750000D01*
X105000000Y-101150000D02*
X105000000Y-100500000D01*
X102275000Y-98886410D02*
X102275000Y-98100000D01*
X103138590Y-99750000D02*
X102275000Y-98886410D01*
X104250000Y-99750000D02*
X103138590Y-99750000D01*
X109000000Y-101150000D02*
X109000000Y-101150000D01*
X103575000Y-98100000D02*
X106850000Y-98100000D01*
X109000000Y-100250000D02*
X109000000Y-101150000D01*
X106850000Y-98100000D02*
X109000000Y-100250000D01*
X97725000Y-98100000D02*
X97725000Y-98785002D01*
X97725000Y-98785002D02*
X97510002Y-99000000D01*
X97510002Y-99000000D02*
X93000000Y-99000000D01*
X91000000Y-101000000D02*
X91000000Y-101150000D01*
X93000000Y-99000000D02*
X91000000Y-101000000D01*
X98375000Y-98100000D02*
X98375000Y-98785002D01*
X98080001Y-99080001D02*
X98066411Y-99080001D01*
X98066411Y-99080001D02*
X97696402Y-99450010D01*
X98375000Y-98785002D02*
X98080001Y-99080001D01*
X97696402Y-99450010D02*
X93549990Y-99450010D01*
X93000000Y-100000000D02*
X93000000Y-101150000D01*
X93549990Y-99450010D02*
X93000000Y-100000000D01*
X95925001Y-100224999D02*
X95075000Y-101075000D01*
X97700001Y-100224999D02*
X95925001Y-100224999D01*
X99025000Y-98900000D02*
X97700001Y-100224999D01*
X99025000Y-98100000D02*
X99025000Y-98900000D01*
X95075000Y-101075000D02*
X95000000Y-101150000D01*
X96325000Y-92500000D02*
X96425000Y-92400000D01*
X95000000Y-92500000D02*
X96325000Y-92500000D01*
X97455000Y-89380000D02*
X96980000Y-89380000D01*
X99675000Y-91600000D02*
X97455000Y-89380000D01*
X99675000Y-92400000D02*
X99675000Y-91600000D01*
X79585001Y-56175001D02*
X78410000Y-55000000D01*
X79585001Y-57914003D02*
X79585001Y-56175001D01*
X81488591Y-58715001D02*
X80385999Y-58715001D01*
X82675001Y-59901411D02*
X81488591Y-58715001D01*
X82675001Y-64210003D02*
X82675001Y-59901411D01*
X80385999Y-58715001D02*
X79585001Y-57914003D01*
X84650000Y-66185002D02*
X82675001Y-64210003D01*
X84650000Y-68500000D02*
X84650000Y-66185002D01*
X84650000Y-71059230D02*
X84650000Y-68500000D01*
X88000000Y-77939872D02*
X88000000Y-74409230D01*
X96980000Y-89380000D02*
X96204999Y-88604999D01*
X88000000Y-74409230D02*
X84650000Y-71059230D01*
X96204999Y-88604999D02*
X96204999Y-85204999D01*
X96204999Y-85204999D02*
X93719936Y-82719936D01*
X93719936Y-82719936D02*
X92780064Y-82719936D01*
X92780064Y-82719936D02*
X88000000Y-77939872D01*
X88500000Y-74272820D02*
X85674980Y-71447798D01*
X85674980Y-66024980D02*
X85650000Y-66000000D01*
X85674980Y-71447798D02*
X85674980Y-66024980D01*
X82125001Y-58715001D02*
X80950000Y-57540000D01*
X83700003Y-58715001D02*
X82125001Y-58715001D01*
X85650000Y-60664998D02*
X83700003Y-58715001D01*
X85650000Y-66000000D02*
X85650000Y-60664998D01*
X92846556Y-82150018D02*
X88500000Y-77803462D01*
X94473021Y-82150019D02*
X92846556Y-82150018D01*
X88500000Y-77803462D02*
X88500000Y-74272820D01*
X98224999Y-85901997D02*
X94473021Y-82150019D01*
X98224999Y-88574999D02*
X98224999Y-85901997D01*
X99000000Y-89350000D02*
X98224999Y-88574999D01*
X100325000Y-99825000D02*
X99000000Y-101150000D01*
X100325000Y-98100000D02*
X100325000Y-99825000D01*
X137170000Y-110750000D02*
X137420000Y-110500000D01*
X137420000Y-110500000D02*
X137420000Y-109000000D01*
D48*
X67375000Y-82880000D02*
X66500000Y-82005000D01*
X67375000Y-86750000D02*
X67375000Y-84625000D01*
X72555000Y-82005000D02*
X72750000Y-82200000D01*
X66500000Y-82005000D02*
X69995000Y-82005000D01*
D47*
X69665000Y-89040000D02*
X67375000Y-86750000D01*
D49*
X92750000Y-139900000D02*
X91450000Y-141200000D01*
X92750000Y-127400000D02*
X92750000Y-137750000D01*
X98625000Y-134025000D02*
X94075000Y-138575000D01*
X98625000Y-132750000D02*
X98625000Y-134025000D01*
X98000000Y-132125000D02*
X98625000Y-132750000D01*
X98000000Y-127875000D02*
X98000000Y-130500000D01*
X97525000Y-127400000D02*
X98000000Y-127875000D01*
D47*
X127424999Y-80950001D02*
X125750000Y-82625000D01*
X127424999Y-75825001D02*
X127424999Y-80075001D01*
X128000000Y-75250000D02*
X127424999Y-75825001D01*
X136400000Y-70900000D02*
X135500000Y-70000000D01*
X137000000Y-70900000D02*
X136400000Y-70900000D01*
X134350000Y-68850000D02*
X135500000Y-70000000D01*
X133750000Y-68850000D02*
X134350000Y-68850000D01*
X124250000Y-103000000D02*
X123000000Y-101750000D01*
X124250000Y-103285000D02*
X124250000Y-103000000D01*
X127424999Y-80075001D02*
X127424999Y-80950001D01*
X105900000Y-116850000D02*
X105500000Y-117250000D01*
X106750000Y-116850000D02*
X105900000Y-116850000D01*
D49*
X98000000Y-130500000D02*
X98000000Y-132125000D01*
D47*
X119980000Y-106250000D02*
X119980000Y-107820000D01*
X112020000Y-109250000D02*
X112020000Y-107780000D01*
X141950000Y-89250000D02*
X141800000Y-89400000D01*
X146605000Y-89250000D02*
X141950000Y-89250000D01*
X141485000Y-92915000D02*
X141400000Y-93000000D01*
X143975000Y-92915000D02*
X141485000Y-92915000D01*
X134975000Y-91625000D02*
X135400000Y-91200000D01*
X134975000Y-92915000D02*
X134975000Y-91625000D01*
X135140000Y-90940000D02*
X135400000Y-91200000D01*
X133850000Y-90940000D02*
X135140000Y-90940000D01*
X134644999Y-80844999D02*
X135000000Y-81200000D01*
X134644999Y-78855000D02*
X134644999Y-80844999D01*
X133849999Y-82350001D02*
X135000000Y-81200000D01*
X133849999Y-83160001D02*
X133849999Y-82350001D01*
X119980000Y-107820000D02*
X119980000Y-109250000D01*
X112020000Y-107780000D02*
X112020000Y-106250000D01*
D48*
X113000000Y-89625000D02*
X113750000Y-88875000D01*
X113000000Y-92000000D02*
X113000000Y-89625000D01*
X114750000Y-89875000D02*
X113750000Y-88875000D01*
X114750000Y-92000000D02*
X114750000Y-89875000D01*
D47*
X141800000Y-99550000D02*
X142250000Y-100000000D01*
X141800000Y-97750000D02*
X141800000Y-99550000D01*
X142250000Y-102250000D02*
X142250000Y-100000000D01*
X141500000Y-103000000D02*
X142250000Y-102250000D01*
X136150000Y-108600000D02*
X136150000Y-107150000D01*
X132200000Y-123900000D02*
X132200000Y-122500000D01*
D49*
X92750000Y-137750000D02*
X92750000Y-139900000D01*
X94075000Y-138575000D02*
X91450000Y-141200000D01*
X75500000Y-144500000D02*
X82000000Y-144500000D01*
X86799999Y-142799999D02*
X88500000Y-144500000D01*
X83700001Y-142799999D02*
X86799999Y-142799999D01*
X82000000Y-144500000D02*
X83700001Y-142799999D01*
X94500000Y-144500000D02*
X88500000Y-144500000D01*
X75899999Y-142600001D02*
X75500000Y-143000000D01*
X94100001Y-142600001D02*
X75899999Y-142600001D01*
X94500000Y-143000000D02*
X94100001Y-142600001D01*
X75500000Y-141500000D02*
X94500000Y-141500000D01*
X94500000Y-140000000D02*
X75500000Y-140000000D01*
X94000000Y-138500000D02*
X94075000Y-138575000D01*
X75500000Y-138500000D02*
X94000000Y-138500000D01*
X76250000Y-137750000D02*
X75500000Y-138500000D01*
X92750000Y-137750000D02*
X76250000Y-137750000D01*
X92000000Y-137000000D02*
X92750000Y-137750000D01*
X75500000Y-137000000D02*
X92000000Y-137000000D01*
X94500000Y-139500000D02*
X92750000Y-137750000D01*
X94500000Y-144500000D02*
X94500000Y-139500000D01*
X75500000Y-144500000D02*
X75500000Y-137000000D01*
D47*
X142250000Y-117250000D02*
X142250000Y-118000000D01*
X140500000Y-115500000D02*
X142250000Y-117250000D01*
X142250000Y-118750000D02*
X142250000Y-118000000D01*
X140500000Y-120500000D02*
X142250000Y-118750000D01*
X74400000Y-89040000D02*
X69540000Y-89040000D01*
D48*
X67375000Y-84625000D02*
X67375000Y-82880000D01*
X69995000Y-82005000D02*
X70995000Y-82005000D01*
X70995000Y-82005000D02*
X72555000Y-82005000D01*
D47*
X69540000Y-89040000D02*
X69540000Y-89040000D01*
D49*
X62440000Y-85435000D02*
X61937500Y-85937500D01*
X62440000Y-83080000D02*
X62440000Y-83080000D01*
X61125000Y-86750000D02*
X61125000Y-86750000D01*
X61937500Y-85937500D02*
X61125000Y-86750000D01*
X62440000Y-85060000D02*
X62440000Y-85435000D01*
X62440000Y-84060000D02*
X62440000Y-85060000D01*
X62440000Y-83080000D02*
X62440000Y-84060000D01*
X61125000Y-86750000D02*
X61125000Y-86750000D01*
D48*
X60750000Y-86375000D02*
X61125000Y-86750000D01*
X60750000Y-84750000D02*
X60750000Y-86375000D01*
X59500000Y-85125000D02*
X61125000Y-86750000D01*
X59500000Y-84750000D02*
X59500000Y-85125000D01*
X59875000Y-85500000D02*
X61125000Y-86750000D01*
X58500000Y-85500000D02*
X59875000Y-85500000D01*
X58500000Y-86750000D02*
X61125000Y-86750000D01*
X59875000Y-88000000D02*
X61125000Y-86750000D01*
X58500000Y-88000000D02*
X59875000Y-88000000D01*
X59500000Y-88375000D02*
X61125000Y-86750000D01*
X59500000Y-88750000D02*
X59500000Y-88375000D01*
X60750000Y-87125000D02*
X61125000Y-86750000D01*
X60750000Y-88750000D02*
X60750000Y-87125000D01*
X62000000Y-87625000D02*
X61125000Y-86750000D01*
X62000000Y-88750000D02*
X62000000Y-87625000D01*
X63125000Y-88750000D02*
X61125000Y-86750000D01*
X63250000Y-88750000D02*
X63125000Y-88750000D01*
X62125000Y-87750000D02*
X61125000Y-86750000D01*
X63750000Y-87750000D02*
X62125000Y-87750000D01*
X61375000Y-86500000D02*
X61125000Y-86750000D01*
X63750000Y-86500000D02*
X61375000Y-86500000D01*
X62625000Y-85250000D02*
X61125000Y-86750000D01*
X63750000Y-85250000D02*
X62625000Y-85250000D01*
X63750000Y-88250000D02*
X63250000Y-88750000D01*
X63750000Y-85250000D02*
X63750000Y-88250000D01*
X63250000Y-88750000D02*
X59500000Y-88750000D01*
X59250000Y-88750000D02*
X58500000Y-88000000D01*
X59500000Y-88750000D02*
X59250000Y-88750000D01*
X58500000Y-85750000D02*
X59500000Y-84750000D01*
X58500000Y-88000000D02*
X58500000Y-85750000D01*
X63250000Y-84750000D02*
X63750000Y-85250000D01*
X59500000Y-84750000D02*
X63250000Y-84750000D01*
X61500000Y-88750000D02*
X63750000Y-86500000D01*
X60750000Y-88750000D02*
X61500000Y-88750000D01*
X61750000Y-88750000D02*
X58500000Y-85500000D01*
X62000000Y-88750000D02*
X61750000Y-88750000D01*
X61125000Y-85375000D02*
X61375000Y-85375000D01*
X58500000Y-88000000D02*
X61125000Y-85375000D01*
X63750000Y-87750000D02*
X61375000Y-85375000D01*
X61375000Y-85375000D02*
X60750000Y-84750000D01*
D49*
X85250000Y-127000000D02*
X84500000Y-126250000D01*
X89250000Y-127000000D02*
X85250000Y-127000000D01*
X84500000Y-122000000D02*
X85250000Y-121250000D01*
X84500000Y-126250000D02*
X84500000Y-122000000D01*
X89000000Y-121250000D02*
X90250000Y-122500000D01*
X85250000Y-121250000D02*
X89000000Y-121250000D01*
X90250000Y-126000000D02*
X89250000Y-127000000D01*
X90250000Y-121250000D02*
X90250000Y-126000000D01*
X89250000Y-121500000D02*
X89000000Y-121250000D01*
X89250000Y-127000000D02*
X89250000Y-121500000D01*
X90250000Y-126250000D02*
X84500000Y-126250000D01*
X85500000Y-121500000D02*
X85250000Y-121250000D01*
X85500000Y-127000000D02*
X85500000Y-121500000D01*
X97625000Y-121250000D02*
X98000000Y-121625000D01*
X89000000Y-121250000D02*
X97625000Y-121250000D01*
X97125000Y-122500000D02*
X98000000Y-121625000D01*
X90250000Y-122500000D02*
X97125000Y-122500000D01*
X90250000Y-123750000D02*
X95250000Y-123750000D01*
X95875000Y-123750000D02*
X98000000Y-121625000D01*
X95250000Y-123750000D02*
X95875000Y-123750000D01*
D48*
X99575000Y-120050000D02*
X98000000Y-121625000D01*
X101720000Y-120050000D02*
X99575000Y-120050000D01*
D49*
X120600000Y-89600000D02*
X120600000Y-90674990D01*
X120600000Y-89600000D02*
X122400000Y-89600000D01*
X123600000Y-88200000D02*
X123600000Y-89600000D01*
X123600000Y-89600000D02*
X123600000Y-90674990D01*
X125075000Y-88200000D02*
X125750000Y-88875000D01*
X123600000Y-88200000D02*
X125075000Y-88200000D01*
D48*
X120600000Y-90800000D02*
X122200000Y-90800000D01*
X123200000Y-88200000D02*
X121200000Y-90200000D01*
X123600000Y-88200000D02*
X123200000Y-88200000D01*
X87750000Y-123650000D02*
X87400000Y-124000000D01*
X87750000Y-121250000D02*
X87750000Y-123650000D01*
X122200000Y-90800000D02*
X123600000Y-90800000D01*
D49*
X122400000Y-89600000D02*
X123600000Y-89600000D01*
D48*
X121200000Y-90200000D02*
X120600000Y-90800000D01*
D49*
X120600000Y-91600000D02*
X121000000Y-92000000D01*
X120600000Y-90800000D02*
X120600000Y-91600000D01*
X121000000Y-92000000D02*
X123000000Y-92000000D01*
X123600000Y-91400000D02*
X123000000Y-92000000D01*
X123600000Y-90800000D02*
X123600000Y-91400000D01*
D47*
X107000000Y-77950000D02*
X107000000Y-77950000D01*
X102600000Y-77400000D02*
X102500000Y-77500000D01*
X104250000Y-77400000D02*
X102600000Y-77400000D01*
X109750000Y-75200000D02*
X109750000Y-74250000D01*
X107000000Y-77950000D02*
X109750000Y-75200000D01*
X94500000Y-73300000D02*
X93750000Y-74050000D01*
X94500000Y-73000000D02*
X94500000Y-73300000D01*
X95250000Y-72250000D02*
X94500000Y-73000000D01*
X95250000Y-69750000D02*
X95250000Y-72250000D01*
X146555000Y-87000000D02*
X146605000Y-87050000D01*
X144500000Y-87000000D02*
X146555000Y-87000000D01*
X101625000Y-97300000D02*
X102212500Y-96712500D01*
X102212500Y-96712500D02*
X102212500Y-96698910D01*
X101625000Y-98100000D02*
X101625000Y-97300000D01*
X102212500Y-96698910D02*
X103141116Y-95770294D01*
X146605000Y-90350000D02*
X141650000Y-90350000D01*
X128270294Y-95770294D02*
X128729706Y-95770294D01*
X103141116Y-95770294D02*
X128270294Y-95770294D01*
X134655002Y-95000000D02*
X132500000Y-95000000D01*
X141505002Y-88150000D02*
X134655002Y-95000000D01*
X146605000Y-88150000D02*
X141505002Y-88150000D01*
X132090000Y-96590000D02*
X132090000Y-100000000D01*
X100975000Y-98100000D02*
X100975000Y-96025000D01*
X146605000Y-85950000D02*
X136550000Y-85950000D01*
X101625000Y-90725000D02*
X103000000Y-89350000D01*
X101625000Y-92400000D02*
X101625000Y-90725000D01*
X101000000Y-83500000D02*
X101000000Y-83960000D01*
X99600000Y-82100000D02*
X101000000Y-83500000D01*
X99600000Y-81250000D02*
X99600000Y-82100000D01*
X102224999Y-88574999D02*
X102224999Y-85184999D01*
X102224999Y-85184999D02*
X101000000Y-83960000D01*
X103000000Y-89350000D02*
X102224999Y-88574999D01*
X100975000Y-89375000D02*
X101000000Y-89350000D01*
X100975000Y-92400000D02*
X100975000Y-89375000D01*
X98800000Y-83620000D02*
X98460000Y-83960000D01*
X98800000Y-81250000D02*
X98800000Y-83620000D01*
X100224999Y-85724999D02*
X98460000Y-83960000D01*
X100224999Y-88574999D02*
X100224999Y-85724999D01*
X101000000Y-89350000D02*
X100224999Y-88574999D01*
X100975000Y-92400000D02*
X100975000Y-93200000D01*
X87775001Y-94525001D02*
X86880000Y-93630000D01*
X100975000Y-93200000D02*
X99649999Y-94525001D01*
X99649999Y-94525001D02*
X87775001Y-94525001D01*
X86620000Y-93630000D02*
X83500000Y-93630000D01*
X86880000Y-93630000D02*
X86620000Y-93630000D01*
X102275000Y-91600000D02*
X104525000Y-89350000D01*
X104525000Y-89350000D02*
X105000000Y-89350000D01*
X102275000Y-92400000D02*
X102275000Y-91600000D01*
X102424998Y-83960000D02*
X103540000Y-83960000D01*
X100400000Y-81935002D02*
X102424998Y-83960000D01*
X100400000Y-81250000D02*
X100400000Y-81935002D01*
X104224999Y-84644999D02*
X103540000Y-83960000D01*
X104224999Y-88574999D02*
X104224999Y-84644999D01*
X105000000Y-89350000D02*
X104224999Y-88574999D01*
X76400000Y-95350000D02*
X70250000Y-101500000D01*
X76400000Y-89990000D02*
X76400000Y-95350000D01*
X54424998Y-99280000D02*
X53860000Y-99280000D01*
X52934999Y-84005001D02*
X57970000Y-78970000D01*
X52934999Y-98354999D02*
X52934999Y-84005001D01*
X53860000Y-99280000D02*
X52934999Y-98354999D01*
D50*
X72730000Y-76780000D02*
X72750000Y-76800000D01*
X60160000Y-76780000D02*
X72730000Y-76780000D01*
D48*
X63860000Y-73115000D02*
X63860000Y-69675001D01*
X66500000Y-75755000D02*
X63860000Y-73115000D01*
X68940000Y-73315000D02*
X68940000Y-69675001D01*
X66500000Y-75755000D02*
X68940000Y-73315000D01*
D47*
X73875001Y-77925001D02*
X72750000Y-76800000D01*
X73875001Y-84210001D02*
X73875001Y-77925001D01*
X73850000Y-84235002D02*
X73875001Y-84210001D01*
X73850000Y-85500000D02*
X73850000Y-84235002D01*
X57970000Y-78970000D02*
X59220000Y-77720000D01*
D48*
X74020000Y-75530000D02*
X74020000Y-69675001D01*
X72750000Y-76800000D02*
X74020000Y-75530000D01*
X119750000Y-78295001D02*
X118910000Y-77455001D01*
X119750000Y-83650000D02*
X119750000Y-78295001D01*
X124160000Y-79240000D02*
X124160000Y-77455001D01*
X119750000Y-83650000D02*
X124160000Y-79240000D01*
D47*
X124460000Y-77750000D02*
X124160000Y-77450000D01*
X126150000Y-77750000D02*
X124460000Y-77750000D01*
D48*
X117575000Y-82625000D02*
X118225000Y-81975000D01*
X121600000Y-85650000D02*
X121275000Y-85325000D01*
X121600000Y-87400000D02*
X121600000Y-85650000D01*
X120000000Y-83900000D02*
X119750000Y-83650000D01*
X120000000Y-87400000D02*
X120000000Y-83900000D01*
X118200000Y-87400000D02*
X118200000Y-85200000D01*
X116200000Y-85200000D02*
X118200000Y-85200000D01*
X119400000Y-84000000D02*
X119750000Y-83650000D01*
X116200000Y-84000000D02*
X119400000Y-84000000D01*
X114650000Y-83000000D02*
X115025000Y-82625000D01*
X111600000Y-83000000D02*
X114650000Y-83000000D01*
X113750000Y-82625000D02*
X115025000Y-82625000D01*
X115025000Y-82625000D02*
X117575000Y-82625000D01*
X112750000Y-83625000D02*
X113750000Y-82625000D01*
X112750000Y-85200000D02*
X112750000Y-83625000D01*
X111600000Y-81200000D02*
X112400000Y-81200000D01*
X112750000Y-81550000D02*
X112400000Y-81200000D01*
X112400000Y-81200000D02*
X116200000Y-81200000D01*
X114600000Y-83475000D02*
X113750000Y-82625000D01*
X118200000Y-85200000D02*
X119750000Y-83650000D01*
X115125000Y-84000000D02*
X113750000Y-82625000D01*
X116200000Y-84000000D02*
X115125000Y-84000000D01*
X116200000Y-85000000D02*
X116400000Y-85200000D01*
X112750000Y-85200000D02*
X116400000Y-85200000D01*
X116400000Y-85200000D02*
X118200000Y-85200000D01*
X111600000Y-84050000D02*
X112750000Y-85200000D01*
X111600000Y-81200000D02*
X111600000Y-84050000D01*
X116200000Y-82600000D02*
X115400000Y-81800000D01*
X115600000Y-81800000D02*
X116200000Y-81200000D01*
X115400000Y-81800000D02*
X115600000Y-81800000D01*
X117300000Y-81200000D02*
X119750000Y-83650000D01*
X116200000Y-81200000D02*
X117300000Y-81200000D01*
X116200000Y-85200000D02*
X116200000Y-81800000D01*
X116200000Y-81200000D02*
X116200000Y-81800000D01*
X116200000Y-81800000D02*
X116200000Y-85000000D01*
X116200000Y-84000000D02*
X113950000Y-84000000D01*
X115000000Y-85200000D02*
X116200000Y-84000000D01*
X114600000Y-85200000D02*
X115000000Y-85200000D01*
X116200000Y-83800000D02*
X115025000Y-82625000D01*
X116200000Y-85200000D02*
X116200000Y-83800000D01*
X111600000Y-82600000D02*
X113475000Y-84475000D01*
X111600000Y-81200000D02*
X111600000Y-82600000D01*
X113950000Y-84000000D02*
X113475000Y-84475000D01*
X113475000Y-84475000D02*
X112750000Y-85200000D01*
X112750000Y-81850000D02*
X112750000Y-81550000D01*
X111600000Y-83000000D02*
X112750000Y-81850000D01*
X112250000Y-81850000D02*
X112750000Y-81850000D01*
X111600000Y-81200000D02*
X112250000Y-81850000D01*
X112750000Y-84150000D02*
X112750000Y-84550000D01*
X111600000Y-83000000D02*
X112750000Y-84150000D01*
X112750000Y-85200000D02*
X112750000Y-84550000D01*
X112750000Y-84550000D02*
X112750000Y-81550000D01*
X112750000Y-85200000D02*
X113600000Y-85200000D01*
X113600000Y-85200000D02*
X114600000Y-84200000D01*
X114600000Y-85200000D02*
X114600000Y-84200000D01*
X114600000Y-84200000D02*
X114600000Y-83475000D01*
X116200000Y-84000000D02*
X118225000Y-81975000D01*
X116200000Y-85200000D02*
X116200000Y-84000000D01*
X118050000Y-83650000D02*
X116200000Y-81800000D01*
X119750000Y-83650000D02*
X118050000Y-83650000D01*
X117750000Y-83650000D02*
X116200000Y-85200000D01*
X119750000Y-83650000D02*
X117750000Y-83650000D01*
X118200000Y-87200000D02*
X116200000Y-85200000D01*
X118200000Y-87400000D02*
X118200000Y-87200000D01*
X121600000Y-87400000D02*
X118200000Y-87400000D01*
X119200000Y-87400000D02*
X121275000Y-85325000D01*
X121600000Y-87400000D02*
X121000000Y-86800000D01*
X119000000Y-86800000D02*
X118400000Y-87400000D01*
X121000000Y-86800000D02*
X119000000Y-86800000D01*
X118200000Y-87400000D02*
X118400000Y-87400000D01*
X118400000Y-87400000D02*
X119200000Y-87400000D01*
X118050000Y-81800000D02*
X118225000Y-81975000D01*
X115400000Y-81800000D02*
X118050000Y-81800000D01*
D47*
X126814998Y-77085002D02*
X126150000Y-77750000D01*
X126814998Y-75000000D02*
X126814998Y-77085002D01*
X128714998Y-73100000D02*
X126814998Y-75000000D01*
X133750000Y-73100000D02*
X128714998Y-73100000D01*
D48*
X116095001Y-76000000D02*
X116590000Y-76494999D01*
X115500000Y-76000000D02*
X116095001Y-76000000D01*
X121000000Y-76000000D02*
X125250000Y-76000000D01*
X120500000Y-76500000D02*
X121000000Y-76000000D01*
X120000000Y-76000000D02*
X115500000Y-76000000D01*
X117750000Y-76000000D02*
X123000000Y-76000000D01*
X124160000Y-75410000D02*
X123000000Y-74250000D01*
X124160000Y-75550000D02*
X124160000Y-75410000D01*
X123000000Y-74390000D02*
X121840000Y-75550000D01*
X123000000Y-74250000D02*
X123000000Y-74390000D01*
X121550000Y-75550000D02*
X120250000Y-74250000D01*
X121840000Y-75550000D02*
X121550000Y-75550000D01*
X120210000Y-74250000D02*
X118910000Y-75550000D01*
X120250000Y-74250000D02*
X120210000Y-74250000D01*
X118910000Y-75410000D02*
X117750000Y-74250000D01*
X118910000Y-75550000D02*
X118910000Y-75410000D01*
X117750000Y-74390000D02*
X116590000Y-75550000D01*
X117750000Y-74250000D02*
X117750000Y-74390000D01*
X124800000Y-75550000D02*
X125250000Y-76000000D01*
X116590000Y-75550000D02*
X124800000Y-75550000D01*
X120500000Y-74500000D02*
X120250000Y-74250000D01*
X120500000Y-76500000D02*
X120500000Y-74500000D01*
X123000000Y-76000000D02*
X123000000Y-74250000D01*
X117750000Y-76000000D02*
X117750000Y-74250000D01*
X120000000Y-76000000D02*
X117750000Y-76000000D01*
X120500000Y-76500000D02*
X120000000Y-76000000D01*
X123905009Y-76000000D02*
X124160000Y-76254991D01*
X123000000Y-76000000D02*
X123905009Y-76000000D01*
X124414991Y-76000000D02*
X124160000Y-76254991D01*
X125250000Y-76000000D02*
X124414991Y-76000000D01*
X120505001Y-76494999D02*
X120500000Y-76500000D01*
X123000000Y-76000000D02*
X122334999Y-76000000D01*
X121840000Y-76494999D02*
X120505001Y-76494999D01*
X122334999Y-76000000D02*
X121840000Y-76494999D01*
X116595001Y-76494999D02*
X116590000Y-76494999D01*
X120500000Y-76500000D02*
X120100001Y-76100001D01*
X116989999Y-76100001D02*
X116595001Y-76494999D01*
X120100001Y-76100001D02*
X116989999Y-76100001D01*
D49*
X123500000Y-74250000D02*
X125250000Y-76000000D01*
X117750000Y-74250000D02*
X123500000Y-74250000D01*
X116255001Y-75994999D02*
X115686669Y-75994999D01*
X116495008Y-75754992D02*
X116255001Y-75994999D01*
X125250000Y-76000000D02*
X125004992Y-75754992D01*
X125004992Y-75754992D02*
X116495008Y-75754992D01*
X117431668Y-74250000D02*
X115590834Y-76090834D01*
X117750000Y-74250000D02*
X117431668Y-74250000D01*
D47*
X104250000Y-126100000D02*
X104000000Y-126350000D01*
D48*
X104875000Y-127225000D02*
X104000000Y-126350000D01*
X104875000Y-132750000D02*
X104875000Y-127225000D01*
D47*
X104000000Y-116850000D02*
X104000000Y-123600000D01*
X129750000Y-145600000D02*
X120500000Y-145600000D01*
X120500000Y-145600000D02*
X111000000Y-145600000D01*
X111000000Y-145600000D02*
X110600000Y-145600000D01*
X104875000Y-139875000D02*
X104875000Y-132750000D01*
X110600000Y-145600000D02*
X104875000Y-139875000D01*
X104000000Y-123600000D02*
X104000000Y-126350000D01*
D48*
X102200000Y-128150000D02*
X104000000Y-126350000D01*
X102200000Y-130200000D02*
X102200000Y-128150000D01*
X103400000Y-128950000D02*
X102475000Y-128025000D01*
X105000000Y-127350000D02*
X104000000Y-126350000D01*
X105000000Y-132625000D02*
X104875000Y-132750000D01*
X105000000Y-130200000D02*
X105000000Y-132625000D01*
X106200000Y-128700000D02*
X105525000Y-128025000D01*
X106200000Y-130200000D02*
X106200000Y-128700000D01*
X107600000Y-129950000D02*
X104000000Y-126350000D01*
X107600000Y-130200000D02*
X107600000Y-129950000D01*
X106450000Y-128800000D02*
X104000000Y-126350000D01*
X107600000Y-128800000D02*
X106450000Y-128800000D01*
X105050000Y-127400000D02*
X104000000Y-126350000D01*
X106850000Y-126000000D02*
X105525000Y-124675000D01*
X107600000Y-126000000D02*
X106850000Y-126000000D01*
X105750000Y-124600000D02*
X104000000Y-126350000D01*
X107600000Y-124600000D02*
X105750000Y-124600000D01*
X107600000Y-123200000D02*
X107150000Y-123200000D01*
X107600000Y-123200000D02*
X107600000Y-130200000D01*
X107600000Y-130200000D02*
X102200000Y-130200000D01*
X103350000Y-130200000D02*
X105525000Y-128025000D01*
X102200000Y-130200000D02*
X103350000Y-130200000D01*
X105600000Y-130200000D02*
X105000000Y-129600000D01*
X106200000Y-130200000D02*
X105600000Y-130200000D01*
X105000000Y-130200000D02*
X105000000Y-129600000D01*
X105000000Y-129600000D02*
X105000000Y-127350000D01*
X106600000Y-127800000D02*
X106600000Y-127400000D01*
X107600000Y-128800000D02*
X106600000Y-127800000D01*
X107600000Y-127400000D02*
X106600000Y-127400000D01*
X106600000Y-127400000D02*
X105050000Y-127400000D01*
X107600000Y-127400000D02*
X107000000Y-126800000D01*
X107000000Y-126800000D02*
X107000000Y-123800000D01*
X107000000Y-123800000D02*
X106775000Y-123575000D01*
X107150000Y-123200000D02*
X106775000Y-123575000D01*
X106775000Y-123575000D02*
X104000000Y-126350000D01*
X102200000Y-130200000D02*
X103200000Y-129200000D01*
X103400000Y-130200000D02*
X103400000Y-129200000D01*
X103200000Y-129200000D02*
X103400000Y-129200000D01*
X103400000Y-129200000D02*
X103400000Y-128950000D01*
D47*
X93834998Y-96680000D02*
X97060000Y-96680000D01*
X90224999Y-100289999D02*
X93834998Y-96680000D01*
X90224999Y-103974999D02*
X90224999Y-100289999D01*
X91000000Y-104750000D02*
X90224999Y-103974999D01*
X95010000Y-104750000D02*
X96970000Y-104750000D01*
X109000000Y-103350000D02*
X101000000Y-103350000D01*
X95000000Y-103350000D02*
X97000000Y-103350000D01*
X140980000Y-101770000D02*
X140980000Y-100000000D01*
X140000000Y-102750000D02*
X140980000Y-101770000D01*
X140980000Y-98480000D02*
X140980000Y-100000000D01*
X140250000Y-97750000D02*
X140980000Y-98480000D01*
X135750000Y-124020000D02*
X135750000Y-122250000D01*
X105645000Y-131980000D02*
X104875000Y-132750000D01*
X121750000Y-131980000D02*
X105645000Y-131980000D01*
X106024999Y-125174999D02*
X105525000Y-124675000D01*
X120595001Y-125174999D02*
X106024999Y-125174999D01*
X121750000Y-124020000D02*
X120595001Y-125174999D01*
X119850000Y-118600000D02*
X119750000Y-118500000D01*
X121250000Y-118600000D02*
X119850000Y-118600000D01*
X135800000Y-131930000D02*
X135750000Y-131980000D01*
X135800000Y-130250000D02*
X135800000Y-131930000D01*
X91650000Y-70100000D02*
X91375000Y-70375000D01*
X91650000Y-66000000D02*
X91650000Y-70100000D01*
X90324979Y-71425021D02*
X91375000Y-70375000D01*
X105925001Y-61174999D02*
X106100000Y-61000000D01*
X105925001Y-66860001D02*
X105925001Y-61174999D01*
X104562182Y-68222820D02*
X105925001Y-66860001D01*
X100475001Y-71824999D02*
X100475001Y-71497819D01*
X100400000Y-71900000D02*
X100475001Y-71824999D01*
X100475001Y-71497819D02*
X103750000Y-68222820D01*
X100400000Y-72750000D02*
X100400000Y-71900000D01*
X103750000Y-68222820D02*
X104562182Y-68222820D01*
X106100000Y-57790000D02*
X106350000Y-57540000D01*
X106100000Y-61000000D02*
X106100000Y-57790000D01*
X109100000Y-62650000D02*
X109100000Y-68500000D01*
X108624999Y-62174999D02*
X109100000Y-62650000D01*
X108624999Y-60139999D02*
X108624999Y-62174999D01*
X111224998Y-57540000D02*
X111430000Y-57540000D01*
X108624999Y-60139999D02*
X111224998Y-57540000D01*
X90150000Y-68500000D02*
X90650000Y-68500000D01*
D50*
X80600000Y-127100000D02*
X80600000Y-124000000D01*
X85700000Y-132200000D02*
X80600000Y-127100000D01*
D49*
X70649999Y-67850001D02*
X70250000Y-68250000D01*
X74850001Y-67850001D02*
X70649999Y-67850001D01*
X75250000Y-68250000D02*
X74850001Y-67850001D01*
X65899999Y-67850001D02*
X65250000Y-68500000D01*
X69850001Y-67850001D02*
X65899999Y-67850001D01*
X70250000Y-68250000D02*
X69850001Y-67850001D01*
X60525009Y-67974991D02*
X60250000Y-68250000D01*
X64724991Y-67974991D02*
X60525009Y-67974991D01*
X65250000Y-68500000D02*
X64724991Y-67974991D01*
X73250000Y-66250000D02*
X75250000Y-68250000D01*
X73000000Y-66250000D02*
X73250000Y-66250000D01*
X62250000Y-66250000D02*
X60250000Y-68250000D01*
X62750000Y-66250000D02*
X62250000Y-66250000D01*
X62750000Y-66250000D02*
X65000000Y-66250000D01*
X70750000Y-66250000D02*
X73000000Y-66250000D01*
X65000000Y-66250000D02*
X70750000Y-66250000D01*
X65775009Y-67974991D02*
X65250000Y-68500000D01*
X69724991Y-67974991D02*
X65775009Y-67974991D01*
X70250000Y-68500000D02*
X69724991Y-67974991D01*
D47*
X130270294Y-95770294D02*
X130500000Y-96000000D01*
X128270294Y-95770294D02*
X130270294Y-95770294D01*
X130820000Y-96320000D02*
X130500000Y-96000000D01*
X130820000Y-100000000D02*
X130820000Y-96680000D01*
X130820000Y-96680000D02*
X130820000Y-96320000D01*
X135750000Y-96250000D02*
X133000000Y-96250000D01*
X137500000Y-94500000D02*
X135750000Y-96250000D01*
X141650000Y-90350000D02*
X137500000Y-94500000D01*
X128280000Y-96720000D02*
X128500000Y-96500000D01*
X128280000Y-100000000D02*
X128280000Y-96720000D01*
X102925000Y-97300000D02*
X102925000Y-98100000D01*
X128500000Y-96500000D02*
X103725000Y-96500000D01*
X103725000Y-96500000D02*
X102925000Y-97300000D01*
X127000000Y-95000000D02*
X102000000Y-95000000D01*
X100975000Y-96025000D02*
X102000000Y-95000000D01*
X128500000Y-95000000D02*
X129500000Y-94000000D01*
X127000000Y-95000000D02*
X128500000Y-95000000D01*
X129500000Y-94000000D02*
X132090000Y-96590000D01*
X132500000Y-90000000D02*
X132500000Y-91000000D01*
X136550000Y-85950000D02*
X132500000Y-90000000D01*
X132500000Y-91000000D02*
X129500000Y-94000000D01*
X136650000Y-84850000D02*
X129000000Y-92500000D01*
X136850000Y-84850000D02*
X136650000Y-84850000D01*
X146605000Y-84850000D02*
X136850000Y-84850000D01*
X125740000Y-97510000D02*
X126000000Y-97250000D01*
X125740000Y-100000000D02*
X125740000Y-97510000D01*
X142570000Y-68850000D02*
X143000000Y-68420000D01*
X137000000Y-68850000D02*
X142570000Y-68850000D01*
X134675001Y-71825001D02*
X133750000Y-70900000D01*
X142134999Y-71825001D02*
X134675001Y-71825001D01*
X143000000Y-70960000D02*
X142134999Y-71825001D01*
X119000000Y-94000000D02*
X117470000Y-92470000D01*
X126073002Y-94000000D02*
X119000000Y-94000000D01*
X133750000Y-70900000D02*
X134525001Y-71675001D01*
X132200010Y-87872992D02*
X126073002Y-94000000D01*
X134525001Y-71675001D02*
X134525001Y-76714996D01*
X134525001Y-76714996D02*
X132200010Y-79039987D01*
X117470000Y-92470000D02*
X117470000Y-89950000D01*
X132200010Y-79039987D02*
X132200010Y-87872992D01*
X137400000Y-73500000D02*
X137000000Y-73100000D01*
X143000000Y-73500000D02*
X137400000Y-73500000D01*
X132090000Y-116090000D02*
X131500000Y-115500000D01*
X132090000Y-118000000D02*
X132090000Y-116090000D01*
X116500000Y-77540000D02*
X116590000Y-77450000D01*
X116500000Y-78750000D02*
X116500000Y-77540000D01*
X121750000Y-77540000D02*
X121840000Y-77450000D01*
X121750000Y-78750000D02*
X121750000Y-77540000D01*
X129224999Y-75075001D02*
X129224999Y-75525001D01*
X130000000Y-74300000D02*
X129224999Y-75075001D01*
X128350000Y-76400000D02*
X128350000Y-77750000D01*
X129224999Y-75525001D02*
X128350000Y-76400000D01*
X128350000Y-77750000D02*
X128350000Y-77900000D01*
X128350000Y-79150000D02*
X128250000Y-79250000D01*
X128350000Y-77750000D02*
X128350000Y-79150000D01*
X123750000Y-97750000D02*
X123750000Y-97750000D01*
X124250000Y-104555000D02*
X122305000Y-104555000D01*
X122305000Y-104555000D02*
X121750000Y-104000000D01*
X121750000Y-99750000D02*
X123750000Y-97750000D01*
X120219998Y-104000000D02*
X121750000Y-104000000D01*
X118879999Y-102660001D02*
X120219998Y-104000000D01*
X118879999Y-100839999D02*
X118879999Y-102660001D01*
X119969998Y-99750000D02*
X118879999Y-100839999D01*
X121750000Y-99750000D02*
X119969998Y-99750000D01*
X130000000Y-89000000D02*
X126000000Y-93000000D01*
X130000000Y-76200000D02*
X130000000Y-89000000D01*
X123750000Y-97750000D02*
X124250000Y-97250000D01*
X53860000Y-96280000D02*
X54890000Y-95250000D01*
X58330000Y-95250000D02*
X59360000Y-96280000D01*
X54890000Y-95250000D02*
X58330000Y-95250000D01*
X59360000Y-99280000D02*
X56060000Y-99280000D01*
X53860000Y-97080000D02*
X56060000Y-99280000D01*
X53860000Y-96280000D02*
X53860000Y-97080000D01*
X54890000Y-94310000D02*
X53860000Y-93280000D01*
X54890000Y-95250000D02*
X54890000Y-94310000D01*
X53860000Y-87100000D02*
X53860000Y-93280000D01*
X57880000Y-83080000D02*
X53860000Y-87100000D01*
X59360000Y-102360000D02*
X59750000Y-102750000D01*
X59360000Y-99280000D02*
X59360000Y-102360000D01*
X56060000Y-93280000D02*
X59360000Y-93280000D01*
X68320000Y-93280000D02*
X70250000Y-91350000D01*
X61560000Y-93280000D02*
X68320000Y-93280000D01*
X140980000Y-117230000D02*
X140980000Y-118000000D01*
X136500000Y-112750000D02*
X140980000Y-117230000D01*
X69624999Y-97055001D02*
X70250000Y-96430000D01*
X56835001Y-97055001D02*
X69624999Y-97055001D01*
X56060000Y-96280000D02*
X56835001Y-97055001D01*
X139710000Y-117373971D02*
X139710000Y-118000000D01*
X137086029Y-114750000D02*
X139710000Y-117373971D01*
X136750000Y-114750000D02*
X137086029Y-114750000D01*
X64860000Y-96280000D02*
X61560000Y-96280000D01*
X69970000Y-99280000D02*
X70250000Y-99000000D01*
X61560000Y-99280000D02*
X69970000Y-99280000D01*
X133360000Y-115890000D02*
X133500000Y-115750000D01*
X133360000Y-118000000D02*
X133360000Y-115890000D01*
X67860000Y-96280000D02*
X67060000Y-96280000D01*
X70250000Y-93890000D02*
X67860000Y-96280000D01*
X135900000Y-113900000D02*
X135750000Y-113750000D01*
X135900000Y-118000000D02*
X135900000Y-113900000D01*
X133750000Y-66650000D02*
X137000000Y-66650000D01*
X102299997Y-83034999D02*
X105154999Y-83034999D01*
X101200000Y-81935002D02*
X102299997Y-83034999D01*
X105154999Y-83034999D02*
X106080000Y-83960000D01*
X101200000Y-81250000D02*
X101200000Y-81935002D01*
X105775001Y-84264999D02*
X106080000Y-83960000D01*
X105775001Y-88125001D02*
X105775001Y-84264999D01*
X107000000Y-89350000D02*
X105775001Y-88125001D01*
X102925000Y-91600000D02*
X103775000Y-90750000D01*
X102925000Y-92400000D02*
X102925000Y-91600000D01*
X105600000Y-90750000D02*
X107000000Y-89350000D01*
X103775000Y-90750000D02*
X105600000Y-90750000D01*
X107244989Y-82584989D02*
X108620000Y-83960000D01*
X102649987Y-82584989D02*
X107244989Y-82584989D01*
X102000000Y-81935002D02*
X102649987Y-82584989D01*
X102000000Y-81250000D02*
X102000000Y-81935002D01*
X108224999Y-88574999D02*
X108224999Y-84355001D01*
X108224999Y-84355001D02*
X108620000Y-83960000D01*
X109000000Y-89350000D02*
X108224999Y-88574999D01*
X129550000Y-98050000D02*
X129500000Y-98000000D01*
X129550000Y-100000000D02*
X129550000Y-98050000D01*
X133360000Y-101890000D02*
X133250000Y-102000000D01*
X133360000Y-100000000D02*
X133360000Y-101890000D01*
X91775001Y-101925001D02*
X91000000Y-101150000D01*
X91775001Y-104598003D02*
X91775001Y-101925001D01*
X94845001Y-107668003D02*
X91775001Y-104598003D01*
X94845001Y-110874003D02*
X94845001Y-107668003D01*
X96546018Y-112575020D02*
X94845001Y-110874003D01*
X121310020Y-112575020D02*
X96546018Y-112575020D01*
X123450000Y-114715000D02*
X121310020Y-112575020D01*
X124250000Y-114715000D02*
X123450000Y-114715000D01*
X122125010Y-112125010D02*
X123445000Y-113445000D01*
X101176008Y-112125010D02*
X122125010Y-112125010D01*
X99925001Y-109935999D02*
X99925001Y-110874003D01*
X99925001Y-110874003D02*
X101176008Y-112125010D01*
X93775001Y-101925001D02*
X93775001Y-104588003D01*
X93000000Y-101150000D02*
X93775001Y-101925001D01*
X94661999Y-105475001D02*
X95464003Y-105475001D01*
X93775001Y-104588003D02*
X94661999Y-105475001D01*
X123445000Y-113445000D02*
X124250000Y-113445000D01*
X95464003Y-105475001D02*
X99925001Y-109935999D01*
X128280000Y-118000000D02*
X128280000Y-117720000D01*
X128280000Y-117030000D02*
X128280000Y-118000000D01*
X126250000Y-115000000D02*
X128280000Y-117030000D01*
X126250000Y-107250000D02*
X126250000Y-106750000D01*
X126250000Y-106750000D02*
X128500000Y-104500000D01*
X126250000Y-107250000D02*
X126250000Y-115000000D01*
X126250000Y-105750000D02*
X126250000Y-107250000D01*
X95000000Y-92500000D02*
X93500000Y-92500000D01*
X127010000Y-100000000D02*
X127010000Y-100626029D01*
X127010000Y-102410000D02*
X127400000Y-102800000D01*
X127010000Y-100000000D02*
X127010000Y-102410000D01*
X100325000Y-90675000D02*
X99000000Y-89350000D01*
X100325000Y-92400000D02*
X100325000Y-90675000D01*
X127225001Y-120475001D02*
X127225001Y-118215001D01*
X111250000Y-137750000D02*
X113000000Y-136000000D01*
X128500000Y-121750000D02*
X127225001Y-120475001D01*
X127225001Y-118215001D02*
X127010000Y-118000000D01*
X128500000Y-131740002D02*
X128500000Y-121750000D01*
X113000000Y-136000000D02*
X124240002Y-136000000D01*
X124240002Y-136000000D02*
X128500000Y-131740002D01*
X111000000Y-140540000D02*
X111250000Y-140290000D01*
X111000000Y-143400000D02*
X111000000Y-140540000D01*
X102465001Y-111675001D02*
X101290000Y-110500000D01*
X104394001Y-111675001D02*
X102465001Y-111675001D01*
X105005001Y-111064001D02*
X104394001Y-111675001D01*
X105005001Y-109935999D02*
X105005001Y-111064001D01*
X99775001Y-104705999D02*
X105005001Y-109935999D01*
X99775001Y-101925001D02*
X99775001Y-104705999D01*
X99000000Y-101150000D02*
X99775001Y-101925001D01*
X137170000Y-120080000D02*
X136750000Y-120500000D01*
X137170000Y-118000000D02*
X137170000Y-120080000D01*
X136750000Y-120500000D02*
X131700000Y-120500000D01*
X97425000Y-101150000D02*
X97000000Y-101150000D01*
X99675000Y-98900000D02*
X97425000Y-101150000D01*
X99675000Y-98100000D02*
X99675000Y-98900000D01*
X103646998Y-110500000D02*
X103830000Y-110500000D01*
X98224999Y-105078001D02*
X103646998Y-110500000D01*
X98224999Y-102374999D02*
X98224999Y-105078001D01*
X97000000Y-101150000D02*
X98224999Y-102374999D01*
X138440000Y-119810000D02*
X138000000Y-120250000D01*
X138440000Y-118000000D02*
X138440000Y-119810000D01*
X129750000Y-143400000D02*
X129750000Y-140290000D01*
X130820000Y-136680000D02*
X130820000Y-118000000D01*
X129750000Y-137750000D02*
X130820000Y-136680000D01*
X119980000Y-115130000D02*
X121250000Y-116400000D01*
X119980000Y-113750000D02*
X119980000Y-115130000D01*
X121250000Y-116400000D02*
X121250000Y-116500000D01*
X122750000Y-118000000D02*
X125740000Y-118000000D01*
X121250000Y-116500000D02*
X122750000Y-118000000D01*
X119980000Y-113750000D02*
X112020000Y-113750000D01*
X139710000Y-101500000D02*
X139710000Y-100000000D01*
X120705001Y-101024999D02*
X124224999Y-101024999D01*
X124224999Y-101024999D02*
X126800000Y-103600000D01*
X119980000Y-101750000D02*
X120705001Y-101024999D01*
X137610000Y-103600000D02*
X139710000Y-101500000D01*
X126800000Y-103600000D02*
X137610000Y-103600000D01*
X70500000Y-84350000D02*
X71650000Y-85500000D01*
X70500000Y-84000000D02*
X70500000Y-84350000D01*
X74240000Y-88090000D02*
X76400000Y-88090000D01*
X71650000Y-85500000D02*
X74240000Y-88090000D01*
X71700000Y-71950000D02*
X71750000Y-72000000D01*
X71700000Y-69670000D02*
X71700000Y-71950000D01*
X66620000Y-71880000D02*
X66500000Y-72000000D01*
X66620000Y-69670000D02*
X66620000Y-71880000D01*
X61540000Y-71540000D02*
X62000000Y-72000000D01*
X61540000Y-69670000D02*
X61540000Y-71540000D01*
X104000000Y-114650000D02*
X104000000Y-114020000D01*
X104000000Y-114650000D02*
X106750000Y-114650000D01*
X107525001Y-118804999D02*
X106280000Y-120050000D01*
X107525001Y-115425001D02*
X107525001Y-118804999D01*
X106750000Y-114650000D02*
X107525001Y-115425001D01*
X122490002Y-137750000D02*
X120500000Y-137750000D01*
X125250000Y-137750000D02*
X122490002Y-137750000D01*
X129550000Y-118000000D02*
X129550000Y-133450000D01*
X129550000Y-133450000D02*
X125250000Y-137750000D01*
X135900000Y-101650000D02*
X136250000Y-102000000D01*
X135900000Y-100000000D02*
X135900000Y-101650000D01*
X140250000Y-122750000D02*
X139750000Y-122250000D01*
X140250000Y-124020000D02*
X140250000Y-122750000D01*
X132200000Y-133700000D02*
X132250000Y-133750000D01*
X132200000Y-126100000D02*
X132200000Y-133700000D01*
X140150000Y-126100000D02*
X140250000Y-126000000D01*
X132200000Y-126100000D02*
X137900000Y-126100000D01*
X137900000Y-126100000D02*
X140150000Y-126100000D01*
X140250000Y-124020000D02*
X140250000Y-126000000D01*
X140250000Y-126000000D02*
X140250000Y-131980000D01*
X126250000Y-124020000D02*
X126250000Y-124020000D01*
X134630000Y-101880000D02*
X134750000Y-102000000D01*
X134630000Y-100000000D02*
X134630000Y-101880000D01*
X126250000Y-124020000D02*
X126250000Y-122250000D01*
X126150000Y-126100000D02*
X126250000Y-126000000D01*
X123850000Y-126100000D02*
X126150000Y-126100000D01*
X118200000Y-126100000D02*
X123850000Y-126100000D01*
X126250000Y-126000000D02*
X126250000Y-131980000D01*
X126250000Y-124020000D02*
X126250000Y-126000000D01*
X118200000Y-129050000D02*
X117500000Y-129750000D01*
X118200000Y-126100000D02*
X118200000Y-129050000D01*
X120500000Y-143400000D02*
X120500000Y-140290000D01*
M02*
