%TF.GenerationSoftware,KiCad,Pcbnew,(5.1.6)-1*%
%TF.CreationDate,2020-09-10T03:51:48+02:00*%
%TF.ProjectId,Esp32TinyTester,45737033-3254-4696-9e79-546573746572,rev?*%
%TF.SameCoordinates,Original*%
%TF.FileFunction,Copper,L3,Inr*%
%TF.FilePolarity,Positive*%
%FSLAX46Y46*%
G04 Gerber Fmt 4.6, Leading zero omitted, Abs format (unit mm)*
G04 Created by KiCad (PCBNEW (5.1.6)-1) date 2020-09-10 03:51:48*
%MOMM*%
%LPD*%
G01*
G04 APERTURE LIST*
%TA.AperFunction,ViaPad*%
%ADD10R,1.700000X1.700000*%
%TD*%
%TA.AperFunction,ViaPad*%
%ADD11O,1.700000X1.700000*%
%TD*%
%TA.AperFunction,ViaPad*%
%ADD12C,1.800000*%
%TD*%
%TA.AperFunction,ViaPad*%
%ADD13R,1.800000X1.800000*%
%TD*%
%TA.AperFunction,ViaPad*%
%ADD14O,3.010000X1.510000*%
%TD*%
%TA.AperFunction,ViaPad*%
%ADD15C,0.800000*%
%TD*%
%TA.AperFunction,Conductor*%
%ADD16C,0.254000*%
%TD*%
G04 APERTURE END LIST*
D10*
X75870000Y-57540000D03*
D11*
X75870000Y-55000000D03*
X78410000Y-57540000D03*
X78410000Y-55000000D03*
X80950000Y-57540000D03*
X80950000Y-55000000D03*
X83490000Y-57540000D03*
X83490000Y-55000000D03*
X86030000Y-57540000D03*
X86030000Y-55000000D03*
X88570000Y-57540000D03*
X88570000Y-55000000D03*
X91110000Y-57540000D03*
X91110000Y-55000000D03*
X93650000Y-57540000D03*
X93650000Y-55000000D03*
X96190000Y-57540000D03*
X96190000Y-55000000D03*
X98730000Y-57540000D03*
X98730000Y-55000000D03*
X101270000Y-57540000D03*
X101270000Y-55000000D03*
X103810000Y-57540000D03*
X103810000Y-55000000D03*
X106350000Y-57540000D03*
X106350000Y-55000000D03*
X108890000Y-57540000D03*
X108890000Y-55000000D03*
X111430000Y-57540000D03*
X111430000Y-55000000D03*
X113970000Y-57540000D03*
X113970000Y-55000000D03*
X116510000Y-57540000D03*
X116510000Y-55000000D03*
X119050000Y-57540000D03*
X119050000Y-55000000D03*
X121590000Y-57540000D03*
X121590000Y-55000000D03*
X124130000Y-57540000D03*
X124130000Y-55000000D03*
D12*
X111250000Y-140290000D03*
D13*
X111250000Y-137750000D03*
D11*
X106370000Y-110500000D03*
X103830000Y-110500000D03*
X101290000Y-110500000D03*
X98750000Y-110500000D03*
X96210000Y-110500000D03*
D10*
X93670000Y-110500000D03*
X83500000Y-101250000D03*
D11*
X83500000Y-98710000D03*
X83500000Y-96170000D03*
X83500000Y-93630000D03*
X83500000Y-91090000D03*
X83500000Y-88550000D03*
D14*
X143000000Y-73500000D03*
X143000000Y-70960000D03*
X143000000Y-68420000D03*
D13*
X129750000Y-137750000D03*
D12*
X129750000Y-140290000D03*
X120500000Y-140290000D03*
D13*
X120500000Y-137750000D03*
D15*
X140500000Y-115500000D03*
X140500000Y-120500000D03*
X75500000Y-138500000D03*
X75500000Y-137000000D03*
X75500000Y-140000000D03*
X75500000Y-141500000D03*
X75500000Y-143000000D03*
X75500000Y-144500000D03*
X81500000Y-143000000D03*
X81500000Y-144500000D03*
X94500000Y-143000000D03*
X94500000Y-141500000D03*
X81500000Y-141500000D03*
X81500000Y-140000000D03*
X77000000Y-137000000D03*
X78500000Y-137000000D03*
X94500000Y-140000000D03*
X81500000Y-138500000D03*
X81500000Y-137000000D03*
X80000000Y-137000000D03*
X90000000Y-137000000D03*
X88500000Y-138500000D03*
X88500000Y-137000000D03*
X94500000Y-144500000D03*
X88500000Y-144500000D03*
X88500000Y-143000000D03*
X88500000Y-140000000D03*
X88500000Y-141500000D03*
X132500000Y-110500000D03*
X134500000Y-110500000D03*
X136500000Y-110500000D03*
X134500000Y-108500000D03*
X134500000Y-106750000D03*
X136250000Y-102000000D03*
X134750000Y-102000000D03*
X106200000Y-130200000D03*
X107600000Y-130200000D03*
X107600000Y-128800000D03*
X107600000Y-127400000D03*
X107600000Y-126000000D03*
X107600000Y-124600000D03*
X107600000Y-123200000D03*
X103400000Y-130200000D03*
X102200000Y-130200000D03*
X120600000Y-89600000D03*
X120600000Y-90800000D03*
X123600000Y-89400000D03*
X123600000Y-90800000D03*
X123600000Y-88200000D03*
X132200000Y-122500000D03*
X118200000Y-123800000D03*
X139750000Y-122250000D03*
X135800000Y-130250000D03*
X119750000Y-118500000D03*
X135750000Y-122250000D03*
X121600000Y-87400000D03*
X120000000Y-87400000D03*
X118200000Y-87400000D03*
X116200000Y-85200000D03*
X116200000Y-84000000D03*
X116200000Y-82600000D03*
X116200000Y-81200000D03*
X111600000Y-81200000D03*
X111600000Y-83000000D03*
X114600000Y-85200000D03*
X112750000Y-85200000D03*
X113000000Y-92000000D03*
X114750000Y-92000000D03*
X140250000Y-97750000D03*
X140000000Y-102750000D03*
X141400000Y-93000000D03*
X135400000Y-91200000D03*
X141800000Y-89400000D03*
X135000000Y-81200000D03*
X138000000Y-120250000D03*
X135500000Y-70000000D03*
X128250000Y-79250000D03*
X125250000Y-76000000D03*
X123000000Y-76000000D03*
X120250000Y-74250000D03*
X123000000Y-74250000D03*
X117750000Y-76000000D03*
X117750000Y-74250000D03*
X120500000Y-76500000D03*
X115500000Y-76000000D03*
X121750000Y-78750000D03*
X116500000Y-78750000D03*
X62500000Y-84750000D03*
X63750000Y-85250000D03*
X60750000Y-88750000D03*
X62000000Y-88750000D03*
X58500000Y-88000000D03*
X58500000Y-86750000D03*
X58500000Y-85500000D03*
X85250000Y-121250000D03*
X84500000Y-126250000D03*
X84500000Y-125000000D03*
X84500000Y-123500000D03*
X84500000Y-122250000D03*
X85500000Y-127000000D03*
X86750000Y-127000000D03*
X88000000Y-127000000D03*
X90250000Y-126250000D03*
X89250000Y-127000000D03*
X95250000Y-123750000D03*
X94000000Y-121250000D03*
X92750000Y-121250000D03*
X95250000Y-122500000D03*
X94000000Y-122500000D03*
X95250000Y-121250000D03*
X90250000Y-125000000D03*
X91500000Y-121250000D03*
X90250000Y-122500000D03*
X92750000Y-122500000D03*
X89000000Y-121250000D03*
X90250000Y-123750000D03*
X91500000Y-122500000D03*
X90250000Y-121250000D03*
X86500000Y-121250000D03*
X87750000Y-121250000D03*
X75250000Y-68250000D03*
X60250000Y-68250000D03*
X62750000Y-68500000D03*
X65250000Y-68500000D03*
X67750000Y-68250000D03*
X62750000Y-66250000D03*
X67750000Y-66250000D03*
X70250000Y-68500000D03*
X73000000Y-68250000D03*
X73000000Y-66250000D03*
X70500000Y-84000000D03*
X105500000Y-117250000D03*
X83500000Y-85750000D03*
X70250000Y-101500000D03*
X70250000Y-96500000D03*
X62000000Y-72000000D03*
X66500000Y-72000000D03*
X71750000Y-72000000D03*
X70250000Y-93890000D03*
X70250000Y-91350000D03*
X70250000Y-99000000D03*
X129000000Y-92500000D03*
X131500000Y-115500000D03*
X133500000Y-115750000D03*
X135750000Y-113750000D03*
X133000000Y-96250000D03*
X132500000Y-95000000D03*
X132500000Y-108500000D03*
X132500000Y-106750000D03*
X136500000Y-106750000D03*
X136750000Y-114750000D03*
X136500000Y-112750000D03*
X93500000Y-92500000D03*
X92500000Y-72250000D03*
X93250000Y-77000000D03*
X126000000Y-93000000D03*
X123000000Y-101750000D03*
X141500000Y-103000000D03*
X133250000Y-102000000D03*
X129500000Y-98000000D03*
X127400000Y-102800000D03*
X94500000Y-73000000D03*
X105500000Y-76500000D03*
X97200000Y-77430000D03*
X95220000Y-98100000D03*
X82300000Y-67550000D03*
X77600000Y-62150000D03*
X84350000Y-62400000D03*
X89300000Y-65050000D03*
X95350000Y-64650000D03*
X104650000Y-64850000D03*
X110325000Y-61925000D03*
X111575000Y-67675000D03*
X116575000Y-64925000D03*
X121950000Y-61800000D03*
X141800000Y-97750000D03*
X109000000Y-104750000D03*
X107000000Y-104750000D03*
X104930000Y-104750000D03*
X103000000Y-104750000D03*
X101050000Y-104750000D03*
X98970000Y-104750000D03*
X96970000Y-104750000D03*
X95010000Y-104750000D03*
X93000000Y-104750000D03*
X91000000Y-104750000D03*
X91000000Y-85750000D03*
X93000000Y-85750000D03*
X95000000Y-85750000D03*
X97000000Y-85750000D03*
X99000000Y-85750000D03*
X101010000Y-85750000D03*
X102980000Y-85750000D03*
X104960000Y-85750000D03*
X107000000Y-85750000D03*
X109000000Y-85750000D03*
X97080000Y-93800000D03*
X97060000Y-96680000D03*
X128500000Y-96500000D03*
X104250000Y-99750000D03*
X108500000Y-99750000D03*
X95750000Y-100250000D03*
X127424999Y-80075001D03*
X98000000Y-130500000D03*
X119980000Y-107820000D03*
X112020000Y-107780000D03*
X136500000Y-108600000D03*
X92750000Y-137750000D03*
X94075000Y-138575000D03*
X67375000Y-84625000D03*
X69995000Y-82005000D03*
X70995000Y-82005000D03*
X69540000Y-89040000D03*
X59500000Y-88750000D03*
X63250000Y-88750000D03*
X63750000Y-87750000D03*
X59500000Y-84750000D03*
X60750000Y-84750000D03*
X63750000Y-86500000D03*
X121000000Y-92000000D03*
X123000000Y-92000000D03*
X122000000Y-91000000D03*
X102500000Y-77500000D03*
X144500000Y-87000000D03*
X126000000Y-97250000D03*
X105000000Y-130200000D03*
X70250000Y-66250000D03*
X65250000Y-66250000D03*
X130820000Y-96680000D03*
X124250000Y-97250000D03*
X128500000Y-104500000D03*
X131700000Y-120500000D03*
X126250000Y-122250000D03*
D16*
G36*
X69273274Y-82746985D02*
G01*
X69335226Y-82808937D01*
X69504744Y-82922205D01*
X69693102Y-83000226D01*
X69885410Y-83038478D01*
X69996733Y-83091489D01*
X69840226Y-83196063D01*
X69696063Y-83340226D01*
X69582795Y-83509744D01*
X69504774Y-83698102D01*
X69465000Y-83898061D01*
X69465000Y-84101939D01*
X69504774Y-84301898D01*
X69582795Y-84490256D01*
X69696063Y-84659774D01*
X69840226Y-84803937D01*
X70009744Y-84917205D01*
X70198102Y-84995226D01*
X70398061Y-85035000D01*
X70601939Y-85035000D01*
X70801898Y-84995226D01*
X70990256Y-84917205D01*
X71159774Y-84803937D01*
X71303937Y-84659774D01*
X71417205Y-84490256D01*
X71495226Y-84301898D01*
X71535000Y-84101939D01*
X71535000Y-83898061D01*
X71518726Y-83816248D01*
X82040975Y-88826842D01*
X82072068Y-88983158D01*
X82184010Y-89253411D01*
X82346525Y-89496632D01*
X82553368Y-89703475D01*
X82727760Y-89820000D01*
X82553368Y-89936525D01*
X82346525Y-90143368D01*
X82184010Y-90386589D01*
X82072068Y-90656842D01*
X82015000Y-90943740D01*
X82015000Y-91236260D01*
X82072068Y-91523158D01*
X82184010Y-91793411D01*
X82346525Y-92036632D01*
X82553368Y-92243475D01*
X82727760Y-92360000D01*
X82553368Y-92476525D01*
X82346525Y-92683368D01*
X82184010Y-92926589D01*
X82072068Y-93196842D01*
X82015000Y-93483740D01*
X82015000Y-93776260D01*
X82072068Y-94063158D01*
X82184010Y-94333411D01*
X82346525Y-94576632D01*
X82553368Y-94783475D01*
X82727760Y-94900000D01*
X82553368Y-95016525D01*
X82346525Y-95223368D01*
X82184010Y-95466589D01*
X82072068Y-95736842D01*
X82015000Y-96023740D01*
X82015000Y-96316260D01*
X82072068Y-96603158D01*
X82184010Y-96873411D01*
X82346525Y-97116632D01*
X82553368Y-97323475D01*
X82727760Y-97440000D01*
X82553368Y-97556525D01*
X82346525Y-97763368D01*
X82184010Y-98006589D01*
X82072068Y-98276842D01*
X82015000Y-98563740D01*
X82015000Y-98856260D01*
X82072068Y-99143158D01*
X82184010Y-99413411D01*
X82346525Y-99656632D01*
X82478380Y-99788487D01*
X82405820Y-99810498D01*
X82295506Y-99869463D01*
X82198815Y-99948815D01*
X82119463Y-100045506D01*
X82060498Y-100155820D01*
X82024188Y-100275518D01*
X82011928Y-100400000D01*
X82011928Y-102100000D01*
X82024188Y-102224482D01*
X82060498Y-102344180D01*
X82119463Y-102454494D01*
X82198815Y-102551185D01*
X82295506Y-102630537D01*
X82405820Y-102689502D01*
X82525518Y-102725812D01*
X82650000Y-102738072D01*
X84350000Y-102738072D01*
X84474482Y-102725812D01*
X84594180Y-102689502D01*
X84704494Y-102630537D01*
X84801185Y-102551185D01*
X84880537Y-102454494D01*
X84939502Y-102344180D01*
X84975812Y-102224482D01*
X84988072Y-102100000D01*
X84988072Y-100400000D01*
X84975812Y-100275518D01*
X84939502Y-100155820D01*
X84935355Y-100148061D01*
X94715000Y-100148061D01*
X94715000Y-100351939D01*
X94754774Y-100551898D01*
X94832795Y-100740256D01*
X94946063Y-100909774D01*
X95090226Y-101053937D01*
X95259744Y-101167205D01*
X95448102Y-101245226D01*
X95648061Y-101285000D01*
X95851939Y-101285000D01*
X96051898Y-101245226D01*
X96240256Y-101167205D01*
X96409774Y-101053937D01*
X96553937Y-100909774D01*
X96667205Y-100740256D01*
X96745226Y-100551898D01*
X96785000Y-100351939D01*
X96785000Y-100148061D01*
X96745226Y-99948102D01*
X96667205Y-99759744D01*
X96592582Y-99648061D01*
X103215000Y-99648061D01*
X103215000Y-99851939D01*
X103254774Y-100051898D01*
X103332795Y-100240256D01*
X103446063Y-100409774D01*
X103590226Y-100553937D01*
X103759744Y-100667205D01*
X103948102Y-100745226D01*
X104148061Y-100785000D01*
X104351939Y-100785000D01*
X104551898Y-100745226D01*
X104740256Y-100667205D01*
X104909774Y-100553937D01*
X105053937Y-100409774D01*
X105167205Y-100240256D01*
X105245226Y-100051898D01*
X105285000Y-99851939D01*
X105285000Y-99648061D01*
X105245226Y-99448102D01*
X105167205Y-99259744D01*
X105053937Y-99090226D01*
X104909774Y-98946063D01*
X104740256Y-98832795D01*
X104551898Y-98754774D01*
X104351939Y-98715000D01*
X104148061Y-98715000D01*
X103948102Y-98754774D01*
X103759744Y-98832795D01*
X103590226Y-98946063D01*
X103446063Y-99090226D01*
X103332795Y-99259744D01*
X103254774Y-99448102D01*
X103215000Y-99648061D01*
X96592582Y-99648061D01*
X96553937Y-99590226D01*
X96409774Y-99446063D01*
X96240256Y-99332795D01*
X96051898Y-99254774D01*
X95851939Y-99215000D01*
X95648061Y-99215000D01*
X95448102Y-99254774D01*
X95259744Y-99332795D01*
X95090226Y-99446063D01*
X94946063Y-99590226D01*
X94832795Y-99759744D01*
X94754774Y-99948102D01*
X94715000Y-100148061D01*
X84935355Y-100148061D01*
X84880537Y-100045506D01*
X84801185Y-99948815D01*
X84704494Y-99869463D01*
X84594180Y-99810498D01*
X84521620Y-99788487D01*
X84653475Y-99656632D01*
X84815990Y-99413411D01*
X84927932Y-99143158D01*
X84985000Y-98856260D01*
X84985000Y-98563740D01*
X84927932Y-98276842D01*
X84815990Y-98006589D01*
X84810292Y-97998061D01*
X94185000Y-97998061D01*
X94185000Y-98201939D01*
X94224774Y-98401898D01*
X94302795Y-98590256D01*
X94416063Y-98759774D01*
X94560226Y-98903937D01*
X94729744Y-99017205D01*
X94918102Y-99095226D01*
X95118061Y-99135000D01*
X95321939Y-99135000D01*
X95521898Y-99095226D01*
X95710256Y-99017205D01*
X95879774Y-98903937D01*
X96023937Y-98759774D01*
X96137205Y-98590256D01*
X96215226Y-98401898D01*
X96255000Y-98201939D01*
X96255000Y-97998061D01*
X96215226Y-97798102D01*
X96137205Y-97609744D01*
X96023937Y-97440226D01*
X95879774Y-97296063D01*
X95710256Y-97182795D01*
X95521898Y-97104774D01*
X95321939Y-97065000D01*
X95118061Y-97065000D01*
X94918102Y-97104774D01*
X94729744Y-97182795D01*
X94560226Y-97296063D01*
X94416063Y-97440226D01*
X94302795Y-97609744D01*
X94224774Y-97798102D01*
X94185000Y-97998061D01*
X84810292Y-97998061D01*
X84653475Y-97763368D01*
X84446632Y-97556525D01*
X84272240Y-97440000D01*
X84446632Y-97323475D01*
X84653475Y-97116632D01*
X84815990Y-96873411D01*
X84927932Y-96603158D01*
X84932924Y-96578061D01*
X96025000Y-96578061D01*
X96025000Y-96781939D01*
X96064774Y-96981898D01*
X96142795Y-97170256D01*
X96256063Y-97339774D01*
X96400226Y-97483937D01*
X96569744Y-97597205D01*
X96758102Y-97675226D01*
X96958061Y-97715000D01*
X97161939Y-97715000D01*
X97361898Y-97675226D01*
X97550256Y-97597205D01*
X97719774Y-97483937D01*
X97863937Y-97339774D01*
X97977205Y-97170256D01*
X98055226Y-96981898D01*
X98095000Y-96781939D01*
X98095000Y-96578061D01*
X98055226Y-96378102D01*
X97977205Y-96189744D01*
X97863937Y-96020226D01*
X97719774Y-95876063D01*
X97550256Y-95762795D01*
X97361898Y-95684774D01*
X97161939Y-95645000D01*
X96958061Y-95645000D01*
X96758102Y-95684774D01*
X96569744Y-95762795D01*
X96400226Y-95876063D01*
X96256063Y-96020226D01*
X96142795Y-96189744D01*
X96064774Y-96378102D01*
X96025000Y-96578061D01*
X84932924Y-96578061D01*
X84985000Y-96316260D01*
X84985000Y-96023740D01*
X84927932Y-95736842D01*
X84815990Y-95466589D01*
X84653475Y-95223368D01*
X84446632Y-95016525D01*
X84272240Y-94900000D01*
X84446632Y-94783475D01*
X84653475Y-94576632D01*
X84815990Y-94333411D01*
X84927932Y-94063158D01*
X84985000Y-93776260D01*
X84985000Y-93698061D01*
X96045000Y-93698061D01*
X96045000Y-93901939D01*
X96084774Y-94101898D01*
X96162795Y-94290256D01*
X96276063Y-94459774D01*
X96420226Y-94603937D01*
X96589744Y-94717205D01*
X96778102Y-94795226D01*
X96978061Y-94835000D01*
X97181939Y-94835000D01*
X97381898Y-94795226D01*
X97570256Y-94717205D01*
X97739774Y-94603937D01*
X97883937Y-94459774D01*
X97997205Y-94290256D01*
X98075226Y-94101898D01*
X98115000Y-93901939D01*
X98115000Y-93698061D01*
X98075226Y-93498102D01*
X97997205Y-93309744D01*
X97883937Y-93140226D01*
X97739774Y-92996063D01*
X97570256Y-92882795D01*
X97381898Y-92804774D01*
X97181939Y-92765000D01*
X96978061Y-92765000D01*
X96778102Y-92804774D01*
X96589744Y-92882795D01*
X96420226Y-92996063D01*
X96276063Y-93140226D01*
X96162795Y-93309744D01*
X96084774Y-93498102D01*
X96045000Y-93698061D01*
X84985000Y-93698061D01*
X84985000Y-93483740D01*
X84927932Y-93196842D01*
X84815990Y-92926589D01*
X84653475Y-92683368D01*
X84446632Y-92476525D01*
X84272240Y-92360000D01*
X84446632Y-92243475D01*
X84653475Y-92036632D01*
X84815990Y-91793411D01*
X84927932Y-91523158D01*
X84985000Y-91236260D01*
X84985000Y-90943740D01*
X84927932Y-90656842D01*
X84815990Y-90386589D01*
X84653475Y-90143368D01*
X84515108Y-90005001D01*
X88945398Y-92114663D01*
X88968817Y-92123112D01*
X89000000Y-92127000D01*
X92534226Y-92127000D01*
X92504774Y-92198102D01*
X92465000Y-92398061D01*
X92465000Y-92601939D01*
X92504774Y-92801898D01*
X92582795Y-92990256D01*
X92696063Y-93159774D01*
X92840226Y-93303937D01*
X93009744Y-93417205D01*
X93198102Y-93495226D01*
X93398061Y-93535000D01*
X93601939Y-93535000D01*
X93801898Y-93495226D01*
X93990256Y-93417205D01*
X94159774Y-93303937D01*
X94303937Y-93159774D01*
X94417205Y-92990256D01*
X94495226Y-92801898D01*
X94535000Y-92601939D01*
X94535000Y-92398061D01*
X94495226Y-92198102D01*
X94465774Y-92127000D01*
X106000000Y-92127000D01*
X106024776Y-92124560D01*
X106048601Y-92117333D01*
X106070557Y-92105597D01*
X106089803Y-92089803D01*
X106281545Y-91898061D01*
X111965000Y-91898061D01*
X111965000Y-92101939D01*
X112004774Y-92301898D01*
X112082795Y-92490256D01*
X112196063Y-92659774D01*
X112340226Y-92803937D01*
X112509744Y-92917205D01*
X112698102Y-92995226D01*
X112898061Y-93035000D01*
X113101939Y-93035000D01*
X113301898Y-92995226D01*
X113490256Y-92917205D01*
X113659774Y-92803937D01*
X113803937Y-92659774D01*
X113875000Y-92553420D01*
X113946063Y-92659774D01*
X114090226Y-92803937D01*
X114259744Y-92917205D01*
X114448102Y-92995226D01*
X114648061Y-93035000D01*
X114851939Y-93035000D01*
X115051898Y-92995226D01*
X115240256Y-92917205D01*
X115409774Y-92803937D01*
X115553937Y-92659774D01*
X115667205Y-92490256D01*
X115745226Y-92301898D01*
X115785000Y-92101939D01*
X115785000Y-91898061D01*
X115745226Y-91698102D01*
X115667205Y-91509744D01*
X115553937Y-91340226D01*
X115409774Y-91196063D01*
X115240256Y-91082795D01*
X115051898Y-91004774D01*
X114851939Y-90965000D01*
X114648061Y-90965000D01*
X114448102Y-91004774D01*
X114259744Y-91082795D01*
X114090226Y-91196063D01*
X113946063Y-91340226D01*
X113875000Y-91446580D01*
X113803937Y-91340226D01*
X113659774Y-91196063D01*
X113490256Y-91082795D01*
X113301898Y-91004774D01*
X113101939Y-90965000D01*
X112898061Y-90965000D01*
X112698102Y-91004774D01*
X112509744Y-91082795D01*
X112340226Y-91196063D01*
X112196063Y-91340226D01*
X112082795Y-91509744D01*
X112004774Y-91698102D01*
X111965000Y-91898061D01*
X106281545Y-91898061D01*
X109052606Y-89127000D01*
X122000000Y-89127000D01*
X122024776Y-89124560D01*
X122048601Y-89117333D01*
X122070557Y-89105597D01*
X122089803Y-89089803D01*
X124000000Y-87179606D01*
X126849398Y-90029004D01*
X126019685Y-91965000D01*
X125898061Y-91965000D01*
X125698102Y-92004774D01*
X125509744Y-92082795D01*
X125340226Y-92196063D01*
X125196063Y-92340226D01*
X125082795Y-92509744D01*
X125004774Y-92698102D01*
X124965000Y-92898061D01*
X124965000Y-93101939D01*
X125004774Y-93301898D01*
X125082795Y-93490256D01*
X125196063Y-93659774D01*
X125264167Y-93727878D01*
X124198257Y-96215000D01*
X124148061Y-96215000D01*
X123948102Y-96254774D01*
X123759744Y-96332795D01*
X123590226Y-96446063D01*
X123446063Y-96590226D01*
X123332795Y-96759744D01*
X123254774Y-96948102D01*
X123239978Y-97022489D01*
X109535000Y-99763485D01*
X109535000Y-99648061D01*
X109495226Y-99448102D01*
X109417205Y-99259744D01*
X109303937Y-99090226D01*
X109159774Y-98946063D01*
X108990256Y-98832795D01*
X108801898Y-98754774D01*
X108601939Y-98715000D01*
X108398061Y-98715000D01*
X108198102Y-98754774D01*
X108009744Y-98832795D01*
X107840226Y-98946063D01*
X107696063Y-99090226D01*
X107582795Y-99259744D01*
X107504774Y-99448102D01*
X107465000Y-99648061D01*
X107465000Y-99851939D01*
X107504774Y-100051898D01*
X107549771Y-100160530D01*
X100225093Y-101625466D01*
X100201276Y-101632718D01*
X100179332Y-101644477D01*
X100160104Y-101660291D01*
X100145582Y-101677710D01*
X98713925Y-103745659D01*
X98668102Y-103754774D01*
X98479744Y-103832795D01*
X98310226Y-103946063D01*
X98166063Y-104090226D01*
X98052795Y-104259744D01*
X97974774Y-104448102D01*
X97970000Y-104472103D01*
X97965226Y-104448102D01*
X97887205Y-104259744D01*
X97773937Y-104090226D01*
X97629774Y-103946063D01*
X97460256Y-103832795D01*
X97271898Y-103754774D01*
X97071939Y-103715000D01*
X96868061Y-103715000D01*
X96668102Y-103754774D01*
X96479744Y-103832795D01*
X96310226Y-103946063D01*
X96166063Y-104090226D01*
X96052795Y-104259744D01*
X95990000Y-104411343D01*
X95927205Y-104259744D01*
X95813937Y-104090226D01*
X95669774Y-103946063D01*
X95500256Y-103832795D01*
X95311898Y-103754774D01*
X95111939Y-103715000D01*
X94908061Y-103715000D01*
X94708102Y-103754774D01*
X94519744Y-103832795D01*
X94350226Y-103946063D01*
X94206063Y-104090226D01*
X94092795Y-104259744D01*
X94014774Y-104448102D01*
X94005000Y-104497240D01*
X93995226Y-104448102D01*
X93917205Y-104259744D01*
X93803937Y-104090226D01*
X93659774Y-103946063D01*
X93490256Y-103832795D01*
X93301898Y-103754774D01*
X93101939Y-103715000D01*
X92898061Y-103715000D01*
X92698102Y-103754774D01*
X92509744Y-103832795D01*
X92340226Y-103946063D01*
X92196063Y-104090226D01*
X92082795Y-104259744D01*
X92004774Y-104448102D01*
X92000000Y-104472103D01*
X91995226Y-104448102D01*
X91917205Y-104259744D01*
X91803937Y-104090226D01*
X91659774Y-103946063D01*
X91490256Y-103832795D01*
X91301898Y-103754774D01*
X91101939Y-103715000D01*
X90898061Y-103715000D01*
X90698102Y-103754774D01*
X90509744Y-103832795D01*
X90340226Y-103946063D01*
X90196063Y-104090226D01*
X90082795Y-104259744D01*
X90004774Y-104448102D01*
X89965000Y-104648061D01*
X89965000Y-104851939D01*
X90004774Y-105051898D01*
X90082795Y-105240256D01*
X90196063Y-105409774D01*
X90340226Y-105553937D01*
X90509744Y-105667205D01*
X90698102Y-105745226D01*
X90898061Y-105785000D01*
X91101939Y-105785000D01*
X91301898Y-105745226D01*
X91490256Y-105667205D01*
X91659774Y-105553937D01*
X91803937Y-105409774D01*
X91917205Y-105240256D01*
X91995226Y-105051898D01*
X92000000Y-105027897D01*
X92004774Y-105051898D01*
X92082795Y-105240256D01*
X92196063Y-105409774D01*
X92340226Y-105553937D01*
X92509744Y-105667205D01*
X92698102Y-105745226D01*
X92898061Y-105785000D01*
X93101939Y-105785000D01*
X93301898Y-105745226D01*
X93490256Y-105667205D01*
X93659774Y-105553937D01*
X93803937Y-105409774D01*
X93917205Y-105240256D01*
X93995226Y-105051898D01*
X94005000Y-105002760D01*
X94014774Y-105051898D01*
X94092795Y-105240256D01*
X94206063Y-105409774D01*
X94350226Y-105553937D01*
X94519744Y-105667205D01*
X94708102Y-105745226D01*
X94908061Y-105785000D01*
X95111939Y-105785000D01*
X95311898Y-105745226D01*
X95500256Y-105667205D01*
X95669774Y-105553937D01*
X95813937Y-105409774D01*
X95927205Y-105240256D01*
X95990000Y-105088657D01*
X96052795Y-105240256D01*
X96166063Y-105409774D01*
X96310226Y-105553937D01*
X96479744Y-105667205D01*
X96668102Y-105745226D01*
X96868061Y-105785000D01*
X97071939Y-105785000D01*
X97271898Y-105745226D01*
X97352813Y-105711710D01*
X95645582Y-108177710D01*
X95632952Y-108200717D01*
X95116218Y-109427960D01*
X95109502Y-109405820D01*
X95050537Y-109295506D01*
X94971185Y-109198815D01*
X94874494Y-109119463D01*
X94764180Y-109060498D01*
X94644482Y-109024188D01*
X94520000Y-109011928D01*
X92820000Y-109011928D01*
X92695518Y-109024188D01*
X92575820Y-109060498D01*
X92465506Y-109119463D01*
X92368815Y-109198815D01*
X92289463Y-109295506D01*
X92230498Y-109405820D01*
X92194188Y-109525518D01*
X92181928Y-109650000D01*
X92181928Y-111350000D01*
X92194188Y-111474482D01*
X92230498Y-111594180D01*
X92289463Y-111704494D01*
X92368815Y-111801185D01*
X92465506Y-111880537D01*
X92575820Y-111939502D01*
X92695518Y-111975812D01*
X92820000Y-111988072D01*
X94038276Y-111988072D01*
X93632952Y-112950717D01*
X93625587Y-112974499D01*
X93623323Y-113009048D01*
X94123323Y-120009048D01*
X94127522Y-120033588D01*
X94136428Y-120056837D01*
X94155079Y-120084374D01*
X96125472Y-122301066D01*
X96866165Y-136621129D01*
X90929187Y-136538671D01*
X90917205Y-136509744D01*
X90803937Y-136340226D01*
X90659774Y-136196063D01*
X90490256Y-136082795D01*
X90301898Y-136004774D01*
X90101939Y-135965000D01*
X89898061Y-135965000D01*
X89698102Y-136004774D01*
X89509744Y-136082795D01*
X89340226Y-136196063D01*
X89250000Y-136286289D01*
X89159774Y-136196063D01*
X88990256Y-136082795D01*
X88801898Y-136004774D01*
X88601939Y-135965000D01*
X88398061Y-135965000D01*
X88198102Y-136004774D01*
X88009744Y-136082795D01*
X87840226Y-136196063D01*
X87696063Y-136340226D01*
X87594414Y-136492355D01*
X82356981Y-136419612D01*
X82303937Y-136340226D01*
X82159774Y-136196063D01*
X81990256Y-136082795D01*
X81801898Y-136004774D01*
X81601939Y-135965000D01*
X81398061Y-135965000D01*
X81198102Y-136004774D01*
X81009744Y-136082795D01*
X80840226Y-136196063D01*
X80750000Y-136286289D01*
X80659774Y-136196063D01*
X80490256Y-136082795D01*
X80301898Y-136004774D01*
X80101939Y-135965000D01*
X79898061Y-135965000D01*
X79698102Y-136004774D01*
X79509744Y-136082795D01*
X79340226Y-136196063D01*
X79250000Y-136286289D01*
X79159774Y-136196063D01*
X78990256Y-136082795D01*
X78801898Y-136004774D01*
X78601939Y-135965000D01*
X78398061Y-135965000D01*
X78198102Y-136004774D01*
X78009744Y-136082795D01*
X77840226Y-136196063D01*
X77750000Y-136286289D01*
X77659774Y-136196063D01*
X77490256Y-136082795D01*
X77301898Y-136004774D01*
X77101939Y-135965000D01*
X76898061Y-135965000D01*
X76698102Y-136004774D01*
X76509744Y-136082795D01*
X76340226Y-136196063D01*
X76250000Y-136286289D01*
X76159774Y-136196063D01*
X75990256Y-136082795D01*
X75801898Y-136004774D01*
X75601939Y-135965000D01*
X75398061Y-135965000D01*
X75198102Y-136004774D01*
X75009744Y-136082795D01*
X74840226Y-136196063D01*
X74722708Y-136313581D01*
X61042520Y-136123578D01*
X56376099Y-132685162D01*
X56127000Y-114999134D01*
X56127000Y-101398061D01*
X69215000Y-101398061D01*
X69215000Y-101601939D01*
X69254774Y-101801898D01*
X69332795Y-101990256D01*
X69446063Y-102159774D01*
X69590226Y-102303937D01*
X69759744Y-102417205D01*
X69948102Y-102495226D01*
X70148061Y-102535000D01*
X70351939Y-102535000D01*
X70551898Y-102495226D01*
X70740256Y-102417205D01*
X70909774Y-102303937D01*
X71053937Y-102159774D01*
X71167205Y-101990256D01*
X71245226Y-101801898D01*
X71285000Y-101601939D01*
X71285000Y-101398061D01*
X71245226Y-101198102D01*
X71167205Y-101009744D01*
X71053937Y-100840226D01*
X70909774Y-100696063D01*
X70740256Y-100582795D01*
X70551898Y-100504774D01*
X70351939Y-100465000D01*
X70148061Y-100465000D01*
X69948102Y-100504774D01*
X69759744Y-100582795D01*
X69590226Y-100696063D01*
X69446063Y-100840226D01*
X69332795Y-101009744D01*
X69254774Y-101198102D01*
X69215000Y-101398061D01*
X56127000Y-101398061D01*
X56127000Y-98898061D01*
X69215000Y-98898061D01*
X69215000Y-99101939D01*
X69254774Y-99301898D01*
X69332795Y-99490256D01*
X69446063Y-99659774D01*
X69590226Y-99803937D01*
X69759744Y-99917205D01*
X69948102Y-99995226D01*
X70148061Y-100035000D01*
X70351939Y-100035000D01*
X70551898Y-99995226D01*
X70740256Y-99917205D01*
X70909774Y-99803937D01*
X71053937Y-99659774D01*
X71167205Y-99490256D01*
X71245226Y-99301898D01*
X71285000Y-99101939D01*
X71285000Y-98898061D01*
X71245226Y-98698102D01*
X71167205Y-98509744D01*
X71053937Y-98340226D01*
X70909774Y-98196063D01*
X70740256Y-98082795D01*
X70551898Y-98004774D01*
X70351939Y-97965000D01*
X70148061Y-97965000D01*
X69948102Y-98004774D01*
X69759744Y-98082795D01*
X69590226Y-98196063D01*
X69446063Y-98340226D01*
X69332795Y-98509744D01*
X69254774Y-98698102D01*
X69215000Y-98898061D01*
X56127000Y-98898061D01*
X56127000Y-96398061D01*
X69215000Y-96398061D01*
X69215000Y-96601939D01*
X69254774Y-96801898D01*
X69332795Y-96990256D01*
X69446063Y-97159774D01*
X69590226Y-97303937D01*
X69759744Y-97417205D01*
X69948102Y-97495226D01*
X70148061Y-97535000D01*
X70351939Y-97535000D01*
X70551898Y-97495226D01*
X70740256Y-97417205D01*
X70909774Y-97303937D01*
X71053937Y-97159774D01*
X71167205Y-96990256D01*
X71245226Y-96801898D01*
X71285000Y-96601939D01*
X71285000Y-96398061D01*
X71245226Y-96198102D01*
X71167205Y-96009744D01*
X71053937Y-95840226D01*
X70909774Y-95696063D01*
X70740256Y-95582795D01*
X70551898Y-95504774D01*
X70351939Y-95465000D01*
X70148061Y-95465000D01*
X69948102Y-95504774D01*
X69759744Y-95582795D01*
X69590226Y-95696063D01*
X69446063Y-95840226D01*
X69332795Y-96009744D01*
X69254774Y-96198102D01*
X69215000Y-96398061D01*
X56127000Y-96398061D01*
X56127000Y-93788061D01*
X69215000Y-93788061D01*
X69215000Y-93991939D01*
X69254774Y-94191898D01*
X69332795Y-94380256D01*
X69446063Y-94549774D01*
X69590226Y-94693937D01*
X69759744Y-94807205D01*
X69948102Y-94885226D01*
X70148061Y-94925000D01*
X70351939Y-94925000D01*
X70551898Y-94885226D01*
X70740256Y-94807205D01*
X70909774Y-94693937D01*
X71053937Y-94549774D01*
X71167205Y-94380256D01*
X71245226Y-94191898D01*
X71285000Y-93991939D01*
X71285000Y-93788061D01*
X71245226Y-93588102D01*
X71167205Y-93399744D01*
X71053937Y-93230226D01*
X70909774Y-93086063D01*
X70740256Y-92972795D01*
X70551898Y-92894774D01*
X70351939Y-92855000D01*
X70148061Y-92855000D01*
X69948102Y-92894774D01*
X69759744Y-92972795D01*
X69590226Y-93086063D01*
X69446063Y-93230226D01*
X69332795Y-93399744D01*
X69254774Y-93588102D01*
X69215000Y-93788061D01*
X56127000Y-93788061D01*
X56127000Y-91248061D01*
X69215000Y-91248061D01*
X69215000Y-91451939D01*
X69254774Y-91651898D01*
X69332795Y-91840256D01*
X69446063Y-92009774D01*
X69590226Y-92153937D01*
X69759744Y-92267205D01*
X69948102Y-92345226D01*
X70148061Y-92385000D01*
X70351939Y-92385000D01*
X70551898Y-92345226D01*
X70740256Y-92267205D01*
X70909774Y-92153937D01*
X71053937Y-92009774D01*
X71167205Y-91840256D01*
X71245226Y-91651898D01*
X71285000Y-91451939D01*
X71285000Y-91248061D01*
X71245226Y-91048102D01*
X71167205Y-90859744D01*
X71053937Y-90690226D01*
X70909774Y-90546063D01*
X70740256Y-90432795D01*
X70551898Y-90354774D01*
X70351939Y-90315000D01*
X70148061Y-90315000D01*
X69948102Y-90354774D01*
X69759744Y-90432795D01*
X69590226Y-90546063D01*
X69446063Y-90690226D01*
X69332795Y-90859744D01*
X69254774Y-91048102D01*
X69215000Y-91248061D01*
X56127000Y-91248061D01*
X56127000Y-88938061D01*
X68505000Y-88938061D01*
X68505000Y-89141939D01*
X68544774Y-89341898D01*
X68622795Y-89530256D01*
X68736063Y-89699774D01*
X68880226Y-89843937D01*
X69049744Y-89957205D01*
X69238102Y-90035226D01*
X69438061Y-90075000D01*
X69641939Y-90075000D01*
X69841898Y-90035226D01*
X70030256Y-89957205D01*
X70199774Y-89843937D01*
X70343937Y-89699774D01*
X70457205Y-89530256D01*
X70535226Y-89341898D01*
X70575000Y-89141939D01*
X70575000Y-88938061D01*
X70535226Y-88738102D01*
X70457205Y-88549744D01*
X70343937Y-88380226D01*
X70199774Y-88236063D01*
X70030256Y-88122795D01*
X69841898Y-88044774D01*
X69641939Y-88005000D01*
X69438061Y-88005000D01*
X69238102Y-88044774D01*
X69049744Y-88122795D01*
X68880226Y-88236063D01*
X68736063Y-88380226D01*
X68622795Y-88549744D01*
X68544774Y-88738102D01*
X68505000Y-88938061D01*
X56127000Y-88938061D01*
X56127000Y-85038452D01*
X56470594Y-84523061D01*
X66340000Y-84523061D01*
X66340000Y-84726939D01*
X66379774Y-84926898D01*
X66457795Y-85115256D01*
X66571063Y-85284774D01*
X66715226Y-85428937D01*
X66884744Y-85542205D01*
X67073102Y-85620226D01*
X67273061Y-85660000D01*
X67476939Y-85660000D01*
X67676898Y-85620226D01*
X67865256Y-85542205D01*
X68034774Y-85428937D01*
X68178937Y-85284774D01*
X68292205Y-85115256D01*
X68370226Y-84926898D01*
X68410000Y-84726939D01*
X68410000Y-84523061D01*
X68370226Y-84323102D01*
X68292205Y-84134744D01*
X68178937Y-83965226D01*
X68034774Y-83821063D01*
X67865256Y-83707795D01*
X67676898Y-83629774D01*
X67476939Y-83590000D01*
X67273061Y-83590000D01*
X67073102Y-83629774D01*
X66884744Y-83707795D01*
X66715226Y-83821063D01*
X66571063Y-83965226D01*
X66457795Y-84134744D01*
X66379774Y-84323102D01*
X66340000Y-84523061D01*
X56470594Y-84523061D01*
X58067968Y-82127000D01*
X67971306Y-82127000D01*
X69273274Y-82746985D01*
G37*
X69273274Y-82746985D02*
X69335226Y-82808937D01*
X69504744Y-82922205D01*
X69693102Y-83000226D01*
X69885410Y-83038478D01*
X69996733Y-83091489D01*
X69840226Y-83196063D01*
X69696063Y-83340226D01*
X69582795Y-83509744D01*
X69504774Y-83698102D01*
X69465000Y-83898061D01*
X69465000Y-84101939D01*
X69504774Y-84301898D01*
X69582795Y-84490256D01*
X69696063Y-84659774D01*
X69840226Y-84803937D01*
X70009744Y-84917205D01*
X70198102Y-84995226D01*
X70398061Y-85035000D01*
X70601939Y-85035000D01*
X70801898Y-84995226D01*
X70990256Y-84917205D01*
X71159774Y-84803937D01*
X71303937Y-84659774D01*
X71417205Y-84490256D01*
X71495226Y-84301898D01*
X71535000Y-84101939D01*
X71535000Y-83898061D01*
X71518726Y-83816248D01*
X82040975Y-88826842D01*
X82072068Y-88983158D01*
X82184010Y-89253411D01*
X82346525Y-89496632D01*
X82553368Y-89703475D01*
X82727760Y-89820000D01*
X82553368Y-89936525D01*
X82346525Y-90143368D01*
X82184010Y-90386589D01*
X82072068Y-90656842D01*
X82015000Y-90943740D01*
X82015000Y-91236260D01*
X82072068Y-91523158D01*
X82184010Y-91793411D01*
X82346525Y-92036632D01*
X82553368Y-92243475D01*
X82727760Y-92360000D01*
X82553368Y-92476525D01*
X82346525Y-92683368D01*
X82184010Y-92926589D01*
X82072068Y-93196842D01*
X82015000Y-93483740D01*
X82015000Y-93776260D01*
X82072068Y-94063158D01*
X82184010Y-94333411D01*
X82346525Y-94576632D01*
X82553368Y-94783475D01*
X82727760Y-94900000D01*
X82553368Y-95016525D01*
X82346525Y-95223368D01*
X82184010Y-95466589D01*
X82072068Y-95736842D01*
X82015000Y-96023740D01*
X82015000Y-96316260D01*
X82072068Y-96603158D01*
X82184010Y-96873411D01*
X82346525Y-97116632D01*
X82553368Y-97323475D01*
X82727760Y-97440000D01*
X82553368Y-97556525D01*
X82346525Y-97763368D01*
X82184010Y-98006589D01*
X82072068Y-98276842D01*
X82015000Y-98563740D01*
X82015000Y-98856260D01*
X82072068Y-99143158D01*
X82184010Y-99413411D01*
X82346525Y-99656632D01*
X82478380Y-99788487D01*
X82405820Y-99810498D01*
X82295506Y-99869463D01*
X82198815Y-99948815D01*
X82119463Y-100045506D01*
X82060498Y-100155820D01*
X82024188Y-100275518D01*
X82011928Y-100400000D01*
X82011928Y-102100000D01*
X82024188Y-102224482D01*
X82060498Y-102344180D01*
X82119463Y-102454494D01*
X82198815Y-102551185D01*
X82295506Y-102630537D01*
X82405820Y-102689502D01*
X82525518Y-102725812D01*
X82650000Y-102738072D01*
X84350000Y-102738072D01*
X84474482Y-102725812D01*
X84594180Y-102689502D01*
X84704494Y-102630537D01*
X84801185Y-102551185D01*
X84880537Y-102454494D01*
X84939502Y-102344180D01*
X84975812Y-102224482D01*
X84988072Y-102100000D01*
X84988072Y-100400000D01*
X84975812Y-100275518D01*
X84939502Y-100155820D01*
X84935355Y-100148061D01*
X94715000Y-100148061D01*
X94715000Y-100351939D01*
X94754774Y-100551898D01*
X94832795Y-100740256D01*
X94946063Y-100909774D01*
X95090226Y-101053937D01*
X95259744Y-101167205D01*
X95448102Y-101245226D01*
X95648061Y-101285000D01*
X95851939Y-101285000D01*
X96051898Y-101245226D01*
X96240256Y-101167205D01*
X96409774Y-101053937D01*
X96553937Y-100909774D01*
X96667205Y-100740256D01*
X96745226Y-100551898D01*
X96785000Y-100351939D01*
X96785000Y-100148061D01*
X96745226Y-99948102D01*
X96667205Y-99759744D01*
X96592582Y-99648061D01*
X103215000Y-99648061D01*
X103215000Y-99851939D01*
X103254774Y-100051898D01*
X103332795Y-100240256D01*
X103446063Y-100409774D01*
X103590226Y-100553937D01*
X103759744Y-100667205D01*
X103948102Y-100745226D01*
X104148061Y-100785000D01*
X104351939Y-100785000D01*
X104551898Y-100745226D01*
X104740256Y-100667205D01*
X104909774Y-100553937D01*
X105053937Y-100409774D01*
X105167205Y-100240256D01*
X105245226Y-100051898D01*
X105285000Y-99851939D01*
X105285000Y-99648061D01*
X105245226Y-99448102D01*
X105167205Y-99259744D01*
X105053937Y-99090226D01*
X104909774Y-98946063D01*
X104740256Y-98832795D01*
X104551898Y-98754774D01*
X104351939Y-98715000D01*
X104148061Y-98715000D01*
X103948102Y-98754774D01*
X103759744Y-98832795D01*
X103590226Y-98946063D01*
X103446063Y-99090226D01*
X103332795Y-99259744D01*
X103254774Y-99448102D01*
X103215000Y-99648061D01*
X96592582Y-99648061D01*
X96553937Y-99590226D01*
X96409774Y-99446063D01*
X96240256Y-99332795D01*
X96051898Y-99254774D01*
X95851939Y-99215000D01*
X95648061Y-99215000D01*
X95448102Y-99254774D01*
X95259744Y-99332795D01*
X95090226Y-99446063D01*
X94946063Y-99590226D01*
X94832795Y-99759744D01*
X94754774Y-99948102D01*
X94715000Y-100148061D01*
X84935355Y-100148061D01*
X84880537Y-100045506D01*
X84801185Y-99948815D01*
X84704494Y-99869463D01*
X84594180Y-99810498D01*
X84521620Y-99788487D01*
X84653475Y-99656632D01*
X84815990Y-99413411D01*
X84927932Y-99143158D01*
X84985000Y-98856260D01*
X84985000Y-98563740D01*
X84927932Y-98276842D01*
X84815990Y-98006589D01*
X84810292Y-97998061D01*
X94185000Y-97998061D01*
X94185000Y-98201939D01*
X94224774Y-98401898D01*
X94302795Y-98590256D01*
X94416063Y-98759774D01*
X94560226Y-98903937D01*
X94729744Y-99017205D01*
X94918102Y-99095226D01*
X95118061Y-99135000D01*
X95321939Y-99135000D01*
X95521898Y-99095226D01*
X95710256Y-99017205D01*
X95879774Y-98903937D01*
X96023937Y-98759774D01*
X96137205Y-98590256D01*
X96215226Y-98401898D01*
X96255000Y-98201939D01*
X96255000Y-97998061D01*
X96215226Y-97798102D01*
X96137205Y-97609744D01*
X96023937Y-97440226D01*
X95879774Y-97296063D01*
X95710256Y-97182795D01*
X95521898Y-97104774D01*
X95321939Y-97065000D01*
X95118061Y-97065000D01*
X94918102Y-97104774D01*
X94729744Y-97182795D01*
X94560226Y-97296063D01*
X94416063Y-97440226D01*
X94302795Y-97609744D01*
X94224774Y-97798102D01*
X94185000Y-97998061D01*
X84810292Y-97998061D01*
X84653475Y-97763368D01*
X84446632Y-97556525D01*
X84272240Y-97440000D01*
X84446632Y-97323475D01*
X84653475Y-97116632D01*
X84815990Y-96873411D01*
X84927932Y-96603158D01*
X84932924Y-96578061D01*
X96025000Y-96578061D01*
X96025000Y-96781939D01*
X96064774Y-96981898D01*
X96142795Y-97170256D01*
X96256063Y-97339774D01*
X96400226Y-97483937D01*
X96569744Y-97597205D01*
X96758102Y-97675226D01*
X96958061Y-97715000D01*
X97161939Y-97715000D01*
X97361898Y-97675226D01*
X97550256Y-97597205D01*
X97719774Y-97483937D01*
X97863937Y-97339774D01*
X97977205Y-97170256D01*
X98055226Y-96981898D01*
X98095000Y-96781939D01*
X98095000Y-96578061D01*
X98055226Y-96378102D01*
X97977205Y-96189744D01*
X97863937Y-96020226D01*
X97719774Y-95876063D01*
X97550256Y-95762795D01*
X97361898Y-95684774D01*
X97161939Y-95645000D01*
X96958061Y-95645000D01*
X96758102Y-95684774D01*
X96569744Y-95762795D01*
X96400226Y-95876063D01*
X96256063Y-96020226D01*
X96142795Y-96189744D01*
X96064774Y-96378102D01*
X96025000Y-96578061D01*
X84932924Y-96578061D01*
X84985000Y-96316260D01*
X84985000Y-96023740D01*
X84927932Y-95736842D01*
X84815990Y-95466589D01*
X84653475Y-95223368D01*
X84446632Y-95016525D01*
X84272240Y-94900000D01*
X84446632Y-94783475D01*
X84653475Y-94576632D01*
X84815990Y-94333411D01*
X84927932Y-94063158D01*
X84985000Y-93776260D01*
X84985000Y-93698061D01*
X96045000Y-93698061D01*
X96045000Y-93901939D01*
X96084774Y-94101898D01*
X96162795Y-94290256D01*
X96276063Y-94459774D01*
X96420226Y-94603937D01*
X96589744Y-94717205D01*
X96778102Y-94795226D01*
X96978061Y-94835000D01*
X97181939Y-94835000D01*
X97381898Y-94795226D01*
X97570256Y-94717205D01*
X97739774Y-94603937D01*
X97883937Y-94459774D01*
X97997205Y-94290256D01*
X98075226Y-94101898D01*
X98115000Y-93901939D01*
X98115000Y-93698061D01*
X98075226Y-93498102D01*
X97997205Y-93309744D01*
X97883937Y-93140226D01*
X97739774Y-92996063D01*
X97570256Y-92882795D01*
X97381898Y-92804774D01*
X97181939Y-92765000D01*
X96978061Y-92765000D01*
X96778102Y-92804774D01*
X96589744Y-92882795D01*
X96420226Y-92996063D01*
X96276063Y-93140226D01*
X96162795Y-93309744D01*
X96084774Y-93498102D01*
X96045000Y-93698061D01*
X84985000Y-93698061D01*
X84985000Y-93483740D01*
X84927932Y-93196842D01*
X84815990Y-92926589D01*
X84653475Y-92683368D01*
X84446632Y-92476525D01*
X84272240Y-92360000D01*
X84446632Y-92243475D01*
X84653475Y-92036632D01*
X84815990Y-91793411D01*
X84927932Y-91523158D01*
X84985000Y-91236260D01*
X84985000Y-90943740D01*
X84927932Y-90656842D01*
X84815990Y-90386589D01*
X84653475Y-90143368D01*
X84515108Y-90005001D01*
X88945398Y-92114663D01*
X88968817Y-92123112D01*
X89000000Y-92127000D01*
X92534226Y-92127000D01*
X92504774Y-92198102D01*
X92465000Y-92398061D01*
X92465000Y-92601939D01*
X92504774Y-92801898D01*
X92582795Y-92990256D01*
X92696063Y-93159774D01*
X92840226Y-93303937D01*
X93009744Y-93417205D01*
X93198102Y-93495226D01*
X93398061Y-93535000D01*
X93601939Y-93535000D01*
X93801898Y-93495226D01*
X93990256Y-93417205D01*
X94159774Y-93303937D01*
X94303937Y-93159774D01*
X94417205Y-92990256D01*
X94495226Y-92801898D01*
X94535000Y-92601939D01*
X94535000Y-92398061D01*
X94495226Y-92198102D01*
X94465774Y-92127000D01*
X106000000Y-92127000D01*
X106024776Y-92124560D01*
X106048601Y-92117333D01*
X106070557Y-92105597D01*
X106089803Y-92089803D01*
X106281545Y-91898061D01*
X111965000Y-91898061D01*
X111965000Y-92101939D01*
X112004774Y-92301898D01*
X112082795Y-92490256D01*
X112196063Y-92659774D01*
X112340226Y-92803937D01*
X112509744Y-92917205D01*
X112698102Y-92995226D01*
X112898061Y-93035000D01*
X113101939Y-93035000D01*
X113301898Y-92995226D01*
X113490256Y-92917205D01*
X113659774Y-92803937D01*
X113803937Y-92659774D01*
X113875000Y-92553420D01*
X113946063Y-92659774D01*
X114090226Y-92803937D01*
X114259744Y-92917205D01*
X114448102Y-92995226D01*
X114648061Y-93035000D01*
X114851939Y-93035000D01*
X115051898Y-92995226D01*
X115240256Y-92917205D01*
X115409774Y-92803937D01*
X115553937Y-92659774D01*
X115667205Y-92490256D01*
X115745226Y-92301898D01*
X115785000Y-92101939D01*
X115785000Y-91898061D01*
X115745226Y-91698102D01*
X115667205Y-91509744D01*
X115553937Y-91340226D01*
X115409774Y-91196063D01*
X115240256Y-91082795D01*
X115051898Y-91004774D01*
X114851939Y-90965000D01*
X114648061Y-90965000D01*
X114448102Y-91004774D01*
X114259744Y-91082795D01*
X114090226Y-91196063D01*
X113946063Y-91340226D01*
X113875000Y-91446580D01*
X113803937Y-91340226D01*
X113659774Y-91196063D01*
X113490256Y-91082795D01*
X113301898Y-91004774D01*
X113101939Y-90965000D01*
X112898061Y-90965000D01*
X112698102Y-91004774D01*
X112509744Y-91082795D01*
X112340226Y-91196063D01*
X112196063Y-91340226D01*
X112082795Y-91509744D01*
X112004774Y-91698102D01*
X111965000Y-91898061D01*
X106281545Y-91898061D01*
X109052606Y-89127000D01*
X122000000Y-89127000D01*
X122024776Y-89124560D01*
X122048601Y-89117333D01*
X122070557Y-89105597D01*
X122089803Y-89089803D01*
X124000000Y-87179606D01*
X126849398Y-90029004D01*
X126019685Y-91965000D01*
X125898061Y-91965000D01*
X125698102Y-92004774D01*
X125509744Y-92082795D01*
X125340226Y-92196063D01*
X125196063Y-92340226D01*
X125082795Y-92509744D01*
X125004774Y-92698102D01*
X124965000Y-92898061D01*
X124965000Y-93101939D01*
X125004774Y-93301898D01*
X125082795Y-93490256D01*
X125196063Y-93659774D01*
X125264167Y-93727878D01*
X124198257Y-96215000D01*
X124148061Y-96215000D01*
X123948102Y-96254774D01*
X123759744Y-96332795D01*
X123590226Y-96446063D01*
X123446063Y-96590226D01*
X123332795Y-96759744D01*
X123254774Y-96948102D01*
X123239978Y-97022489D01*
X109535000Y-99763485D01*
X109535000Y-99648061D01*
X109495226Y-99448102D01*
X109417205Y-99259744D01*
X109303937Y-99090226D01*
X109159774Y-98946063D01*
X108990256Y-98832795D01*
X108801898Y-98754774D01*
X108601939Y-98715000D01*
X108398061Y-98715000D01*
X108198102Y-98754774D01*
X108009744Y-98832795D01*
X107840226Y-98946063D01*
X107696063Y-99090226D01*
X107582795Y-99259744D01*
X107504774Y-99448102D01*
X107465000Y-99648061D01*
X107465000Y-99851939D01*
X107504774Y-100051898D01*
X107549771Y-100160530D01*
X100225093Y-101625466D01*
X100201276Y-101632718D01*
X100179332Y-101644477D01*
X100160104Y-101660291D01*
X100145582Y-101677710D01*
X98713925Y-103745659D01*
X98668102Y-103754774D01*
X98479744Y-103832795D01*
X98310226Y-103946063D01*
X98166063Y-104090226D01*
X98052795Y-104259744D01*
X97974774Y-104448102D01*
X97970000Y-104472103D01*
X97965226Y-104448102D01*
X97887205Y-104259744D01*
X97773937Y-104090226D01*
X97629774Y-103946063D01*
X97460256Y-103832795D01*
X97271898Y-103754774D01*
X97071939Y-103715000D01*
X96868061Y-103715000D01*
X96668102Y-103754774D01*
X96479744Y-103832795D01*
X96310226Y-103946063D01*
X96166063Y-104090226D01*
X96052795Y-104259744D01*
X95990000Y-104411343D01*
X95927205Y-104259744D01*
X95813937Y-104090226D01*
X95669774Y-103946063D01*
X95500256Y-103832795D01*
X95311898Y-103754774D01*
X95111939Y-103715000D01*
X94908061Y-103715000D01*
X94708102Y-103754774D01*
X94519744Y-103832795D01*
X94350226Y-103946063D01*
X94206063Y-104090226D01*
X94092795Y-104259744D01*
X94014774Y-104448102D01*
X94005000Y-104497240D01*
X93995226Y-104448102D01*
X93917205Y-104259744D01*
X93803937Y-104090226D01*
X93659774Y-103946063D01*
X93490256Y-103832795D01*
X93301898Y-103754774D01*
X93101939Y-103715000D01*
X92898061Y-103715000D01*
X92698102Y-103754774D01*
X92509744Y-103832795D01*
X92340226Y-103946063D01*
X92196063Y-104090226D01*
X92082795Y-104259744D01*
X92004774Y-104448102D01*
X92000000Y-104472103D01*
X91995226Y-104448102D01*
X91917205Y-104259744D01*
X91803937Y-104090226D01*
X91659774Y-103946063D01*
X91490256Y-103832795D01*
X91301898Y-103754774D01*
X91101939Y-103715000D01*
X90898061Y-103715000D01*
X90698102Y-103754774D01*
X90509744Y-103832795D01*
X90340226Y-103946063D01*
X90196063Y-104090226D01*
X90082795Y-104259744D01*
X90004774Y-104448102D01*
X89965000Y-104648061D01*
X89965000Y-104851939D01*
X90004774Y-105051898D01*
X90082795Y-105240256D01*
X90196063Y-105409774D01*
X90340226Y-105553937D01*
X90509744Y-105667205D01*
X90698102Y-105745226D01*
X90898061Y-105785000D01*
X91101939Y-105785000D01*
X91301898Y-105745226D01*
X91490256Y-105667205D01*
X91659774Y-105553937D01*
X91803937Y-105409774D01*
X91917205Y-105240256D01*
X91995226Y-105051898D01*
X92000000Y-105027897D01*
X92004774Y-105051898D01*
X92082795Y-105240256D01*
X92196063Y-105409774D01*
X92340226Y-105553937D01*
X92509744Y-105667205D01*
X92698102Y-105745226D01*
X92898061Y-105785000D01*
X93101939Y-105785000D01*
X93301898Y-105745226D01*
X93490256Y-105667205D01*
X93659774Y-105553937D01*
X93803937Y-105409774D01*
X93917205Y-105240256D01*
X93995226Y-105051898D01*
X94005000Y-105002760D01*
X94014774Y-105051898D01*
X94092795Y-105240256D01*
X94206063Y-105409774D01*
X94350226Y-105553937D01*
X94519744Y-105667205D01*
X94708102Y-105745226D01*
X94908061Y-105785000D01*
X95111939Y-105785000D01*
X95311898Y-105745226D01*
X95500256Y-105667205D01*
X95669774Y-105553937D01*
X95813937Y-105409774D01*
X95927205Y-105240256D01*
X95990000Y-105088657D01*
X96052795Y-105240256D01*
X96166063Y-105409774D01*
X96310226Y-105553937D01*
X96479744Y-105667205D01*
X96668102Y-105745226D01*
X96868061Y-105785000D01*
X97071939Y-105785000D01*
X97271898Y-105745226D01*
X97352813Y-105711710D01*
X95645582Y-108177710D01*
X95632952Y-108200717D01*
X95116218Y-109427960D01*
X95109502Y-109405820D01*
X95050537Y-109295506D01*
X94971185Y-109198815D01*
X94874494Y-109119463D01*
X94764180Y-109060498D01*
X94644482Y-109024188D01*
X94520000Y-109011928D01*
X92820000Y-109011928D01*
X92695518Y-109024188D01*
X92575820Y-109060498D01*
X92465506Y-109119463D01*
X92368815Y-109198815D01*
X92289463Y-109295506D01*
X92230498Y-109405820D01*
X92194188Y-109525518D01*
X92181928Y-109650000D01*
X92181928Y-111350000D01*
X92194188Y-111474482D01*
X92230498Y-111594180D01*
X92289463Y-111704494D01*
X92368815Y-111801185D01*
X92465506Y-111880537D01*
X92575820Y-111939502D01*
X92695518Y-111975812D01*
X92820000Y-111988072D01*
X94038276Y-111988072D01*
X93632952Y-112950717D01*
X93625587Y-112974499D01*
X93623323Y-113009048D01*
X94123323Y-120009048D01*
X94127522Y-120033588D01*
X94136428Y-120056837D01*
X94155079Y-120084374D01*
X96125472Y-122301066D01*
X96866165Y-136621129D01*
X90929187Y-136538671D01*
X90917205Y-136509744D01*
X90803937Y-136340226D01*
X90659774Y-136196063D01*
X90490256Y-136082795D01*
X90301898Y-136004774D01*
X90101939Y-135965000D01*
X89898061Y-135965000D01*
X89698102Y-136004774D01*
X89509744Y-136082795D01*
X89340226Y-136196063D01*
X89250000Y-136286289D01*
X89159774Y-136196063D01*
X88990256Y-136082795D01*
X88801898Y-136004774D01*
X88601939Y-135965000D01*
X88398061Y-135965000D01*
X88198102Y-136004774D01*
X88009744Y-136082795D01*
X87840226Y-136196063D01*
X87696063Y-136340226D01*
X87594414Y-136492355D01*
X82356981Y-136419612D01*
X82303937Y-136340226D01*
X82159774Y-136196063D01*
X81990256Y-136082795D01*
X81801898Y-136004774D01*
X81601939Y-135965000D01*
X81398061Y-135965000D01*
X81198102Y-136004774D01*
X81009744Y-136082795D01*
X80840226Y-136196063D01*
X80750000Y-136286289D01*
X80659774Y-136196063D01*
X80490256Y-136082795D01*
X80301898Y-136004774D01*
X80101939Y-135965000D01*
X79898061Y-135965000D01*
X79698102Y-136004774D01*
X79509744Y-136082795D01*
X79340226Y-136196063D01*
X79250000Y-136286289D01*
X79159774Y-136196063D01*
X78990256Y-136082795D01*
X78801898Y-136004774D01*
X78601939Y-135965000D01*
X78398061Y-135965000D01*
X78198102Y-136004774D01*
X78009744Y-136082795D01*
X77840226Y-136196063D01*
X77750000Y-136286289D01*
X77659774Y-136196063D01*
X77490256Y-136082795D01*
X77301898Y-136004774D01*
X77101939Y-135965000D01*
X76898061Y-135965000D01*
X76698102Y-136004774D01*
X76509744Y-136082795D01*
X76340226Y-136196063D01*
X76250000Y-136286289D01*
X76159774Y-136196063D01*
X75990256Y-136082795D01*
X75801898Y-136004774D01*
X75601939Y-135965000D01*
X75398061Y-135965000D01*
X75198102Y-136004774D01*
X75009744Y-136082795D01*
X74840226Y-136196063D01*
X74722708Y-136313581D01*
X61042520Y-136123578D01*
X56376099Y-132685162D01*
X56127000Y-114999134D01*
X56127000Y-101398061D01*
X69215000Y-101398061D01*
X69215000Y-101601939D01*
X69254774Y-101801898D01*
X69332795Y-101990256D01*
X69446063Y-102159774D01*
X69590226Y-102303937D01*
X69759744Y-102417205D01*
X69948102Y-102495226D01*
X70148061Y-102535000D01*
X70351939Y-102535000D01*
X70551898Y-102495226D01*
X70740256Y-102417205D01*
X70909774Y-102303937D01*
X71053937Y-102159774D01*
X71167205Y-101990256D01*
X71245226Y-101801898D01*
X71285000Y-101601939D01*
X71285000Y-101398061D01*
X71245226Y-101198102D01*
X71167205Y-101009744D01*
X71053937Y-100840226D01*
X70909774Y-100696063D01*
X70740256Y-100582795D01*
X70551898Y-100504774D01*
X70351939Y-100465000D01*
X70148061Y-100465000D01*
X69948102Y-100504774D01*
X69759744Y-100582795D01*
X69590226Y-100696063D01*
X69446063Y-100840226D01*
X69332795Y-101009744D01*
X69254774Y-101198102D01*
X69215000Y-101398061D01*
X56127000Y-101398061D01*
X56127000Y-98898061D01*
X69215000Y-98898061D01*
X69215000Y-99101939D01*
X69254774Y-99301898D01*
X69332795Y-99490256D01*
X69446063Y-99659774D01*
X69590226Y-99803937D01*
X69759744Y-99917205D01*
X69948102Y-99995226D01*
X70148061Y-100035000D01*
X70351939Y-100035000D01*
X70551898Y-99995226D01*
X70740256Y-99917205D01*
X70909774Y-99803937D01*
X71053937Y-99659774D01*
X71167205Y-99490256D01*
X71245226Y-99301898D01*
X71285000Y-99101939D01*
X71285000Y-98898061D01*
X71245226Y-98698102D01*
X71167205Y-98509744D01*
X71053937Y-98340226D01*
X70909774Y-98196063D01*
X70740256Y-98082795D01*
X70551898Y-98004774D01*
X70351939Y-97965000D01*
X70148061Y-97965000D01*
X69948102Y-98004774D01*
X69759744Y-98082795D01*
X69590226Y-98196063D01*
X69446063Y-98340226D01*
X69332795Y-98509744D01*
X69254774Y-98698102D01*
X69215000Y-98898061D01*
X56127000Y-98898061D01*
X56127000Y-96398061D01*
X69215000Y-96398061D01*
X69215000Y-96601939D01*
X69254774Y-96801898D01*
X69332795Y-96990256D01*
X69446063Y-97159774D01*
X69590226Y-97303937D01*
X69759744Y-97417205D01*
X69948102Y-97495226D01*
X70148061Y-97535000D01*
X70351939Y-97535000D01*
X70551898Y-97495226D01*
X70740256Y-97417205D01*
X70909774Y-97303937D01*
X71053937Y-97159774D01*
X71167205Y-96990256D01*
X71245226Y-96801898D01*
X71285000Y-96601939D01*
X71285000Y-96398061D01*
X71245226Y-96198102D01*
X71167205Y-96009744D01*
X71053937Y-95840226D01*
X70909774Y-95696063D01*
X70740256Y-95582795D01*
X70551898Y-95504774D01*
X70351939Y-95465000D01*
X70148061Y-95465000D01*
X69948102Y-95504774D01*
X69759744Y-95582795D01*
X69590226Y-95696063D01*
X69446063Y-95840226D01*
X69332795Y-96009744D01*
X69254774Y-96198102D01*
X69215000Y-96398061D01*
X56127000Y-96398061D01*
X56127000Y-93788061D01*
X69215000Y-93788061D01*
X69215000Y-93991939D01*
X69254774Y-94191898D01*
X69332795Y-94380256D01*
X69446063Y-94549774D01*
X69590226Y-94693937D01*
X69759744Y-94807205D01*
X69948102Y-94885226D01*
X70148061Y-94925000D01*
X70351939Y-94925000D01*
X70551898Y-94885226D01*
X70740256Y-94807205D01*
X70909774Y-94693937D01*
X71053937Y-94549774D01*
X71167205Y-94380256D01*
X71245226Y-94191898D01*
X71285000Y-93991939D01*
X71285000Y-93788061D01*
X71245226Y-93588102D01*
X71167205Y-93399744D01*
X71053937Y-93230226D01*
X70909774Y-93086063D01*
X70740256Y-92972795D01*
X70551898Y-92894774D01*
X70351939Y-92855000D01*
X70148061Y-92855000D01*
X69948102Y-92894774D01*
X69759744Y-92972795D01*
X69590226Y-93086063D01*
X69446063Y-93230226D01*
X69332795Y-93399744D01*
X69254774Y-93588102D01*
X69215000Y-93788061D01*
X56127000Y-93788061D01*
X56127000Y-91248061D01*
X69215000Y-91248061D01*
X69215000Y-91451939D01*
X69254774Y-91651898D01*
X69332795Y-91840256D01*
X69446063Y-92009774D01*
X69590226Y-92153937D01*
X69759744Y-92267205D01*
X69948102Y-92345226D01*
X70148061Y-92385000D01*
X70351939Y-92385000D01*
X70551898Y-92345226D01*
X70740256Y-92267205D01*
X70909774Y-92153937D01*
X71053937Y-92009774D01*
X71167205Y-91840256D01*
X71245226Y-91651898D01*
X71285000Y-91451939D01*
X71285000Y-91248061D01*
X71245226Y-91048102D01*
X71167205Y-90859744D01*
X71053937Y-90690226D01*
X70909774Y-90546063D01*
X70740256Y-90432795D01*
X70551898Y-90354774D01*
X70351939Y-90315000D01*
X70148061Y-90315000D01*
X69948102Y-90354774D01*
X69759744Y-90432795D01*
X69590226Y-90546063D01*
X69446063Y-90690226D01*
X69332795Y-90859744D01*
X69254774Y-91048102D01*
X69215000Y-91248061D01*
X56127000Y-91248061D01*
X56127000Y-88938061D01*
X68505000Y-88938061D01*
X68505000Y-89141939D01*
X68544774Y-89341898D01*
X68622795Y-89530256D01*
X68736063Y-89699774D01*
X68880226Y-89843937D01*
X69049744Y-89957205D01*
X69238102Y-90035226D01*
X69438061Y-90075000D01*
X69641939Y-90075000D01*
X69841898Y-90035226D01*
X70030256Y-89957205D01*
X70199774Y-89843937D01*
X70343937Y-89699774D01*
X70457205Y-89530256D01*
X70535226Y-89341898D01*
X70575000Y-89141939D01*
X70575000Y-88938061D01*
X70535226Y-88738102D01*
X70457205Y-88549744D01*
X70343937Y-88380226D01*
X70199774Y-88236063D01*
X70030256Y-88122795D01*
X69841898Y-88044774D01*
X69641939Y-88005000D01*
X69438061Y-88005000D01*
X69238102Y-88044774D01*
X69049744Y-88122795D01*
X68880226Y-88236063D01*
X68736063Y-88380226D01*
X68622795Y-88549744D01*
X68544774Y-88738102D01*
X68505000Y-88938061D01*
X56127000Y-88938061D01*
X56127000Y-85038452D01*
X56470594Y-84523061D01*
X66340000Y-84523061D01*
X66340000Y-84726939D01*
X66379774Y-84926898D01*
X66457795Y-85115256D01*
X66571063Y-85284774D01*
X66715226Y-85428937D01*
X66884744Y-85542205D01*
X67073102Y-85620226D01*
X67273061Y-85660000D01*
X67476939Y-85660000D01*
X67676898Y-85620226D01*
X67865256Y-85542205D01*
X68034774Y-85428937D01*
X68178937Y-85284774D01*
X68292205Y-85115256D01*
X68370226Y-84926898D01*
X68410000Y-84726939D01*
X68410000Y-84523061D01*
X68370226Y-84323102D01*
X68292205Y-84134744D01*
X68178937Y-83965226D01*
X68034774Y-83821063D01*
X67865256Y-83707795D01*
X67676898Y-83629774D01*
X67476939Y-83590000D01*
X67273061Y-83590000D01*
X67073102Y-83629774D01*
X66884744Y-83707795D01*
X66715226Y-83821063D01*
X66571063Y-83965226D01*
X66457795Y-84134744D01*
X66379774Y-84323102D01*
X66340000Y-84523061D01*
X56470594Y-84523061D01*
X58067968Y-82127000D01*
X67971306Y-82127000D01*
X69273274Y-82746985D01*
G36*
X110072438Y-53548927D02*
G01*
X110084476Y-54114731D01*
X110043475Y-54053368D01*
X109836632Y-53846525D01*
X109593411Y-53684010D01*
X109323158Y-53572068D01*
X109036260Y-53515000D01*
X108743740Y-53515000D01*
X108456842Y-53572068D01*
X108186589Y-53684010D01*
X107943368Y-53846525D01*
X107736525Y-54053368D01*
X107614805Y-54235534D01*
X107545178Y-54118645D01*
X107350269Y-53902412D01*
X107116920Y-53728359D01*
X106854099Y-53603175D01*
X106706890Y-53558524D01*
X106477000Y-53679845D01*
X106477000Y-54873000D01*
X106497000Y-54873000D01*
X106497000Y-55127000D01*
X106477000Y-55127000D01*
X106477000Y-55147000D01*
X106223000Y-55147000D01*
X106223000Y-55127000D01*
X103937000Y-55127000D01*
X103937000Y-55147000D01*
X103683000Y-55147000D01*
X103683000Y-55127000D01*
X103663000Y-55127000D01*
X103663000Y-54873000D01*
X103683000Y-54873000D01*
X103683000Y-53679845D01*
X103937000Y-53679845D01*
X103937000Y-54873000D01*
X106223000Y-54873000D01*
X106223000Y-53679845D01*
X105993110Y-53558524D01*
X105845901Y-53603175D01*
X105583080Y-53728359D01*
X105349731Y-53902412D01*
X105154822Y-54118645D01*
X105080000Y-54244255D01*
X105005178Y-54118645D01*
X104810269Y-53902412D01*
X104576920Y-53728359D01*
X104314099Y-53603175D01*
X104166890Y-53558524D01*
X103937000Y-53679845D01*
X103683000Y-53679845D01*
X103453110Y-53558524D01*
X103305901Y-53603175D01*
X103043080Y-53728359D01*
X102809731Y-53902412D01*
X102614822Y-54118645D01*
X102545195Y-54235534D01*
X102423475Y-54053368D01*
X102216632Y-53846525D01*
X101973411Y-53684010D01*
X101703158Y-53572068D01*
X101416260Y-53515000D01*
X101123740Y-53515000D01*
X100836842Y-53572068D01*
X100566589Y-53684010D01*
X100323368Y-53846525D01*
X100116525Y-54053368D01*
X100000000Y-54227760D01*
X99883475Y-54053368D01*
X99676632Y-53846525D01*
X99433411Y-53684010D01*
X99163158Y-53572068D01*
X98876260Y-53515000D01*
X98583740Y-53515000D01*
X98296842Y-53572068D01*
X98026589Y-53684010D01*
X97783368Y-53846525D01*
X97576525Y-54053368D01*
X97460000Y-54227760D01*
X97343475Y-54053368D01*
X97136632Y-53846525D01*
X96893411Y-53684010D01*
X96623158Y-53572068D01*
X96336260Y-53515000D01*
X96043740Y-53515000D01*
X95756842Y-53572068D01*
X95486589Y-53684010D01*
X95243368Y-53846525D01*
X95036525Y-54053368D01*
X94920000Y-54227760D01*
X94803475Y-54053368D01*
X94596632Y-53846525D01*
X94353411Y-53684010D01*
X94083158Y-53572068D01*
X93796260Y-53515000D01*
X93503740Y-53515000D01*
X93216842Y-53572068D01*
X92946589Y-53684010D01*
X92703368Y-53846525D01*
X92496525Y-54053368D01*
X92374805Y-54235534D01*
X92305178Y-54118645D01*
X92110269Y-53902412D01*
X91876920Y-53728359D01*
X91614099Y-53603175D01*
X91466890Y-53558524D01*
X91237000Y-53679845D01*
X91237000Y-54873000D01*
X91257000Y-54873000D01*
X91257000Y-55127000D01*
X91237000Y-55127000D01*
X91237000Y-55147000D01*
X90983000Y-55147000D01*
X90983000Y-55127000D01*
X88697000Y-55127000D01*
X88697000Y-55147000D01*
X88443000Y-55147000D01*
X88443000Y-55127000D01*
X88423000Y-55127000D01*
X88423000Y-54873000D01*
X88443000Y-54873000D01*
X88443000Y-53679845D01*
X88697000Y-53679845D01*
X88697000Y-54873000D01*
X90983000Y-54873000D01*
X90983000Y-53679845D01*
X90753110Y-53558524D01*
X90605901Y-53603175D01*
X90343080Y-53728359D01*
X90109731Y-53902412D01*
X89914822Y-54118645D01*
X89840000Y-54244255D01*
X89765178Y-54118645D01*
X89570269Y-53902412D01*
X89336920Y-53728359D01*
X89074099Y-53603175D01*
X88926890Y-53558524D01*
X88697000Y-53679845D01*
X88443000Y-53679845D01*
X88213110Y-53558524D01*
X88065901Y-53603175D01*
X87803080Y-53728359D01*
X87569731Y-53902412D01*
X87374822Y-54118645D01*
X87305195Y-54235534D01*
X87183475Y-54053368D01*
X86976632Y-53846525D01*
X86733411Y-53684010D01*
X86463158Y-53572068D01*
X86176260Y-53515000D01*
X85883740Y-53515000D01*
X85596842Y-53572068D01*
X85326589Y-53684010D01*
X85083368Y-53846525D01*
X84876525Y-54053368D01*
X84760000Y-54227760D01*
X84643475Y-54053368D01*
X84436632Y-53846525D01*
X84193411Y-53684010D01*
X83923158Y-53572068D01*
X83636260Y-53515000D01*
X83343740Y-53515000D01*
X83056842Y-53572068D01*
X82786589Y-53684010D01*
X82543368Y-53846525D01*
X82336525Y-54053368D01*
X82220000Y-54227760D01*
X82103475Y-54053368D01*
X81896632Y-53846525D01*
X81653411Y-53684010D01*
X81383158Y-53572068D01*
X81096260Y-53515000D01*
X80803740Y-53515000D01*
X80516842Y-53572068D01*
X80246589Y-53684010D01*
X80003368Y-53846525D01*
X79796525Y-54053368D01*
X79680000Y-54227760D01*
X79563475Y-54053368D01*
X79356632Y-53846525D01*
X79113411Y-53684010D01*
X78843158Y-53572068D01*
X78556260Y-53515000D01*
X78263740Y-53515000D01*
X77976842Y-53572068D01*
X77706589Y-53684010D01*
X77463368Y-53846525D01*
X77256525Y-54053368D01*
X77140000Y-54227760D01*
X77023475Y-54053368D01*
X76816632Y-53846525D01*
X76573411Y-53684010D01*
X76303158Y-53572068D01*
X76016260Y-53515000D01*
X75723740Y-53515000D01*
X75436842Y-53572068D01*
X75166589Y-53684010D01*
X74923368Y-53846525D01*
X74716525Y-54053368D01*
X74554010Y-54296589D01*
X74442068Y-54566842D01*
X74385000Y-54853740D01*
X74385000Y-55146260D01*
X74442068Y-55433158D01*
X74554010Y-55703411D01*
X74716525Y-55946632D01*
X74848380Y-56078487D01*
X74775820Y-56100498D01*
X74665506Y-56159463D01*
X74568815Y-56238815D01*
X74489463Y-56335506D01*
X74430498Y-56445820D01*
X74394188Y-56565518D01*
X74381928Y-56690000D01*
X74381928Y-58390000D01*
X74394188Y-58514482D01*
X74430498Y-58634180D01*
X74489463Y-58744494D01*
X74568815Y-58841185D01*
X74665506Y-58920537D01*
X74775820Y-58979502D01*
X74895518Y-59015812D01*
X75020000Y-59028072D01*
X76720000Y-59028072D01*
X76844482Y-59015812D01*
X76964180Y-58979502D01*
X77074494Y-58920537D01*
X77171185Y-58841185D01*
X77250537Y-58744494D01*
X77309502Y-58634180D01*
X77331513Y-58561620D01*
X77463368Y-58693475D01*
X77706589Y-58855990D01*
X77976842Y-58967932D01*
X78263740Y-59025000D01*
X78556260Y-59025000D01*
X78843158Y-58967932D01*
X79113411Y-58855990D01*
X79356632Y-58693475D01*
X79563475Y-58486632D01*
X79680000Y-58312240D01*
X79796525Y-58486632D01*
X80003368Y-58693475D01*
X80246589Y-58855990D01*
X80516842Y-58967932D01*
X80803740Y-59025000D01*
X81096260Y-59025000D01*
X81383158Y-58967932D01*
X81653411Y-58855990D01*
X81896632Y-58693475D01*
X82103475Y-58486632D01*
X82220000Y-58312240D01*
X82336525Y-58486632D01*
X82543368Y-58693475D01*
X82786589Y-58855990D01*
X83056842Y-58967932D01*
X83343740Y-59025000D01*
X83636260Y-59025000D01*
X83923158Y-58967932D01*
X84193411Y-58855990D01*
X84436632Y-58693475D01*
X84643475Y-58486632D01*
X84760000Y-58312240D01*
X84876525Y-58486632D01*
X85083368Y-58693475D01*
X85326589Y-58855990D01*
X85596842Y-58967932D01*
X85883740Y-59025000D01*
X86176260Y-59025000D01*
X86463158Y-58967932D01*
X86733411Y-58855990D01*
X86976632Y-58693475D01*
X87183475Y-58486632D01*
X87300000Y-58312240D01*
X87416525Y-58486632D01*
X87623368Y-58693475D01*
X87866589Y-58855990D01*
X88136842Y-58967932D01*
X88423740Y-59025000D01*
X88716260Y-59025000D01*
X89003158Y-58967932D01*
X89273411Y-58855990D01*
X89516632Y-58693475D01*
X89723475Y-58486632D01*
X89840000Y-58312240D01*
X89956525Y-58486632D01*
X90163368Y-58693475D01*
X90406589Y-58855990D01*
X90676842Y-58967932D01*
X90963740Y-59025000D01*
X91256260Y-59025000D01*
X91543158Y-58967932D01*
X91813411Y-58855990D01*
X92056632Y-58693475D01*
X92263475Y-58486632D01*
X92380000Y-58312240D01*
X92496525Y-58486632D01*
X92703368Y-58693475D01*
X92946589Y-58855990D01*
X93216842Y-58967932D01*
X93503740Y-59025000D01*
X93796260Y-59025000D01*
X94083158Y-58967932D01*
X94353411Y-58855990D01*
X94596632Y-58693475D01*
X94803475Y-58486632D01*
X94920000Y-58312240D01*
X95036525Y-58486632D01*
X95243368Y-58693475D01*
X95486589Y-58855990D01*
X95756842Y-58967932D01*
X96043740Y-59025000D01*
X96336260Y-59025000D01*
X96623158Y-58967932D01*
X96893411Y-58855990D01*
X97136632Y-58693475D01*
X97343475Y-58486632D01*
X97460000Y-58312240D01*
X97576525Y-58486632D01*
X97783368Y-58693475D01*
X98026589Y-58855990D01*
X98296842Y-58967932D01*
X98583740Y-59025000D01*
X98876260Y-59025000D01*
X99163158Y-58967932D01*
X99433411Y-58855990D01*
X99676632Y-58693475D01*
X99883475Y-58486632D01*
X100000000Y-58312240D01*
X100116525Y-58486632D01*
X100323368Y-58693475D01*
X100566589Y-58855990D01*
X100836842Y-58967932D01*
X101123740Y-59025000D01*
X101416260Y-59025000D01*
X101703158Y-58967932D01*
X101973411Y-58855990D01*
X102216632Y-58693475D01*
X102423475Y-58486632D01*
X102540000Y-58312240D01*
X102656525Y-58486632D01*
X102863368Y-58693475D01*
X103106589Y-58855990D01*
X103376842Y-58967932D01*
X103663740Y-59025000D01*
X103956260Y-59025000D01*
X104243158Y-58967932D01*
X104513411Y-58855990D01*
X104756632Y-58693475D01*
X104963475Y-58486632D01*
X105080000Y-58312240D01*
X105196525Y-58486632D01*
X105403368Y-58693475D01*
X105646589Y-58855990D01*
X105916842Y-58967932D01*
X106203740Y-59025000D01*
X106496260Y-59025000D01*
X106783158Y-58967932D01*
X107053411Y-58855990D01*
X107296632Y-58693475D01*
X107503475Y-58486632D01*
X107620000Y-58312240D01*
X107736525Y-58486632D01*
X107943368Y-58693475D01*
X108186589Y-58855990D01*
X108456842Y-58967932D01*
X108743740Y-59025000D01*
X109036260Y-59025000D01*
X109323158Y-58967932D01*
X109593411Y-58855990D01*
X109836632Y-58693475D01*
X110043475Y-58486632D01*
X110160000Y-58312240D01*
X110174238Y-58333549D01*
X110228631Y-60890000D01*
X110223061Y-60890000D01*
X110023102Y-60929774D01*
X109834744Y-61007795D01*
X109665226Y-61121063D01*
X109521063Y-61265226D01*
X109407795Y-61434744D01*
X109329774Y-61623102D01*
X109290000Y-61823061D01*
X109290000Y-62026939D01*
X109329774Y-62226898D01*
X109407795Y-62415256D01*
X109521063Y-62584774D01*
X109665226Y-62728937D01*
X109834744Y-62842205D01*
X110023102Y-62920226D01*
X110223061Y-62960000D01*
X110272674Y-62960000D01*
X110323876Y-65366518D01*
X107859293Y-67831101D01*
X85999757Y-67873000D01*
X85974985Y-67875488D01*
X85951174Y-67882761D01*
X85929240Y-67894539D01*
X85910197Y-67910197D01*
X82947394Y-70873000D01*
X59067968Y-70873000D01*
X56784676Y-67448061D01*
X81265000Y-67448061D01*
X81265000Y-67651939D01*
X81304774Y-67851898D01*
X81382795Y-68040256D01*
X81496063Y-68209774D01*
X81640226Y-68353937D01*
X81809744Y-68467205D01*
X81998102Y-68545226D01*
X82198061Y-68585000D01*
X82401939Y-68585000D01*
X82601898Y-68545226D01*
X82790256Y-68467205D01*
X82959774Y-68353937D01*
X83103937Y-68209774D01*
X83217205Y-68040256D01*
X83295226Y-67851898D01*
X83335000Y-67651939D01*
X83335000Y-67448061D01*
X83295226Y-67248102D01*
X83217205Y-67059744D01*
X83103937Y-66890226D01*
X82959774Y-66746063D01*
X82790256Y-66632795D01*
X82601898Y-66554774D01*
X82401939Y-66515000D01*
X82198061Y-66515000D01*
X81998102Y-66554774D01*
X81809744Y-66632795D01*
X81640226Y-66746063D01*
X81496063Y-66890226D01*
X81382795Y-67059744D01*
X81304774Y-67248102D01*
X81265000Y-67448061D01*
X56784676Y-67448061D01*
X55175273Y-65033958D01*
X55300814Y-64948061D01*
X88265000Y-64948061D01*
X88265000Y-65151939D01*
X88304774Y-65351898D01*
X88382795Y-65540256D01*
X88496063Y-65709774D01*
X88640226Y-65853937D01*
X88809744Y-65967205D01*
X88998102Y-66045226D01*
X89198061Y-66085000D01*
X89401939Y-66085000D01*
X89601898Y-66045226D01*
X89790256Y-65967205D01*
X89959774Y-65853937D01*
X90103937Y-65709774D01*
X90217205Y-65540256D01*
X90295226Y-65351898D01*
X90335000Y-65151939D01*
X90335000Y-64948061D01*
X90295226Y-64748102D01*
X90217205Y-64559744D01*
X90209399Y-64548061D01*
X94315000Y-64548061D01*
X94315000Y-64751939D01*
X94354774Y-64951898D01*
X94432795Y-65140256D01*
X94546063Y-65309774D01*
X94690226Y-65453937D01*
X94859744Y-65567205D01*
X95048102Y-65645226D01*
X95248061Y-65685000D01*
X95451939Y-65685000D01*
X95651898Y-65645226D01*
X95840256Y-65567205D01*
X96009774Y-65453937D01*
X96153937Y-65309774D01*
X96267205Y-65140256D01*
X96345226Y-64951898D01*
X96385000Y-64751939D01*
X96385000Y-64748061D01*
X103615000Y-64748061D01*
X103615000Y-64951939D01*
X103654774Y-65151898D01*
X103732795Y-65340256D01*
X103846063Y-65509774D01*
X103990226Y-65653937D01*
X104159744Y-65767205D01*
X104348102Y-65845226D01*
X104548061Y-65885000D01*
X104751939Y-65885000D01*
X104951898Y-65845226D01*
X105140256Y-65767205D01*
X105309774Y-65653937D01*
X105453937Y-65509774D01*
X105567205Y-65340256D01*
X105645226Y-65151898D01*
X105685000Y-64951939D01*
X105685000Y-64748061D01*
X105645226Y-64548102D01*
X105567205Y-64359744D01*
X105453937Y-64190226D01*
X105309774Y-64046063D01*
X105140256Y-63932795D01*
X104951898Y-63854774D01*
X104751939Y-63815000D01*
X104548061Y-63815000D01*
X104348102Y-63854774D01*
X104159744Y-63932795D01*
X103990226Y-64046063D01*
X103846063Y-64190226D01*
X103732795Y-64359744D01*
X103654774Y-64548102D01*
X103615000Y-64748061D01*
X96385000Y-64748061D01*
X96385000Y-64548061D01*
X96345226Y-64348102D01*
X96267205Y-64159744D01*
X96153937Y-63990226D01*
X96009774Y-63846063D01*
X95840256Y-63732795D01*
X95651898Y-63654774D01*
X95451939Y-63615000D01*
X95248061Y-63615000D01*
X95048102Y-63654774D01*
X94859744Y-63732795D01*
X94690226Y-63846063D01*
X94546063Y-63990226D01*
X94432795Y-64159744D01*
X94354774Y-64348102D01*
X94315000Y-64548061D01*
X90209399Y-64548061D01*
X90103937Y-64390226D01*
X89959774Y-64246063D01*
X89790256Y-64132795D01*
X89601898Y-64054774D01*
X89401939Y-64015000D01*
X89198061Y-64015000D01*
X88998102Y-64054774D01*
X88809744Y-64132795D01*
X88640226Y-64246063D01*
X88496063Y-64390226D01*
X88382795Y-64559744D01*
X88304774Y-64748102D01*
X88265000Y-64948061D01*
X55300814Y-64948061D01*
X59381788Y-62155816D01*
X59779872Y-62235000D01*
X60220128Y-62235000D01*
X60651925Y-62149110D01*
X60895878Y-62048061D01*
X76565000Y-62048061D01*
X76565000Y-62251939D01*
X76604774Y-62451898D01*
X76682795Y-62640256D01*
X76796063Y-62809774D01*
X76940226Y-62953937D01*
X77109744Y-63067205D01*
X77298102Y-63145226D01*
X77498061Y-63185000D01*
X77701939Y-63185000D01*
X77901898Y-63145226D01*
X78090256Y-63067205D01*
X78259774Y-62953937D01*
X78403937Y-62809774D01*
X78517205Y-62640256D01*
X78595226Y-62451898D01*
X78625825Y-62298061D01*
X83315000Y-62298061D01*
X83315000Y-62501939D01*
X83354774Y-62701898D01*
X83432795Y-62890256D01*
X83546063Y-63059774D01*
X83690226Y-63203937D01*
X83859744Y-63317205D01*
X84048102Y-63395226D01*
X84248061Y-63435000D01*
X84451939Y-63435000D01*
X84651898Y-63395226D01*
X84840256Y-63317205D01*
X85009774Y-63203937D01*
X85153937Y-63059774D01*
X85267205Y-62890256D01*
X85345226Y-62701898D01*
X85385000Y-62501939D01*
X85385000Y-62298061D01*
X85345226Y-62098102D01*
X85267205Y-61909744D01*
X85153937Y-61740226D01*
X85009774Y-61596063D01*
X84840256Y-61482795D01*
X84651898Y-61404774D01*
X84451939Y-61365000D01*
X84248061Y-61365000D01*
X84048102Y-61404774D01*
X83859744Y-61482795D01*
X83690226Y-61596063D01*
X83546063Y-61740226D01*
X83432795Y-61909744D01*
X83354774Y-62098102D01*
X83315000Y-62298061D01*
X78625825Y-62298061D01*
X78635000Y-62251939D01*
X78635000Y-62048061D01*
X78595226Y-61848102D01*
X78517205Y-61659744D01*
X78403937Y-61490226D01*
X78259774Y-61346063D01*
X78090256Y-61232795D01*
X77901898Y-61154774D01*
X77701939Y-61115000D01*
X77498061Y-61115000D01*
X77298102Y-61154774D01*
X77109744Y-61232795D01*
X76940226Y-61346063D01*
X76796063Y-61490226D01*
X76682795Y-61659744D01*
X76604774Y-61848102D01*
X76565000Y-62048061D01*
X60895878Y-62048061D01*
X61058669Y-61980631D01*
X61424729Y-61736038D01*
X61736038Y-61424729D01*
X61980631Y-61058669D01*
X62149110Y-60651925D01*
X62235000Y-60220128D01*
X62235000Y-60203619D01*
X74039364Y-52126949D01*
X107873623Y-52083050D01*
X110072438Y-53548927D01*
G37*
X110072438Y-53548927D02*
X110084476Y-54114731D01*
X110043475Y-54053368D01*
X109836632Y-53846525D01*
X109593411Y-53684010D01*
X109323158Y-53572068D01*
X109036260Y-53515000D01*
X108743740Y-53515000D01*
X108456842Y-53572068D01*
X108186589Y-53684010D01*
X107943368Y-53846525D01*
X107736525Y-54053368D01*
X107614805Y-54235534D01*
X107545178Y-54118645D01*
X107350269Y-53902412D01*
X107116920Y-53728359D01*
X106854099Y-53603175D01*
X106706890Y-53558524D01*
X106477000Y-53679845D01*
X106477000Y-54873000D01*
X106497000Y-54873000D01*
X106497000Y-55127000D01*
X106477000Y-55127000D01*
X106477000Y-55147000D01*
X106223000Y-55147000D01*
X106223000Y-55127000D01*
X103937000Y-55127000D01*
X103937000Y-55147000D01*
X103683000Y-55147000D01*
X103683000Y-55127000D01*
X103663000Y-55127000D01*
X103663000Y-54873000D01*
X103683000Y-54873000D01*
X103683000Y-53679845D01*
X103937000Y-53679845D01*
X103937000Y-54873000D01*
X106223000Y-54873000D01*
X106223000Y-53679845D01*
X105993110Y-53558524D01*
X105845901Y-53603175D01*
X105583080Y-53728359D01*
X105349731Y-53902412D01*
X105154822Y-54118645D01*
X105080000Y-54244255D01*
X105005178Y-54118645D01*
X104810269Y-53902412D01*
X104576920Y-53728359D01*
X104314099Y-53603175D01*
X104166890Y-53558524D01*
X103937000Y-53679845D01*
X103683000Y-53679845D01*
X103453110Y-53558524D01*
X103305901Y-53603175D01*
X103043080Y-53728359D01*
X102809731Y-53902412D01*
X102614822Y-54118645D01*
X102545195Y-54235534D01*
X102423475Y-54053368D01*
X102216632Y-53846525D01*
X101973411Y-53684010D01*
X101703158Y-53572068D01*
X101416260Y-53515000D01*
X101123740Y-53515000D01*
X100836842Y-53572068D01*
X100566589Y-53684010D01*
X100323368Y-53846525D01*
X100116525Y-54053368D01*
X100000000Y-54227760D01*
X99883475Y-54053368D01*
X99676632Y-53846525D01*
X99433411Y-53684010D01*
X99163158Y-53572068D01*
X98876260Y-53515000D01*
X98583740Y-53515000D01*
X98296842Y-53572068D01*
X98026589Y-53684010D01*
X97783368Y-53846525D01*
X97576525Y-54053368D01*
X97460000Y-54227760D01*
X97343475Y-54053368D01*
X97136632Y-53846525D01*
X96893411Y-53684010D01*
X96623158Y-53572068D01*
X96336260Y-53515000D01*
X96043740Y-53515000D01*
X95756842Y-53572068D01*
X95486589Y-53684010D01*
X95243368Y-53846525D01*
X95036525Y-54053368D01*
X94920000Y-54227760D01*
X94803475Y-54053368D01*
X94596632Y-53846525D01*
X94353411Y-53684010D01*
X94083158Y-53572068D01*
X93796260Y-53515000D01*
X93503740Y-53515000D01*
X93216842Y-53572068D01*
X92946589Y-53684010D01*
X92703368Y-53846525D01*
X92496525Y-54053368D01*
X92374805Y-54235534D01*
X92305178Y-54118645D01*
X92110269Y-53902412D01*
X91876920Y-53728359D01*
X91614099Y-53603175D01*
X91466890Y-53558524D01*
X91237000Y-53679845D01*
X91237000Y-54873000D01*
X91257000Y-54873000D01*
X91257000Y-55127000D01*
X91237000Y-55127000D01*
X91237000Y-55147000D01*
X90983000Y-55147000D01*
X90983000Y-55127000D01*
X88697000Y-55127000D01*
X88697000Y-55147000D01*
X88443000Y-55147000D01*
X88443000Y-55127000D01*
X88423000Y-55127000D01*
X88423000Y-54873000D01*
X88443000Y-54873000D01*
X88443000Y-53679845D01*
X88697000Y-53679845D01*
X88697000Y-54873000D01*
X90983000Y-54873000D01*
X90983000Y-53679845D01*
X90753110Y-53558524D01*
X90605901Y-53603175D01*
X90343080Y-53728359D01*
X90109731Y-53902412D01*
X89914822Y-54118645D01*
X89840000Y-54244255D01*
X89765178Y-54118645D01*
X89570269Y-53902412D01*
X89336920Y-53728359D01*
X89074099Y-53603175D01*
X88926890Y-53558524D01*
X88697000Y-53679845D01*
X88443000Y-53679845D01*
X88213110Y-53558524D01*
X88065901Y-53603175D01*
X87803080Y-53728359D01*
X87569731Y-53902412D01*
X87374822Y-54118645D01*
X87305195Y-54235534D01*
X87183475Y-54053368D01*
X86976632Y-53846525D01*
X86733411Y-53684010D01*
X86463158Y-53572068D01*
X86176260Y-53515000D01*
X85883740Y-53515000D01*
X85596842Y-53572068D01*
X85326589Y-53684010D01*
X85083368Y-53846525D01*
X84876525Y-54053368D01*
X84760000Y-54227760D01*
X84643475Y-54053368D01*
X84436632Y-53846525D01*
X84193411Y-53684010D01*
X83923158Y-53572068D01*
X83636260Y-53515000D01*
X83343740Y-53515000D01*
X83056842Y-53572068D01*
X82786589Y-53684010D01*
X82543368Y-53846525D01*
X82336525Y-54053368D01*
X82220000Y-54227760D01*
X82103475Y-54053368D01*
X81896632Y-53846525D01*
X81653411Y-53684010D01*
X81383158Y-53572068D01*
X81096260Y-53515000D01*
X80803740Y-53515000D01*
X80516842Y-53572068D01*
X80246589Y-53684010D01*
X80003368Y-53846525D01*
X79796525Y-54053368D01*
X79680000Y-54227760D01*
X79563475Y-54053368D01*
X79356632Y-53846525D01*
X79113411Y-53684010D01*
X78843158Y-53572068D01*
X78556260Y-53515000D01*
X78263740Y-53515000D01*
X77976842Y-53572068D01*
X77706589Y-53684010D01*
X77463368Y-53846525D01*
X77256525Y-54053368D01*
X77140000Y-54227760D01*
X77023475Y-54053368D01*
X76816632Y-53846525D01*
X76573411Y-53684010D01*
X76303158Y-53572068D01*
X76016260Y-53515000D01*
X75723740Y-53515000D01*
X75436842Y-53572068D01*
X75166589Y-53684010D01*
X74923368Y-53846525D01*
X74716525Y-54053368D01*
X74554010Y-54296589D01*
X74442068Y-54566842D01*
X74385000Y-54853740D01*
X74385000Y-55146260D01*
X74442068Y-55433158D01*
X74554010Y-55703411D01*
X74716525Y-55946632D01*
X74848380Y-56078487D01*
X74775820Y-56100498D01*
X74665506Y-56159463D01*
X74568815Y-56238815D01*
X74489463Y-56335506D01*
X74430498Y-56445820D01*
X74394188Y-56565518D01*
X74381928Y-56690000D01*
X74381928Y-58390000D01*
X74394188Y-58514482D01*
X74430498Y-58634180D01*
X74489463Y-58744494D01*
X74568815Y-58841185D01*
X74665506Y-58920537D01*
X74775820Y-58979502D01*
X74895518Y-59015812D01*
X75020000Y-59028072D01*
X76720000Y-59028072D01*
X76844482Y-59015812D01*
X76964180Y-58979502D01*
X77074494Y-58920537D01*
X77171185Y-58841185D01*
X77250537Y-58744494D01*
X77309502Y-58634180D01*
X77331513Y-58561620D01*
X77463368Y-58693475D01*
X77706589Y-58855990D01*
X77976842Y-58967932D01*
X78263740Y-59025000D01*
X78556260Y-59025000D01*
X78843158Y-58967932D01*
X79113411Y-58855990D01*
X79356632Y-58693475D01*
X79563475Y-58486632D01*
X79680000Y-58312240D01*
X79796525Y-58486632D01*
X80003368Y-58693475D01*
X80246589Y-58855990D01*
X80516842Y-58967932D01*
X80803740Y-59025000D01*
X81096260Y-59025000D01*
X81383158Y-58967932D01*
X81653411Y-58855990D01*
X81896632Y-58693475D01*
X82103475Y-58486632D01*
X82220000Y-58312240D01*
X82336525Y-58486632D01*
X82543368Y-58693475D01*
X82786589Y-58855990D01*
X83056842Y-58967932D01*
X83343740Y-59025000D01*
X83636260Y-59025000D01*
X83923158Y-58967932D01*
X84193411Y-58855990D01*
X84436632Y-58693475D01*
X84643475Y-58486632D01*
X84760000Y-58312240D01*
X84876525Y-58486632D01*
X85083368Y-58693475D01*
X85326589Y-58855990D01*
X85596842Y-58967932D01*
X85883740Y-59025000D01*
X86176260Y-59025000D01*
X86463158Y-58967932D01*
X86733411Y-58855990D01*
X86976632Y-58693475D01*
X87183475Y-58486632D01*
X87300000Y-58312240D01*
X87416525Y-58486632D01*
X87623368Y-58693475D01*
X87866589Y-58855990D01*
X88136842Y-58967932D01*
X88423740Y-59025000D01*
X88716260Y-59025000D01*
X89003158Y-58967932D01*
X89273411Y-58855990D01*
X89516632Y-58693475D01*
X89723475Y-58486632D01*
X89840000Y-58312240D01*
X89956525Y-58486632D01*
X90163368Y-58693475D01*
X90406589Y-58855990D01*
X90676842Y-58967932D01*
X90963740Y-59025000D01*
X91256260Y-59025000D01*
X91543158Y-58967932D01*
X91813411Y-58855990D01*
X92056632Y-58693475D01*
X92263475Y-58486632D01*
X92380000Y-58312240D01*
X92496525Y-58486632D01*
X92703368Y-58693475D01*
X92946589Y-58855990D01*
X93216842Y-58967932D01*
X93503740Y-59025000D01*
X93796260Y-59025000D01*
X94083158Y-58967932D01*
X94353411Y-58855990D01*
X94596632Y-58693475D01*
X94803475Y-58486632D01*
X94920000Y-58312240D01*
X95036525Y-58486632D01*
X95243368Y-58693475D01*
X95486589Y-58855990D01*
X95756842Y-58967932D01*
X96043740Y-59025000D01*
X96336260Y-59025000D01*
X96623158Y-58967932D01*
X96893411Y-58855990D01*
X97136632Y-58693475D01*
X97343475Y-58486632D01*
X97460000Y-58312240D01*
X97576525Y-58486632D01*
X97783368Y-58693475D01*
X98026589Y-58855990D01*
X98296842Y-58967932D01*
X98583740Y-59025000D01*
X98876260Y-59025000D01*
X99163158Y-58967932D01*
X99433411Y-58855990D01*
X99676632Y-58693475D01*
X99883475Y-58486632D01*
X100000000Y-58312240D01*
X100116525Y-58486632D01*
X100323368Y-58693475D01*
X100566589Y-58855990D01*
X100836842Y-58967932D01*
X101123740Y-59025000D01*
X101416260Y-59025000D01*
X101703158Y-58967932D01*
X101973411Y-58855990D01*
X102216632Y-58693475D01*
X102423475Y-58486632D01*
X102540000Y-58312240D01*
X102656525Y-58486632D01*
X102863368Y-58693475D01*
X103106589Y-58855990D01*
X103376842Y-58967932D01*
X103663740Y-59025000D01*
X103956260Y-59025000D01*
X104243158Y-58967932D01*
X104513411Y-58855990D01*
X104756632Y-58693475D01*
X104963475Y-58486632D01*
X105080000Y-58312240D01*
X105196525Y-58486632D01*
X105403368Y-58693475D01*
X105646589Y-58855990D01*
X105916842Y-58967932D01*
X106203740Y-59025000D01*
X106496260Y-59025000D01*
X106783158Y-58967932D01*
X107053411Y-58855990D01*
X107296632Y-58693475D01*
X107503475Y-58486632D01*
X107620000Y-58312240D01*
X107736525Y-58486632D01*
X107943368Y-58693475D01*
X108186589Y-58855990D01*
X108456842Y-58967932D01*
X108743740Y-59025000D01*
X109036260Y-59025000D01*
X109323158Y-58967932D01*
X109593411Y-58855990D01*
X109836632Y-58693475D01*
X110043475Y-58486632D01*
X110160000Y-58312240D01*
X110174238Y-58333549D01*
X110228631Y-60890000D01*
X110223061Y-60890000D01*
X110023102Y-60929774D01*
X109834744Y-61007795D01*
X109665226Y-61121063D01*
X109521063Y-61265226D01*
X109407795Y-61434744D01*
X109329774Y-61623102D01*
X109290000Y-61823061D01*
X109290000Y-62026939D01*
X109329774Y-62226898D01*
X109407795Y-62415256D01*
X109521063Y-62584774D01*
X109665226Y-62728937D01*
X109834744Y-62842205D01*
X110023102Y-62920226D01*
X110223061Y-62960000D01*
X110272674Y-62960000D01*
X110323876Y-65366518D01*
X107859293Y-67831101D01*
X85999757Y-67873000D01*
X85974985Y-67875488D01*
X85951174Y-67882761D01*
X85929240Y-67894539D01*
X85910197Y-67910197D01*
X82947394Y-70873000D01*
X59067968Y-70873000D01*
X56784676Y-67448061D01*
X81265000Y-67448061D01*
X81265000Y-67651939D01*
X81304774Y-67851898D01*
X81382795Y-68040256D01*
X81496063Y-68209774D01*
X81640226Y-68353937D01*
X81809744Y-68467205D01*
X81998102Y-68545226D01*
X82198061Y-68585000D01*
X82401939Y-68585000D01*
X82601898Y-68545226D01*
X82790256Y-68467205D01*
X82959774Y-68353937D01*
X83103937Y-68209774D01*
X83217205Y-68040256D01*
X83295226Y-67851898D01*
X83335000Y-67651939D01*
X83335000Y-67448061D01*
X83295226Y-67248102D01*
X83217205Y-67059744D01*
X83103937Y-66890226D01*
X82959774Y-66746063D01*
X82790256Y-66632795D01*
X82601898Y-66554774D01*
X82401939Y-66515000D01*
X82198061Y-66515000D01*
X81998102Y-66554774D01*
X81809744Y-66632795D01*
X81640226Y-66746063D01*
X81496063Y-66890226D01*
X81382795Y-67059744D01*
X81304774Y-67248102D01*
X81265000Y-67448061D01*
X56784676Y-67448061D01*
X55175273Y-65033958D01*
X55300814Y-64948061D01*
X88265000Y-64948061D01*
X88265000Y-65151939D01*
X88304774Y-65351898D01*
X88382795Y-65540256D01*
X88496063Y-65709774D01*
X88640226Y-65853937D01*
X88809744Y-65967205D01*
X88998102Y-66045226D01*
X89198061Y-66085000D01*
X89401939Y-66085000D01*
X89601898Y-66045226D01*
X89790256Y-65967205D01*
X89959774Y-65853937D01*
X90103937Y-65709774D01*
X90217205Y-65540256D01*
X90295226Y-65351898D01*
X90335000Y-65151939D01*
X90335000Y-64948061D01*
X90295226Y-64748102D01*
X90217205Y-64559744D01*
X90209399Y-64548061D01*
X94315000Y-64548061D01*
X94315000Y-64751939D01*
X94354774Y-64951898D01*
X94432795Y-65140256D01*
X94546063Y-65309774D01*
X94690226Y-65453937D01*
X94859744Y-65567205D01*
X95048102Y-65645226D01*
X95248061Y-65685000D01*
X95451939Y-65685000D01*
X95651898Y-65645226D01*
X95840256Y-65567205D01*
X96009774Y-65453937D01*
X96153937Y-65309774D01*
X96267205Y-65140256D01*
X96345226Y-64951898D01*
X96385000Y-64751939D01*
X96385000Y-64748061D01*
X103615000Y-64748061D01*
X103615000Y-64951939D01*
X103654774Y-65151898D01*
X103732795Y-65340256D01*
X103846063Y-65509774D01*
X103990226Y-65653937D01*
X104159744Y-65767205D01*
X104348102Y-65845226D01*
X104548061Y-65885000D01*
X104751939Y-65885000D01*
X104951898Y-65845226D01*
X105140256Y-65767205D01*
X105309774Y-65653937D01*
X105453937Y-65509774D01*
X105567205Y-65340256D01*
X105645226Y-65151898D01*
X105685000Y-64951939D01*
X105685000Y-64748061D01*
X105645226Y-64548102D01*
X105567205Y-64359744D01*
X105453937Y-64190226D01*
X105309774Y-64046063D01*
X105140256Y-63932795D01*
X104951898Y-63854774D01*
X104751939Y-63815000D01*
X104548061Y-63815000D01*
X104348102Y-63854774D01*
X104159744Y-63932795D01*
X103990226Y-64046063D01*
X103846063Y-64190226D01*
X103732795Y-64359744D01*
X103654774Y-64548102D01*
X103615000Y-64748061D01*
X96385000Y-64748061D01*
X96385000Y-64548061D01*
X96345226Y-64348102D01*
X96267205Y-64159744D01*
X96153937Y-63990226D01*
X96009774Y-63846063D01*
X95840256Y-63732795D01*
X95651898Y-63654774D01*
X95451939Y-63615000D01*
X95248061Y-63615000D01*
X95048102Y-63654774D01*
X94859744Y-63732795D01*
X94690226Y-63846063D01*
X94546063Y-63990226D01*
X94432795Y-64159744D01*
X94354774Y-64348102D01*
X94315000Y-64548061D01*
X90209399Y-64548061D01*
X90103937Y-64390226D01*
X89959774Y-64246063D01*
X89790256Y-64132795D01*
X89601898Y-64054774D01*
X89401939Y-64015000D01*
X89198061Y-64015000D01*
X88998102Y-64054774D01*
X88809744Y-64132795D01*
X88640226Y-64246063D01*
X88496063Y-64390226D01*
X88382795Y-64559744D01*
X88304774Y-64748102D01*
X88265000Y-64948061D01*
X55300814Y-64948061D01*
X59381788Y-62155816D01*
X59779872Y-62235000D01*
X60220128Y-62235000D01*
X60651925Y-62149110D01*
X60895878Y-62048061D01*
X76565000Y-62048061D01*
X76565000Y-62251939D01*
X76604774Y-62451898D01*
X76682795Y-62640256D01*
X76796063Y-62809774D01*
X76940226Y-62953937D01*
X77109744Y-63067205D01*
X77298102Y-63145226D01*
X77498061Y-63185000D01*
X77701939Y-63185000D01*
X77901898Y-63145226D01*
X78090256Y-63067205D01*
X78259774Y-62953937D01*
X78403937Y-62809774D01*
X78517205Y-62640256D01*
X78595226Y-62451898D01*
X78625825Y-62298061D01*
X83315000Y-62298061D01*
X83315000Y-62501939D01*
X83354774Y-62701898D01*
X83432795Y-62890256D01*
X83546063Y-63059774D01*
X83690226Y-63203937D01*
X83859744Y-63317205D01*
X84048102Y-63395226D01*
X84248061Y-63435000D01*
X84451939Y-63435000D01*
X84651898Y-63395226D01*
X84840256Y-63317205D01*
X85009774Y-63203937D01*
X85153937Y-63059774D01*
X85267205Y-62890256D01*
X85345226Y-62701898D01*
X85385000Y-62501939D01*
X85385000Y-62298061D01*
X85345226Y-62098102D01*
X85267205Y-61909744D01*
X85153937Y-61740226D01*
X85009774Y-61596063D01*
X84840256Y-61482795D01*
X84651898Y-61404774D01*
X84451939Y-61365000D01*
X84248061Y-61365000D01*
X84048102Y-61404774D01*
X83859744Y-61482795D01*
X83690226Y-61596063D01*
X83546063Y-61740226D01*
X83432795Y-61909744D01*
X83354774Y-62098102D01*
X83315000Y-62298061D01*
X78625825Y-62298061D01*
X78635000Y-62251939D01*
X78635000Y-62048061D01*
X78595226Y-61848102D01*
X78517205Y-61659744D01*
X78403937Y-61490226D01*
X78259774Y-61346063D01*
X78090256Y-61232795D01*
X77901898Y-61154774D01*
X77701939Y-61115000D01*
X77498061Y-61115000D01*
X77298102Y-61154774D01*
X77109744Y-61232795D01*
X76940226Y-61346063D01*
X76796063Y-61490226D01*
X76682795Y-61659744D01*
X76604774Y-61848102D01*
X76565000Y-62048061D01*
X60895878Y-62048061D01*
X61058669Y-61980631D01*
X61424729Y-61736038D01*
X61736038Y-61424729D01*
X61980631Y-61058669D01*
X62149110Y-60651925D01*
X62235000Y-60220128D01*
X62235000Y-60203619D01*
X74039364Y-52126949D01*
X107873623Y-52083050D01*
X110072438Y-53548927D01*
G36*
X131659149Y-55047073D02*
G01*
X130901594Y-73733430D01*
X127925318Y-75897279D01*
X127906713Y-75913822D01*
X127898400Y-75923800D01*
X124936500Y-79873000D01*
X92052606Y-79873000D01*
X90827667Y-78648061D01*
X115465000Y-78648061D01*
X115465000Y-78851939D01*
X115504774Y-79051898D01*
X115582795Y-79240256D01*
X115696063Y-79409774D01*
X115840226Y-79553937D01*
X116009744Y-79667205D01*
X116198102Y-79745226D01*
X116398061Y-79785000D01*
X116601939Y-79785000D01*
X116801898Y-79745226D01*
X116990256Y-79667205D01*
X117159774Y-79553937D01*
X117303937Y-79409774D01*
X117417205Y-79240256D01*
X117495226Y-79051898D01*
X117535000Y-78851939D01*
X117535000Y-78648061D01*
X120715000Y-78648061D01*
X120715000Y-78851939D01*
X120754774Y-79051898D01*
X120832795Y-79240256D01*
X120946063Y-79409774D01*
X121090226Y-79553937D01*
X121259744Y-79667205D01*
X121448102Y-79745226D01*
X121648061Y-79785000D01*
X121851939Y-79785000D01*
X122051898Y-79745226D01*
X122240256Y-79667205D01*
X122409774Y-79553937D01*
X122553937Y-79409774D01*
X122667205Y-79240256D01*
X122745226Y-79051898D01*
X122785000Y-78851939D01*
X122785000Y-78648061D01*
X122745226Y-78448102D01*
X122667205Y-78259744D01*
X122553937Y-78090226D01*
X122409774Y-77946063D01*
X122240256Y-77832795D01*
X122051898Y-77754774D01*
X121851939Y-77715000D01*
X121648061Y-77715000D01*
X121448102Y-77754774D01*
X121259744Y-77832795D01*
X121090226Y-77946063D01*
X120946063Y-78090226D01*
X120832795Y-78259744D01*
X120754774Y-78448102D01*
X120715000Y-78648061D01*
X117535000Y-78648061D01*
X117495226Y-78448102D01*
X117417205Y-78259744D01*
X117303937Y-78090226D01*
X117159774Y-77946063D01*
X116990256Y-77832795D01*
X116801898Y-77754774D01*
X116601939Y-77715000D01*
X116398061Y-77715000D01*
X116198102Y-77754774D01*
X116009744Y-77832795D01*
X115840226Y-77946063D01*
X115696063Y-78090226D01*
X115582795Y-78259744D01*
X115504774Y-78448102D01*
X115465000Y-78648061D01*
X90827667Y-78648061D01*
X89077667Y-76898061D01*
X92215000Y-76898061D01*
X92215000Y-77101939D01*
X92254774Y-77301898D01*
X92332795Y-77490256D01*
X92446063Y-77659774D01*
X92590226Y-77803937D01*
X92759744Y-77917205D01*
X92948102Y-77995226D01*
X93148061Y-78035000D01*
X93351939Y-78035000D01*
X93551898Y-77995226D01*
X93740256Y-77917205D01*
X93909774Y-77803937D01*
X94053937Y-77659774D01*
X94167205Y-77490256D01*
X94234388Y-77328061D01*
X96165000Y-77328061D01*
X96165000Y-77531939D01*
X96204774Y-77731898D01*
X96282795Y-77920256D01*
X96396063Y-78089774D01*
X96540226Y-78233937D01*
X96709744Y-78347205D01*
X96898102Y-78425226D01*
X97098061Y-78465000D01*
X97301939Y-78465000D01*
X97501898Y-78425226D01*
X97690256Y-78347205D01*
X97859774Y-78233937D01*
X98003937Y-78089774D01*
X98117205Y-77920256D01*
X98195226Y-77731898D01*
X98235000Y-77531939D01*
X98235000Y-77328061D01*
X98195226Y-77128102D01*
X98117205Y-76939744D01*
X98003937Y-76770226D01*
X97859774Y-76626063D01*
X97690256Y-76512795D01*
X97501898Y-76434774D01*
X97317328Y-76398061D01*
X104465000Y-76398061D01*
X104465000Y-76601939D01*
X104504774Y-76801898D01*
X104582795Y-76990256D01*
X104696063Y-77159774D01*
X104840226Y-77303937D01*
X105009744Y-77417205D01*
X105198102Y-77495226D01*
X105398061Y-77535000D01*
X105601939Y-77535000D01*
X105801898Y-77495226D01*
X105990256Y-77417205D01*
X106159774Y-77303937D01*
X106303937Y-77159774D01*
X106417205Y-76990256D01*
X106495226Y-76801898D01*
X106535000Y-76601939D01*
X106535000Y-76398061D01*
X106495226Y-76198102D01*
X106417205Y-76009744D01*
X106303937Y-75840226D01*
X106159774Y-75696063D01*
X105990256Y-75582795D01*
X105801898Y-75504774D01*
X105601939Y-75465000D01*
X105398061Y-75465000D01*
X105198102Y-75504774D01*
X105009744Y-75582795D01*
X104840226Y-75696063D01*
X104696063Y-75840226D01*
X104582795Y-76009744D01*
X104504774Y-76198102D01*
X104465000Y-76398061D01*
X97317328Y-76398061D01*
X97301939Y-76395000D01*
X97098061Y-76395000D01*
X96898102Y-76434774D01*
X96709744Y-76512795D01*
X96540226Y-76626063D01*
X96396063Y-76770226D01*
X96282795Y-76939744D01*
X96204774Y-77128102D01*
X96165000Y-77328061D01*
X94234388Y-77328061D01*
X94245226Y-77301898D01*
X94285000Y-77101939D01*
X94285000Y-76898061D01*
X94245226Y-76698102D01*
X94167205Y-76509744D01*
X94053937Y-76340226D01*
X93909774Y-76196063D01*
X93740256Y-76082795D01*
X93551898Y-76004774D01*
X93351939Y-75965000D01*
X93148061Y-75965000D01*
X92948102Y-76004774D01*
X92759744Y-76082795D01*
X92590226Y-76196063D01*
X92446063Y-76340226D01*
X92332795Y-76509744D01*
X92254774Y-76698102D01*
X92215000Y-76898061D01*
X89077667Y-76898061D01*
X88127000Y-75947394D01*
X88127000Y-74052606D01*
X89281545Y-72898061D01*
X93465000Y-72898061D01*
X93465000Y-73101939D01*
X93504774Y-73301898D01*
X93582795Y-73490256D01*
X93696063Y-73659774D01*
X93840226Y-73803937D01*
X94009744Y-73917205D01*
X94198102Y-73995226D01*
X94398061Y-74035000D01*
X94601939Y-74035000D01*
X94801898Y-73995226D01*
X94990256Y-73917205D01*
X95159774Y-73803937D01*
X95303937Y-73659774D01*
X95417205Y-73490256D01*
X95495226Y-73301898D01*
X95535000Y-73101939D01*
X95535000Y-72898061D01*
X95495226Y-72698102D01*
X95417205Y-72509744D01*
X95303937Y-72340226D01*
X95159774Y-72196063D01*
X94990256Y-72082795D01*
X94801898Y-72004774D01*
X94601939Y-71965000D01*
X94398061Y-71965000D01*
X94198102Y-72004774D01*
X94009744Y-72082795D01*
X93840226Y-72196063D01*
X93696063Y-72340226D01*
X93582795Y-72509744D01*
X93504774Y-72698102D01*
X93465000Y-72898061D01*
X89281545Y-72898061D01*
X91053331Y-71126275D01*
X108929757Y-70878988D01*
X108954497Y-70876205D01*
X108978219Y-70868649D01*
X109008085Y-70850566D01*
X111642628Y-68710000D01*
X111676939Y-68710000D01*
X111876898Y-68670226D01*
X112065256Y-68592205D01*
X112234774Y-68478937D01*
X112378937Y-68334774D01*
X112492205Y-68165256D01*
X112570226Y-67976898D01*
X112575107Y-67952361D01*
X113072085Y-67548566D01*
X113089776Y-67531049D01*
X113103709Y-67510416D01*
X113113349Y-67487462D01*
X113118326Y-67463068D01*
X113118979Y-67447691D01*
X113071259Y-64823061D01*
X115540000Y-64823061D01*
X115540000Y-65026939D01*
X115579774Y-65226898D01*
X115657795Y-65415256D01*
X115771063Y-65584774D01*
X115915226Y-65728937D01*
X116084744Y-65842205D01*
X116273102Y-65920226D01*
X116473061Y-65960000D01*
X116676939Y-65960000D01*
X116876898Y-65920226D01*
X117065256Y-65842205D01*
X117234774Y-65728937D01*
X117378937Y-65584774D01*
X117492205Y-65415256D01*
X117570226Y-65226898D01*
X117610000Y-65026939D01*
X117610000Y-64823061D01*
X117570226Y-64623102D01*
X117492205Y-64434744D01*
X117378937Y-64265226D01*
X117234774Y-64121063D01*
X117065256Y-64007795D01*
X116876898Y-63929774D01*
X116676939Y-63890000D01*
X116473061Y-63890000D01*
X116273102Y-63929774D01*
X116084744Y-64007795D01*
X115915226Y-64121063D01*
X115771063Y-64265226D01*
X115657795Y-64434744D01*
X115579774Y-64623102D01*
X115540000Y-64823061D01*
X113071259Y-64823061D01*
X113014441Y-61698061D01*
X120915000Y-61698061D01*
X120915000Y-61901939D01*
X120954774Y-62101898D01*
X121032795Y-62290256D01*
X121146063Y-62459774D01*
X121290226Y-62603937D01*
X121459744Y-62717205D01*
X121648102Y-62795226D01*
X121848061Y-62835000D01*
X122051939Y-62835000D01*
X122251898Y-62795226D01*
X122440256Y-62717205D01*
X122609774Y-62603937D01*
X122753937Y-62459774D01*
X122867205Y-62290256D01*
X122945226Y-62101898D01*
X122985000Y-61901939D01*
X122985000Y-61698061D01*
X122945226Y-61498102D01*
X122867205Y-61309744D01*
X122753937Y-61140226D01*
X122609774Y-60996063D01*
X122440256Y-60882795D01*
X122251898Y-60804774D01*
X122051939Y-60765000D01*
X121848061Y-60765000D01*
X121648102Y-60804774D01*
X121459744Y-60882795D01*
X121290226Y-60996063D01*
X121146063Y-61140226D01*
X121032795Y-61309744D01*
X120954774Y-61498102D01*
X120915000Y-61698061D01*
X113014441Y-61698061D01*
X112958634Y-58628741D01*
X113023368Y-58693475D01*
X113266589Y-58855990D01*
X113536842Y-58967932D01*
X113823740Y-59025000D01*
X114116260Y-59025000D01*
X114403158Y-58967932D01*
X114673411Y-58855990D01*
X114916632Y-58693475D01*
X115123475Y-58486632D01*
X115240000Y-58312240D01*
X115356525Y-58486632D01*
X115563368Y-58693475D01*
X115806589Y-58855990D01*
X116076842Y-58967932D01*
X116363740Y-59025000D01*
X116656260Y-59025000D01*
X116943158Y-58967932D01*
X117213411Y-58855990D01*
X117456632Y-58693475D01*
X117663475Y-58486632D01*
X117780000Y-58312240D01*
X117896525Y-58486632D01*
X118103368Y-58693475D01*
X118346589Y-58855990D01*
X118616842Y-58967932D01*
X118903740Y-59025000D01*
X119196260Y-59025000D01*
X119483158Y-58967932D01*
X119753411Y-58855990D01*
X119996632Y-58693475D01*
X120203475Y-58486632D01*
X120320000Y-58312240D01*
X120436525Y-58486632D01*
X120643368Y-58693475D01*
X120886589Y-58855990D01*
X121156842Y-58967932D01*
X121443740Y-59025000D01*
X121736260Y-59025000D01*
X122023158Y-58967932D01*
X122293411Y-58855990D01*
X122536632Y-58693475D01*
X122743475Y-58486632D01*
X122860000Y-58312240D01*
X122976525Y-58486632D01*
X123183368Y-58693475D01*
X123426589Y-58855990D01*
X123696842Y-58967932D01*
X123983740Y-59025000D01*
X124276260Y-59025000D01*
X124563158Y-58967932D01*
X124833411Y-58855990D01*
X125076632Y-58693475D01*
X125283475Y-58486632D01*
X125445990Y-58243411D01*
X125557932Y-57973158D01*
X125615000Y-57686260D01*
X125615000Y-57393740D01*
X125557932Y-57106842D01*
X125445990Y-56836589D01*
X125283475Y-56593368D01*
X125076632Y-56386525D01*
X124902240Y-56270000D01*
X125076632Y-56153475D01*
X125283475Y-55946632D01*
X125445990Y-55703411D01*
X125557932Y-55433158D01*
X125615000Y-55146260D01*
X125615000Y-54853740D01*
X125557932Y-54566842D01*
X125445990Y-54296589D01*
X125283475Y-54053368D01*
X125076632Y-53846525D01*
X124833411Y-53684010D01*
X124563158Y-53572068D01*
X124276260Y-53515000D01*
X123983740Y-53515000D01*
X123696842Y-53572068D01*
X123426589Y-53684010D01*
X123183368Y-53846525D01*
X122976525Y-54053368D01*
X122854805Y-54235534D01*
X122785178Y-54118645D01*
X122590269Y-53902412D01*
X122356920Y-53728359D01*
X122094099Y-53603175D01*
X121946890Y-53558524D01*
X121717000Y-53679845D01*
X121717000Y-54873000D01*
X121737000Y-54873000D01*
X121737000Y-55127000D01*
X121717000Y-55127000D01*
X121717000Y-55147000D01*
X121463000Y-55147000D01*
X121463000Y-55127000D01*
X119177000Y-55127000D01*
X119177000Y-55147000D01*
X118923000Y-55147000D01*
X118923000Y-55127000D01*
X118903000Y-55127000D01*
X118903000Y-54873000D01*
X118923000Y-54873000D01*
X118923000Y-53679845D01*
X119177000Y-53679845D01*
X119177000Y-54873000D01*
X121463000Y-54873000D01*
X121463000Y-53679845D01*
X121233110Y-53558524D01*
X121085901Y-53603175D01*
X120823080Y-53728359D01*
X120589731Y-53902412D01*
X120394822Y-54118645D01*
X120320000Y-54244255D01*
X120245178Y-54118645D01*
X120050269Y-53902412D01*
X119816920Y-53728359D01*
X119554099Y-53603175D01*
X119406890Y-53558524D01*
X119177000Y-53679845D01*
X118923000Y-53679845D01*
X118693110Y-53558524D01*
X118545901Y-53603175D01*
X118283080Y-53728359D01*
X118049731Y-53902412D01*
X117854822Y-54118645D01*
X117785195Y-54235534D01*
X117663475Y-54053368D01*
X117456632Y-53846525D01*
X117213411Y-53684010D01*
X116943158Y-53572068D01*
X116656260Y-53515000D01*
X116363740Y-53515000D01*
X116076842Y-53572068D01*
X115806589Y-53684010D01*
X115563368Y-53846525D01*
X115356525Y-54053368D01*
X115240000Y-54227760D01*
X115123475Y-54053368D01*
X114916632Y-53846525D01*
X114673411Y-53684010D01*
X114403158Y-53572068D01*
X114116260Y-53515000D01*
X113823740Y-53515000D01*
X113536842Y-53572068D01*
X113266589Y-53684010D01*
X113023368Y-53846525D01*
X112874394Y-53995499D01*
X112866435Y-53557772D01*
X115307980Y-52337000D01*
X129441817Y-52337000D01*
X131659149Y-55047073D01*
G37*
X131659149Y-55047073D02*
X130901594Y-73733430D01*
X127925318Y-75897279D01*
X127906713Y-75913822D01*
X127898400Y-75923800D01*
X124936500Y-79873000D01*
X92052606Y-79873000D01*
X90827667Y-78648061D01*
X115465000Y-78648061D01*
X115465000Y-78851939D01*
X115504774Y-79051898D01*
X115582795Y-79240256D01*
X115696063Y-79409774D01*
X115840226Y-79553937D01*
X116009744Y-79667205D01*
X116198102Y-79745226D01*
X116398061Y-79785000D01*
X116601939Y-79785000D01*
X116801898Y-79745226D01*
X116990256Y-79667205D01*
X117159774Y-79553937D01*
X117303937Y-79409774D01*
X117417205Y-79240256D01*
X117495226Y-79051898D01*
X117535000Y-78851939D01*
X117535000Y-78648061D01*
X120715000Y-78648061D01*
X120715000Y-78851939D01*
X120754774Y-79051898D01*
X120832795Y-79240256D01*
X120946063Y-79409774D01*
X121090226Y-79553937D01*
X121259744Y-79667205D01*
X121448102Y-79745226D01*
X121648061Y-79785000D01*
X121851939Y-79785000D01*
X122051898Y-79745226D01*
X122240256Y-79667205D01*
X122409774Y-79553937D01*
X122553937Y-79409774D01*
X122667205Y-79240256D01*
X122745226Y-79051898D01*
X122785000Y-78851939D01*
X122785000Y-78648061D01*
X122745226Y-78448102D01*
X122667205Y-78259744D01*
X122553937Y-78090226D01*
X122409774Y-77946063D01*
X122240256Y-77832795D01*
X122051898Y-77754774D01*
X121851939Y-77715000D01*
X121648061Y-77715000D01*
X121448102Y-77754774D01*
X121259744Y-77832795D01*
X121090226Y-77946063D01*
X120946063Y-78090226D01*
X120832795Y-78259744D01*
X120754774Y-78448102D01*
X120715000Y-78648061D01*
X117535000Y-78648061D01*
X117495226Y-78448102D01*
X117417205Y-78259744D01*
X117303937Y-78090226D01*
X117159774Y-77946063D01*
X116990256Y-77832795D01*
X116801898Y-77754774D01*
X116601939Y-77715000D01*
X116398061Y-77715000D01*
X116198102Y-77754774D01*
X116009744Y-77832795D01*
X115840226Y-77946063D01*
X115696063Y-78090226D01*
X115582795Y-78259744D01*
X115504774Y-78448102D01*
X115465000Y-78648061D01*
X90827667Y-78648061D01*
X89077667Y-76898061D01*
X92215000Y-76898061D01*
X92215000Y-77101939D01*
X92254774Y-77301898D01*
X92332795Y-77490256D01*
X92446063Y-77659774D01*
X92590226Y-77803937D01*
X92759744Y-77917205D01*
X92948102Y-77995226D01*
X93148061Y-78035000D01*
X93351939Y-78035000D01*
X93551898Y-77995226D01*
X93740256Y-77917205D01*
X93909774Y-77803937D01*
X94053937Y-77659774D01*
X94167205Y-77490256D01*
X94234388Y-77328061D01*
X96165000Y-77328061D01*
X96165000Y-77531939D01*
X96204774Y-77731898D01*
X96282795Y-77920256D01*
X96396063Y-78089774D01*
X96540226Y-78233937D01*
X96709744Y-78347205D01*
X96898102Y-78425226D01*
X97098061Y-78465000D01*
X97301939Y-78465000D01*
X97501898Y-78425226D01*
X97690256Y-78347205D01*
X97859774Y-78233937D01*
X98003937Y-78089774D01*
X98117205Y-77920256D01*
X98195226Y-77731898D01*
X98235000Y-77531939D01*
X98235000Y-77328061D01*
X98195226Y-77128102D01*
X98117205Y-76939744D01*
X98003937Y-76770226D01*
X97859774Y-76626063D01*
X97690256Y-76512795D01*
X97501898Y-76434774D01*
X97317328Y-76398061D01*
X104465000Y-76398061D01*
X104465000Y-76601939D01*
X104504774Y-76801898D01*
X104582795Y-76990256D01*
X104696063Y-77159774D01*
X104840226Y-77303937D01*
X105009744Y-77417205D01*
X105198102Y-77495226D01*
X105398061Y-77535000D01*
X105601939Y-77535000D01*
X105801898Y-77495226D01*
X105990256Y-77417205D01*
X106159774Y-77303937D01*
X106303937Y-77159774D01*
X106417205Y-76990256D01*
X106495226Y-76801898D01*
X106535000Y-76601939D01*
X106535000Y-76398061D01*
X106495226Y-76198102D01*
X106417205Y-76009744D01*
X106303937Y-75840226D01*
X106159774Y-75696063D01*
X105990256Y-75582795D01*
X105801898Y-75504774D01*
X105601939Y-75465000D01*
X105398061Y-75465000D01*
X105198102Y-75504774D01*
X105009744Y-75582795D01*
X104840226Y-75696063D01*
X104696063Y-75840226D01*
X104582795Y-76009744D01*
X104504774Y-76198102D01*
X104465000Y-76398061D01*
X97317328Y-76398061D01*
X97301939Y-76395000D01*
X97098061Y-76395000D01*
X96898102Y-76434774D01*
X96709744Y-76512795D01*
X96540226Y-76626063D01*
X96396063Y-76770226D01*
X96282795Y-76939744D01*
X96204774Y-77128102D01*
X96165000Y-77328061D01*
X94234388Y-77328061D01*
X94245226Y-77301898D01*
X94285000Y-77101939D01*
X94285000Y-76898061D01*
X94245226Y-76698102D01*
X94167205Y-76509744D01*
X94053937Y-76340226D01*
X93909774Y-76196063D01*
X93740256Y-76082795D01*
X93551898Y-76004774D01*
X93351939Y-75965000D01*
X93148061Y-75965000D01*
X92948102Y-76004774D01*
X92759744Y-76082795D01*
X92590226Y-76196063D01*
X92446063Y-76340226D01*
X92332795Y-76509744D01*
X92254774Y-76698102D01*
X92215000Y-76898061D01*
X89077667Y-76898061D01*
X88127000Y-75947394D01*
X88127000Y-74052606D01*
X89281545Y-72898061D01*
X93465000Y-72898061D01*
X93465000Y-73101939D01*
X93504774Y-73301898D01*
X93582795Y-73490256D01*
X93696063Y-73659774D01*
X93840226Y-73803937D01*
X94009744Y-73917205D01*
X94198102Y-73995226D01*
X94398061Y-74035000D01*
X94601939Y-74035000D01*
X94801898Y-73995226D01*
X94990256Y-73917205D01*
X95159774Y-73803937D01*
X95303937Y-73659774D01*
X95417205Y-73490256D01*
X95495226Y-73301898D01*
X95535000Y-73101939D01*
X95535000Y-72898061D01*
X95495226Y-72698102D01*
X95417205Y-72509744D01*
X95303937Y-72340226D01*
X95159774Y-72196063D01*
X94990256Y-72082795D01*
X94801898Y-72004774D01*
X94601939Y-71965000D01*
X94398061Y-71965000D01*
X94198102Y-72004774D01*
X94009744Y-72082795D01*
X93840226Y-72196063D01*
X93696063Y-72340226D01*
X93582795Y-72509744D01*
X93504774Y-72698102D01*
X93465000Y-72898061D01*
X89281545Y-72898061D01*
X91053331Y-71126275D01*
X108929757Y-70878988D01*
X108954497Y-70876205D01*
X108978219Y-70868649D01*
X109008085Y-70850566D01*
X111642628Y-68710000D01*
X111676939Y-68710000D01*
X111876898Y-68670226D01*
X112065256Y-68592205D01*
X112234774Y-68478937D01*
X112378937Y-68334774D01*
X112492205Y-68165256D01*
X112570226Y-67976898D01*
X112575107Y-67952361D01*
X113072085Y-67548566D01*
X113089776Y-67531049D01*
X113103709Y-67510416D01*
X113113349Y-67487462D01*
X113118326Y-67463068D01*
X113118979Y-67447691D01*
X113071259Y-64823061D01*
X115540000Y-64823061D01*
X115540000Y-65026939D01*
X115579774Y-65226898D01*
X115657795Y-65415256D01*
X115771063Y-65584774D01*
X115915226Y-65728937D01*
X116084744Y-65842205D01*
X116273102Y-65920226D01*
X116473061Y-65960000D01*
X116676939Y-65960000D01*
X116876898Y-65920226D01*
X117065256Y-65842205D01*
X117234774Y-65728937D01*
X117378937Y-65584774D01*
X117492205Y-65415256D01*
X117570226Y-65226898D01*
X117610000Y-65026939D01*
X117610000Y-64823061D01*
X117570226Y-64623102D01*
X117492205Y-64434744D01*
X117378937Y-64265226D01*
X117234774Y-64121063D01*
X117065256Y-64007795D01*
X116876898Y-63929774D01*
X116676939Y-63890000D01*
X116473061Y-63890000D01*
X116273102Y-63929774D01*
X116084744Y-64007795D01*
X115915226Y-64121063D01*
X115771063Y-64265226D01*
X115657795Y-64434744D01*
X115579774Y-64623102D01*
X115540000Y-64823061D01*
X113071259Y-64823061D01*
X113014441Y-61698061D01*
X120915000Y-61698061D01*
X120915000Y-61901939D01*
X120954774Y-62101898D01*
X121032795Y-62290256D01*
X121146063Y-62459774D01*
X121290226Y-62603937D01*
X121459744Y-62717205D01*
X121648102Y-62795226D01*
X121848061Y-62835000D01*
X122051939Y-62835000D01*
X122251898Y-62795226D01*
X122440256Y-62717205D01*
X122609774Y-62603937D01*
X122753937Y-62459774D01*
X122867205Y-62290256D01*
X122945226Y-62101898D01*
X122985000Y-61901939D01*
X122985000Y-61698061D01*
X122945226Y-61498102D01*
X122867205Y-61309744D01*
X122753937Y-61140226D01*
X122609774Y-60996063D01*
X122440256Y-60882795D01*
X122251898Y-60804774D01*
X122051939Y-60765000D01*
X121848061Y-60765000D01*
X121648102Y-60804774D01*
X121459744Y-60882795D01*
X121290226Y-60996063D01*
X121146063Y-61140226D01*
X121032795Y-61309744D01*
X120954774Y-61498102D01*
X120915000Y-61698061D01*
X113014441Y-61698061D01*
X112958634Y-58628741D01*
X113023368Y-58693475D01*
X113266589Y-58855990D01*
X113536842Y-58967932D01*
X113823740Y-59025000D01*
X114116260Y-59025000D01*
X114403158Y-58967932D01*
X114673411Y-58855990D01*
X114916632Y-58693475D01*
X115123475Y-58486632D01*
X115240000Y-58312240D01*
X115356525Y-58486632D01*
X115563368Y-58693475D01*
X115806589Y-58855990D01*
X116076842Y-58967932D01*
X116363740Y-59025000D01*
X116656260Y-59025000D01*
X116943158Y-58967932D01*
X117213411Y-58855990D01*
X117456632Y-58693475D01*
X117663475Y-58486632D01*
X117780000Y-58312240D01*
X117896525Y-58486632D01*
X118103368Y-58693475D01*
X118346589Y-58855990D01*
X118616842Y-58967932D01*
X118903740Y-59025000D01*
X119196260Y-59025000D01*
X119483158Y-58967932D01*
X119753411Y-58855990D01*
X119996632Y-58693475D01*
X120203475Y-58486632D01*
X120320000Y-58312240D01*
X120436525Y-58486632D01*
X120643368Y-58693475D01*
X120886589Y-58855990D01*
X121156842Y-58967932D01*
X121443740Y-59025000D01*
X121736260Y-59025000D01*
X122023158Y-58967932D01*
X122293411Y-58855990D01*
X122536632Y-58693475D01*
X122743475Y-58486632D01*
X122860000Y-58312240D01*
X122976525Y-58486632D01*
X123183368Y-58693475D01*
X123426589Y-58855990D01*
X123696842Y-58967932D01*
X123983740Y-59025000D01*
X124276260Y-59025000D01*
X124563158Y-58967932D01*
X124833411Y-58855990D01*
X125076632Y-58693475D01*
X125283475Y-58486632D01*
X125445990Y-58243411D01*
X125557932Y-57973158D01*
X125615000Y-57686260D01*
X125615000Y-57393740D01*
X125557932Y-57106842D01*
X125445990Y-56836589D01*
X125283475Y-56593368D01*
X125076632Y-56386525D01*
X124902240Y-56270000D01*
X125076632Y-56153475D01*
X125283475Y-55946632D01*
X125445990Y-55703411D01*
X125557932Y-55433158D01*
X125615000Y-55146260D01*
X125615000Y-54853740D01*
X125557932Y-54566842D01*
X125445990Y-54296589D01*
X125283475Y-54053368D01*
X125076632Y-53846525D01*
X124833411Y-53684010D01*
X124563158Y-53572068D01*
X124276260Y-53515000D01*
X123983740Y-53515000D01*
X123696842Y-53572068D01*
X123426589Y-53684010D01*
X123183368Y-53846525D01*
X122976525Y-54053368D01*
X122854805Y-54235534D01*
X122785178Y-54118645D01*
X122590269Y-53902412D01*
X122356920Y-53728359D01*
X122094099Y-53603175D01*
X121946890Y-53558524D01*
X121717000Y-53679845D01*
X121717000Y-54873000D01*
X121737000Y-54873000D01*
X121737000Y-55127000D01*
X121717000Y-55127000D01*
X121717000Y-55147000D01*
X121463000Y-55147000D01*
X121463000Y-55127000D01*
X119177000Y-55127000D01*
X119177000Y-55147000D01*
X118923000Y-55147000D01*
X118923000Y-55127000D01*
X118903000Y-55127000D01*
X118903000Y-54873000D01*
X118923000Y-54873000D01*
X118923000Y-53679845D01*
X119177000Y-53679845D01*
X119177000Y-54873000D01*
X121463000Y-54873000D01*
X121463000Y-53679845D01*
X121233110Y-53558524D01*
X121085901Y-53603175D01*
X120823080Y-53728359D01*
X120589731Y-53902412D01*
X120394822Y-54118645D01*
X120320000Y-54244255D01*
X120245178Y-54118645D01*
X120050269Y-53902412D01*
X119816920Y-53728359D01*
X119554099Y-53603175D01*
X119406890Y-53558524D01*
X119177000Y-53679845D01*
X118923000Y-53679845D01*
X118693110Y-53558524D01*
X118545901Y-53603175D01*
X118283080Y-53728359D01*
X118049731Y-53902412D01*
X117854822Y-54118645D01*
X117785195Y-54235534D01*
X117663475Y-54053368D01*
X117456632Y-53846525D01*
X117213411Y-53684010D01*
X116943158Y-53572068D01*
X116656260Y-53515000D01*
X116363740Y-53515000D01*
X116076842Y-53572068D01*
X115806589Y-53684010D01*
X115563368Y-53846525D01*
X115356525Y-54053368D01*
X115240000Y-54227760D01*
X115123475Y-54053368D01*
X114916632Y-53846525D01*
X114673411Y-53684010D01*
X114403158Y-53572068D01*
X114116260Y-53515000D01*
X113823740Y-53515000D01*
X113536842Y-53572068D01*
X113266589Y-53684010D01*
X113023368Y-53846525D01*
X112874394Y-53995499D01*
X112866435Y-53557772D01*
X115307980Y-52337000D01*
X129441817Y-52337000D01*
X131659149Y-55047073D01*
G36*
X122873000Y-82091537D02*
G01*
X122873000Y-86947394D01*
X121947394Y-87873000D01*
X87024459Y-87873000D01*
X82127000Y-85914016D01*
X82127000Y-84052606D01*
X85052606Y-81127000D01*
X119979390Y-81127000D01*
X122873000Y-82091537D01*
G37*
X122873000Y-82091537D02*
X122873000Y-86947394D01*
X121947394Y-87873000D01*
X87024459Y-87873000D01*
X82127000Y-85914016D01*
X82127000Y-84052606D01*
X85052606Y-81127000D01*
X119979390Y-81127000D01*
X122873000Y-82091537D01*
G36*
X145873000Y-85042333D02*
G01*
X145873000Y-91936500D01*
X141923800Y-94898400D01*
X141905443Y-94915218D01*
X141890720Y-94935294D01*
X141880196Y-94957857D01*
X141874276Y-94982039D01*
X141873000Y-95000000D01*
X141873000Y-96715000D01*
X141698061Y-96715000D01*
X141498102Y-96754774D01*
X141309744Y-96832795D01*
X141140226Y-96946063D01*
X140996063Y-97090226D01*
X140882795Y-97259744D01*
X140804774Y-97448102D01*
X140765000Y-97648061D01*
X140765000Y-97851939D01*
X140804774Y-98051898D01*
X140882795Y-98240256D01*
X140996063Y-98409774D01*
X141140226Y-98553937D01*
X141309744Y-98667205D01*
X141498102Y-98745226D01*
X141698061Y-98785000D01*
X141873000Y-98785000D01*
X141873000Y-102034226D01*
X141801898Y-102004774D01*
X141601939Y-101965000D01*
X141398061Y-101965000D01*
X141198102Y-102004774D01*
X141009744Y-102082795D01*
X140840226Y-102196063D01*
X140696063Y-102340226D01*
X140582795Y-102509744D01*
X140504774Y-102698102D01*
X140465000Y-102898061D01*
X140465000Y-103101939D01*
X140504774Y-103301898D01*
X140582795Y-103490256D01*
X140696063Y-103659774D01*
X140840226Y-103803937D01*
X141009744Y-103917205D01*
X141198102Y-103995226D01*
X141398061Y-104035000D01*
X141601939Y-104035000D01*
X141801898Y-103995226D01*
X141873000Y-103965774D01*
X141873000Y-132941587D01*
X134953019Y-138873000D01*
X131245927Y-138873000D01*
X131275812Y-138774482D01*
X131288072Y-138650000D01*
X131288072Y-136850000D01*
X131275812Y-136725518D01*
X131239502Y-136605820D01*
X131180537Y-136495506D01*
X131101185Y-136398815D01*
X131004494Y-136319463D01*
X130894180Y-136260498D01*
X130774482Y-136224188D01*
X130650000Y-136211928D01*
X128850000Y-136211928D01*
X128725518Y-136224188D01*
X128605820Y-136260498D01*
X128495506Y-136319463D01*
X128398815Y-136398815D01*
X128319463Y-136495506D01*
X128260498Y-136605820D01*
X128224188Y-136725518D01*
X128211928Y-136850000D01*
X128211928Y-138650000D01*
X128224188Y-138774482D01*
X128254073Y-138873000D01*
X121995927Y-138873000D01*
X122025812Y-138774482D01*
X122038072Y-138650000D01*
X122038072Y-136850000D01*
X122025812Y-136725518D01*
X121989502Y-136605820D01*
X121930537Y-136495506D01*
X121851185Y-136398815D01*
X121754494Y-136319463D01*
X121644180Y-136260498D01*
X121524482Y-136224188D01*
X121400000Y-136211928D01*
X119600000Y-136211928D01*
X119475518Y-136224188D01*
X119355820Y-136260498D01*
X119245506Y-136319463D01*
X119148815Y-136398815D01*
X119069463Y-136495506D01*
X119010498Y-136605820D01*
X118974188Y-136725518D01*
X118961928Y-136850000D01*
X118961928Y-138650000D01*
X118974188Y-138774482D01*
X119004073Y-138873000D01*
X112745927Y-138873000D01*
X112775812Y-138774482D01*
X112788072Y-138650000D01*
X112788072Y-136850000D01*
X112775812Y-136725518D01*
X112739502Y-136605820D01*
X112680537Y-136495506D01*
X112601185Y-136398815D01*
X112504494Y-136319463D01*
X112394180Y-136260498D01*
X112274482Y-136224188D01*
X112150000Y-136211928D01*
X110350000Y-136211928D01*
X110225518Y-136224188D01*
X110105820Y-136260498D01*
X109995506Y-136319463D01*
X109898815Y-136398815D01*
X109819463Y-136495506D01*
X109760498Y-136605820D01*
X109724188Y-136725518D01*
X109711928Y-136850000D01*
X109711928Y-138650000D01*
X109724188Y-138774482D01*
X109754073Y-138873000D01*
X103052606Y-138873000D01*
X100127000Y-135947394D01*
X100127000Y-124000000D01*
X100124560Y-123975224D01*
X100117333Y-123951399D01*
X100099170Y-123920664D01*
X99921088Y-123698061D01*
X117165000Y-123698061D01*
X117165000Y-123901939D01*
X117204774Y-124101898D01*
X117282795Y-124290256D01*
X117396063Y-124459774D01*
X117540226Y-124603937D01*
X117709744Y-124717205D01*
X117898102Y-124795226D01*
X118098061Y-124835000D01*
X118301939Y-124835000D01*
X118501898Y-124795226D01*
X118690256Y-124717205D01*
X118859774Y-124603937D01*
X119003937Y-124459774D01*
X119117205Y-124290256D01*
X119195226Y-124101898D01*
X119235000Y-123901939D01*
X119235000Y-123698061D01*
X119195226Y-123498102D01*
X119117205Y-123309744D01*
X119003937Y-123140226D01*
X118859774Y-122996063D01*
X118690256Y-122882795D01*
X118501898Y-122804774D01*
X118301939Y-122765000D01*
X118098061Y-122765000D01*
X117898102Y-122804774D01*
X117709744Y-122882795D01*
X117540226Y-122996063D01*
X117396063Y-123140226D01*
X117282795Y-123309744D01*
X117204774Y-123498102D01*
X117165000Y-123698061D01*
X99921088Y-123698061D01*
X98681088Y-122148061D01*
X125215000Y-122148061D01*
X125215000Y-122351939D01*
X125254774Y-122551898D01*
X125332795Y-122740256D01*
X125446063Y-122909774D01*
X125590226Y-123053937D01*
X125759744Y-123167205D01*
X125948102Y-123245226D01*
X126148061Y-123285000D01*
X126351939Y-123285000D01*
X126551898Y-123245226D01*
X126740256Y-123167205D01*
X126909774Y-123053937D01*
X127053937Y-122909774D01*
X127167205Y-122740256D01*
X127245226Y-122551898D01*
X127285000Y-122351939D01*
X127285000Y-122148061D01*
X127245226Y-121948102D01*
X127167205Y-121759744D01*
X127053937Y-121590226D01*
X126909774Y-121446063D01*
X126740256Y-121332795D01*
X126551898Y-121254774D01*
X126351939Y-121215000D01*
X126148061Y-121215000D01*
X125948102Y-121254774D01*
X125759744Y-121332795D01*
X125590226Y-121446063D01*
X125446063Y-121590226D01*
X125332795Y-121759744D01*
X125254774Y-121948102D01*
X125215000Y-122148061D01*
X98681088Y-122148061D01*
X97281088Y-120398061D01*
X130665000Y-120398061D01*
X130665000Y-120601939D01*
X130704774Y-120801898D01*
X130782795Y-120990256D01*
X130896063Y-121159774D01*
X131040226Y-121303937D01*
X131209744Y-121417205D01*
X131398102Y-121495226D01*
X131598061Y-121535000D01*
X131801939Y-121535000D01*
X131846556Y-121526125D01*
X131709744Y-121582795D01*
X131540226Y-121696063D01*
X131396063Y-121840226D01*
X131282795Y-122009744D01*
X131204774Y-122198102D01*
X131165000Y-122398061D01*
X131165000Y-122601939D01*
X131204774Y-122801898D01*
X131282795Y-122990256D01*
X131396063Y-123159774D01*
X131540226Y-123303937D01*
X131709744Y-123417205D01*
X131898102Y-123495226D01*
X132098061Y-123535000D01*
X132301939Y-123535000D01*
X132501898Y-123495226D01*
X132690256Y-123417205D01*
X132859774Y-123303937D01*
X133003937Y-123159774D01*
X133117205Y-122990256D01*
X133195226Y-122801898D01*
X133235000Y-122601939D01*
X133235000Y-122398061D01*
X133195226Y-122198102D01*
X133174499Y-122148061D01*
X138715000Y-122148061D01*
X138715000Y-122351939D01*
X138754774Y-122551898D01*
X138832795Y-122740256D01*
X138946063Y-122909774D01*
X139090226Y-123053937D01*
X139259744Y-123167205D01*
X139448102Y-123245226D01*
X139648061Y-123285000D01*
X139851939Y-123285000D01*
X140051898Y-123245226D01*
X140240256Y-123167205D01*
X140409774Y-123053937D01*
X140553937Y-122909774D01*
X140667205Y-122740256D01*
X140745226Y-122551898D01*
X140785000Y-122351939D01*
X140785000Y-122148061D01*
X140745226Y-121948102D01*
X140667205Y-121759744D01*
X140553937Y-121590226D01*
X140498711Y-121535000D01*
X140601939Y-121535000D01*
X140801898Y-121495226D01*
X140990256Y-121417205D01*
X141159774Y-121303937D01*
X141303937Y-121159774D01*
X141417205Y-120990256D01*
X141495226Y-120801898D01*
X141535000Y-120601939D01*
X141535000Y-120398061D01*
X141495226Y-120198102D01*
X141417205Y-120009744D01*
X141303937Y-119840226D01*
X141159774Y-119696063D01*
X140990256Y-119582795D01*
X140801898Y-119504774D01*
X140601939Y-119465000D01*
X140398061Y-119465000D01*
X140198102Y-119504774D01*
X140009744Y-119582795D01*
X139840226Y-119696063D01*
X139696063Y-119840226D01*
X139582795Y-120009744D01*
X139504774Y-120198102D01*
X139465000Y-120398061D01*
X139465000Y-120601939D01*
X139504774Y-120801898D01*
X139582795Y-120990256D01*
X139696063Y-121159774D01*
X139751289Y-121215000D01*
X139648061Y-121215000D01*
X139448102Y-121254774D01*
X139259744Y-121332795D01*
X139090226Y-121446063D01*
X138946063Y-121590226D01*
X138832795Y-121759744D01*
X138754774Y-121948102D01*
X138715000Y-122148061D01*
X133174499Y-122148061D01*
X133117205Y-122009744D01*
X133003937Y-121840226D01*
X132859774Y-121696063D01*
X132690256Y-121582795D01*
X132501898Y-121504774D01*
X132301939Y-121465000D01*
X132098061Y-121465000D01*
X132053444Y-121473875D01*
X132190256Y-121417205D01*
X132359774Y-121303937D01*
X132503937Y-121159774D01*
X132617205Y-120990256D01*
X132695226Y-120801898D01*
X132735000Y-120601939D01*
X132735000Y-120398061D01*
X132695226Y-120198102D01*
X132674499Y-120148061D01*
X136965000Y-120148061D01*
X136965000Y-120351939D01*
X137004774Y-120551898D01*
X137082795Y-120740256D01*
X137196063Y-120909774D01*
X137340226Y-121053937D01*
X137509744Y-121167205D01*
X137698102Y-121245226D01*
X137898061Y-121285000D01*
X138101939Y-121285000D01*
X138301898Y-121245226D01*
X138490256Y-121167205D01*
X138659774Y-121053937D01*
X138803937Y-120909774D01*
X138917205Y-120740256D01*
X138995226Y-120551898D01*
X139035000Y-120351939D01*
X139035000Y-120148061D01*
X138995226Y-119948102D01*
X138917205Y-119759744D01*
X138803937Y-119590226D01*
X138659774Y-119446063D01*
X138490256Y-119332795D01*
X138301898Y-119254774D01*
X138101939Y-119215000D01*
X137898061Y-119215000D01*
X137698102Y-119254774D01*
X137509744Y-119332795D01*
X137340226Y-119446063D01*
X137196063Y-119590226D01*
X137082795Y-119759744D01*
X137004774Y-119948102D01*
X136965000Y-120148061D01*
X132674499Y-120148061D01*
X132617205Y-120009744D01*
X132503937Y-119840226D01*
X132359774Y-119696063D01*
X132190256Y-119582795D01*
X132001898Y-119504774D01*
X131801939Y-119465000D01*
X131598061Y-119465000D01*
X131398102Y-119504774D01*
X131209744Y-119582795D01*
X131040226Y-119696063D01*
X130896063Y-119840226D01*
X130782795Y-120009744D01*
X130704774Y-120198102D01*
X130665000Y-120398061D01*
X97281088Y-120398061D01*
X96127000Y-118955452D01*
X96127000Y-117148061D01*
X104465000Y-117148061D01*
X104465000Y-117351939D01*
X104504774Y-117551898D01*
X104582795Y-117740256D01*
X104696063Y-117909774D01*
X104840226Y-118053937D01*
X105009744Y-118167205D01*
X105198102Y-118245226D01*
X105398061Y-118285000D01*
X105601939Y-118285000D01*
X105801898Y-118245226D01*
X105990256Y-118167205D01*
X106159774Y-118053937D01*
X106303937Y-117909774D01*
X106417205Y-117740256D01*
X106495226Y-117551898D01*
X106535000Y-117351939D01*
X106535000Y-117148061D01*
X106495226Y-116948102D01*
X106417205Y-116759744D01*
X106303937Y-116590226D01*
X106159774Y-116446063D01*
X105990256Y-116332795D01*
X105801898Y-116254774D01*
X105601939Y-116215000D01*
X105398061Y-116215000D01*
X105198102Y-116254774D01*
X105009744Y-116332795D01*
X104840226Y-116446063D01*
X104696063Y-116590226D01*
X104582795Y-116759744D01*
X104504774Y-116948102D01*
X104465000Y-117148061D01*
X96127000Y-117148061D01*
X96127000Y-115398061D01*
X130465000Y-115398061D01*
X130465000Y-115601939D01*
X130504774Y-115801898D01*
X130582795Y-115990256D01*
X130696063Y-116159774D01*
X130840226Y-116303937D01*
X131009744Y-116417205D01*
X131198102Y-116495226D01*
X131398061Y-116535000D01*
X131601939Y-116535000D01*
X131801898Y-116495226D01*
X131990256Y-116417205D01*
X132159774Y-116303937D01*
X132303937Y-116159774D01*
X132417205Y-115990256D01*
X132468081Y-115867430D01*
X132504774Y-116051898D01*
X132582795Y-116240256D01*
X132696063Y-116409774D01*
X132840226Y-116553937D01*
X133009744Y-116667205D01*
X133198102Y-116745226D01*
X133398061Y-116785000D01*
X133601939Y-116785000D01*
X133801898Y-116745226D01*
X133990256Y-116667205D01*
X134159774Y-116553937D01*
X134303937Y-116409774D01*
X134417205Y-116240256D01*
X134495226Y-116051898D01*
X134535000Y-115851939D01*
X134535000Y-115648061D01*
X134495226Y-115448102D01*
X134417205Y-115259744D01*
X134303937Y-115090226D01*
X134159774Y-114946063D01*
X133990256Y-114832795D01*
X133801898Y-114754774D01*
X133601939Y-114715000D01*
X133398061Y-114715000D01*
X133198102Y-114754774D01*
X133009744Y-114832795D01*
X132840226Y-114946063D01*
X132696063Y-115090226D01*
X132582795Y-115259744D01*
X132531919Y-115382570D01*
X132495226Y-115198102D01*
X132417205Y-115009744D01*
X132303937Y-114840226D01*
X132159774Y-114696063D01*
X131990256Y-114582795D01*
X131801898Y-114504774D01*
X131601939Y-114465000D01*
X131398061Y-114465000D01*
X131198102Y-114504774D01*
X131009744Y-114582795D01*
X130840226Y-114696063D01*
X130696063Y-114840226D01*
X130582795Y-115009744D01*
X130504774Y-115198102D01*
X130465000Y-115398061D01*
X96127000Y-115398061D01*
X96127000Y-113648061D01*
X134715000Y-113648061D01*
X134715000Y-113851939D01*
X134754774Y-114051898D01*
X134832795Y-114240256D01*
X134946063Y-114409774D01*
X135090226Y-114553937D01*
X135259744Y-114667205D01*
X135448102Y-114745226D01*
X135648061Y-114785000D01*
X135715000Y-114785000D01*
X135715000Y-114851939D01*
X135754774Y-115051898D01*
X135832795Y-115240256D01*
X135946063Y-115409774D01*
X136090226Y-115553937D01*
X136259744Y-115667205D01*
X136448102Y-115745226D01*
X136648061Y-115785000D01*
X136851939Y-115785000D01*
X137051898Y-115745226D01*
X137240256Y-115667205D01*
X137409774Y-115553937D01*
X137553937Y-115409774D01*
X137561763Y-115398061D01*
X139465000Y-115398061D01*
X139465000Y-115601939D01*
X139504774Y-115801898D01*
X139582795Y-115990256D01*
X139696063Y-116159774D01*
X139840226Y-116303937D01*
X140009744Y-116417205D01*
X140198102Y-116495226D01*
X140398061Y-116535000D01*
X140601939Y-116535000D01*
X140801898Y-116495226D01*
X140990256Y-116417205D01*
X141159774Y-116303937D01*
X141303937Y-116159774D01*
X141417205Y-115990256D01*
X141495226Y-115801898D01*
X141535000Y-115601939D01*
X141535000Y-115398061D01*
X141495226Y-115198102D01*
X141417205Y-115009744D01*
X141303937Y-114840226D01*
X141159774Y-114696063D01*
X140990256Y-114582795D01*
X140801898Y-114504774D01*
X140601939Y-114465000D01*
X140398061Y-114465000D01*
X140198102Y-114504774D01*
X140009744Y-114582795D01*
X139840226Y-114696063D01*
X139696063Y-114840226D01*
X139582795Y-115009744D01*
X139504774Y-115198102D01*
X139465000Y-115398061D01*
X137561763Y-115398061D01*
X137667205Y-115240256D01*
X137745226Y-115051898D01*
X137785000Y-114851939D01*
X137785000Y-114648061D01*
X137745226Y-114448102D01*
X137667205Y-114259744D01*
X137553937Y-114090226D01*
X137409774Y-113946063D01*
X137240256Y-113832795D01*
X137051898Y-113754774D01*
X136867430Y-113718081D01*
X136990256Y-113667205D01*
X137159774Y-113553937D01*
X137303937Y-113409774D01*
X137417205Y-113240256D01*
X137495226Y-113051898D01*
X137535000Y-112851939D01*
X137535000Y-112648061D01*
X137495226Y-112448102D01*
X137417205Y-112259744D01*
X137303937Y-112090226D01*
X137159774Y-111946063D01*
X136990256Y-111832795D01*
X136801898Y-111754774D01*
X136601939Y-111715000D01*
X136398061Y-111715000D01*
X136198102Y-111754774D01*
X136009744Y-111832795D01*
X135840226Y-111946063D01*
X135696063Y-112090226D01*
X135582795Y-112259744D01*
X135504774Y-112448102D01*
X135465000Y-112648061D01*
X135465000Y-112751413D01*
X135448102Y-112754774D01*
X135259744Y-112832795D01*
X135090226Y-112946063D01*
X134946063Y-113090226D01*
X134832795Y-113259744D01*
X134754774Y-113448102D01*
X134715000Y-113648061D01*
X96127000Y-113648061D01*
X96127000Y-113029980D01*
X96687131Y-111909718D01*
X96913411Y-111815990D01*
X97156632Y-111653475D01*
X97363475Y-111446632D01*
X97485195Y-111264466D01*
X97554822Y-111381355D01*
X97749731Y-111597588D01*
X97983080Y-111771641D01*
X98245901Y-111896825D01*
X98393110Y-111941476D01*
X98623000Y-111820155D01*
X98623000Y-110627000D01*
X98603000Y-110627000D01*
X98603000Y-110373000D01*
X98623000Y-110373000D01*
X98623000Y-109179845D01*
X98877000Y-109179845D01*
X98877000Y-110373000D01*
X98897000Y-110373000D01*
X98897000Y-110627000D01*
X98877000Y-110627000D01*
X98877000Y-111820155D01*
X99106890Y-111941476D01*
X99254099Y-111896825D01*
X99516920Y-111771641D01*
X99750269Y-111597588D01*
X99945178Y-111381355D01*
X100014805Y-111264466D01*
X100136525Y-111446632D01*
X100343368Y-111653475D01*
X100586589Y-111815990D01*
X100856842Y-111927932D01*
X101143740Y-111985000D01*
X101436260Y-111985000D01*
X101723158Y-111927932D01*
X101993411Y-111815990D01*
X102236632Y-111653475D01*
X102443475Y-111446632D01*
X102560000Y-111272240D01*
X102676525Y-111446632D01*
X102883368Y-111653475D01*
X103126589Y-111815990D01*
X103396842Y-111927932D01*
X103683740Y-111985000D01*
X103976260Y-111985000D01*
X104263158Y-111927932D01*
X104533411Y-111815990D01*
X104776632Y-111653475D01*
X104983475Y-111446632D01*
X105100000Y-111272240D01*
X105216525Y-111446632D01*
X105423368Y-111653475D01*
X105666589Y-111815990D01*
X105936842Y-111927932D01*
X106223740Y-111985000D01*
X106516260Y-111985000D01*
X106803158Y-111927932D01*
X107073411Y-111815990D01*
X107316632Y-111653475D01*
X107523475Y-111446632D01*
X107685990Y-111203411D01*
X107797932Y-110933158D01*
X107855000Y-110646260D01*
X107855000Y-110353740D01*
X107797932Y-110066842D01*
X107685990Y-109796589D01*
X107523475Y-109553368D01*
X107316632Y-109346525D01*
X107073411Y-109184010D01*
X106803158Y-109072068D01*
X106516260Y-109015000D01*
X106223740Y-109015000D01*
X105936842Y-109072068D01*
X105666589Y-109184010D01*
X105423368Y-109346525D01*
X105216525Y-109553368D01*
X105100000Y-109727760D01*
X104983475Y-109553368D01*
X104776632Y-109346525D01*
X104533411Y-109184010D01*
X104263158Y-109072068D01*
X103976260Y-109015000D01*
X103683740Y-109015000D01*
X103396842Y-109072068D01*
X103126589Y-109184010D01*
X102883368Y-109346525D01*
X102676525Y-109553368D01*
X102560000Y-109727760D01*
X102443475Y-109553368D01*
X102236632Y-109346525D01*
X101993411Y-109184010D01*
X101723158Y-109072068D01*
X101436260Y-109015000D01*
X101143740Y-109015000D01*
X100856842Y-109072068D01*
X100586589Y-109184010D01*
X100343368Y-109346525D01*
X100136525Y-109553368D01*
X100014805Y-109735534D01*
X99945178Y-109618645D01*
X99750269Y-109402412D01*
X99516920Y-109228359D01*
X99254099Y-109103175D01*
X99106890Y-109058524D01*
X98877000Y-109179845D01*
X98623000Y-109179845D01*
X98393110Y-109058524D01*
X98245901Y-109103175D01*
X98041794Y-109200393D01*
X98802960Y-107678061D01*
X110985000Y-107678061D01*
X110985000Y-107881939D01*
X111024774Y-108081898D01*
X111102795Y-108270256D01*
X111216063Y-108439774D01*
X111360226Y-108583937D01*
X111529744Y-108697205D01*
X111718102Y-108775226D01*
X111918061Y-108815000D01*
X112121939Y-108815000D01*
X112321898Y-108775226D01*
X112510256Y-108697205D01*
X112679774Y-108583937D01*
X112823937Y-108439774D01*
X112937205Y-108270256D01*
X113015226Y-108081898D01*
X113055000Y-107881939D01*
X113055000Y-107718061D01*
X118945000Y-107718061D01*
X118945000Y-107921939D01*
X118984774Y-108121898D01*
X119062795Y-108310256D01*
X119176063Y-108479774D01*
X119320226Y-108623937D01*
X119489744Y-108737205D01*
X119678102Y-108815226D01*
X119878061Y-108855000D01*
X120081939Y-108855000D01*
X120281898Y-108815226D01*
X120470256Y-108737205D01*
X120639774Y-108623937D01*
X120783937Y-108479774D01*
X120897205Y-108310256D01*
X120975226Y-108121898D01*
X121015000Y-107921939D01*
X121015000Y-107718061D01*
X120975226Y-107518102D01*
X120897205Y-107329744D01*
X120783937Y-107160226D01*
X120639774Y-107016063D01*
X120470256Y-106902795D01*
X120281898Y-106824774D01*
X120081939Y-106785000D01*
X119878061Y-106785000D01*
X119678102Y-106824774D01*
X119489744Y-106902795D01*
X119320226Y-107016063D01*
X119176063Y-107160226D01*
X119062795Y-107329744D01*
X118984774Y-107518102D01*
X118945000Y-107718061D01*
X113055000Y-107718061D01*
X113055000Y-107678061D01*
X113015226Y-107478102D01*
X112937205Y-107289744D01*
X112823937Y-107120226D01*
X112679774Y-106976063D01*
X112510256Y-106862795D01*
X112321898Y-106784774D01*
X112121939Y-106745000D01*
X111918061Y-106745000D01*
X111718102Y-106784774D01*
X111529744Y-106862795D01*
X111360226Y-106976063D01*
X111216063Y-107120226D01*
X111102795Y-107289744D01*
X111024774Y-107478102D01*
X110985000Y-107678061D01*
X98802960Y-107678061D01*
X99317960Y-106648061D01*
X131465000Y-106648061D01*
X131465000Y-106851939D01*
X131504774Y-107051898D01*
X131582795Y-107240256D01*
X131696063Y-107409774D01*
X131840226Y-107553937D01*
X131946580Y-107625000D01*
X131840226Y-107696063D01*
X131696063Y-107840226D01*
X131582795Y-108009744D01*
X131504774Y-108198102D01*
X131465000Y-108398061D01*
X131465000Y-108601939D01*
X131504774Y-108801898D01*
X131582795Y-108990256D01*
X131696063Y-109159774D01*
X131840226Y-109303937D01*
X132009744Y-109417205D01*
X132198102Y-109495226D01*
X132222103Y-109500000D01*
X132198102Y-109504774D01*
X132009744Y-109582795D01*
X131840226Y-109696063D01*
X131696063Y-109840226D01*
X131582795Y-110009744D01*
X131504774Y-110198102D01*
X131465000Y-110398061D01*
X131465000Y-110601939D01*
X131504774Y-110801898D01*
X131582795Y-110990256D01*
X131696063Y-111159774D01*
X131840226Y-111303937D01*
X132009744Y-111417205D01*
X132198102Y-111495226D01*
X132398061Y-111535000D01*
X132601939Y-111535000D01*
X132801898Y-111495226D01*
X132990256Y-111417205D01*
X133159774Y-111303937D01*
X133303937Y-111159774D01*
X133417205Y-110990256D01*
X133495226Y-110801898D01*
X133500000Y-110777897D01*
X133504774Y-110801898D01*
X133582795Y-110990256D01*
X133696063Y-111159774D01*
X133840226Y-111303937D01*
X134009744Y-111417205D01*
X134198102Y-111495226D01*
X134398061Y-111535000D01*
X134601939Y-111535000D01*
X134801898Y-111495226D01*
X134990256Y-111417205D01*
X135159774Y-111303937D01*
X135303937Y-111159774D01*
X135417205Y-110990256D01*
X135495226Y-110801898D01*
X135500000Y-110777897D01*
X135504774Y-110801898D01*
X135582795Y-110990256D01*
X135696063Y-111159774D01*
X135840226Y-111303937D01*
X136009744Y-111417205D01*
X136198102Y-111495226D01*
X136398061Y-111535000D01*
X136601939Y-111535000D01*
X136801898Y-111495226D01*
X136990256Y-111417205D01*
X137159774Y-111303937D01*
X137303937Y-111159774D01*
X137417205Y-110990256D01*
X137495226Y-110801898D01*
X137535000Y-110601939D01*
X137535000Y-110398061D01*
X137495226Y-110198102D01*
X137417205Y-110009744D01*
X137303937Y-109840226D01*
X137159774Y-109696063D01*
X136990256Y-109582795D01*
X136911082Y-109550000D01*
X136990256Y-109517205D01*
X137159774Y-109403937D01*
X137303937Y-109259774D01*
X137417205Y-109090256D01*
X137495226Y-108901898D01*
X137535000Y-108701939D01*
X137535000Y-108498061D01*
X137495226Y-108298102D01*
X137417205Y-108109744D01*
X137303937Y-107940226D01*
X137159774Y-107796063D01*
X136990256Y-107682795D01*
X136971437Y-107675000D01*
X136990256Y-107667205D01*
X137159774Y-107553937D01*
X137303937Y-107409774D01*
X137417205Y-107240256D01*
X137495226Y-107051898D01*
X137535000Y-106851939D01*
X137535000Y-106648061D01*
X137495226Y-106448102D01*
X137417205Y-106259744D01*
X137303937Y-106090226D01*
X137159774Y-105946063D01*
X136990256Y-105832795D01*
X136801898Y-105754774D01*
X136601939Y-105715000D01*
X136398061Y-105715000D01*
X136198102Y-105754774D01*
X136009744Y-105832795D01*
X135840226Y-105946063D01*
X135696063Y-106090226D01*
X135582795Y-106259744D01*
X135504774Y-106448102D01*
X135500000Y-106472103D01*
X135495226Y-106448102D01*
X135417205Y-106259744D01*
X135303937Y-106090226D01*
X135159774Y-105946063D01*
X134990256Y-105832795D01*
X134801898Y-105754774D01*
X134601939Y-105715000D01*
X134398061Y-105715000D01*
X134198102Y-105754774D01*
X134009744Y-105832795D01*
X133840226Y-105946063D01*
X133696063Y-106090226D01*
X133582795Y-106259744D01*
X133504774Y-106448102D01*
X133500000Y-106472103D01*
X133495226Y-106448102D01*
X133417205Y-106259744D01*
X133303937Y-106090226D01*
X133159774Y-105946063D01*
X132990256Y-105832795D01*
X132801898Y-105754774D01*
X132601939Y-105715000D01*
X132398061Y-105715000D01*
X132198102Y-105754774D01*
X132009744Y-105832795D01*
X131840226Y-105946063D01*
X131696063Y-106090226D01*
X131582795Y-106259744D01*
X131504774Y-106448102D01*
X131465000Y-106648061D01*
X99317960Y-106648061D01*
X101085814Y-103112353D01*
X108407273Y-101648061D01*
X121965000Y-101648061D01*
X121965000Y-101851939D01*
X122004774Y-102051898D01*
X122082795Y-102240256D01*
X122196063Y-102409774D01*
X122340226Y-102553937D01*
X122509744Y-102667205D01*
X122698102Y-102745226D01*
X122898061Y-102785000D01*
X123101939Y-102785000D01*
X123301898Y-102745226D01*
X123415763Y-102698061D01*
X126365000Y-102698061D01*
X126365000Y-102901939D01*
X126404774Y-103101898D01*
X126482795Y-103290256D01*
X126596063Y-103459774D01*
X126740226Y-103603937D01*
X126909744Y-103717205D01*
X127098102Y-103795226D01*
X127298061Y-103835000D01*
X127501939Y-103835000D01*
X127701898Y-103795226D01*
X127768757Y-103767532D01*
X127696063Y-103840226D01*
X127582795Y-104009744D01*
X127504774Y-104198102D01*
X127465000Y-104398061D01*
X127465000Y-104601939D01*
X127504774Y-104801898D01*
X127582795Y-104990256D01*
X127696063Y-105159774D01*
X127840226Y-105303937D01*
X128009744Y-105417205D01*
X128198102Y-105495226D01*
X128398061Y-105535000D01*
X128601939Y-105535000D01*
X128801898Y-105495226D01*
X128990256Y-105417205D01*
X129159774Y-105303937D01*
X129303937Y-105159774D01*
X129417205Y-104990256D01*
X129495226Y-104801898D01*
X129535000Y-104601939D01*
X129535000Y-104398061D01*
X129495226Y-104198102D01*
X129417205Y-104009744D01*
X129303937Y-103840226D01*
X129159774Y-103696063D01*
X128990256Y-103582795D01*
X128801898Y-103504774D01*
X128601939Y-103465000D01*
X128398061Y-103465000D01*
X128198102Y-103504774D01*
X128131243Y-103532468D01*
X128203937Y-103459774D01*
X128317205Y-103290256D01*
X128395226Y-103101898D01*
X128435000Y-102901939D01*
X128435000Y-102698061D01*
X128395226Y-102498102D01*
X128317205Y-102309744D01*
X128203937Y-102140226D01*
X128059774Y-101996063D01*
X127913104Y-101898061D01*
X132215000Y-101898061D01*
X132215000Y-102101939D01*
X132254774Y-102301898D01*
X132332795Y-102490256D01*
X132446063Y-102659774D01*
X132590226Y-102803937D01*
X132759744Y-102917205D01*
X132948102Y-102995226D01*
X133148061Y-103035000D01*
X133351939Y-103035000D01*
X133551898Y-102995226D01*
X133740256Y-102917205D01*
X133909774Y-102803937D01*
X134000000Y-102713711D01*
X134090226Y-102803937D01*
X134259744Y-102917205D01*
X134448102Y-102995226D01*
X134648061Y-103035000D01*
X134851939Y-103035000D01*
X135051898Y-102995226D01*
X135240256Y-102917205D01*
X135409774Y-102803937D01*
X135500000Y-102713711D01*
X135590226Y-102803937D01*
X135759744Y-102917205D01*
X135948102Y-102995226D01*
X136148061Y-103035000D01*
X136351939Y-103035000D01*
X136551898Y-102995226D01*
X136740256Y-102917205D01*
X136909774Y-102803937D01*
X137053937Y-102659774D01*
X137167205Y-102490256D01*
X137245226Y-102301898D01*
X137285000Y-102101939D01*
X137285000Y-101898061D01*
X137245226Y-101698102D01*
X137167205Y-101509744D01*
X137053937Y-101340226D01*
X136909774Y-101196063D01*
X136740256Y-101082795D01*
X136551898Y-101004774D01*
X136351939Y-100965000D01*
X136148061Y-100965000D01*
X135948102Y-101004774D01*
X135759744Y-101082795D01*
X135590226Y-101196063D01*
X135500000Y-101286289D01*
X135409774Y-101196063D01*
X135240256Y-101082795D01*
X135051898Y-101004774D01*
X134851939Y-100965000D01*
X134648061Y-100965000D01*
X134448102Y-101004774D01*
X134259744Y-101082795D01*
X134090226Y-101196063D01*
X134000000Y-101286289D01*
X133909774Y-101196063D01*
X133740256Y-101082795D01*
X133551898Y-101004774D01*
X133351939Y-100965000D01*
X133148061Y-100965000D01*
X132948102Y-101004774D01*
X132759744Y-101082795D01*
X132590226Y-101196063D01*
X132446063Y-101340226D01*
X132332795Y-101509744D01*
X132254774Y-101698102D01*
X132215000Y-101898061D01*
X127913104Y-101898061D01*
X127890256Y-101882795D01*
X127701898Y-101804774D01*
X127501939Y-101765000D01*
X127298061Y-101765000D01*
X127098102Y-101804774D01*
X126909744Y-101882795D01*
X126740226Y-101996063D01*
X126596063Y-102140226D01*
X126482795Y-102309744D01*
X126404774Y-102498102D01*
X126365000Y-102698061D01*
X123415763Y-102698061D01*
X123490256Y-102667205D01*
X123659774Y-102553937D01*
X123803937Y-102409774D01*
X123917205Y-102240256D01*
X123995226Y-102051898D01*
X124035000Y-101851939D01*
X124035000Y-101648061D01*
X123995226Y-101448102D01*
X123917205Y-101259744D01*
X123803937Y-101090226D01*
X123659774Y-100946063D01*
X123490256Y-100832795D01*
X123301898Y-100754774D01*
X123101939Y-100715000D01*
X122898061Y-100715000D01*
X122698102Y-100754774D01*
X122509744Y-100832795D01*
X122340226Y-100946063D01*
X122196063Y-101090226D01*
X122082795Y-101259744D01*
X122004774Y-101448102D01*
X121965000Y-101648061D01*
X108407273Y-101648061D01*
X125608018Y-98207912D01*
X125698102Y-98245226D01*
X125898061Y-98285000D01*
X126101939Y-98285000D01*
X126301898Y-98245226D01*
X126490256Y-98167205D01*
X126659774Y-98053937D01*
X126803937Y-97909774D01*
X126917205Y-97740256D01*
X126995226Y-97551898D01*
X127035000Y-97351939D01*
X127035000Y-97148061D01*
X126995226Y-96948102D01*
X126917205Y-96759744D01*
X126895773Y-96727669D01*
X127089660Y-96398061D01*
X127465000Y-96398061D01*
X127465000Y-96601939D01*
X127504774Y-96801898D01*
X127582795Y-96990256D01*
X127696063Y-97159774D01*
X127840226Y-97303937D01*
X128009744Y-97417205D01*
X128198102Y-97495226D01*
X128398061Y-97535000D01*
X128572334Y-97535000D01*
X128504774Y-97698102D01*
X128465000Y-97898061D01*
X128465000Y-98101939D01*
X128504774Y-98301898D01*
X128582795Y-98490256D01*
X128696063Y-98659774D01*
X128840226Y-98803937D01*
X129009744Y-98917205D01*
X129198102Y-98995226D01*
X129398061Y-99035000D01*
X129601939Y-99035000D01*
X129801898Y-98995226D01*
X129990256Y-98917205D01*
X130159774Y-98803937D01*
X130303937Y-98659774D01*
X130417205Y-98490256D01*
X130495226Y-98301898D01*
X130535000Y-98101939D01*
X130535000Y-97898061D01*
X130495226Y-97698102D01*
X130479050Y-97659050D01*
X130518102Y-97675226D01*
X130718061Y-97715000D01*
X130921939Y-97715000D01*
X131121898Y-97675226D01*
X131310256Y-97597205D01*
X131479774Y-97483937D01*
X131623937Y-97339774D01*
X131737205Y-97170256D01*
X131815226Y-96981898D01*
X131855000Y-96781939D01*
X131855000Y-96578061D01*
X131815226Y-96378102D01*
X131737205Y-96189744D01*
X131623937Y-96020226D01*
X131479774Y-95876063D01*
X131310256Y-95762795D01*
X131121898Y-95684774D01*
X130921939Y-95645000D01*
X130718061Y-95645000D01*
X130518102Y-95684774D01*
X130329744Y-95762795D01*
X130160226Y-95876063D01*
X130016063Y-96020226D01*
X129902795Y-96189744D01*
X129824774Y-96378102D01*
X129785000Y-96578061D01*
X129785000Y-96781939D01*
X129824774Y-96981898D01*
X129840950Y-97020950D01*
X129801898Y-97004774D01*
X129601939Y-96965000D01*
X129427666Y-96965000D01*
X129495226Y-96801898D01*
X129535000Y-96601939D01*
X129535000Y-96398061D01*
X129495226Y-96198102D01*
X129417205Y-96009744D01*
X129303937Y-95840226D01*
X129159774Y-95696063D01*
X128990256Y-95582795D01*
X128801898Y-95504774D01*
X128601939Y-95465000D01*
X128398061Y-95465000D01*
X128198102Y-95504774D01*
X128009744Y-95582795D01*
X127840226Y-95696063D01*
X127696063Y-95840226D01*
X127582795Y-96009744D01*
X127504774Y-96198102D01*
X127465000Y-96398061D01*
X127089660Y-96398061D01*
X127972013Y-94898061D01*
X131465000Y-94898061D01*
X131465000Y-95101939D01*
X131504774Y-95301898D01*
X131582795Y-95490256D01*
X131696063Y-95659774D01*
X131840226Y-95803937D01*
X132009744Y-95917205D01*
X132016426Y-95919973D01*
X132004774Y-95948102D01*
X131965000Y-96148061D01*
X131965000Y-96351939D01*
X132004774Y-96551898D01*
X132082795Y-96740256D01*
X132196063Y-96909774D01*
X132340226Y-97053937D01*
X132509744Y-97167205D01*
X132698102Y-97245226D01*
X132898061Y-97285000D01*
X133101939Y-97285000D01*
X133301898Y-97245226D01*
X133490256Y-97167205D01*
X133659774Y-97053937D01*
X133803937Y-96909774D01*
X133917205Y-96740256D01*
X133995226Y-96551898D01*
X134035000Y-96351939D01*
X134035000Y-96148061D01*
X133995226Y-95948102D01*
X133917205Y-95759744D01*
X133803937Y-95590226D01*
X133659774Y-95446063D01*
X133490256Y-95332795D01*
X133483574Y-95330027D01*
X133495226Y-95301898D01*
X133535000Y-95101939D01*
X133535000Y-94898061D01*
X133495226Y-94698102D01*
X133417205Y-94509744D01*
X133303937Y-94340226D01*
X133159774Y-94196063D01*
X132990256Y-94082795D01*
X132801898Y-94004774D01*
X132601939Y-93965000D01*
X132398061Y-93965000D01*
X132198102Y-94004774D01*
X132009744Y-94082795D01*
X131840226Y-94196063D01*
X131696063Y-94340226D01*
X131582795Y-94509744D01*
X131504774Y-94698102D01*
X131465000Y-94898061D01*
X127972013Y-94898061D01*
X128786829Y-93512875D01*
X128898061Y-93535000D01*
X129101939Y-93535000D01*
X129301898Y-93495226D01*
X129490256Y-93417205D01*
X129659774Y-93303937D01*
X129803937Y-93159774D01*
X129917205Y-92990256D01*
X129955393Y-92898061D01*
X140365000Y-92898061D01*
X140365000Y-93101939D01*
X140404774Y-93301898D01*
X140482795Y-93490256D01*
X140596063Y-93659774D01*
X140740226Y-93803937D01*
X140909744Y-93917205D01*
X141098102Y-93995226D01*
X141298061Y-94035000D01*
X141501939Y-94035000D01*
X141701898Y-93995226D01*
X141890256Y-93917205D01*
X142059774Y-93803937D01*
X142203937Y-93659774D01*
X142317205Y-93490256D01*
X142395226Y-93301898D01*
X142435000Y-93101939D01*
X142435000Y-92898061D01*
X142395226Y-92698102D01*
X142317205Y-92509744D01*
X142203937Y-92340226D01*
X142059774Y-92196063D01*
X141890256Y-92082795D01*
X141701898Y-92004774D01*
X141501939Y-91965000D01*
X141298061Y-91965000D01*
X141098102Y-92004774D01*
X140909744Y-92082795D01*
X140740226Y-92196063D01*
X140596063Y-92340226D01*
X140482795Y-92509744D01*
X140404774Y-92698102D01*
X140365000Y-92898061D01*
X129955393Y-92898061D01*
X129995226Y-92801898D01*
X130035000Y-92601939D01*
X130035000Y-92398061D01*
X129995226Y-92198102D01*
X129917205Y-92009744D01*
X129803937Y-91840226D01*
X129783035Y-91819324D01*
X130207307Y-91098061D01*
X134365000Y-91098061D01*
X134365000Y-91301939D01*
X134404774Y-91501898D01*
X134482795Y-91690256D01*
X134596063Y-91859774D01*
X134740226Y-92003937D01*
X134909744Y-92117205D01*
X135098102Y-92195226D01*
X135298061Y-92235000D01*
X135501939Y-92235000D01*
X135701898Y-92195226D01*
X135890256Y-92117205D01*
X136059774Y-92003937D01*
X136203937Y-91859774D01*
X136317205Y-91690256D01*
X136395226Y-91501898D01*
X136435000Y-91301939D01*
X136435000Y-91098061D01*
X136395226Y-90898102D01*
X136317205Y-90709744D01*
X136203937Y-90540226D01*
X136059774Y-90396063D01*
X135890256Y-90282795D01*
X135701898Y-90204774D01*
X135501939Y-90165000D01*
X135298061Y-90165000D01*
X135098102Y-90204774D01*
X134909744Y-90282795D01*
X134740226Y-90396063D01*
X134596063Y-90540226D01*
X134482795Y-90709744D01*
X134404774Y-90898102D01*
X134365000Y-91098061D01*
X130207307Y-91098061D01*
X131266130Y-89298061D01*
X140765000Y-89298061D01*
X140765000Y-89501939D01*
X140804774Y-89701898D01*
X140882795Y-89890256D01*
X140996063Y-90059774D01*
X141140226Y-90203937D01*
X141309744Y-90317205D01*
X141498102Y-90395226D01*
X141698061Y-90435000D01*
X141901939Y-90435000D01*
X142101898Y-90395226D01*
X142290256Y-90317205D01*
X142459774Y-90203937D01*
X142603937Y-90059774D01*
X142717205Y-89890256D01*
X142795226Y-89701898D01*
X142835000Y-89501939D01*
X142835000Y-89298061D01*
X142795226Y-89098102D01*
X142717205Y-88909744D01*
X142603937Y-88740226D01*
X142459774Y-88596063D01*
X142290256Y-88482795D01*
X142101898Y-88404774D01*
X141901939Y-88365000D01*
X141698061Y-88365000D01*
X141498102Y-88404774D01*
X141309744Y-88482795D01*
X141140226Y-88596063D01*
X140996063Y-88740226D01*
X140882795Y-88909744D01*
X140804774Y-89098102D01*
X140765000Y-89298061D01*
X131266130Y-89298061D01*
X135490135Y-82117255D01*
X135490256Y-82117205D01*
X135659774Y-82003937D01*
X135803937Y-81859774D01*
X135917205Y-81690256D01*
X135995226Y-81501898D01*
X136035000Y-81301939D01*
X136035000Y-81190985D01*
X136072638Y-81127000D01*
X142936500Y-81127000D01*
X145873000Y-85042333D01*
G37*
X145873000Y-85042333D02*
X145873000Y-91936500D01*
X141923800Y-94898400D01*
X141905443Y-94915218D01*
X141890720Y-94935294D01*
X141880196Y-94957857D01*
X141874276Y-94982039D01*
X141873000Y-95000000D01*
X141873000Y-96715000D01*
X141698061Y-96715000D01*
X141498102Y-96754774D01*
X141309744Y-96832795D01*
X141140226Y-96946063D01*
X140996063Y-97090226D01*
X140882795Y-97259744D01*
X140804774Y-97448102D01*
X140765000Y-97648061D01*
X140765000Y-97851939D01*
X140804774Y-98051898D01*
X140882795Y-98240256D01*
X140996063Y-98409774D01*
X141140226Y-98553937D01*
X141309744Y-98667205D01*
X141498102Y-98745226D01*
X141698061Y-98785000D01*
X141873000Y-98785000D01*
X141873000Y-102034226D01*
X141801898Y-102004774D01*
X141601939Y-101965000D01*
X141398061Y-101965000D01*
X141198102Y-102004774D01*
X141009744Y-102082795D01*
X140840226Y-102196063D01*
X140696063Y-102340226D01*
X140582795Y-102509744D01*
X140504774Y-102698102D01*
X140465000Y-102898061D01*
X140465000Y-103101939D01*
X140504774Y-103301898D01*
X140582795Y-103490256D01*
X140696063Y-103659774D01*
X140840226Y-103803937D01*
X141009744Y-103917205D01*
X141198102Y-103995226D01*
X141398061Y-104035000D01*
X141601939Y-104035000D01*
X141801898Y-103995226D01*
X141873000Y-103965774D01*
X141873000Y-132941587D01*
X134953019Y-138873000D01*
X131245927Y-138873000D01*
X131275812Y-138774482D01*
X131288072Y-138650000D01*
X131288072Y-136850000D01*
X131275812Y-136725518D01*
X131239502Y-136605820D01*
X131180537Y-136495506D01*
X131101185Y-136398815D01*
X131004494Y-136319463D01*
X130894180Y-136260498D01*
X130774482Y-136224188D01*
X130650000Y-136211928D01*
X128850000Y-136211928D01*
X128725518Y-136224188D01*
X128605820Y-136260498D01*
X128495506Y-136319463D01*
X128398815Y-136398815D01*
X128319463Y-136495506D01*
X128260498Y-136605820D01*
X128224188Y-136725518D01*
X128211928Y-136850000D01*
X128211928Y-138650000D01*
X128224188Y-138774482D01*
X128254073Y-138873000D01*
X121995927Y-138873000D01*
X122025812Y-138774482D01*
X122038072Y-138650000D01*
X122038072Y-136850000D01*
X122025812Y-136725518D01*
X121989502Y-136605820D01*
X121930537Y-136495506D01*
X121851185Y-136398815D01*
X121754494Y-136319463D01*
X121644180Y-136260498D01*
X121524482Y-136224188D01*
X121400000Y-136211928D01*
X119600000Y-136211928D01*
X119475518Y-136224188D01*
X119355820Y-136260498D01*
X119245506Y-136319463D01*
X119148815Y-136398815D01*
X119069463Y-136495506D01*
X119010498Y-136605820D01*
X118974188Y-136725518D01*
X118961928Y-136850000D01*
X118961928Y-138650000D01*
X118974188Y-138774482D01*
X119004073Y-138873000D01*
X112745927Y-138873000D01*
X112775812Y-138774482D01*
X112788072Y-138650000D01*
X112788072Y-136850000D01*
X112775812Y-136725518D01*
X112739502Y-136605820D01*
X112680537Y-136495506D01*
X112601185Y-136398815D01*
X112504494Y-136319463D01*
X112394180Y-136260498D01*
X112274482Y-136224188D01*
X112150000Y-136211928D01*
X110350000Y-136211928D01*
X110225518Y-136224188D01*
X110105820Y-136260498D01*
X109995506Y-136319463D01*
X109898815Y-136398815D01*
X109819463Y-136495506D01*
X109760498Y-136605820D01*
X109724188Y-136725518D01*
X109711928Y-136850000D01*
X109711928Y-138650000D01*
X109724188Y-138774482D01*
X109754073Y-138873000D01*
X103052606Y-138873000D01*
X100127000Y-135947394D01*
X100127000Y-124000000D01*
X100124560Y-123975224D01*
X100117333Y-123951399D01*
X100099170Y-123920664D01*
X99921088Y-123698061D01*
X117165000Y-123698061D01*
X117165000Y-123901939D01*
X117204774Y-124101898D01*
X117282795Y-124290256D01*
X117396063Y-124459774D01*
X117540226Y-124603937D01*
X117709744Y-124717205D01*
X117898102Y-124795226D01*
X118098061Y-124835000D01*
X118301939Y-124835000D01*
X118501898Y-124795226D01*
X118690256Y-124717205D01*
X118859774Y-124603937D01*
X119003937Y-124459774D01*
X119117205Y-124290256D01*
X119195226Y-124101898D01*
X119235000Y-123901939D01*
X119235000Y-123698061D01*
X119195226Y-123498102D01*
X119117205Y-123309744D01*
X119003937Y-123140226D01*
X118859774Y-122996063D01*
X118690256Y-122882795D01*
X118501898Y-122804774D01*
X118301939Y-122765000D01*
X118098061Y-122765000D01*
X117898102Y-122804774D01*
X117709744Y-122882795D01*
X117540226Y-122996063D01*
X117396063Y-123140226D01*
X117282795Y-123309744D01*
X117204774Y-123498102D01*
X117165000Y-123698061D01*
X99921088Y-123698061D01*
X98681088Y-122148061D01*
X125215000Y-122148061D01*
X125215000Y-122351939D01*
X125254774Y-122551898D01*
X125332795Y-122740256D01*
X125446063Y-122909774D01*
X125590226Y-123053937D01*
X125759744Y-123167205D01*
X125948102Y-123245226D01*
X126148061Y-123285000D01*
X126351939Y-123285000D01*
X126551898Y-123245226D01*
X126740256Y-123167205D01*
X126909774Y-123053937D01*
X127053937Y-122909774D01*
X127167205Y-122740256D01*
X127245226Y-122551898D01*
X127285000Y-122351939D01*
X127285000Y-122148061D01*
X127245226Y-121948102D01*
X127167205Y-121759744D01*
X127053937Y-121590226D01*
X126909774Y-121446063D01*
X126740256Y-121332795D01*
X126551898Y-121254774D01*
X126351939Y-121215000D01*
X126148061Y-121215000D01*
X125948102Y-121254774D01*
X125759744Y-121332795D01*
X125590226Y-121446063D01*
X125446063Y-121590226D01*
X125332795Y-121759744D01*
X125254774Y-121948102D01*
X125215000Y-122148061D01*
X98681088Y-122148061D01*
X97281088Y-120398061D01*
X130665000Y-120398061D01*
X130665000Y-120601939D01*
X130704774Y-120801898D01*
X130782795Y-120990256D01*
X130896063Y-121159774D01*
X131040226Y-121303937D01*
X131209744Y-121417205D01*
X131398102Y-121495226D01*
X131598061Y-121535000D01*
X131801939Y-121535000D01*
X131846556Y-121526125D01*
X131709744Y-121582795D01*
X131540226Y-121696063D01*
X131396063Y-121840226D01*
X131282795Y-122009744D01*
X131204774Y-122198102D01*
X131165000Y-122398061D01*
X131165000Y-122601939D01*
X131204774Y-122801898D01*
X131282795Y-122990256D01*
X131396063Y-123159774D01*
X131540226Y-123303937D01*
X131709744Y-123417205D01*
X131898102Y-123495226D01*
X132098061Y-123535000D01*
X132301939Y-123535000D01*
X132501898Y-123495226D01*
X132690256Y-123417205D01*
X132859774Y-123303937D01*
X133003937Y-123159774D01*
X133117205Y-122990256D01*
X133195226Y-122801898D01*
X133235000Y-122601939D01*
X133235000Y-122398061D01*
X133195226Y-122198102D01*
X133174499Y-122148061D01*
X138715000Y-122148061D01*
X138715000Y-122351939D01*
X138754774Y-122551898D01*
X138832795Y-122740256D01*
X138946063Y-122909774D01*
X139090226Y-123053937D01*
X139259744Y-123167205D01*
X139448102Y-123245226D01*
X139648061Y-123285000D01*
X139851939Y-123285000D01*
X140051898Y-123245226D01*
X140240256Y-123167205D01*
X140409774Y-123053937D01*
X140553937Y-122909774D01*
X140667205Y-122740256D01*
X140745226Y-122551898D01*
X140785000Y-122351939D01*
X140785000Y-122148061D01*
X140745226Y-121948102D01*
X140667205Y-121759744D01*
X140553937Y-121590226D01*
X140498711Y-121535000D01*
X140601939Y-121535000D01*
X140801898Y-121495226D01*
X140990256Y-121417205D01*
X141159774Y-121303937D01*
X141303937Y-121159774D01*
X141417205Y-120990256D01*
X141495226Y-120801898D01*
X141535000Y-120601939D01*
X141535000Y-120398061D01*
X141495226Y-120198102D01*
X141417205Y-120009744D01*
X141303937Y-119840226D01*
X141159774Y-119696063D01*
X140990256Y-119582795D01*
X140801898Y-119504774D01*
X140601939Y-119465000D01*
X140398061Y-119465000D01*
X140198102Y-119504774D01*
X140009744Y-119582795D01*
X139840226Y-119696063D01*
X139696063Y-119840226D01*
X139582795Y-120009744D01*
X139504774Y-120198102D01*
X139465000Y-120398061D01*
X139465000Y-120601939D01*
X139504774Y-120801898D01*
X139582795Y-120990256D01*
X139696063Y-121159774D01*
X139751289Y-121215000D01*
X139648061Y-121215000D01*
X139448102Y-121254774D01*
X139259744Y-121332795D01*
X139090226Y-121446063D01*
X138946063Y-121590226D01*
X138832795Y-121759744D01*
X138754774Y-121948102D01*
X138715000Y-122148061D01*
X133174499Y-122148061D01*
X133117205Y-122009744D01*
X133003937Y-121840226D01*
X132859774Y-121696063D01*
X132690256Y-121582795D01*
X132501898Y-121504774D01*
X132301939Y-121465000D01*
X132098061Y-121465000D01*
X132053444Y-121473875D01*
X132190256Y-121417205D01*
X132359774Y-121303937D01*
X132503937Y-121159774D01*
X132617205Y-120990256D01*
X132695226Y-120801898D01*
X132735000Y-120601939D01*
X132735000Y-120398061D01*
X132695226Y-120198102D01*
X132674499Y-120148061D01*
X136965000Y-120148061D01*
X136965000Y-120351939D01*
X137004774Y-120551898D01*
X137082795Y-120740256D01*
X137196063Y-120909774D01*
X137340226Y-121053937D01*
X137509744Y-121167205D01*
X137698102Y-121245226D01*
X137898061Y-121285000D01*
X138101939Y-121285000D01*
X138301898Y-121245226D01*
X138490256Y-121167205D01*
X138659774Y-121053937D01*
X138803937Y-120909774D01*
X138917205Y-120740256D01*
X138995226Y-120551898D01*
X139035000Y-120351939D01*
X139035000Y-120148061D01*
X138995226Y-119948102D01*
X138917205Y-119759744D01*
X138803937Y-119590226D01*
X138659774Y-119446063D01*
X138490256Y-119332795D01*
X138301898Y-119254774D01*
X138101939Y-119215000D01*
X137898061Y-119215000D01*
X137698102Y-119254774D01*
X137509744Y-119332795D01*
X137340226Y-119446063D01*
X137196063Y-119590226D01*
X137082795Y-119759744D01*
X137004774Y-119948102D01*
X136965000Y-120148061D01*
X132674499Y-120148061D01*
X132617205Y-120009744D01*
X132503937Y-119840226D01*
X132359774Y-119696063D01*
X132190256Y-119582795D01*
X132001898Y-119504774D01*
X131801939Y-119465000D01*
X131598061Y-119465000D01*
X131398102Y-119504774D01*
X131209744Y-119582795D01*
X131040226Y-119696063D01*
X130896063Y-119840226D01*
X130782795Y-120009744D01*
X130704774Y-120198102D01*
X130665000Y-120398061D01*
X97281088Y-120398061D01*
X96127000Y-118955452D01*
X96127000Y-117148061D01*
X104465000Y-117148061D01*
X104465000Y-117351939D01*
X104504774Y-117551898D01*
X104582795Y-117740256D01*
X104696063Y-117909774D01*
X104840226Y-118053937D01*
X105009744Y-118167205D01*
X105198102Y-118245226D01*
X105398061Y-118285000D01*
X105601939Y-118285000D01*
X105801898Y-118245226D01*
X105990256Y-118167205D01*
X106159774Y-118053937D01*
X106303937Y-117909774D01*
X106417205Y-117740256D01*
X106495226Y-117551898D01*
X106535000Y-117351939D01*
X106535000Y-117148061D01*
X106495226Y-116948102D01*
X106417205Y-116759744D01*
X106303937Y-116590226D01*
X106159774Y-116446063D01*
X105990256Y-116332795D01*
X105801898Y-116254774D01*
X105601939Y-116215000D01*
X105398061Y-116215000D01*
X105198102Y-116254774D01*
X105009744Y-116332795D01*
X104840226Y-116446063D01*
X104696063Y-116590226D01*
X104582795Y-116759744D01*
X104504774Y-116948102D01*
X104465000Y-117148061D01*
X96127000Y-117148061D01*
X96127000Y-115398061D01*
X130465000Y-115398061D01*
X130465000Y-115601939D01*
X130504774Y-115801898D01*
X130582795Y-115990256D01*
X130696063Y-116159774D01*
X130840226Y-116303937D01*
X131009744Y-116417205D01*
X131198102Y-116495226D01*
X131398061Y-116535000D01*
X131601939Y-116535000D01*
X131801898Y-116495226D01*
X131990256Y-116417205D01*
X132159774Y-116303937D01*
X132303937Y-116159774D01*
X132417205Y-115990256D01*
X132468081Y-115867430D01*
X132504774Y-116051898D01*
X132582795Y-116240256D01*
X132696063Y-116409774D01*
X132840226Y-116553937D01*
X133009744Y-116667205D01*
X133198102Y-116745226D01*
X133398061Y-116785000D01*
X133601939Y-116785000D01*
X133801898Y-116745226D01*
X133990256Y-116667205D01*
X134159774Y-116553937D01*
X134303937Y-116409774D01*
X134417205Y-116240256D01*
X134495226Y-116051898D01*
X134535000Y-115851939D01*
X134535000Y-115648061D01*
X134495226Y-115448102D01*
X134417205Y-115259744D01*
X134303937Y-115090226D01*
X134159774Y-114946063D01*
X133990256Y-114832795D01*
X133801898Y-114754774D01*
X133601939Y-114715000D01*
X133398061Y-114715000D01*
X133198102Y-114754774D01*
X133009744Y-114832795D01*
X132840226Y-114946063D01*
X132696063Y-115090226D01*
X132582795Y-115259744D01*
X132531919Y-115382570D01*
X132495226Y-115198102D01*
X132417205Y-115009744D01*
X132303937Y-114840226D01*
X132159774Y-114696063D01*
X131990256Y-114582795D01*
X131801898Y-114504774D01*
X131601939Y-114465000D01*
X131398061Y-114465000D01*
X131198102Y-114504774D01*
X131009744Y-114582795D01*
X130840226Y-114696063D01*
X130696063Y-114840226D01*
X130582795Y-115009744D01*
X130504774Y-115198102D01*
X130465000Y-115398061D01*
X96127000Y-115398061D01*
X96127000Y-113648061D01*
X134715000Y-113648061D01*
X134715000Y-113851939D01*
X134754774Y-114051898D01*
X134832795Y-114240256D01*
X134946063Y-114409774D01*
X135090226Y-114553937D01*
X135259744Y-114667205D01*
X135448102Y-114745226D01*
X135648061Y-114785000D01*
X135715000Y-114785000D01*
X135715000Y-114851939D01*
X135754774Y-115051898D01*
X135832795Y-115240256D01*
X135946063Y-115409774D01*
X136090226Y-115553937D01*
X136259744Y-115667205D01*
X136448102Y-115745226D01*
X136648061Y-115785000D01*
X136851939Y-115785000D01*
X137051898Y-115745226D01*
X137240256Y-115667205D01*
X137409774Y-115553937D01*
X137553937Y-115409774D01*
X137561763Y-115398061D01*
X139465000Y-115398061D01*
X139465000Y-115601939D01*
X139504774Y-115801898D01*
X139582795Y-115990256D01*
X139696063Y-116159774D01*
X139840226Y-116303937D01*
X140009744Y-116417205D01*
X140198102Y-116495226D01*
X140398061Y-116535000D01*
X140601939Y-116535000D01*
X140801898Y-116495226D01*
X140990256Y-116417205D01*
X141159774Y-116303937D01*
X141303937Y-116159774D01*
X141417205Y-115990256D01*
X141495226Y-115801898D01*
X141535000Y-115601939D01*
X141535000Y-115398061D01*
X141495226Y-115198102D01*
X141417205Y-115009744D01*
X141303937Y-114840226D01*
X141159774Y-114696063D01*
X140990256Y-114582795D01*
X140801898Y-114504774D01*
X140601939Y-114465000D01*
X140398061Y-114465000D01*
X140198102Y-114504774D01*
X140009744Y-114582795D01*
X139840226Y-114696063D01*
X139696063Y-114840226D01*
X139582795Y-115009744D01*
X139504774Y-115198102D01*
X139465000Y-115398061D01*
X137561763Y-115398061D01*
X137667205Y-115240256D01*
X137745226Y-115051898D01*
X137785000Y-114851939D01*
X137785000Y-114648061D01*
X137745226Y-114448102D01*
X137667205Y-114259744D01*
X137553937Y-114090226D01*
X137409774Y-113946063D01*
X137240256Y-113832795D01*
X137051898Y-113754774D01*
X136867430Y-113718081D01*
X136990256Y-113667205D01*
X137159774Y-113553937D01*
X137303937Y-113409774D01*
X137417205Y-113240256D01*
X137495226Y-113051898D01*
X137535000Y-112851939D01*
X137535000Y-112648061D01*
X137495226Y-112448102D01*
X137417205Y-112259744D01*
X137303937Y-112090226D01*
X137159774Y-111946063D01*
X136990256Y-111832795D01*
X136801898Y-111754774D01*
X136601939Y-111715000D01*
X136398061Y-111715000D01*
X136198102Y-111754774D01*
X136009744Y-111832795D01*
X135840226Y-111946063D01*
X135696063Y-112090226D01*
X135582795Y-112259744D01*
X135504774Y-112448102D01*
X135465000Y-112648061D01*
X135465000Y-112751413D01*
X135448102Y-112754774D01*
X135259744Y-112832795D01*
X135090226Y-112946063D01*
X134946063Y-113090226D01*
X134832795Y-113259744D01*
X134754774Y-113448102D01*
X134715000Y-113648061D01*
X96127000Y-113648061D01*
X96127000Y-113029980D01*
X96687131Y-111909718D01*
X96913411Y-111815990D01*
X97156632Y-111653475D01*
X97363475Y-111446632D01*
X97485195Y-111264466D01*
X97554822Y-111381355D01*
X97749731Y-111597588D01*
X97983080Y-111771641D01*
X98245901Y-111896825D01*
X98393110Y-111941476D01*
X98623000Y-111820155D01*
X98623000Y-110627000D01*
X98603000Y-110627000D01*
X98603000Y-110373000D01*
X98623000Y-110373000D01*
X98623000Y-109179845D01*
X98877000Y-109179845D01*
X98877000Y-110373000D01*
X98897000Y-110373000D01*
X98897000Y-110627000D01*
X98877000Y-110627000D01*
X98877000Y-111820155D01*
X99106890Y-111941476D01*
X99254099Y-111896825D01*
X99516920Y-111771641D01*
X99750269Y-111597588D01*
X99945178Y-111381355D01*
X100014805Y-111264466D01*
X100136525Y-111446632D01*
X100343368Y-111653475D01*
X100586589Y-111815990D01*
X100856842Y-111927932D01*
X101143740Y-111985000D01*
X101436260Y-111985000D01*
X101723158Y-111927932D01*
X101993411Y-111815990D01*
X102236632Y-111653475D01*
X102443475Y-111446632D01*
X102560000Y-111272240D01*
X102676525Y-111446632D01*
X102883368Y-111653475D01*
X103126589Y-111815990D01*
X103396842Y-111927932D01*
X103683740Y-111985000D01*
X103976260Y-111985000D01*
X104263158Y-111927932D01*
X104533411Y-111815990D01*
X104776632Y-111653475D01*
X104983475Y-111446632D01*
X105100000Y-111272240D01*
X105216525Y-111446632D01*
X105423368Y-111653475D01*
X105666589Y-111815990D01*
X105936842Y-111927932D01*
X106223740Y-111985000D01*
X106516260Y-111985000D01*
X106803158Y-111927932D01*
X107073411Y-111815990D01*
X107316632Y-111653475D01*
X107523475Y-111446632D01*
X107685990Y-111203411D01*
X107797932Y-110933158D01*
X107855000Y-110646260D01*
X107855000Y-110353740D01*
X107797932Y-110066842D01*
X107685990Y-109796589D01*
X107523475Y-109553368D01*
X107316632Y-109346525D01*
X107073411Y-109184010D01*
X106803158Y-109072068D01*
X106516260Y-109015000D01*
X106223740Y-109015000D01*
X105936842Y-109072068D01*
X105666589Y-109184010D01*
X105423368Y-109346525D01*
X105216525Y-109553368D01*
X105100000Y-109727760D01*
X104983475Y-109553368D01*
X104776632Y-109346525D01*
X104533411Y-109184010D01*
X104263158Y-109072068D01*
X103976260Y-109015000D01*
X103683740Y-109015000D01*
X103396842Y-109072068D01*
X103126589Y-109184010D01*
X102883368Y-109346525D01*
X102676525Y-109553368D01*
X102560000Y-109727760D01*
X102443475Y-109553368D01*
X102236632Y-109346525D01*
X101993411Y-109184010D01*
X101723158Y-109072068D01*
X101436260Y-109015000D01*
X101143740Y-109015000D01*
X100856842Y-109072068D01*
X100586589Y-109184010D01*
X100343368Y-109346525D01*
X100136525Y-109553368D01*
X100014805Y-109735534D01*
X99945178Y-109618645D01*
X99750269Y-109402412D01*
X99516920Y-109228359D01*
X99254099Y-109103175D01*
X99106890Y-109058524D01*
X98877000Y-109179845D01*
X98623000Y-109179845D01*
X98393110Y-109058524D01*
X98245901Y-109103175D01*
X98041794Y-109200393D01*
X98802960Y-107678061D01*
X110985000Y-107678061D01*
X110985000Y-107881939D01*
X111024774Y-108081898D01*
X111102795Y-108270256D01*
X111216063Y-108439774D01*
X111360226Y-108583937D01*
X111529744Y-108697205D01*
X111718102Y-108775226D01*
X111918061Y-108815000D01*
X112121939Y-108815000D01*
X112321898Y-108775226D01*
X112510256Y-108697205D01*
X112679774Y-108583937D01*
X112823937Y-108439774D01*
X112937205Y-108270256D01*
X113015226Y-108081898D01*
X113055000Y-107881939D01*
X113055000Y-107718061D01*
X118945000Y-107718061D01*
X118945000Y-107921939D01*
X118984774Y-108121898D01*
X119062795Y-108310256D01*
X119176063Y-108479774D01*
X119320226Y-108623937D01*
X119489744Y-108737205D01*
X119678102Y-108815226D01*
X119878061Y-108855000D01*
X120081939Y-108855000D01*
X120281898Y-108815226D01*
X120470256Y-108737205D01*
X120639774Y-108623937D01*
X120783937Y-108479774D01*
X120897205Y-108310256D01*
X120975226Y-108121898D01*
X121015000Y-107921939D01*
X121015000Y-107718061D01*
X120975226Y-107518102D01*
X120897205Y-107329744D01*
X120783937Y-107160226D01*
X120639774Y-107016063D01*
X120470256Y-106902795D01*
X120281898Y-106824774D01*
X120081939Y-106785000D01*
X119878061Y-106785000D01*
X119678102Y-106824774D01*
X119489744Y-106902795D01*
X119320226Y-107016063D01*
X119176063Y-107160226D01*
X119062795Y-107329744D01*
X118984774Y-107518102D01*
X118945000Y-107718061D01*
X113055000Y-107718061D01*
X113055000Y-107678061D01*
X113015226Y-107478102D01*
X112937205Y-107289744D01*
X112823937Y-107120226D01*
X112679774Y-106976063D01*
X112510256Y-106862795D01*
X112321898Y-106784774D01*
X112121939Y-106745000D01*
X111918061Y-106745000D01*
X111718102Y-106784774D01*
X111529744Y-106862795D01*
X111360226Y-106976063D01*
X111216063Y-107120226D01*
X111102795Y-107289744D01*
X111024774Y-107478102D01*
X110985000Y-107678061D01*
X98802960Y-107678061D01*
X99317960Y-106648061D01*
X131465000Y-106648061D01*
X131465000Y-106851939D01*
X131504774Y-107051898D01*
X131582795Y-107240256D01*
X131696063Y-107409774D01*
X131840226Y-107553937D01*
X131946580Y-107625000D01*
X131840226Y-107696063D01*
X131696063Y-107840226D01*
X131582795Y-108009744D01*
X131504774Y-108198102D01*
X131465000Y-108398061D01*
X131465000Y-108601939D01*
X131504774Y-108801898D01*
X131582795Y-108990256D01*
X131696063Y-109159774D01*
X131840226Y-109303937D01*
X132009744Y-109417205D01*
X132198102Y-109495226D01*
X132222103Y-109500000D01*
X132198102Y-109504774D01*
X132009744Y-109582795D01*
X131840226Y-109696063D01*
X131696063Y-109840226D01*
X131582795Y-110009744D01*
X131504774Y-110198102D01*
X131465000Y-110398061D01*
X131465000Y-110601939D01*
X131504774Y-110801898D01*
X131582795Y-110990256D01*
X131696063Y-111159774D01*
X131840226Y-111303937D01*
X132009744Y-111417205D01*
X132198102Y-111495226D01*
X132398061Y-111535000D01*
X132601939Y-111535000D01*
X132801898Y-111495226D01*
X132990256Y-111417205D01*
X133159774Y-111303937D01*
X133303937Y-111159774D01*
X133417205Y-110990256D01*
X133495226Y-110801898D01*
X133500000Y-110777897D01*
X133504774Y-110801898D01*
X133582795Y-110990256D01*
X133696063Y-111159774D01*
X133840226Y-111303937D01*
X134009744Y-111417205D01*
X134198102Y-111495226D01*
X134398061Y-111535000D01*
X134601939Y-111535000D01*
X134801898Y-111495226D01*
X134990256Y-111417205D01*
X135159774Y-111303937D01*
X135303937Y-111159774D01*
X135417205Y-110990256D01*
X135495226Y-110801898D01*
X135500000Y-110777897D01*
X135504774Y-110801898D01*
X135582795Y-110990256D01*
X135696063Y-111159774D01*
X135840226Y-111303937D01*
X136009744Y-111417205D01*
X136198102Y-111495226D01*
X136398061Y-111535000D01*
X136601939Y-111535000D01*
X136801898Y-111495226D01*
X136990256Y-111417205D01*
X137159774Y-111303937D01*
X137303937Y-111159774D01*
X137417205Y-110990256D01*
X137495226Y-110801898D01*
X137535000Y-110601939D01*
X137535000Y-110398061D01*
X137495226Y-110198102D01*
X137417205Y-110009744D01*
X137303937Y-109840226D01*
X137159774Y-109696063D01*
X136990256Y-109582795D01*
X136911082Y-109550000D01*
X136990256Y-109517205D01*
X137159774Y-109403937D01*
X137303937Y-109259774D01*
X137417205Y-109090256D01*
X137495226Y-108901898D01*
X137535000Y-108701939D01*
X137535000Y-108498061D01*
X137495226Y-108298102D01*
X137417205Y-108109744D01*
X137303937Y-107940226D01*
X137159774Y-107796063D01*
X136990256Y-107682795D01*
X136971437Y-107675000D01*
X136990256Y-107667205D01*
X137159774Y-107553937D01*
X137303937Y-107409774D01*
X137417205Y-107240256D01*
X137495226Y-107051898D01*
X137535000Y-106851939D01*
X137535000Y-106648061D01*
X137495226Y-106448102D01*
X137417205Y-106259744D01*
X137303937Y-106090226D01*
X137159774Y-105946063D01*
X136990256Y-105832795D01*
X136801898Y-105754774D01*
X136601939Y-105715000D01*
X136398061Y-105715000D01*
X136198102Y-105754774D01*
X136009744Y-105832795D01*
X135840226Y-105946063D01*
X135696063Y-106090226D01*
X135582795Y-106259744D01*
X135504774Y-106448102D01*
X135500000Y-106472103D01*
X135495226Y-106448102D01*
X135417205Y-106259744D01*
X135303937Y-106090226D01*
X135159774Y-105946063D01*
X134990256Y-105832795D01*
X134801898Y-105754774D01*
X134601939Y-105715000D01*
X134398061Y-105715000D01*
X134198102Y-105754774D01*
X134009744Y-105832795D01*
X133840226Y-105946063D01*
X133696063Y-106090226D01*
X133582795Y-106259744D01*
X133504774Y-106448102D01*
X133500000Y-106472103D01*
X133495226Y-106448102D01*
X133417205Y-106259744D01*
X133303937Y-106090226D01*
X133159774Y-105946063D01*
X132990256Y-105832795D01*
X132801898Y-105754774D01*
X132601939Y-105715000D01*
X132398061Y-105715000D01*
X132198102Y-105754774D01*
X132009744Y-105832795D01*
X131840226Y-105946063D01*
X131696063Y-106090226D01*
X131582795Y-106259744D01*
X131504774Y-106448102D01*
X131465000Y-106648061D01*
X99317960Y-106648061D01*
X101085814Y-103112353D01*
X108407273Y-101648061D01*
X121965000Y-101648061D01*
X121965000Y-101851939D01*
X122004774Y-102051898D01*
X122082795Y-102240256D01*
X122196063Y-102409774D01*
X122340226Y-102553937D01*
X122509744Y-102667205D01*
X122698102Y-102745226D01*
X122898061Y-102785000D01*
X123101939Y-102785000D01*
X123301898Y-102745226D01*
X123415763Y-102698061D01*
X126365000Y-102698061D01*
X126365000Y-102901939D01*
X126404774Y-103101898D01*
X126482795Y-103290256D01*
X126596063Y-103459774D01*
X126740226Y-103603937D01*
X126909744Y-103717205D01*
X127098102Y-103795226D01*
X127298061Y-103835000D01*
X127501939Y-103835000D01*
X127701898Y-103795226D01*
X127768757Y-103767532D01*
X127696063Y-103840226D01*
X127582795Y-104009744D01*
X127504774Y-104198102D01*
X127465000Y-104398061D01*
X127465000Y-104601939D01*
X127504774Y-104801898D01*
X127582795Y-104990256D01*
X127696063Y-105159774D01*
X127840226Y-105303937D01*
X128009744Y-105417205D01*
X128198102Y-105495226D01*
X128398061Y-105535000D01*
X128601939Y-105535000D01*
X128801898Y-105495226D01*
X128990256Y-105417205D01*
X129159774Y-105303937D01*
X129303937Y-105159774D01*
X129417205Y-104990256D01*
X129495226Y-104801898D01*
X129535000Y-104601939D01*
X129535000Y-104398061D01*
X129495226Y-104198102D01*
X129417205Y-104009744D01*
X129303937Y-103840226D01*
X129159774Y-103696063D01*
X128990256Y-103582795D01*
X128801898Y-103504774D01*
X128601939Y-103465000D01*
X128398061Y-103465000D01*
X128198102Y-103504774D01*
X128131243Y-103532468D01*
X128203937Y-103459774D01*
X128317205Y-103290256D01*
X128395226Y-103101898D01*
X128435000Y-102901939D01*
X128435000Y-102698061D01*
X128395226Y-102498102D01*
X128317205Y-102309744D01*
X128203937Y-102140226D01*
X128059774Y-101996063D01*
X127913104Y-101898061D01*
X132215000Y-101898061D01*
X132215000Y-102101939D01*
X132254774Y-102301898D01*
X132332795Y-102490256D01*
X132446063Y-102659774D01*
X132590226Y-102803937D01*
X132759744Y-102917205D01*
X132948102Y-102995226D01*
X133148061Y-103035000D01*
X133351939Y-103035000D01*
X133551898Y-102995226D01*
X133740256Y-102917205D01*
X133909774Y-102803937D01*
X134000000Y-102713711D01*
X134090226Y-102803937D01*
X134259744Y-102917205D01*
X134448102Y-102995226D01*
X134648061Y-103035000D01*
X134851939Y-103035000D01*
X135051898Y-102995226D01*
X135240256Y-102917205D01*
X135409774Y-102803937D01*
X135500000Y-102713711D01*
X135590226Y-102803937D01*
X135759744Y-102917205D01*
X135948102Y-102995226D01*
X136148061Y-103035000D01*
X136351939Y-103035000D01*
X136551898Y-102995226D01*
X136740256Y-102917205D01*
X136909774Y-102803937D01*
X137053937Y-102659774D01*
X137167205Y-102490256D01*
X137245226Y-102301898D01*
X137285000Y-102101939D01*
X137285000Y-101898061D01*
X137245226Y-101698102D01*
X137167205Y-101509744D01*
X137053937Y-101340226D01*
X136909774Y-101196063D01*
X136740256Y-101082795D01*
X136551898Y-101004774D01*
X136351939Y-100965000D01*
X136148061Y-100965000D01*
X135948102Y-101004774D01*
X135759744Y-101082795D01*
X135590226Y-101196063D01*
X135500000Y-101286289D01*
X135409774Y-101196063D01*
X135240256Y-101082795D01*
X135051898Y-101004774D01*
X134851939Y-100965000D01*
X134648061Y-100965000D01*
X134448102Y-101004774D01*
X134259744Y-101082795D01*
X134090226Y-101196063D01*
X134000000Y-101286289D01*
X133909774Y-101196063D01*
X133740256Y-101082795D01*
X133551898Y-101004774D01*
X133351939Y-100965000D01*
X133148061Y-100965000D01*
X132948102Y-101004774D01*
X132759744Y-101082795D01*
X132590226Y-101196063D01*
X132446063Y-101340226D01*
X132332795Y-101509744D01*
X132254774Y-101698102D01*
X132215000Y-101898061D01*
X127913104Y-101898061D01*
X127890256Y-101882795D01*
X127701898Y-101804774D01*
X127501939Y-101765000D01*
X127298061Y-101765000D01*
X127098102Y-101804774D01*
X126909744Y-101882795D01*
X126740226Y-101996063D01*
X126596063Y-102140226D01*
X126482795Y-102309744D01*
X126404774Y-102498102D01*
X126365000Y-102698061D01*
X123415763Y-102698061D01*
X123490256Y-102667205D01*
X123659774Y-102553937D01*
X123803937Y-102409774D01*
X123917205Y-102240256D01*
X123995226Y-102051898D01*
X124035000Y-101851939D01*
X124035000Y-101648061D01*
X123995226Y-101448102D01*
X123917205Y-101259744D01*
X123803937Y-101090226D01*
X123659774Y-100946063D01*
X123490256Y-100832795D01*
X123301898Y-100754774D01*
X123101939Y-100715000D01*
X122898061Y-100715000D01*
X122698102Y-100754774D01*
X122509744Y-100832795D01*
X122340226Y-100946063D01*
X122196063Y-101090226D01*
X122082795Y-101259744D01*
X122004774Y-101448102D01*
X121965000Y-101648061D01*
X108407273Y-101648061D01*
X125608018Y-98207912D01*
X125698102Y-98245226D01*
X125898061Y-98285000D01*
X126101939Y-98285000D01*
X126301898Y-98245226D01*
X126490256Y-98167205D01*
X126659774Y-98053937D01*
X126803937Y-97909774D01*
X126917205Y-97740256D01*
X126995226Y-97551898D01*
X127035000Y-97351939D01*
X127035000Y-97148061D01*
X126995226Y-96948102D01*
X126917205Y-96759744D01*
X126895773Y-96727669D01*
X127089660Y-96398061D01*
X127465000Y-96398061D01*
X127465000Y-96601939D01*
X127504774Y-96801898D01*
X127582795Y-96990256D01*
X127696063Y-97159774D01*
X127840226Y-97303937D01*
X128009744Y-97417205D01*
X128198102Y-97495226D01*
X128398061Y-97535000D01*
X128572334Y-97535000D01*
X128504774Y-97698102D01*
X128465000Y-97898061D01*
X128465000Y-98101939D01*
X128504774Y-98301898D01*
X128582795Y-98490256D01*
X128696063Y-98659774D01*
X128840226Y-98803937D01*
X129009744Y-98917205D01*
X129198102Y-98995226D01*
X129398061Y-99035000D01*
X129601939Y-99035000D01*
X129801898Y-98995226D01*
X129990256Y-98917205D01*
X130159774Y-98803937D01*
X130303937Y-98659774D01*
X130417205Y-98490256D01*
X130495226Y-98301898D01*
X130535000Y-98101939D01*
X130535000Y-97898061D01*
X130495226Y-97698102D01*
X130479050Y-97659050D01*
X130518102Y-97675226D01*
X130718061Y-97715000D01*
X130921939Y-97715000D01*
X131121898Y-97675226D01*
X131310256Y-97597205D01*
X131479774Y-97483937D01*
X131623937Y-97339774D01*
X131737205Y-97170256D01*
X131815226Y-96981898D01*
X131855000Y-96781939D01*
X131855000Y-96578061D01*
X131815226Y-96378102D01*
X131737205Y-96189744D01*
X131623937Y-96020226D01*
X131479774Y-95876063D01*
X131310256Y-95762795D01*
X131121898Y-95684774D01*
X130921939Y-95645000D01*
X130718061Y-95645000D01*
X130518102Y-95684774D01*
X130329744Y-95762795D01*
X130160226Y-95876063D01*
X130016063Y-96020226D01*
X129902795Y-96189744D01*
X129824774Y-96378102D01*
X129785000Y-96578061D01*
X129785000Y-96781939D01*
X129824774Y-96981898D01*
X129840950Y-97020950D01*
X129801898Y-97004774D01*
X129601939Y-96965000D01*
X129427666Y-96965000D01*
X129495226Y-96801898D01*
X129535000Y-96601939D01*
X129535000Y-96398061D01*
X129495226Y-96198102D01*
X129417205Y-96009744D01*
X129303937Y-95840226D01*
X129159774Y-95696063D01*
X128990256Y-95582795D01*
X128801898Y-95504774D01*
X128601939Y-95465000D01*
X128398061Y-95465000D01*
X128198102Y-95504774D01*
X128009744Y-95582795D01*
X127840226Y-95696063D01*
X127696063Y-95840226D01*
X127582795Y-96009744D01*
X127504774Y-96198102D01*
X127465000Y-96398061D01*
X127089660Y-96398061D01*
X127972013Y-94898061D01*
X131465000Y-94898061D01*
X131465000Y-95101939D01*
X131504774Y-95301898D01*
X131582795Y-95490256D01*
X131696063Y-95659774D01*
X131840226Y-95803937D01*
X132009744Y-95917205D01*
X132016426Y-95919973D01*
X132004774Y-95948102D01*
X131965000Y-96148061D01*
X131965000Y-96351939D01*
X132004774Y-96551898D01*
X132082795Y-96740256D01*
X132196063Y-96909774D01*
X132340226Y-97053937D01*
X132509744Y-97167205D01*
X132698102Y-97245226D01*
X132898061Y-97285000D01*
X133101939Y-97285000D01*
X133301898Y-97245226D01*
X133490256Y-97167205D01*
X133659774Y-97053937D01*
X133803937Y-96909774D01*
X133917205Y-96740256D01*
X133995226Y-96551898D01*
X134035000Y-96351939D01*
X134035000Y-96148061D01*
X133995226Y-95948102D01*
X133917205Y-95759744D01*
X133803937Y-95590226D01*
X133659774Y-95446063D01*
X133490256Y-95332795D01*
X133483574Y-95330027D01*
X133495226Y-95301898D01*
X133535000Y-95101939D01*
X133535000Y-94898061D01*
X133495226Y-94698102D01*
X133417205Y-94509744D01*
X133303937Y-94340226D01*
X133159774Y-94196063D01*
X132990256Y-94082795D01*
X132801898Y-94004774D01*
X132601939Y-93965000D01*
X132398061Y-93965000D01*
X132198102Y-94004774D01*
X132009744Y-94082795D01*
X131840226Y-94196063D01*
X131696063Y-94340226D01*
X131582795Y-94509744D01*
X131504774Y-94698102D01*
X131465000Y-94898061D01*
X127972013Y-94898061D01*
X128786829Y-93512875D01*
X128898061Y-93535000D01*
X129101939Y-93535000D01*
X129301898Y-93495226D01*
X129490256Y-93417205D01*
X129659774Y-93303937D01*
X129803937Y-93159774D01*
X129917205Y-92990256D01*
X129955393Y-92898061D01*
X140365000Y-92898061D01*
X140365000Y-93101939D01*
X140404774Y-93301898D01*
X140482795Y-93490256D01*
X140596063Y-93659774D01*
X140740226Y-93803937D01*
X140909744Y-93917205D01*
X141098102Y-93995226D01*
X141298061Y-94035000D01*
X141501939Y-94035000D01*
X141701898Y-93995226D01*
X141890256Y-93917205D01*
X142059774Y-93803937D01*
X142203937Y-93659774D01*
X142317205Y-93490256D01*
X142395226Y-93301898D01*
X142435000Y-93101939D01*
X142435000Y-92898061D01*
X142395226Y-92698102D01*
X142317205Y-92509744D01*
X142203937Y-92340226D01*
X142059774Y-92196063D01*
X141890256Y-92082795D01*
X141701898Y-92004774D01*
X141501939Y-91965000D01*
X141298061Y-91965000D01*
X141098102Y-92004774D01*
X140909744Y-92082795D01*
X140740226Y-92196063D01*
X140596063Y-92340226D01*
X140482795Y-92509744D01*
X140404774Y-92698102D01*
X140365000Y-92898061D01*
X129955393Y-92898061D01*
X129995226Y-92801898D01*
X130035000Y-92601939D01*
X130035000Y-92398061D01*
X129995226Y-92198102D01*
X129917205Y-92009744D01*
X129803937Y-91840226D01*
X129783035Y-91819324D01*
X130207307Y-91098061D01*
X134365000Y-91098061D01*
X134365000Y-91301939D01*
X134404774Y-91501898D01*
X134482795Y-91690256D01*
X134596063Y-91859774D01*
X134740226Y-92003937D01*
X134909744Y-92117205D01*
X135098102Y-92195226D01*
X135298061Y-92235000D01*
X135501939Y-92235000D01*
X135701898Y-92195226D01*
X135890256Y-92117205D01*
X136059774Y-92003937D01*
X136203937Y-91859774D01*
X136317205Y-91690256D01*
X136395226Y-91501898D01*
X136435000Y-91301939D01*
X136435000Y-91098061D01*
X136395226Y-90898102D01*
X136317205Y-90709744D01*
X136203937Y-90540226D01*
X136059774Y-90396063D01*
X135890256Y-90282795D01*
X135701898Y-90204774D01*
X135501939Y-90165000D01*
X135298061Y-90165000D01*
X135098102Y-90204774D01*
X134909744Y-90282795D01*
X134740226Y-90396063D01*
X134596063Y-90540226D01*
X134482795Y-90709744D01*
X134404774Y-90898102D01*
X134365000Y-91098061D01*
X130207307Y-91098061D01*
X131266130Y-89298061D01*
X140765000Y-89298061D01*
X140765000Y-89501939D01*
X140804774Y-89701898D01*
X140882795Y-89890256D01*
X140996063Y-90059774D01*
X141140226Y-90203937D01*
X141309744Y-90317205D01*
X141498102Y-90395226D01*
X141698061Y-90435000D01*
X141901939Y-90435000D01*
X142101898Y-90395226D01*
X142290256Y-90317205D01*
X142459774Y-90203937D01*
X142603937Y-90059774D01*
X142717205Y-89890256D01*
X142795226Y-89701898D01*
X142835000Y-89501939D01*
X142835000Y-89298061D01*
X142795226Y-89098102D01*
X142717205Y-88909744D01*
X142603937Y-88740226D01*
X142459774Y-88596063D01*
X142290256Y-88482795D01*
X142101898Y-88404774D01*
X141901939Y-88365000D01*
X141698061Y-88365000D01*
X141498102Y-88404774D01*
X141309744Y-88482795D01*
X141140226Y-88596063D01*
X140996063Y-88740226D01*
X140882795Y-88909744D01*
X140804774Y-89098102D01*
X140765000Y-89298061D01*
X131266130Y-89298061D01*
X135490135Y-82117255D01*
X135490256Y-82117205D01*
X135659774Y-82003937D01*
X135803937Y-81859774D01*
X135917205Y-81690256D01*
X135995226Y-81501898D01*
X136035000Y-81301939D01*
X136035000Y-81190985D01*
X136072638Y-81127000D01*
X142936500Y-81127000D01*
X145873000Y-85042333D01*
M02*
