%TF.GenerationSoftware,KiCad,Pcbnew,(5.1.6)-1*%
%TF.CreationDate,2020-09-10T03:51:48+02:00*%
%TF.ProjectId,Esp32TinyTester,45737033-3254-4696-9e79-546573746572,rev?*%
%TF.SameCoordinates,Original*%
%TF.FileFunction,Copper,L4,Bot*%
%TF.FilePolarity,Positive*%
%FSLAX46Y46*%
G04 Gerber Fmt 4.6, Leading zero omitted, Abs format (unit mm)*
G04 Created by KiCad (PCBNEW (5.1.6)-1) date 2020-09-10 03:51:48*
%MOMM*%
%LPD*%
G01*
G04 APERTURE LIST*
%TA.AperFunction,EtchedComponent*%
%ADD10C,0.381000*%
%TD*%
%TA.AperFunction,ComponentPad*%
%ADD11R,1.700000X1.700000*%
%TD*%
%TA.AperFunction,ComponentPad*%
%ADD12O,1.700000X1.700000*%
%TD*%
%TA.AperFunction,ComponentPad*%
%ADD13C,1.800000*%
%TD*%
%TA.AperFunction,ComponentPad*%
%ADD14R,1.800000X1.800000*%
%TD*%
%TA.AperFunction,ComponentPad*%
%ADD15O,3.010000X1.510000*%
%TD*%
%TA.AperFunction,ViaPad*%
%ADD16C,0.800000*%
%TD*%
%TA.AperFunction,Conductor*%
%ADD17C,0.250000*%
%TD*%
G04 APERTURE END LIST*
D10*
X146540700Y-55250000D02*
G75*
G03*
X146540700Y-55250000I-1790700J0D01*
G01*
X146279080Y-55250000D02*
G75*
G03*
X146279080Y-55250000I-1529080J0D01*
G01*
X71790700Y-140000000D02*
G75*
G03*
X71790700Y-140000000I-1790700J0D01*
G01*
X71529080Y-140000000D02*
G75*
G03*
X71529080Y-140000000I-1529080J0D01*
G01*
D11*
X75870000Y-57540000D03*
D12*
X75870000Y-55000000D03*
X78410000Y-57540000D03*
X78410000Y-55000000D03*
X80950000Y-57540000D03*
X80950000Y-55000000D03*
X83490000Y-57540000D03*
X83490000Y-55000000D03*
X86030000Y-57540000D03*
X86030000Y-55000000D03*
X88570000Y-57540000D03*
X88570000Y-55000000D03*
X91110000Y-57540000D03*
X91110000Y-55000000D03*
X93650000Y-57540000D03*
X93650000Y-55000000D03*
X96190000Y-57540000D03*
X96190000Y-55000000D03*
X98730000Y-57540000D03*
X98730000Y-55000000D03*
X101270000Y-57540000D03*
X101270000Y-55000000D03*
X103810000Y-57540000D03*
X103810000Y-55000000D03*
X106350000Y-57540000D03*
X106350000Y-55000000D03*
X108890000Y-57540000D03*
X108890000Y-55000000D03*
X111430000Y-57540000D03*
X111430000Y-55000000D03*
X113970000Y-57540000D03*
X113970000Y-55000000D03*
X116510000Y-57540000D03*
X116510000Y-55000000D03*
X119050000Y-57540000D03*
X119050000Y-55000000D03*
X121590000Y-57540000D03*
X121590000Y-55000000D03*
X124130000Y-57540000D03*
X124130000Y-55000000D03*
D13*
X111250000Y-140290000D03*
D14*
X111250000Y-137750000D03*
D12*
X106370000Y-110500000D03*
X103830000Y-110500000D03*
X101290000Y-110500000D03*
X98750000Y-110500000D03*
X96210000Y-110500000D03*
D11*
X93670000Y-110500000D03*
X83500000Y-101250000D03*
D12*
X83500000Y-98710000D03*
X83500000Y-96170000D03*
X83500000Y-93630000D03*
X83500000Y-91090000D03*
X83500000Y-88550000D03*
D15*
X143000000Y-73500000D03*
X143000000Y-70960000D03*
X143000000Y-68420000D03*
D14*
X129750000Y-137750000D03*
D13*
X129750000Y-140290000D03*
X120500000Y-140290000D03*
D14*
X120500000Y-137750000D03*
D16*
X140500000Y-115500000D03*
X140500000Y-120500000D03*
X75500000Y-138500000D03*
X75500000Y-137000000D03*
X75500000Y-140000000D03*
X75500000Y-141500000D03*
X75500000Y-143000000D03*
X75500000Y-144500000D03*
X81500000Y-143000000D03*
X81500000Y-144500000D03*
X94500000Y-143000000D03*
X94500000Y-141500000D03*
X81500000Y-141500000D03*
X81500000Y-140000000D03*
X77000000Y-137000000D03*
X78500000Y-137000000D03*
X94500000Y-140000000D03*
X81500000Y-138500000D03*
X81500000Y-137000000D03*
X80000000Y-137000000D03*
X90000000Y-137000000D03*
X88500000Y-138500000D03*
X88500000Y-137000000D03*
X94500000Y-144500000D03*
X88500000Y-144500000D03*
X88500000Y-143000000D03*
X88500000Y-140000000D03*
X88500000Y-141500000D03*
X132500000Y-110500000D03*
X134500000Y-110500000D03*
X136500000Y-110500000D03*
X134500000Y-108500000D03*
X134500000Y-106750000D03*
X136250000Y-102000000D03*
X134750000Y-102000000D03*
X106200000Y-130200000D03*
X107600000Y-130200000D03*
X107600000Y-128800000D03*
X107600000Y-127400000D03*
X107600000Y-126000000D03*
X107600000Y-124600000D03*
X107600000Y-123200000D03*
X103400000Y-130200000D03*
X102200000Y-130200000D03*
X120600000Y-89600000D03*
X120600000Y-90800000D03*
X123600000Y-89400000D03*
X123600000Y-90800000D03*
X123600000Y-88200000D03*
X132200000Y-122500000D03*
X118200000Y-123800000D03*
X139750000Y-122250000D03*
X135800000Y-130250000D03*
X119750000Y-118500000D03*
X135750000Y-122250000D03*
X121600000Y-87400000D03*
X120000000Y-87400000D03*
X118200000Y-87400000D03*
X116200000Y-85200000D03*
X116200000Y-84000000D03*
X116200000Y-82600000D03*
X116200000Y-81200000D03*
X111600000Y-81200000D03*
X111600000Y-83000000D03*
X114600000Y-85200000D03*
X112750000Y-85200000D03*
X113000000Y-92000000D03*
X114750000Y-92000000D03*
X140250000Y-97750000D03*
X140000000Y-102750000D03*
X141400000Y-93000000D03*
X135400000Y-91200000D03*
X141800000Y-89400000D03*
X135000000Y-81200000D03*
X138000000Y-120250000D03*
X135500000Y-70000000D03*
X128250000Y-79250000D03*
X125250000Y-76000000D03*
X123000000Y-76000000D03*
X120250000Y-74250000D03*
X123000000Y-74250000D03*
X117750000Y-76000000D03*
X117750000Y-74250000D03*
X120500000Y-76500000D03*
X115500000Y-76000000D03*
X121750000Y-78750000D03*
X116500000Y-78750000D03*
X62500000Y-84750000D03*
X63750000Y-85250000D03*
X60750000Y-88750000D03*
X62000000Y-88750000D03*
X58500000Y-88000000D03*
X58500000Y-86750000D03*
X58500000Y-85500000D03*
X85250000Y-121250000D03*
X84500000Y-126250000D03*
X84500000Y-125000000D03*
X84500000Y-123500000D03*
X84500000Y-122250000D03*
X85500000Y-127000000D03*
X86750000Y-127000000D03*
X88000000Y-127000000D03*
X90250000Y-126250000D03*
X89250000Y-127000000D03*
X95250000Y-123750000D03*
X94000000Y-121250000D03*
X92750000Y-121250000D03*
X95250000Y-122500000D03*
X94000000Y-122500000D03*
X95250000Y-121250000D03*
X90250000Y-125000000D03*
X91500000Y-121250000D03*
X90250000Y-122500000D03*
X92750000Y-122500000D03*
X89000000Y-121250000D03*
X90250000Y-123750000D03*
X91500000Y-122500000D03*
X90250000Y-121250000D03*
X86500000Y-121250000D03*
X87750000Y-121250000D03*
X75250000Y-68250000D03*
X60250000Y-68250000D03*
X62750000Y-68500000D03*
X65250000Y-68500000D03*
X67750000Y-68250000D03*
X62750000Y-66250000D03*
X67750000Y-66250000D03*
X70250000Y-68500000D03*
X73000000Y-68250000D03*
X73000000Y-66250000D03*
X70500000Y-84000000D03*
X105500000Y-117250000D03*
X83500000Y-85750000D03*
X70250000Y-101500000D03*
X70250000Y-96500000D03*
X62000000Y-72000000D03*
X66500000Y-72000000D03*
X71750000Y-72000000D03*
X70250000Y-93890000D03*
X70250000Y-91350000D03*
X70250000Y-99000000D03*
X129000000Y-92500000D03*
X131500000Y-115500000D03*
X133500000Y-115750000D03*
X135750000Y-113750000D03*
X133000000Y-96250000D03*
X132500000Y-95000000D03*
X132500000Y-108500000D03*
X132500000Y-106750000D03*
X136500000Y-106750000D03*
X136750000Y-114750000D03*
X136500000Y-112750000D03*
X93500000Y-92500000D03*
X92500000Y-72250000D03*
X93250000Y-77000000D03*
X126000000Y-93000000D03*
X123000000Y-101750000D03*
X141500000Y-103000000D03*
X133250000Y-102000000D03*
X129500000Y-98000000D03*
X127400000Y-102800000D03*
X94500000Y-73000000D03*
X105500000Y-76500000D03*
X97200000Y-77430000D03*
X95220000Y-98100000D03*
X82300000Y-67550000D03*
X77600000Y-62150000D03*
X84350000Y-62400000D03*
X89300000Y-65050000D03*
X95350000Y-64650000D03*
X104650000Y-64850000D03*
X110325000Y-61925000D03*
X111575000Y-67675000D03*
X116575000Y-64925000D03*
X121950000Y-61800000D03*
X141800000Y-97750000D03*
X109000000Y-104750000D03*
X107000000Y-104750000D03*
X104930000Y-104750000D03*
X103000000Y-104750000D03*
X101050000Y-104750000D03*
X98970000Y-104750000D03*
X96970000Y-104750000D03*
X95010000Y-104750000D03*
X93000000Y-104750000D03*
X91000000Y-104750000D03*
X91000000Y-85750000D03*
X93000000Y-85750000D03*
X95000000Y-85750000D03*
X97000000Y-85750000D03*
X99000000Y-85750000D03*
X101010000Y-85750000D03*
X102980000Y-85750000D03*
X104960000Y-85750000D03*
X107000000Y-85750000D03*
X109000000Y-85750000D03*
X97080000Y-93800000D03*
X97060000Y-96680000D03*
X128500000Y-96500000D03*
X104250000Y-99750000D03*
X108500000Y-99750000D03*
X95750000Y-100250000D03*
X127424999Y-80075001D03*
X98000000Y-130500000D03*
X119980000Y-107820000D03*
X112020000Y-107780000D03*
X136500000Y-108600000D03*
X92750000Y-137750000D03*
X94075000Y-138575000D03*
X67375000Y-84625000D03*
X69995000Y-82005000D03*
X70995000Y-82005000D03*
X69540000Y-89040000D03*
X59500000Y-88750000D03*
X63250000Y-88750000D03*
X63750000Y-87750000D03*
X59500000Y-84750000D03*
X60750000Y-84750000D03*
X63750000Y-86500000D03*
X121000000Y-92000000D03*
X123000000Y-92000000D03*
X122000000Y-91000000D03*
X102500000Y-77500000D03*
X144500000Y-87000000D03*
X126000000Y-97250000D03*
X105000000Y-130200000D03*
X70250000Y-66250000D03*
X65250000Y-66250000D03*
X130820000Y-96680000D03*
X124250000Y-97250000D03*
X128500000Y-104500000D03*
X131700000Y-120500000D03*
X126250000Y-122250000D03*
D17*
X130000000Y-95000000D02*
X132500000Y-95000000D01*
X74700010Y-105950010D02*
X70250000Y-101500000D01*
X121950010Y-105950010D02*
X74700010Y-105950010D01*
X97000000Y-93720000D02*
X97080000Y-93800000D01*
X97000000Y-85750000D02*
X97000000Y-93720000D01*
X82324999Y-82425001D02*
X92500000Y-72250000D01*
X82324999Y-94994999D02*
X82324999Y-82425001D01*
X83500000Y-96170000D02*
X82324999Y-94994999D01*
X91000000Y-104750000D02*
X109000000Y-104750000D01*
X132570000Y-96680000D02*
X133000000Y-96250000D01*
X130820000Y-96680000D02*
X132570000Y-96680000D01*
X130000000Y-95000000D02*
X128500000Y-96500000D01*
X128000000Y-95500000D02*
X128000000Y-93500000D01*
X128000000Y-93500000D02*
X129000000Y-92500000D01*
X126750000Y-96750000D02*
X128000000Y-95500000D01*
X126500000Y-96750000D02*
X126000000Y-97250000D01*
X126750000Y-96750000D02*
X126500000Y-96750000D01*
X126125000Y-110125000D02*
X121950010Y-105950010D01*
X126125000Y-110125000D02*
X126125000Y-113125000D01*
X128500000Y-115500000D02*
X131500000Y-115500000D01*
X126125000Y-113125000D02*
X128500000Y-115500000D01*
X116500000Y-78750000D02*
X121750000Y-78750000D01*
X127750000Y-78750000D02*
X128250000Y-79250000D01*
X121750000Y-78750000D02*
X127750000Y-78750000D01*
X126000000Y-95250000D02*
X124500000Y-96750000D01*
X126000000Y-93000000D02*
X126000000Y-95250000D01*
X124500000Y-97000000D02*
X124250000Y-97250000D01*
X124500000Y-96750000D02*
X124500000Y-97000000D01*
X129536501Y-111786501D02*
X130463499Y-112713499D01*
X70250000Y-91350000D02*
X81625001Y-102725001D01*
X129536501Y-107463499D02*
X129536501Y-111786501D01*
X81625001Y-102725001D02*
X113225001Y-102725001D01*
X114649970Y-104149970D02*
X126222972Y-104149970D01*
X113225001Y-102725001D02*
X114649970Y-104149970D01*
X126222972Y-104149970D02*
X129536501Y-107463499D01*
X136463499Y-112713499D02*
X136500000Y-112750000D01*
X130463499Y-112713499D02*
X136463499Y-112713499D01*
X78274999Y-104024999D02*
X112274999Y-104024999D01*
X113299990Y-105049990D02*
X124799990Y-105049990D01*
X112274999Y-104024999D02*
X113299990Y-105049990D01*
X128000000Y-108250000D02*
X128000000Y-112500000D01*
X71250000Y-97000000D02*
X78274999Y-104024999D01*
X70750000Y-97000000D02*
X71250000Y-97000000D01*
X70250000Y-96500000D02*
X70750000Y-97000000D01*
X124799990Y-105049990D02*
X128000000Y-108250000D01*
X128000000Y-112500000D02*
X129824989Y-114324989D01*
X129824989Y-114324989D02*
X134074989Y-114324989D01*
X134500000Y-114750000D02*
X136750000Y-114750000D01*
X134074989Y-114324989D02*
X134500000Y-114750000D01*
X76750000Y-105500000D02*
X70250000Y-99000000D01*
X123250000Y-105500000D02*
X76750000Y-105500000D01*
X127000000Y-109250000D02*
X127000000Y-112750000D01*
X127000000Y-109250000D02*
X123250000Y-105500000D01*
X132524999Y-114774999D02*
X132625000Y-114875000D01*
X129024999Y-114774999D02*
X132524999Y-114774999D01*
X127000000Y-112750000D02*
X129024999Y-114774999D01*
X133500000Y-115750000D02*
X132625000Y-114875000D01*
X113849980Y-104599980D02*
X112750000Y-103500000D01*
X135750000Y-113750000D02*
X130500000Y-113750000D01*
X128750000Y-112000000D02*
X128750000Y-107750000D01*
X112750000Y-103500000D02*
X79860000Y-103500000D01*
X130500000Y-113750000D02*
X128750000Y-112000000D01*
X128750000Y-107750000D02*
X125599980Y-104599980D01*
X79860000Y-103500000D02*
X70250000Y-93890000D01*
X125599980Y-104599980D02*
X113849980Y-104599980D01*
X106000000Y-98000000D02*
X104250000Y-99750000D01*
X129500000Y-98000000D02*
X106000000Y-98000000D01*
X112386410Y-99750000D02*
X108500000Y-99750000D01*
X123348001Y-102475001D02*
X115111411Y-102475001D01*
X123823002Y-102000000D02*
X123348001Y-102475001D01*
X115111411Y-102475001D02*
X112386410Y-99750000D01*
X133250000Y-102000000D02*
X123823002Y-102000000D01*
X95750000Y-100250000D02*
X97225009Y-101725009D01*
X97475009Y-101725009D02*
X98024991Y-102274991D01*
X97225009Y-101725009D02*
X97475009Y-101725009D01*
X113411402Y-102274992D02*
X114836370Y-103699960D01*
X98024991Y-102274991D02*
X113411402Y-102274992D01*
X114836370Y-103699960D02*
X126699960Y-103699960D01*
X127699960Y-103699960D02*
X128500000Y-104500000D01*
X126699960Y-103699960D02*
X127699960Y-103699960D01*
X126950050Y-103249950D02*
X127400000Y-102800000D01*
X113274999Y-101274999D02*
X115000000Y-103000000D01*
X115250000Y-103000000D02*
X115499950Y-103249950D01*
X115000000Y-103000000D02*
X115250000Y-103000000D01*
X115499950Y-103249950D02*
X126950050Y-103249950D01*
X93500000Y-94193002D02*
X100581997Y-101274999D01*
X93500000Y-92500000D02*
X93500000Y-94193002D01*
X100581997Y-101274999D02*
X113274999Y-101274999D01*
X111290000Y-120500000D02*
X101290000Y-110500000D01*
X131700000Y-120500000D02*
X111290000Y-120500000D01*
X109805001Y-116475001D02*
X103830000Y-110500000D01*
X134225001Y-116475001D02*
X109805001Y-116475001D01*
X138000000Y-120250000D02*
X134225001Y-116475001D01*
X66500000Y-80000000D02*
X70500000Y-84000000D01*
X71750000Y-72000000D02*
X62000000Y-72000000D01*
X66500000Y-72000000D02*
X66500000Y-80000000D01*
X139750000Y-105500000D02*
X136250000Y-102000000D01*
X139750000Y-122250000D02*
X139750000Y-105500000D01*
X138725001Y-120598001D02*
X138725001Y-105975001D01*
X138725001Y-105975001D02*
X134750000Y-102000000D01*
X137798003Y-121524999D02*
X138725001Y-120598001D01*
X126975001Y-121524999D02*
X137798003Y-121524999D01*
X126250000Y-122250000D02*
X126975001Y-121524999D01*
M02*
