%TF.GenerationSoftware,KiCad,Pcbnew,(5.1.6)-1*%
%TF.CreationDate,2020-09-10T03:51:48+02:00*%
%TF.ProjectId,Esp32TinyTester,45737033-3254-4696-9e79-546573746572,rev?*%
%TF.SameCoordinates,Original*%
%TF.FileFunction,Soldermask,Bot*%
%TF.FilePolarity,Negative*%
%FSLAX46Y46*%
G04 Gerber Fmt 4.6, Leading zero omitted, Abs format (unit mm)*
G04 Created by KiCad (PCBNEW (5.1.6)-1) date 2020-09-10 03:51:48*
%MOMM*%
%LPD*%
G01*
G04 APERTURE LIST*
%ADD10C,4.800600*%
%ADD11R,1.800000X1.800000*%
%ADD12O,1.800000X1.800000*%
%ADD13C,3.300000*%
%ADD14C,1.900000*%
%ADD15R,1.900000X1.900000*%
%ADD16C,2.100000*%
%ADD17O,3.110000X1.610000*%
G04 APERTURE END LIST*
D10*
X144750000Y-55250000D03*
X70000000Y-140000000D03*
D11*
X75870000Y-57540000D03*
D12*
X75870000Y-55000000D03*
X78410000Y-57540000D03*
X78410000Y-55000000D03*
X80950000Y-57540000D03*
X80950000Y-55000000D03*
X83490000Y-57540000D03*
X83490000Y-55000000D03*
X86030000Y-57540000D03*
X86030000Y-55000000D03*
X88570000Y-57540000D03*
X88570000Y-55000000D03*
X91110000Y-57540000D03*
X91110000Y-55000000D03*
X93650000Y-57540000D03*
X93650000Y-55000000D03*
X96190000Y-57540000D03*
X96190000Y-55000000D03*
X98730000Y-57540000D03*
X98730000Y-55000000D03*
X101270000Y-57540000D03*
X101270000Y-55000000D03*
X103810000Y-57540000D03*
X103810000Y-55000000D03*
X106350000Y-57540000D03*
X106350000Y-55000000D03*
X108890000Y-57540000D03*
X108890000Y-55000000D03*
X111430000Y-57540000D03*
X111430000Y-55000000D03*
X113970000Y-57540000D03*
X113970000Y-55000000D03*
X116510000Y-57540000D03*
X116510000Y-55000000D03*
X119050000Y-57540000D03*
X119050000Y-55000000D03*
X121590000Y-57540000D03*
X121590000Y-55000000D03*
X124130000Y-57540000D03*
X124130000Y-55000000D03*
D13*
X60000000Y-140000000D03*
X140000000Y-140000000D03*
X140000000Y-60000000D03*
X60000000Y-60000000D03*
D14*
X111250000Y-140290000D03*
D15*
X111250000Y-137750000D03*
D16*
X85000000Y-145000000D03*
D12*
X106370000Y-110500000D03*
X103830000Y-110500000D03*
X101290000Y-110500000D03*
X98750000Y-110500000D03*
X96210000Y-110500000D03*
D11*
X93670000Y-110500000D03*
X83500000Y-101250000D03*
D12*
X83500000Y-98710000D03*
X83500000Y-96170000D03*
X83500000Y-93630000D03*
X83500000Y-91090000D03*
X83500000Y-88550000D03*
D17*
X143000000Y-73500000D03*
X143000000Y-70960000D03*
X143000000Y-68420000D03*
D15*
X129750000Y-137750000D03*
D14*
X129750000Y-140290000D03*
X120500000Y-140290000D03*
D15*
X120500000Y-137750000D03*
M02*
