%TF.GenerationSoftware,KiCad,Pcbnew,(5.1.6)-1*%
%TF.CreationDate,2020-09-10T03:51:48+02:00*%
%TF.ProjectId,Esp32TinyTester,45737033-3254-4696-9e79-546573746572,rev?*%
%TF.SameCoordinates,Original*%
%TF.FileFunction,Legend,Bot*%
%TF.FilePolarity,Positive*%
%FSLAX46Y46*%
G04 Gerber Fmt 4.6, Leading zero omitted, Abs format (unit mm)*
G04 Created by KiCad (PCBNEW (5.1.6)-1) date 2020-09-10 03:51:48*
%MOMM*%
%LPD*%
G01*
G04 APERTURE LIST*
%ADD10C,0.150000*%
%ADD11C,0.120000*%
G04 APERTURE END LIST*
D10*
X69457380Y-103091595D02*
X70266904Y-103091595D01*
X70362142Y-103139214D01*
X70409761Y-103186833D01*
X70457380Y-103282071D01*
X70457380Y-103472547D01*
X70409761Y-103567785D01*
X70362142Y-103615404D01*
X70266904Y-103663023D01*
X69457380Y-103663023D01*
X69790714Y-104139214D02*
X70790714Y-104139214D01*
X69838333Y-104139214D02*
X69790714Y-104234452D01*
X69790714Y-104424928D01*
X69838333Y-104520166D01*
X69885952Y-104567785D01*
X69981190Y-104615404D01*
X70266904Y-104615404D01*
X70362142Y-104567785D01*
X70409761Y-104520166D01*
X70457380Y-104424928D01*
X70457380Y-104234452D01*
X70409761Y-104139214D01*
X70457380Y-105472547D02*
X69457380Y-105472547D01*
X70409761Y-105472547D02*
X70457380Y-105377309D01*
X70457380Y-105186833D01*
X70409761Y-105091595D01*
X70362142Y-105043976D01*
X70266904Y-104996357D01*
X69981190Y-104996357D01*
X69885952Y-105043976D01*
X69838333Y-105091595D01*
X69790714Y-105186833D01*
X69790714Y-105377309D01*
X69838333Y-105472547D01*
X70457380Y-106377309D02*
X69933571Y-106377309D01*
X69838333Y-106329690D01*
X69790714Y-106234452D01*
X69790714Y-106043976D01*
X69838333Y-105948738D01*
X70409761Y-106377309D02*
X70457380Y-106282071D01*
X70457380Y-106043976D01*
X70409761Y-105948738D01*
X70314523Y-105901119D01*
X70219285Y-105901119D01*
X70124047Y-105948738D01*
X70076428Y-106043976D01*
X70076428Y-106282071D01*
X70028809Y-106377309D01*
X69790714Y-106710642D02*
X69790714Y-107091595D01*
X69457380Y-106853500D02*
X70314523Y-106853500D01*
X70409761Y-106901119D01*
X70457380Y-106996357D01*
X70457380Y-107091595D01*
X70409761Y-107805880D02*
X70457380Y-107710642D01*
X70457380Y-107520166D01*
X70409761Y-107424928D01*
X70314523Y-107377309D01*
X69933571Y-107377309D01*
X69838333Y-107424928D01*
X69790714Y-107520166D01*
X69790714Y-107710642D01*
X69838333Y-107805880D01*
X69933571Y-107853500D01*
X70028809Y-107853500D01*
X70124047Y-107377309D01*
X69790714Y-108901119D02*
X69790714Y-109282071D01*
X69457380Y-109043976D02*
X70314523Y-109043976D01*
X70409761Y-109091595D01*
X70457380Y-109186833D01*
X70457380Y-109282071D01*
X70409761Y-109996357D02*
X70457380Y-109901119D01*
X70457380Y-109710642D01*
X70409761Y-109615404D01*
X70314523Y-109567785D01*
X69933571Y-109567785D01*
X69838333Y-109615404D01*
X69790714Y-109710642D01*
X69790714Y-109901119D01*
X69838333Y-109996357D01*
X69933571Y-110043976D01*
X70028809Y-110043976D01*
X70124047Y-109567785D01*
X70409761Y-110424928D02*
X70457380Y-110520166D01*
X70457380Y-110710642D01*
X70409761Y-110805880D01*
X70314523Y-110853500D01*
X70266904Y-110853500D01*
X70171666Y-110805880D01*
X70124047Y-110710642D01*
X70124047Y-110567785D01*
X70076428Y-110472547D01*
X69981190Y-110424928D01*
X69933571Y-110424928D01*
X69838333Y-110472547D01*
X69790714Y-110567785D01*
X69790714Y-110710642D01*
X69838333Y-110805880D01*
X69790714Y-111139214D02*
X69790714Y-111520166D01*
X69457380Y-111282071D02*
X70314523Y-111282071D01*
X70409761Y-111329690D01*
X70457380Y-111424928D01*
X70457380Y-111520166D01*
X70457380Y-111853500D02*
X69790714Y-111853500D01*
X69457380Y-111853500D02*
X69505000Y-111805880D01*
X69552619Y-111853500D01*
X69505000Y-111901119D01*
X69457380Y-111853500D01*
X69552619Y-111853500D01*
X69790714Y-112329690D02*
X70457380Y-112329690D01*
X69885952Y-112329690D02*
X69838333Y-112377309D01*
X69790714Y-112472547D01*
X69790714Y-112615404D01*
X69838333Y-112710642D01*
X69933571Y-112758261D01*
X70457380Y-112758261D01*
X69790714Y-113663023D02*
X70600238Y-113663023D01*
X70695476Y-113615404D01*
X70743095Y-113567785D01*
X70790714Y-113472547D01*
X70790714Y-113329690D01*
X70743095Y-113234452D01*
X70409761Y-113663023D02*
X70457380Y-113567785D01*
X70457380Y-113377309D01*
X70409761Y-113282071D01*
X70362142Y-113234452D01*
X70266904Y-113186833D01*
X69981190Y-113186833D01*
X69885952Y-113234452D01*
X69838333Y-113282071D01*
X69790714Y-113377309D01*
X69790714Y-113567785D01*
X69838333Y-113663023D01*
X70457380Y-115329690D02*
X69933571Y-115329690D01*
X69838333Y-115282071D01*
X69790714Y-115186833D01*
X69790714Y-114996357D01*
X69838333Y-114901119D01*
X70409761Y-115329690D02*
X70457380Y-115234452D01*
X70457380Y-114996357D01*
X70409761Y-114901119D01*
X70314523Y-114853500D01*
X70219285Y-114853500D01*
X70124047Y-114901119D01*
X70076428Y-114996357D01*
X70076428Y-115234452D01*
X70028809Y-115329690D01*
X69790714Y-115805880D02*
X70457380Y-115805880D01*
X69885952Y-115805880D02*
X69838333Y-115853500D01*
X69790714Y-115948738D01*
X69790714Y-116091595D01*
X69838333Y-116186833D01*
X69933571Y-116234452D01*
X70457380Y-116234452D01*
X70457380Y-117139214D02*
X69457380Y-117139214D01*
X70409761Y-117139214D02*
X70457380Y-117043976D01*
X70457380Y-116853499D01*
X70409761Y-116758261D01*
X70362142Y-116710642D01*
X70266904Y-116663023D01*
X69981190Y-116663023D01*
X69885952Y-116710642D01*
X69838333Y-116758261D01*
X69790714Y-116853499D01*
X69790714Y-117043976D01*
X69838333Y-117139214D01*
X69790714Y-118377309D02*
X70790714Y-118377309D01*
X69838333Y-118377309D02*
X69790714Y-118472547D01*
X69790714Y-118663023D01*
X69838333Y-118758261D01*
X69885952Y-118805880D01*
X69981190Y-118853499D01*
X70266904Y-118853499D01*
X70362142Y-118805880D01*
X70409761Y-118758261D01*
X70457380Y-118663023D01*
X70457380Y-118472547D01*
X70409761Y-118377309D01*
X70457380Y-119282071D02*
X69790714Y-119282071D01*
X69981190Y-119282071D02*
X69885952Y-119329690D01*
X69838333Y-119377309D01*
X69790714Y-119472547D01*
X69790714Y-119567785D01*
X70457380Y-120043976D02*
X70409761Y-119948738D01*
X70362142Y-119901119D01*
X70266904Y-119853499D01*
X69981190Y-119853499D01*
X69885952Y-119901119D01*
X69838333Y-119948738D01*
X69790714Y-120043976D01*
X69790714Y-120186833D01*
X69838333Y-120282071D01*
X69885952Y-120329690D01*
X69981190Y-120377309D01*
X70266904Y-120377309D01*
X70362142Y-120329690D01*
X70409761Y-120282071D01*
X70457380Y-120186833D01*
X70457380Y-120043976D01*
X70457380Y-121234452D02*
X69457380Y-121234452D01*
X70409761Y-121234452D02*
X70457380Y-121139214D01*
X70457380Y-120948738D01*
X70409761Y-120853499D01*
X70362142Y-120805880D01*
X70266904Y-120758261D01*
X69981190Y-120758261D01*
X69885952Y-120805880D01*
X69838333Y-120853499D01*
X69790714Y-120948738D01*
X69790714Y-121139214D01*
X69838333Y-121234452D01*
X69790714Y-122139214D02*
X70457380Y-122139214D01*
X69790714Y-121710642D02*
X70314523Y-121710642D01*
X70409761Y-121758261D01*
X70457380Y-121853499D01*
X70457380Y-121996357D01*
X70409761Y-122091595D01*
X70362142Y-122139214D01*
X70409761Y-123043976D02*
X70457380Y-122948738D01*
X70457380Y-122758261D01*
X70409761Y-122663023D01*
X70362142Y-122615404D01*
X70266904Y-122567785D01*
X69981190Y-122567785D01*
X69885952Y-122615404D01*
X69838333Y-122663023D01*
X69790714Y-122758261D01*
X69790714Y-122948738D01*
X69838333Y-123043976D01*
X69790714Y-123329690D02*
X69790714Y-123710642D01*
X69457380Y-123472547D02*
X70314523Y-123472547D01*
X70409761Y-123520166D01*
X70457380Y-123615404D01*
X70457380Y-123710642D01*
X70457380Y-124043976D02*
X69790714Y-124043976D01*
X69457380Y-124043976D02*
X69505000Y-123996357D01*
X69552619Y-124043976D01*
X69505000Y-124091595D01*
X69457380Y-124043976D01*
X69552619Y-124043976D01*
X70457380Y-124663023D02*
X70409761Y-124567785D01*
X70362142Y-124520166D01*
X70266904Y-124472547D01*
X69981190Y-124472547D01*
X69885952Y-124520166D01*
X69838333Y-124567785D01*
X69790714Y-124663023D01*
X69790714Y-124805880D01*
X69838333Y-124901119D01*
X69885952Y-124948738D01*
X69981190Y-124996357D01*
X70266904Y-124996357D01*
X70362142Y-124948738D01*
X70409761Y-124901119D01*
X70457380Y-124805880D01*
X70457380Y-124663023D01*
X69790714Y-125424928D02*
X70457380Y-125424928D01*
X69885952Y-125424928D02*
X69838333Y-125472547D01*
X69790714Y-125567785D01*
X69790714Y-125710642D01*
X69838333Y-125805880D01*
X69933571Y-125853499D01*
X70457380Y-125853499D01*
X69790714Y-126948738D02*
X69790714Y-127329690D01*
X70457380Y-127091595D02*
X69600238Y-127091595D01*
X69505000Y-127139214D01*
X69457380Y-127234452D01*
X69457380Y-127329690D01*
X70457380Y-127663023D02*
X69790714Y-127663023D01*
X69457380Y-127663023D02*
X69505000Y-127615404D01*
X69552619Y-127663023D01*
X69505000Y-127710642D01*
X69457380Y-127663023D01*
X69552619Y-127663023D01*
X70457380Y-128139214D02*
X69790714Y-128139214D01*
X69981190Y-128139214D02*
X69885952Y-128186833D01*
X69838333Y-128234452D01*
X69790714Y-128329690D01*
X69790714Y-128424928D01*
X70457380Y-128758261D02*
X69790714Y-128758261D01*
X69885952Y-128758261D02*
X69838333Y-128805880D01*
X69790714Y-128901119D01*
X69790714Y-129043976D01*
X69838333Y-129139214D01*
X69933571Y-129186833D01*
X70457380Y-129186833D01*
X69933571Y-129186833D02*
X69838333Y-129234452D01*
X69790714Y-129329690D01*
X69790714Y-129472547D01*
X69838333Y-129567785D01*
X69933571Y-129615404D01*
X70457380Y-129615404D01*
X69790714Y-129996357D02*
X70457380Y-130186833D01*
X69981190Y-130377309D01*
X70457380Y-130567785D01*
X69790714Y-130758261D01*
X70457380Y-131567785D02*
X69933571Y-131567785D01*
X69838333Y-131520166D01*
X69790714Y-131424928D01*
X69790714Y-131234452D01*
X69838333Y-131139214D01*
X70409761Y-131567785D02*
X70457380Y-131472547D01*
X70457380Y-131234452D01*
X70409761Y-131139214D01*
X70314523Y-131091595D01*
X70219285Y-131091595D01*
X70124047Y-131139214D01*
X70076428Y-131234452D01*
X70076428Y-131472547D01*
X70028809Y-131567785D01*
X70457380Y-132043976D02*
X69790714Y-132043976D01*
X69981190Y-132043976D02*
X69885952Y-132091595D01*
X69838333Y-132139214D01*
X69790714Y-132234452D01*
X69790714Y-132329690D01*
X70409761Y-133043976D02*
X70457380Y-132948738D01*
X70457380Y-132758261D01*
X70409761Y-132663023D01*
X70314523Y-132615404D01*
X69933571Y-132615404D01*
X69838333Y-132663023D01*
X69790714Y-132758261D01*
X69790714Y-132948738D01*
X69838333Y-133043976D01*
X69933571Y-133091595D01*
X70028809Y-133091595D01*
X70124047Y-132615404D01*
X69457380Y-134472547D02*
X69457380Y-134663023D01*
X69505000Y-134758261D01*
X69600238Y-134853500D01*
X69790714Y-134901119D01*
X70124047Y-134901119D01*
X70314523Y-134853500D01*
X70409761Y-134758261D01*
X70457380Y-134663023D01*
X70457380Y-134472547D01*
X70409761Y-134377309D01*
X70314523Y-134282071D01*
X70124047Y-134234452D01*
X69790714Y-134234452D01*
X69600238Y-134282071D01*
X69505000Y-134377309D01*
X69457380Y-134472547D01*
X69457380Y-135186833D02*
X69457380Y-135758261D01*
X70457380Y-135472547D02*
X69457380Y-135472547D01*
X70171666Y-136043976D02*
X70171666Y-136520166D01*
X70457380Y-135948738D02*
X69457380Y-136282071D01*
X70457380Y-136615404D01*
X72059761Y-103043976D02*
X72107380Y-103186833D01*
X72107380Y-103424928D01*
X72059761Y-103520166D01*
X72012142Y-103567785D01*
X71916904Y-103615404D01*
X71821666Y-103615404D01*
X71726428Y-103567785D01*
X71678809Y-103520166D01*
X71631190Y-103424928D01*
X71583571Y-103234452D01*
X71535952Y-103139214D01*
X71488333Y-103091595D01*
X71393095Y-103043976D01*
X71297857Y-103043976D01*
X71202619Y-103091595D01*
X71155000Y-103139214D01*
X71107380Y-103234452D01*
X71107380Y-103472547D01*
X71155000Y-103615404D01*
X71440714Y-103901119D02*
X71440714Y-104282071D01*
X71107380Y-104043976D02*
X71964523Y-104043976D01*
X72059761Y-104091595D01*
X72107380Y-104186833D01*
X72107380Y-104282071D01*
X72107380Y-104758261D02*
X72059761Y-104663023D01*
X72012142Y-104615404D01*
X71916904Y-104567785D01*
X71631190Y-104567785D01*
X71535952Y-104615404D01*
X71488333Y-104663023D01*
X71440714Y-104758261D01*
X71440714Y-104901119D01*
X71488333Y-104996357D01*
X71535952Y-105043976D01*
X71631190Y-105091595D01*
X71916904Y-105091595D01*
X72012142Y-105043976D01*
X72059761Y-104996357D01*
X72107380Y-104901119D01*
X72107380Y-104758261D01*
X72107380Y-105520166D02*
X71440714Y-105520166D01*
X71631190Y-105520166D02*
X71535952Y-105567785D01*
X71488333Y-105615404D01*
X71440714Y-105710642D01*
X71440714Y-105805880D01*
X72059761Y-106520166D02*
X72107380Y-106424928D01*
X72107380Y-106234452D01*
X72059761Y-106139214D01*
X71964523Y-106091595D01*
X71583571Y-106091595D01*
X71488333Y-106139214D01*
X71440714Y-106234452D01*
X71440714Y-106424928D01*
X71488333Y-106520166D01*
X71583571Y-106567785D01*
X71678809Y-106567785D01*
X71774047Y-106091595D01*
X71440714Y-107758261D02*
X72440714Y-107758261D01*
X71488333Y-107758261D02*
X71440714Y-107853500D01*
X71440714Y-108043976D01*
X71488333Y-108139214D01*
X71535952Y-108186833D01*
X71631190Y-108234452D01*
X71916904Y-108234452D01*
X72012142Y-108186833D01*
X72059761Y-108139214D01*
X72107380Y-108043976D01*
X72107380Y-107853500D01*
X72059761Y-107758261D01*
X72107380Y-108663023D02*
X71440714Y-108663023D01*
X71631190Y-108663023D02*
X71535952Y-108710642D01*
X71488333Y-108758261D01*
X71440714Y-108853500D01*
X71440714Y-108948738D01*
X72107380Y-109424928D02*
X72059761Y-109329690D01*
X72012142Y-109282071D01*
X71916904Y-109234452D01*
X71631190Y-109234452D01*
X71535952Y-109282071D01*
X71488333Y-109329690D01*
X71440714Y-109424928D01*
X71440714Y-109567785D01*
X71488333Y-109663023D01*
X71535952Y-109710642D01*
X71631190Y-109758261D01*
X71916904Y-109758261D01*
X72012142Y-109710642D01*
X72059761Y-109663023D01*
X72107380Y-109567785D01*
X72107380Y-109424928D01*
X71440714Y-110615404D02*
X72250238Y-110615404D01*
X72345476Y-110567785D01*
X72393095Y-110520166D01*
X72440714Y-110424928D01*
X72440714Y-110282071D01*
X72393095Y-110186833D01*
X72059761Y-110615404D02*
X72107380Y-110520166D01*
X72107380Y-110329690D01*
X72059761Y-110234452D01*
X72012142Y-110186833D01*
X71916904Y-110139214D01*
X71631190Y-110139214D01*
X71535952Y-110186833D01*
X71488333Y-110234452D01*
X71440714Y-110329690D01*
X71440714Y-110520166D01*
X71488333Y-110615404D01*
X72107380Y-111091595D02*
X71440714Y-111091595D01*
X71631190Y-111091595D02*
X71535952Y-111139214D01*
X71488333Y-111186833D01*
X71440714Y-111282071D01*
X71440714Y-111377309D01*
X72107380Y-112139214D02*
X71583571Y-112139214D01*
X71488333Y-112091595D01*
X71440714Y-111996357D01*
X71440714Y-111805880D01*
X71488333Y-111710642D01*
X72059761Y-112139214D02*
X72107380Y-112043976D01*
X72107380Y-111805880D01*
X72059761Y-111710642D01*
X71964523Y-111663023D01*
X71869285Y-111663023D01*
X71774047Y-111710642D01*
X71726428Y-111805880D01*
X71726428Y-112043976D01*
X71678809Y-112139214D01*
X72107380Y-112615404D02*
X71440714Y-112615404D01*
X71535952Y-112615404D02*
X71488333Y-112663023D01*
X71440714Y-112758261D01*
X71440714Y-112901119D01*
X71488333Y-112996357D01*
X71583571Y-113043976D01*
X72107380Y-113043976D01*
X71583571Y-113043976D02*
X71488333Y-113091595D01*
X71440714Y-113186833D01*
X71440714Y-113329690D01*
X71488333Y-113424928D01*
X71583571Y-113472547D01*
X72107380Y-113472547D01*
X72059761Y-113901119D02*
X72107380Y-113996357D01*
X72107380Y-114186833D01*
X72059761Y-114282071D01*
X71964523Y-114329690D01*
X71916904Y-114329690D01*
X71821666Y-114282071D01*
X71774047Y-114186833D01*
X71774047Y-114043976D01*
X71726428Y-113948738D01*
X71631190Y-113901119D01*
X71583571Y-113901119D01*
X71488333Y-113948738D01*
X71440714Y-114043976D01*
X71440714Y-114186833D01*
X71488333Y-114282071D01*
X72107380Y-115663023D02*
X72059761Y-115567785D01*
X72012142Y-115520166D01*
X71916904Y-115472547D01*
X71631190Y-115472547D01*
X71535952Y-115520166D01*
X71488333Y-115567785D01*
X71440714Y-115663023D01*
X71440714Y-115805880D01*
X71488333Y-115901119D01*
X71535952Y-115948738D01*
X71631190Y-115996357D01*
X71916904Y-115996357D01*
X72012142Y-115948738D01*
X72059761Y-115901119D01*
X72107380Y-115805880D01*
X72107380Y-115663023D01*
X71440714Y-116424928D02*
X72107380Y-116424928D01*
X71535952Y-116424928D02*
X71488333Y-116472547D01*
X71440714Y-116567785D01*
X71440714Y-116710642D01*
X71488333Y-116805880D01*
X71583571Y-116853500D01*
X72107380Y-116853500D01*
X72059761Y-118043976D02*
X72107380Y-118186833D01*
X72107380Y-118424928D01*
X72059761Y-118520166D01*
X72012142Y-118567785D01*
X71916904Y-118615404D01*
X71821666Y-118615404D01*
X71726428Y-118567785D01*
X71678809Y-118520166D01*
X71631190Y-118424928D01*
X71583571Y-118234452D01*
X71535952Y-118139214D01*
X71488333Y-118091595D01*
X71393095Y-118043976D01*
X71297857Y-118043976D01*
X71202619Y-118091595D01*
X71155000Y-118139214D01*
X71107380Y-118234452D01*
X71107380Y-118472547D01*
X71155000Y-118615404D01*
X72107380Y-119043976D02*
X71107380Y-119043976D01*
X71107380Y-119282071D01*
X71155000Y-119424928D01*
X71250238Y-119520166D01*
X71345476Y-119567785D01*
X71535952Y-119615404D01*
X71678809Y-119615404D01*
X71869285Y-119567785D01*
X71964523Y-119520166D01*
X72059761Y-119424928D01*
X72107380Y-119282071D01*
X72107380Y-119043976D01*
X71583571Y-121139214D02*
X71583571Y-120805880D01*
X72107380Y-120805880D02*
X71107380Y-120805880D01*
X71107380Y-121282071D01*
X72107380Y-121805880D02*
X72059761Y-121710642D01*
X71964523Y-121663023D01*
X71107380Y-121663023D01*
X72107380Y-122615404D02*
X71583571Y-122615404D01*
X71488333Y-122567785D01*
X71440714Y-122472547D01*
X71440714Y-122282071D01*
X71488333Y-122186833D01*
X72059761Y-122615404D02*
X72107380Y-122520166D01*
X72107380Y-122282071D01*
X72059761Y-122186833D01*
X71964523Y-122139214D01*
X71869285Y-122139214D01*
X71774047Y-122186833D01*
X71726428Y-122282071D01*
X71726428Y-122520166D01*
X71678809Y-122615404D01*
X72059761Y-123043976D02*
X72107380Y-123139214D01*
X72107380Y-123329690D01*
X72059761Y-123424928D01*
X71964523Y-123472547D01*
X71916904Y-123472547D01*
X71821666Y-123424928D01*
X71774047Y-123329690D01*
X71774047Y-123186833D01*
X71726428Y-123091595D01*
X71631190Y-123043976D01*
X71583571Y-123043976D01*
X71488333Y-123091595D01*
X71440714Y-123186833D01*
X71440714Y-123329690D01*
X71488333Y-123424928D01*
X72107380Y-123901119D02*
X71107380Y-123901119D01*
X72107380Y-124329690D02*
X71583571Y-124329690D01*
X71488333Y-124282071D01*
X71440714Y-124186833D01*
X71440714Y-124043976D01*
X71488333Y-123948738D01*
X71535952Y-123901119D01*
X72059761Y-125996357D02*
X72107380Y-125901119D01*
X72107380Y-125710642D01*
X72059761Y-125615404D01*
X72012142Y-125567785D01*
X71916904Y-125520166D01*
X71631190Y-125520166D01*
X71535952Y-125567785D01*
X71488333Y-125615404D01*
X71440714Y-125710642D01*
X71440714Y-125901119D01*
X71488333Y-125996357D01*
X72107380Y-126853500D02*
X71583571Y-126853500D01*
X71488333Y-126805880D01*
X71440714Y-126710642D01*
X71440714Y-126520166D01*
X71488333Y-126424928D01*
X72059761Y-126853500D02*
X72107380Y-126758261D01*
X72107380Y-126520166D01*
X72059761Y-126424928D01*
X71964523Y-126377309D01*
X71869285Y-126377309D01*
X71774047Y-126424928D01*
X71726428Y-126520166D01*
X71726428Y-126758261D01*
X71678809Y-126853500D01*
X72107380Y-127329690D02*
X71440714Y-127329690D01*
X71631190Y-127329690D02*
X71535952Y-127377309D01*
X71488333Y-127424928D01*
X71440714Y-127520166D01*
X71440714Y-127615404D01*
X72107380Y-128377309D02*
X71107380Y-128377309D01*
X72059761Y-128377309D02*
X72107380Y-128282071D01*
X72107380Y-128091595D01*
X72059761Y-127996357D01*
X72012142Y-127948738D01*
X71916904Y-127901119D01*
X71631190Y-127901119D01*
X71535952Y-127948738D01*
X71488333Y-127996357D01*
X71440714Y-128091595D01*
X71440714Y-128282071D01*
X71488333Y-128377309D01*
X73233571Y-103424928D02*
X73233571Y-103091595D01*
X73757380Y-103091595D02*
X72757380Y-103091595D01*
X72757380Y-103567785D01*
X73757380Y-104091595D02*
X73709761Y-103996357D01*
X73614523Y-103948738D01*
X72757380Y-103948738D01*
X73757380Y-104901119D02*
X73233571Y-104901119D01*
X73138333Y-104853500D01*
X73090714Y-104758261D01*
X73090714Y-104567785D01*
X73138333Y-104472547D01*
X73709761Y-104901119D02*
X73757380Y-104805880D01*
X73757380Y-104567785D01*
X73709761Y-104472547D01*
X73614523Y-104424928D01*
X73519285Y-104424928D01*
X73424047Y-104472547D01*
X73376428Y-104567785D01*
X73376428Y-104805880D01*
X73328809Y-104901119D01*
X73709761Y-105329690D02*
X73757380Y-105424928D01*
X73757380Y-105615404D01*
X73709761Y-105710642D01*
X73614523Y-105758261D01*
X73566904Y-105758261D01*
X73471666Y-105710642D01*
X73424047Y-105615404D01*
X73424047Y-105472547D01*
X73376428Y-105377309D01*
X73281190Y-105329690D01*
X73233571Y-105329690D01*
X73138333Y-105377309D01*
X73090714Y-105472547D01*
X73090714Y-105615404D01*
X73138333Y-105710642D01*
X73757380Y-106186833D02*
X72757380Y-106186833D01*
X73757380Y-106615404D02*
X73233571Y-106615404D01*
X73138333Y-106567785D01*
X73090714Y-106472547D01*
X73090714Y-106329690D01*
X73138333Y-106234452D01*
X73185952Y-106186833D01*
X73090714Y-107710642D02*
X73090714Y-108091595D01*
X72757380Y-107853500D02*
X73614523Y-107853500D01*
X73709761Y-107901119D01*
X73757380Y-107996357D01*
X73757380Y-108091595D01*
X73709761Y-108805880D02*
X73757380Y-108710642D01*
X73757380Y-108520166D01*
X73709761Y-108424928D01*
X73614523Y-108377309D01*
X73233571Y-108377309D01*
X73138333Y-108424928D01*
X73090714Y-108520166D01*
X73090714Y-108710642D01*
X73138333Y-108805880D01*
X73233571Y-108853500D01*
X73328809Y-108853500D01*
X73424047Y-108377309D01*
X73709761Y-109234452D02*
X73757380Y-109329690D01*
X73757380Y-109520166D01*
X73709761Y-109615404D01*
X73614523Y-109663023D01*
X73566904Y-109663023D01*
X73471666Y-109615404D01*
X73424047Y-109520166D01*
X73424047Y-109377309D01*
X73376428Y-109282071D01*
X73281190Y-109234452D01*
X73233571Y-109234452D01*
X73138333Y-109282071D01*
X73090714Y-109377309D01*
X73090714Y-109520166D01*
X73138333Y-109615404D01*
X73090714Y-109948738D02*
X73090714Y-110329690D01*
X72757380Y-110091595D02*
X73614523Y-110091595D01*
X73709761Y-110139214D01*
X73757380Y-110234452D01*
X73757380Y-110329690D01*
X73090714Y-111424928D02*
X74090714Y-111424928D01*
X73138333Y-111424928D02*
X73090714Y-111520166D01*
X73090714Y-111710642D01*
X73138333Y-111805880D01*
X73185952Y-111853500D01*
X73281190Y-111901119D01*
X73566904Y-111901119D01*
X73662142Y-111853500D01*
X73709761Y-111805880D01*
X73757380Y-111710642D01*
X73757380Y-111520166D01*
X73709761Y-111424928D01*
X73757380Y-112329690D02*
X73090714Y-112329690D01*
X73281190Y-112329690D02*
X73185952Y-112377309D01*
X73138333Y-112424928D01*
X73090714Y-112520166D01*
X73090714Y-112615404D01*
X73757380Y-113091595D02*
X73709761Y-112996357D01*
X73662142Y-112948738D01*
X73566904Y-112901119D01*
X73281190Y-112901119D01*
X73185952Y-112948738D01*
X73138333Y-112996357D01*
X73090714Y-113091595D01*
X73090714Y-113234452D01*
X73138333Y-113329690D01*
X73185952Y-113377309D01*
X73281190Y-113424928D01*
X73566904Y-113424928D01*
X73662142Y-113377309D01*
X73709761Y-113329690D01*
X73757380Y-113234452D01*
X73757380Y-113091595D01*
X73090714Y-114282071D02*
X73900238Y-114282071D01*
X73995476Y-114234452D01*
X74043095Y-114186833D01*
X74090714Y-114091595D01*
X74090714Y-113948738D01*
X74043095Y-113853500D01*
X73709761Y-114282071D02*
X73757380Y-114186833D01*
X73757380Y-113996357D01*
X73709761Y-113901119D01*
X73662142Y-113853500D01*
X73566904Y-113805880D01*
X73281190Y-113805880D01*
X73185952Y-113853500D01*
X73138333Y-113901119D01*
X73090714Y-113996357D01*
X73090714Y-114186833D01*
X73138333Y-114282071D01*
X73757380Y-114758261D02*
X73090714Y-114758261D01*
X73281190Y-114758261D02*
X73185952Y-114805880D01*
X73138333Y-114853500D01*
X73090714Y-114948738D01*
X73090714Y-115043976D01*
X73757380Y-115805880D02*
X73233571Y-115805880D01*
X73138333Y-115758261D01*
X73090714Y-115663023D01*
X73090714Y-115472547D01*
X73138333Y-115377309D01*
X73709761Y-115805880D02*
X73757380Y-115710642D01*
X73757380Y-115472547D01*
X73709761Y-115377309D01*
X73614523Y-115329690D01*
X73519285Y-115329690D01*
X73424047Y-115377309D01*
X73376428Y-115472547D01*
X73376428Y-115710642D01*
X73328809Y-115805880D01*
X73757380Y-116282071D02*
X73090714Y-116282071D01*
X73185952Y-116282071D02*
X73138333Y-116329690D01*
X73090714Y-116424928D01*
X73090714Y-116567785D01*
X73138333Y-116663023D01*
X73233571Y-116710642D01*
X73757380Y-116710642D01*
X73233571Y-116710642D02*
X73138333Y-116758261D01*
X73090714Y-116853500D01*
X73090714Y-116996357D01*
X73138333Y-117091595D01*
X73233571Y-117139214D01*
X73757380Y-117139214D01*
X73090714Y-118234452D02*
X73090714Y-118615404D01*
X72757380Y-118377309D02*
X73614523Y-118377309D01*
X73709761Y-118424928D01*
X73757380Y-118520166D01*
X73757380Y-118615404D01*
X73757380Y-119091595D02*
X73709761Y-118996357D01*
X73662142Y-118948738D01*
X73566904Y-118901119D01*
X73281190Y-118901119D01*
X73185952Y-118948738D01*
X73138333Y-118996357D01*
X73090714Y-119091595D01*
X73090714Y-119234452D01*
X73138333Y-119329690D01*
X73185952Y-119377309D01*
X73281190Y-119424928D01*
X73566904Y-119424928D01*
X73662142Y-119377309D01*
X73709761Y-119329690D01*
X73757380Y-119234452D01*
X73757380Y-119091595D01*
X73471666Y-120567785D02*
X73471666Y-121043976D01*
X73757380Y-120472547D02*
X72757380Y-120805880D01*
X73757380Y-121139214D01*
X72757380Y-121329690D02*
X72757380Y-121901119D01*
X73757380Y-121615404D02*
X72757380Y-121615404D01*
X72757380Y-122091595D02*
X72757380Y-122663023D01*
X73757380Y-122377309D02*
X72757380Y-122377309D01*
X73757380Y-122996357D02*
X72757380Y-122996357D01*
X73757380Y-123472547D02*
X72757380Y-123472547D01*
X73757380Y-124043976D01*
X72757380Y-124043976D01*
X73281190Y-124710642D02*
X73757380Y-124710642D01*
X72757380Y-124377309D02*
X73281190Y-124710642D01*
X72757380Y-125043976D01*
X73185952Y-125520166D02*
X73138333Y-125424928D01*
X73090714Y-125377309D01*
X72995476Y-125329690D01*
X72947857Y-125329690D01*
X72852619Y-125377309D01*
X72805000Y-125424928D01*
X72757380Y-125520166D01*
X72757380Y-125710642D01*
X72805000Y-125805880D01*
X72852619Y-125853500D01*
X72947857Y-125901119D01*
X72995476Y-125901119D01*
X73090714Y-125853500D01*
X73138333Y-125805880D01*
X73185952Y-125710642D01*
X73185952Y-125520166D01*
X73233571Y-125424928D01*
X73281190Y-125377309D01*
X73376428Y-125329690D01*
X73566904Y-125329690D01*
X73662142Y-125377309D01*
X73709761Y-125424928D01*
X73757380Y-125520166D01*
X73757380Y-125710642D01*
X73709761Y-125805880D01*
X73662142Y-125853500D01*
X73566904Y-125901119D01*
X73376428Y-125901119D01*
X73281190Y-125853500D01*
X73233571Y-125805880D01*
X73185952Y-125710642D01*
X72852619Y-126282071D02*
X72805000Y-126329690D01*
X72757380Y-126424928D01*
X72757380Y-126663023D01*
X72805000Y-126758261D01*
X72852619Y-126805880D01*
X72947857Y-126853500D01*
X73043095Y-126853500D01*
X73185952Y-126805880D01*
X73757380Y-126234452D01*
X73757380Y-126853500D01*
X73185952Y-127424928D02*
X73138333Y-127329690D01*
X73090714Y-127282071D01*
X72995476Y-127234452D01*
X72947857Y-127234452D01*
X72852619Y-127282071D01*
X72805000Y-127329690D01*
X72757380Y-127424928D01*
X72757380Y-127615404D01*
X72805000Y-127710642D01*
X72852619Y-127758261D01*
X72947857Y-127805880D01*
X72995476Y-127805880D01*
X73090714Y-127758261D01*
X73138333Y-127710642D01*
X73185952Y-127615404D01*
X73185952Y-127424928D01*
X73233571Y-127329690D01*
X73281190Y-127282071D01*
X73376428Y-127234452D01*
X73566904Y-127234452D01*
X73662142Y-127282071D01*
X73709761Y-127329690D01*
X73757380Y-127424928D01*
X73757380Y-127615404D01*
X73709761Y-127710642D01*
X73662142Y-127758261D01*
X73566904Y-127805880D01*
X73376428Y-127805880D01*
X73281190Y-127758261D01*
X73233571Y-127710642D01*
X73185952Y-127615404D01*
X74883571Y-103424928D02*
X74883571Y-103091595D01*
X75407380Y-103091595D02*
X74407380Y-103091595D01*
X74407380Y-103567785D01*
X75407380Y-104091595D02*
X75359761Y-103996357D01*
X75264523Y-103948738D01*
X74407380Y-103948738D01*
X75407380Y-104901119D02*
X74883571Y-104901119D01*
X74788333Y-104853500D01*
X74740714Y-104758261D01*
X74740714Y-104567785D01*
X74788333Y-104472547D01*
X75359761Y-104901119D02*
X75407380Y-104805880D01*
X75407380Y-104567785D01*
X75359761Y-104472547D01*
X75264523Y-104424928D01*
X75169285Y-104424928D01*
X75074047Y-104472547D01*
X75026428Y-104567785D01*
X75026428Y-104805880D01*
X74978809Y-104901119D01*
X75359761Y-105329690D02*
X75407380Y-105424928D01*
X75407380Y-105615404D01*
X75359761Y-105710642D01*
X75264523Y-105758261D01*
X75216904Y-105758261D01*
X75121666Y-105710642D01*
X75074047Y-105615404D01*
X75074047Y-105472547D01*
X75026428Y-105377309D01*
X74931190Y-105329690D01*
X74883571Y-105329690D01*
X74788333Y-105377309D01*
X74740714Y-105472547D01*
X74740714Y-105615404D01*
X74788333Y-105710642D01*
X75407380Y-106186833D02*
X74407380Y-106186833D01*
X75407380Y-106615404D02*
X74883571Y-106615404D01*
X74788333Y-106567785D01*
X74740714Y-106472547D01*
X74740714Y-106329690D01*
X74788333Y-106234452D01*
X74835952Y-106186833D01*
X74740714Y-107710642D02*
X74740714Y-108091595D01*
X74407380Y-107853500D02*
X75264523Y-107853500D01*
X75359761Y-107901119D01*
X75407380Y-107996357D01*
X75407380Y-108091595D01*
X75359761Y-108805880D02*
X75407380Y-108710642D01*
X75407380Y-108520166D01*
X75359761Y-108424928D01*
X75264523Y-108377309D01*
X74883571Y-108377309D01*
X74788333Y-108424928D01*
X74740714Y-108520166D01*
X74740714Y-108710642D01*
X74788333Y-108805880D01*
X74883571Y-108853500D01*
X74978809Y-108853500D01*
X75074047Y-108377309D01*
X75359761Y-109234452D02*
X75407380Y-109329690D01*
X75407380Y-109520166D01*
X75359761Y-109615404D01*
X75264523Y-109663023D01*
X75216904Y-109663023D01*
X75121666Y-109615404D01*
X75074047Y-109520166D01*
X75074047Y-109377309D01*
X75026428Y-109282071D01*
X74931190Y-109234452D01*
X74883571Y-109234452D01*
X74788333Y-109282071D01*
X74740714Y-109377309D01*
X74740714Y-109520166D01*
X74788333Y-109615404D01*
X74740714Y-109948738D02*
X74740714Y-110329690D01*
X74407380Y-110091595D02*
X75264523Y-110091595D01*
X75359761Y-110139214D01*
X75407380Y-110234452D01*
X75407380Y-110329690D01*
X74740714Y-111424928D02*
X75740714Y-111424928D01*
X74788333Y-111424928D02*
X74740714Y-111520166D01*
X74740714Y-111710642D01*
X74788333Y-111805880D01*
X74835952Y-111853500D01*
X74931190Y-111901119D01*
X75216904Y-111901119D01*
X75312142Y-111853500D01*
X75359761Y-111805880D01*
X75407380Y-111710642D01*
X75407380Y-111520166D01*
X75359761Y-111424928D01*
X75407380Y-112329690D02*
X74740714Y-112329690D01*
X74931190Y-112329690D02*
X74835952Y-112377309D01*
X74788333Y-112424928D01*
X74740714Y-112520166D01*
X74740714Y-112615404D01*
X75407380Y-113091595D02*
X75359761Y-112996357D01*
X75312142Y-112948738D01*
X75216904Y-112901119D01*
X74931190Y-112901119D01*
X74835952Y-112948738D01*
X74788333Y-112996357D01*
X74740714Y-113091595D01*
X74740714Y-113234452D01*
X74788333Y-113329690D01*
X74835952Y-113377309D01*
X74931190Y-113424928D01*
X75216904Y-113424928D01*
X75312142Y-113377309D01*
X75359761Y-113329690D01*
X75407380Y-113234452D01*
X75407380Y-113091595D01*
X74740714Y-114282071D02*
X75550238Y-114282071D01*
X75645476Y-114234452D01*
X75693095Y-114186833D01*
X75740714Y-114091595D01*
X75740714Y-113948738D01*
X75693095Y-113853500D01*
X75359761Y-114282071D02*
X75407380Y-114186833D01*
X75407380Y-113996357D01*
X75359761Y-113901119D01*
X75312142Y-113853500D01*
X75216904Y-113805880D01*
X74931190Y-113805880D01*
X74835952Y-113853500D01*
X74788333Y-113901119D01*
X74740714Y-113996357D01*
X74740714Y-114186833D01*
X74788333Y-114282071D01*
X75407380Y-114758261D02*
X74740714Y-114758261D01*
X74931190Y-114758261D02*
X74835952Y-114805880D01*
X74788333Y-114853500D01*
X74740714Y-114948738D01*
X74740714Y-115043976D01*
X75407380Y-115805880D02*
X74883571Y-115805880D01*
X74788333Y-115758261D01*
X74740714Y-115663023D01*
X74740714Y-115472547D01*
X74788333Y-115377309D01*
X75359761Y-115805880D02*
X75407380Y-115710642D01*
X75407380Y-115472547D01*
X75359761Y-115377309D01*
X75264523Y-115329690D01*
X75169285Y-115329690D01*
X75074047Y-115377309D01*
X75026428Y-115472547D01*
X75026428Y-115710642D01*
X74978809Y-115805880D01*
X75407380Y-116282071D02*
X74740714Y-116282071D01*
X74835952Y-116282071D02*
X74788333Y-116329690D01*
X74740714Y-116424928D01*
X74740714Y-116567785D01*
X74788333Y-116663023D01*
X74883571Y-116710642D01*
X75407380Y-116710642D01*
X74883571Y-116710642D02*
X74788333Y-116758261D01*
X74740714Y-116853500D01*
X74740714Y-116996357D01*
X74788333Y-117091595D01*
X74883571Y-117139214D01*
X75407380Y-117139214D01*
X74740714Y-118234452D02*
X74740714Y-118615404D01*
X74407380Y-118377309D02*
X75264523Y-118377309D01*
X75359761Y-118424928D01*
X75407380Y-118520166D01*
X75407380Y-118615404D01*
X75407380Y-119091595D02*
X75359761Y-118996357D01*
X75312142Y-118948738D01*
X75216904Y-118901119D01*
X74931190Y-118901119D01*
X74835952Y-118948738D01*
X74788333Y-118996357D01*
X74740714Y-119091595D01*
X74740714Y-119234452D01*
X74788333Y-119329690D01*
X74835952Y-119377309D01*
X74931190Y-119424928D01*
X75216904Y-119424928D01*
X75312142Y-119377309D01*
X75359761Y-119329690D01*
X75407380Y-119234452D01*
X75407380Y-119091595D01*
X75407380Y-121043976D02*
X74407380Y-121043976D01*
X75359761Y-121043976D02*
X75407380Y-120948738D01*
X75407380Y-120758261D01*
X75359761Y-120663023D01*
X75312142Y-120615404D01*
X75216904Y-120567785D01*
X74931190Y-120567785D01*
X74835952Y-120615404D01*
X74788333Y-120663023D01*
X74740714Y-120758261D01*
X74740714Y-120948738D01*
X74788333Y-121043976D01*
X75359761Y-121901119D02*
X75407380Y-121805880D01*
X75407380Y-121615404D01*
X75359761Y-121520166D01*
X75264523Y-121472547D01*
X74883571Y-121472547D01*
X74788333Y-121520166D01*
X74740714Y-121615404D01*
X74740714Y-121805880D01*
X74788333Y-121901119D01*
X74883571Y-121948738D01*
X74978809Y-121948738D01*
X75074047Y-121472547D01*
X74740714Y-122282071D02*
X75407380Y-122520166D01*
X74740714Y-122758261D01*
X75407380Y-123139214D02*
X74740714Y-123139214D01*
X74407380Y-123139214D02*
X74455000Y-123091595D01*
X74502619Y-123139214D01*
X74455000Y-123186833D01*
X74407380Y-123139214D01*
X74502619Y-123139214D01*
X75359761Y-124043976D02*
X75407380Y-123948738D01*
X75407380Y-123758261D01*
X75359761Y-123663023D01*
X75312142Y-123615404D01*
X75216904Y-123567785D01*
X74931190Y-123567785D01*
X74835952Y-123615404D01*
X74788333Y-123663023D01*
X74740714Y-123758261D01*
X74740714Y-123948738D01*
X74788333Y-124043976D01*
X75359761Y-124853500D02*
X75407380Y-124758261D01*
X75407380Y-124567785D01*
X75359761Y-124472547D01*
X75264523Y-124424928D01*
X74883571Y-124424928D01*
X74788333Y-124472547D01*
X74740714Y-124567785D01*
X74740714Y-124758261D01*
X74788333Y-124853500D01*
X74883571Y-124901119D01*
X74978809Y-124901119D01*
X75074047Y-124424928D01*
X76533571Y-103424928D02*
X76533571Y-103091595D01*
X77057380Y-103091595D02*
X76057380Y-103091595D01*
X76057380Y-103567785D01*
X77057380Y-104091595D02*
X77009761Y-103996357D01*
X76914523Y-103948738D01*
X76057380Y-103948738D01*
X77057380Y-104901119D02*
X76533571Y-104901119D01*
X76438333Y-104853500D01*
X76390714Y-104758261D01*
X76390714Y-104567785D01*
X76438333Y-104472547D01*
X77009761Y-104901119D02*
X77057380Y-104805880D01*
X77057380Y-104567785D01*
X77009761Y-104472547D01*
X76914523Y-104424928D01*
X76819285Y-104424928D01*
X76724047Y-104472547D01*
X76676428Y-104567785D01*
X76676428Y-104805880D01*
X76628809Y-104901119D01*
X77009761Y-105329690D02*
X77057380Y-105424928D01*
X77057380Y-105615404D01*
X77009761Y-105710642D01*
X76914523Y-105758261D01*
X76866904Y-105758261D01*
X76771666Y-105710642D01*
X76724047Y-105615404D01*
X76724047Y-105472547D01*
X76676428Y-105377309D01*
X76581190Y-105329690D01*
X76533571Y-105329690D01*
X76438333Y-105377309D01*
X76390714Y-105472547D01*
X76390714Y-105615404D01*
X76438333Y-105710642D01*
X77057380Y-106186833D02*
X76057380Y-106186833D01*
X77057380Y-106615404D02*
X76533571Y-106615404D01*
X76438333Y-106567785D01*
X76390714Y-106472547D01*
X76390714Y-106329690D01*
X76438333Y-106234452D01*
X76485952Y-106186833D01*
X76390714Y-107853500D02*
X77390714Y-107853500D01*
X76438333Y-107853500D02*
X76390714Y-107948738D01*
X76390714Y-108139214D01*
X76438333Y-108234452D01*
X76485952Y-108282071D01*
X76581190Y-108329690D01*
X76866904Y-108329690D01*
X76962142Y-108282071D01*
X77009761Y-108234452D01*
X77057380Y-108139214D01*
X77057380Y-107948738D01*
X77009761Y-107853500D01*
X77057380Y-108758261D02*
X76390714Y-108758261D01*
X76581190Y-108758261D02*
X76485952Y-108805880D01*
X76438333Y-108853500D01*
X76390714Y-108948738D01*
X76390714Y-109043976D01*
X77057380Y-109520166D02*
X77009761Y-109424928D01*
X76962142Y-109377309D01*
X76866904Y-109329690D01*
X76581190Y-109329690D01*
X76485952Y-109377309D01*
X76438333Y-109424928D01*
X76390714Y-109520166D01*
X76390714Y-109663023D01*
X76438333Y-109758261D01*
X76485952Y-109805880D01*
X76581190Y-109853500D01*
X76866904Y-109853500D01*
X76962142Y-109805880D01*
X77009761Y-109758261D01*
X77057380Y-109663023D01*
X77057380Y-109520166D01*
X77057380Y-110710642D02*
X76057380Y-110710642D01*
X77009761Y-110710642D02*
X77057380Y-110615404D01*
X77057380Y-110424928D01*
X77009761Y-110329690D01*
X76962142Y-110282071D01*
X76866904Y-110234452D01*
X76581190Y-110234452D01*
X76485952Y-110282071D01*
X76438333Y-110329690D01*
X76390714Y-110424928D01*
X76390714Y-110615404D01*
X76438333Y-110710642D01*
X76390714Y-111615404D02*
X77057380Y-111615404D01*
X76390714Y-111186833D02*
X76914523Y-111186833D01*
X77009761Y-111234452D01*
X77057380Y-111329690D01*
X77057380Y-111472547D01*
X77009761Y-111567785D01*
X76962142Y-111615404D01*
X77009761Y-112520166D02*
X77057380Y-112424928D01*
X77057380Y-112234452D01*
X77009761Y-112139214D01*
X76962142Y-112091595D01*
X76866904Y-112043976D01*
X76581190Y-112043976D01*
X76485952Y-112091595D01*
X76438333Y-112139214D01*
X76390714Y-112234452D01*
X76390714Y-112424928D01*
X76438333Y-112520166D01*
X76390714Y-112805880D02*
X76390714Y-113186833D01*
X76057380Y-112948738D02*
X76914523Y-112948738D01*
X77009761Y-112996357D01*
X77057380Y-113091595D01*
X77057380Y-113186833D01*
X77057380Y-113520166D02*
X76390714Y-113520166D01*
X76057380Y-113520166D02*
X76105000Y-113472547D01*
X76152619Y-113520166D01*
X76105000Y-113567785D01*
X76057380Y-113520166D01*
X76152619Y-113520166D01*
X77057380Y-114139214D02*
X77009761Y-114043976D01*
X76962142Y-113996357D01*
X76866904Y-113948738D01*
X76581190Y-113948738D01*
X76485952Y-113996357D01*
X76438333Y-114043976D01*
X76390714Y-114139214D01*
X76390714Y-114282071D01*
X76438333Y-114377309D01*
X76485952Y-114424928D01*
X76581190Y-114472547D01*
X76866904Y-114472547D01*
X76962142Y-114424928D01*
X77009761Y-114377309D01*
X77057380Y-114282071D01*
X77057380Y-114139214D01*
X76390714Y-114901119D02*
X77057380Y-114901119D01*
X76485952Y-114901119D02*
X76438333Y-114948738D01*
X76390714Y-115043976D01*
X76390714Y-115186833D01*
X76438333Y-115282071D01*
X76533571Y-115329690D01*
X77057380Y-115329690D01*
X76390714Y-116567785D02*
X77390714Y-116567785D01*
X76438333Y-116567785D02*
X76390714Y-116663023D01*
X76390714Y-116853499D01*
X76438333Y-116948738D01*
X76485952Y-116996357D01*
X76581190Y-117043976D01*
X76866904Y-117043976D01*
X76962142Y-116996357D01*
X77009761Y-116948738D01*
X77057380Y-116853499D01*
X77057380Y-116663023D01*
X77009761Y-116567785D01*
X77057380Y-117472547D02*
X76390714Y-117472547D01*
X76581190Y-117472547D02*
X76485952Y-117520166D01*
X76438333Y-117567785D01*
X76390714Y-117663023D01*
X76390714Y-117758261D01*
X77057380Y-118234452D02*
X77009761Y-118139214D01*
X76962142Y-118091595D01*
X76866904Y-118043976D01*
X76581190Y-118043976D01*
X76485952Y-118091595D01*
X76438333Y-118139214D01*
X76390714Y-118234452D01*
X76390714Y-118377309D01*
X76438333Y-118472547D01*
X76485952Y-118520166D01*
X76581190Y-118567785D01*
X76866904Y-118567785D01*
X76962142Y-118520166D01*
X77009761Y-118472547D01*
X77057380Y-118377309D01*
X77057380Y-118234452D01*
X76390714Y-119424928D02*
X77200238Y-119424928D01*
X77295476Y-119377309D01*
X77343095Y-119329690D01*
X77390714Y-119234452D01*
X77390714Y-119091595D01*
X77343095Y-118996357D01*
X77009761Y-119424928D02*
X77057380Y-119329690D01*
X77057380Y-119139214D01*
X77009761Y-119043976D01*
X76962142Y-118996357D01*
X76866904Y-118948738D01*
X76581190Y-118948738D01*
X76485952Y-118996357D01*
X76438333Y-119043976D01*
X76390714Y-119139214D01*
X76390714Y-119329690D01*
X76438333Y-119424928D01*
X77057380Y-119901119D02*
X76390714Y-119901119D01*
X76581190Y-119901119D02*
X76485952Y-119948738D01*
X76438333Y-119996357D01*
X76390714Y-120091595D01*
X76390714Y-120186833D01*
X77057380Y-120948738D02*
X76533571Y-120948738D01*
X76438333Y-120901119D01*
X76390714Y-120805880D01*
X76390714Y-120615404D01*
X76438333Y-120520166D01*
X77009761Y-120948738D02*
X77057380Y-120853499D01*
X77057380Y-120615404D01*
X77009761Y-120520166D01*
X76914523Y-120472547D01*
X76819285Y-120472547D01*
X76724047Y-120520166D01*
X76676428Y-120615404D01*
X76676428Y-120853499D01*
X76628809Y-120948738D01*
X77057380Y-121424928D02*
X76390714Y-121424928D01*
X76485952Y-121424928D02*
X76438333Y-121472547D01*
X76390714Y-121567785D01*
X76390714Y-121710642D01*
X76438333Y-121805880D01*
X76533571Y-121853500D01*
X77057380Y-121853500D01*
X76533571Y-121853500D02*
X76438333Y-121901119D01*
X76390714Y-121996357D01*
X76390714Y-122139214D01*
X76438333Y-122234452D01*
X76533571Y-122282071D01*
X77057380Y-122282071D01*
X76390714Y-123377309D02*
X76390714Y-123758261D01*
X76057380Y-123520166D02*
X76914523Y-123520166D01*
X77009761Y-123567785D01*
X77057380Y-123663023D01*
X77057380Y-123758261D01*
X77057380Y-124234452D02*
X77009761Y-124139214D01*
X76962142Y-124091595D01*
X76866904Y-124043976D01*
X76581190Y-124043976D01*
X76485952Y-124091595D01*
X76438333Y-124139214D01*
X76390714Y-124234452D01*
X76390714Y-124377309D01*
X76438333Y-124472547D01*
X76485952Y-124520166D01*
X76581190Y-124567785D01*
X76866904Y-124567785D01*
X76962142Y-124520166D01*
X77009761Y-124472547D01*
X77057380Y-124377309D01*
X77057380Y-124234452D01*
X77057380Y-126186833D02*
X76057380Y-126186833D01*
X77009761Y-126186833D02*
X77057380Y-126091595D01*
X77057380Y-125901119D01*
X77009761Y-125805880D01*
X76962142Y-125758261D01*
X76866904Y-125710642D01*
X76581190Y-125710642D01*
X76485952Y-125758261D01*
X76438333Y-125805880D01*
X76390714Y-125901119D01*
X76390714Y-126091595D01*
X76438333Y-126186833D01*
X77009761Y-127043976D02*
X77057380Y-126948738D01*
X77057380Y-126758261D01*
X77009761Y-126663023D01*
X76914523Y-126615404D01*
X76533571Y-126615404D01*
X76438333Y-126663023D01*
X76390714Y-126758261D01*
X76390714Y-126948738D01*
X76438333Y-127043976D01*
X76533571Y-127091595D01*
X76628809Y-127091595D01*
X76724047Y-126615404D01*
X76390714Y-127424928D02*
X77057380Y-127663023D01*
X76390714Y-127901119D01*
X77057380Y-128282071D02*
X76390714Y-128282071D01*
X76057380Y-128282071D02*
X76105000Y-128234452D01*
X76152619Y-128282071D01*
X76105000Y-128329690D01*
X76057380Y-128282071D01*
X76152619Y-128282071D01*
X77009761Y-129186833D02*
X77057380Y-129091595D01*
X77057380Y-128901119D01*
X77009761Y-128805880D01*
X76962142Y-128758261D01*
X76866904Y-128710642D01*
X76581190Y-128710642D01*
X76485952Y-128758261D01*
X76438333Y-128805880D01*
X76390714Y-128901119D01*
X76390714Y-129091595D01*
X76438333Y-129186833D01*
X77009761Y-129996357D02*
X77057380Y-129901119D01*
X77057380Y-129710642D01*
X77009761Y-129615404D01*
X76914523Y-129567785D01*
X76533571Y-129567785D01*
X76438333Y-129615404D01*
X76390714Y-129710642D01*
X76390714Y-129901119D01*
X76438333Y-129996357D01*
X76533571Y-130043976D01*
X76628809Y-130043976D01*
X76724047Y-129567785D01*
X78659761Y-103043976D02*
X78707380Y-103186833D01*
X78707380Y-103424928D01*
X78659761Y-103520166D01*
X78612142Y-103567785D01*
X78516904Y-103615404D01*
X78421666Y-103615404D01*
X78326428Y-103567785D01*
X78278809Y-103520166D01*
X78231190Y-103424928D01*
X78183571Y-103234452D01*
X78135952Y-103139214D01*
X78088333Y-103091595D01*
X77993095Y-103043976D01*
X77897857Y-103043976D01*
X77802619Y-103091595D01*
X77755000Y-103139214D01*
X77707380Y-103234452D01*
X77707380Y-103472547D01*
X77755000Y-103615404D01*
X78040714Y-104472547D02*
X78707380Y-104472547D01*
X78040714Y-104043976D02*
X78564523Y-104043976D01*
X78659761Y-104091595D01*
X78707380Y-104186833D01*
X78707380Y-104329690D01*
X78659761Y-104424928D01*
X78612142Y-104472547D01*
X78707380Y-104948738D02*
X77707380Y-104948738D01*
X78088333Y-104948738D02*
X78040714Y-105043976D01*
X78040714Y-105234452D01*
X78088333Y-105329690D01*
X78135952Y-105377309D01*
X78231190Y-105424928D01*
X78516904Y-105424928D01*
X78612142Y-105377309D01*
X78659761Y-105329690D01*
X78707380Y-105234452D01*
X78707380Y-105043976D01*
X78659761Y-104948738D01*
X78707380Y-105853500D02*
X78040714Y-105853500D01*
X78135952Y-105853500D02*
X78088333Y-105901119D01*
X78040714Y-105996357D01*
X78040714Y-106139214D01*
X78088333Y-106234452D01*
X78183571Y-106282071D01*
X78707380Y-106282071D01*
X78183571Y-106282071D02*
X78088333Y-106329690D01*
X78040714Y-106424928D01*
X78040714Y-106567785D01*
X78088333Y-106663023D01*
X78183571Y-106710642D01*
X78707380Y-106710642D01*
X78707380Y-107186833D02*
X78040714Y-107186833D01*
X77707380Y-107186833D02*
X77755000Y-107139214D01*
X77802619Y-107186833D01*
X77755000Y-107234452D01*
X77707380Y-107186833D01*
X77802619Y-107186833D01*
X78040714Y-107520166D02*
X78040714Y-107901119D01*
X77707380Y-107663023D02*
X78564523Y-107663023D01*
X78659761Y-107710642D01*
X78707380Y-107805880D01*
X78707380Y-107901119D01*
X78707380Y-108996357D02*
X78040714Y-108996357D01*
X78231190Y-108996357D02*
X78135952Y-109043976D01*
X78088333Y-109091595D01*
X78040714Y-109186833D01*
X78040714Y-109282071D01*
X78707380Y-110043976D02*
X78183571Y-110043976D01*
X78088333Y-109996357D01*
X78040714Y-109901119D01*
X78040714Y-109710642D01*
X78088333Y-109615404D01*
X78659761Y-110043976D02*
X78707380Y-109948738D01*
X78707380Y-109710642D01*
X78659761Y-109615404D01*
X78564523Y-109567785D01*
X78469285Y-109567785D01*
X78374047Y-109615404D01*
X78326428Y-109710642D01*
X78326428Y-109948738D01*
X78278809Y-110043976D01*
X78040714Y-110520166D02*
X79040714Y-110520166D01*
X78088333Y-110520166D02*
X78040714Y-110615404D01*
X78040714Y-110805880D01*
X78088333Y-110901119D01*
X78135952Y-110948738D01*
X78231190Y-110996357D01*
X78516904Y-110996357D01*
X78612142Y-110948738D01*
X78659761Y-110901119D01*
X78707380Y-110805880D01*
X78707380Y-110615404D01*
X78659761Y-110520166D01*
X78707380Y-111567785D02*
X78659761Y-111472547D01*
X78612142Y-111424928D01*
X78516904Y-111377309D01*
X78231190Y-111377309D01*
X78135952Y-111424928D01*
X78088333Y-111472547D01*
X78040714Y-111567785D01*
X78040714Y-111710642D01*
X78088333Y-111805880D01*
X78135952Y-111853500D01*
X78231190Y-111901119D01*
X78516904Y-111901119D01*
X78612142Y-111853500D01*
X78659761Y-111805880D01*
X78707380Y-111710642D01*
X78707380Y-111567785D01*
X78707380Y-112329690D02*
X78040714Y-112329690D01*
X78231190Y-112329690D02*
X78135952Y-112377309D01*
X78088333Y-112424928D01*
X78040714Y-112520166D01*
X78040714Y-112615404D01*
X78040714Y-112805880D02*
X78040714Y-113186833D01*
X77707380Y-112948738D02*
X78564523Y-112948738D01*
X78659761Y-112996357D01*
X78707380Y-113091595D01*
X78707380Y-113186833D01*
X77707380Y-114472547D02*
X77707380Y-114663023D01*
X77755000Y-114758261D01*
X77850238Y-114853500D01*
X78040714Y-114901119D01*
X78374047Y-114901119D01*
X78564523Y-114853500D01*
X78659761Y-114758261D01*
X78707380Y-114663023D01*
X78707380Y-114472547D01*
X78659761Y-114377309D01*
X78564523Y-114282071D01*
X78374047Y-114234452D01*
X78040714Y-114234452D01*
X77850238Y-114282071D01*
X77755000Y-114377309D01*
X77707380Y-114472547D01*
X77707380Y-115186833D02*
X77707380Y-115758261D01*
X78707380Y-115472547D02*
X77707380Y-115472547D01*
X78421666Y-116043976D02*
X78421666Y-116520166D01*
X78707380Y-115948738D02*
X77707380Y-116282071D01*
X78707380Y-116615404D01*
D11*
X84671000Y-90818000D02*
X125311000Y-90818000D01*
X74511000Y-90818000D02*
X82131000Y-90818000D01*
X125311000Y-78118000D02*
X74511000Y-78118000D01*
X74511000Y-65418000D02*
X125311000Y-65418000D01*
D10*
X116587666Y-66340976D02*
X116587666Y-66817166D01*
X116873380Y-66245738D02*
X115873380Y-66579071D01*
X116873380Y-66912404D01*
X115873380Y-67102880D02*
X115873380Y-67674309D01*
X116873380Y-67388595D02*
X115873380Y-67388595D01*
X115873380Y-67864785D02*
X115873380Y-68436214D01*
X116873380Y-68150500D02*
X115873380Y-68150500D01*
X116873380Y-68769547D02*
X115873380Y-68769547D01*
X116873380Y-69245738D02*
X115873380Y-69245738D01*
X116873380Y-69817166D01*
X115873380Y-69817166D01*
X116397190Y-70483833D02*
X116873380Y-70483833D01*
X115873380Y-70150500D02*
X116397190Y-70483833D01*
X115873380Y-70817166D01*
X116873380Y-71912404D02*
X115873380Y-71912404D01*
X115873380Y-72293357D01*
X115921000Y-72388595D01*
X115968619Y-72436214D01*
X116063857Y-72483833D01*
X116206714Y-72483833D01*
X116301952Y-72436214D01*
X116349571Y-72388595D01*
X116397190Y-72293357D01*
X116397190Y-71912404D01*
X116778142Y-73483833D02*
X116825761Y-73436214D01*
X116873380Y-73293357D01*
X116873380Y-73198119D01*
X116825761Y-73055261D01*
X116730523Y-72960023D01*
X116635285Y-72912404D01*
X116444809Y-72864785D01*
X116301952Y-72864785D01*
X116111476Y-72912404D01*
X116016238Y-72960023D01*
X115921000Y-73055261D01*
X115873380Y-73198119D01*
X115873380Y-73293357D01*
X115921000Y-73436214D01*
X115968619Y-73483833D01*
X115873380Y-74340976D02*
X115873380Y-74150500D01*
X115921000Y-74055261D01*
X115968619Y-74007642D01*
X116111476Y-73912404D01*
X116301952Y-73864785D01*
X116682904Y-73864785D01*
X116778142Y-73912404D01*
X116825761Y-73960023D01*
X116873380Y-74055261D01*
X116873380Y-74245738D01*
X116825761Y-74340976D01*
X116778142Y-74388595D01*
X116682904Y-74436214D01*
X116444809Y-74436214D01*
X116349571Y-74388595D01*
X116301952Y-74340976D01*
X116254333Y-74245738D01*
X116254333Y-74055261D01*
X116301952Y-73960023D01*
X116349571Y-73912404D01*
X116444809Y-73864785D01*
X108967666Y-66340976D02*
X108967666Y-66817166D01*
X109253380Y-66245738D02*
X108253380Y-66579071D01*
X109253380Y-66912404D01*
X108253380Y-67102880D02*
X108253380Y-67674309D01*
X109253380Y-67388595D02*
X108253380Y-67388595D01*
X108253380Y-67864785D02*
X108253380Y-68436214D01*
X109253380Y-68150500D02*
X108253380Y-68150500D01*
X109253380Y-68769547D02*
X108253380Y-68769547D01*
X109253380Y-69245738D02*
X108253380Y-69245738D01*
X109253380Y-69817166D01*
X108253380Y-69817166D01*
X108777190Y-70483833D02*
X109253380Y-70483833D01*
X108253380Y-70150500D02*
X108777190Y-70483833D01*
X108253380Y-70817166D01*
X109253380Y-71912404D02*
X108253380Y-71912404D01*
X108253380Y-72293357D01*
X108301000Y-72388595D01*
X108348619Y-72436214D01*
X108443857Y-72483833D01*
X108586714Y-72483833D01*
X108681952Y-72436214D01*
X108729571Y-72388595D01*
X108777190Y-72293357D01*
X108777190Y-71912404D01*
X108967666Y-72864785D02*
X108967666Y-73340976D01*
X109253380Y-72769547D02*
X108253380Y-73102880D01*
X109253380Y-73436214D01*
X109253380Y-74293357D02*
X109253380Y-73721928D01*
X109253380Y-74007642D02*
X108253380Y-74007642D01*
X108396238Y-73912404D01*
X108491476Y-73817166D01*
X108539095Y-73721928D01*
X101347666Y-66340976D02*
X101347666Y-66817166D01*
X101633380Y-66245738D02*
X100633380Y-66579071D01*
X101633380Y-66912404D01*
X100633380Y-67102880D02*
X100633380Y-67674309D01*
X101633380Y-67388595D02*
X100633380Y-67388595D01*
X100633380Y-67864785D02*
X100633380Y-68436214D01*
X101633380Y-68150500D02*
X100633380Y-68150500D01*
X101633380Y-68769547D02*
X100633380Y-68769547D01*
X101633380Y-69245738D02*
X100633380Y-69245738D01*
X101633380Y-69817166D01*
X100633380Y-69817166D01*
X101157190Y-70483833D02*
X101633380Y-70483833D01*
X100633380Y-70150500D02*
X101157190Y-70483833D01*
X100633380Y-70817166D01*
X101633380Y-71912404D02*
X100633380Y-71912404D01*
X100633380Y-72293357D01*
X100681000Y-72388595D01*
X100728619Y-72436214D01*
X100823857Y-72483833D01*
X100966714Y-72483833D01*
X101061952Y-72436214D01*
X101109571Y-72388595D01*
X101157190Y-72293357D01*
X101157190Y-71912404D01*
X101347666Y-72864785D02*
X101347666Y-73340976D01*
X101633380Y-72769547D02*
X100633380Y-73102880D01*
X101633380Y-73436214D01*
X100633380Y-74245738D02*
X100633380Y-73769547D01*
X101109571Y-73721928D01*
X101061952Y-73769547D01*
X101014333Y-73864785D01*
X101014333Y-74102880D01*
X101061952Y-74198119D01*
X101109571Y-74245738D01*
X101204809Y-74293357D01*
X101442904Y-74293357D01*
X101538142Y-74245738D01*
X101585761Y-74198119D01*
X101633380Y-74102880D01*
X101633380Y-73864785D01*
X101585761Y-73769547D01*
X101538142Y-73721928D01*
X93727666Y-66340976D02*
X93727666Y-66817166D01*
X94013380Y-66245738D02*
X93013380Y-66579071D01*
X94013380Y-66912404D01*
X93013380Y-67102880D02*
X93013380Y-67674309D01*
X94013380Y-67388595D02*
X93013380Y-67388595D01*
X93013380Y-67864785D02*
X93013380Y-68436214D01*
X94013380Y-68150500D02*
X93013380Y-68150500D01*
X94013380Y-68769547D02*
X93013380Y-68769547D01*
X94013380Y-69245738D02*
X93013380Y-69245738D01*
X94013380Y-69817166D01*
X93013380Y-69817166D01*
X93537190Y-70483833D02*
X94013380Y-70483833D01*
X93013380Y-70150500D02*
X93537190Y-70483833D01*
X93013380Y-70817166D01*
X94013380Y-71912404D02*
X93013380Y-71912404D01*
X93013380Y-72293357D01*
X93061000Y-72388595D01*
X93108619Y-72436214D01*
X93203857Y-72483833D01*
X93346714Y-72483833D01*
X93441952Y-72436214D01*
X93489571Y-72388595D01*
X93537190Y-72293357D01*
X93537190Y-71912404D01*
X93489571Y-73245738D02*
X93537190Y-73388595D01*
X93584809Y-73436214D01*
X93680047Y-73483833D01*
X93822904Y-73483833D01*
X93918142Y-73436214D01*
X93965761Y-73388595D01*
X94013380Y-73293357D01*
X94013380Y-72912404D01*
X93013380Y-72912404D01*
X93013380Y-73245738D01*
X93061000Y-73340976D01*
X93108619Y-73388595D01*
X93203857Y-73436214D01*
X93299095Y-73436214D01*
X93394333Y-73388595D01*
X93441952Y-73340976D01*
X93489571Y-73245738D01*
X93489571Y-72912404D01*
X93013380Y-74102880D02*
X93013380Y-74198119D01*
X93061000Y-74293357D01*
X93108619Y-74340976D01*
X93203857Y-74388595D01*
X93394333Y-74436214D01*
X93632428Y-74436214D01*
X93822904Y-74388595D01*
X93918142Y-74340976D01*
X93965761Y-74293357D01*
X94013380Y-74198119D01*
X94013380Y-74102880D01*
X93965761Y-74007642D01*
X93918142Y-73960023D01*
X93822904Y-73912404D01*
X93632428Y-73864785D01*
X93394333Y-73864785D01*
X93203857Y-73912404D01*
X93108619Y-73960023D01*
X93061000Y-74007642D01*
X93013380Y-74102880D01*
X86107666Y-66340976D02*
X86107666Y-66817166D01*
X86393380Y-66245738D02*
X85393380Y-66579071D01*
X86393380Y-66912404D01*
X85393380Y-67102880D02*
X85393380Y-67674309D01*
X86393380Y-67388595D02*
X85393380Y-67388595D01*
X85393380Y-67864785D02*
X85393380Y-68436214D01*
X86393380Y-68150500D02*
X85393380Y-68150500D01*
X86393380Y-68769547D02*
X85393380Y-68769547D01*
X86393380Y-69245738D02*
X85393380Y-69245738D01*
X86393380Y-69817166D01*
X85393380Y-69817166D01*
X85917190Y-70483833D02*
X86393380Y-70483833D01*
X85393380Y-70150500D02*
X85917190Y-70483833D01*
X85393380Y-70817166D01*
X86393380Y-71912404D02*
X85393380Y-71912404D01*
X85393380Y-72293357D01*
X85441000Y-72388595D01*
X85488619Y-72436214D01*
X85583857Y-72483833D01*
X85726714Y-72483833D01*
X85821952Y-72436214D01*
X85869571Y-72388595D01*
X85917190Y-72293357D01*
X85917190Y-71912404D01*
X85869571Y-73245738D02*
X85917190Y-73388595D01*
X85964809Y-73436214D01*
X86060047Y-73483833D01*
X86202904Y-73483833D01*
X86298142Y-73436214D01*
X86345761Y-73388595D01*
X86393380Y-73293357D01*
X86393380Y-72912404D01*
X85393380Y-72912404D01*
X85393380Y-73245738D01*
X85441000Y-73340976D01*
X85488619Y-73388595D01*
X85583857Y-73436214D01*
X85679095Y-73436214D01*
X85774333Y-73388595D01*
X85821952Y-73340976D01*
X85869571Y-73245738D01*
X85869571Y-72912404D01*
X85393380Y-74340976D02*
X85393380Y-74150500D01*
X85441000Y-74055261D01*
X85488619Y-74007642D01*
X85631476Y-73912404D01*
X85821952Y-73864785D01*
X86202904Y-73864785D01*
X86298142Y-73912404D01*
X86345761Y-73960023D01*
X86393380Y-74055261D01*
X86393380Y-74245738D01*
X86345761Y-74340976D01*
X86298142Y-74388595D01*
X86202904Y-74436214D01*
X85964809Y-74436214D01*
X85869571Y-74388595D01*
X85821952Y-74340976D01*
X85774333Y-74245738D01*
X85774333Y-74055261D01*
X85821952Y-73960023D01*
X85869571Y-73912404D01*
X85964809Y-73864785D01*
X75709571Y-66388595D02*
X75709571Y-66721928D01*
X76233380Y-66864785D02*
X76233380Y-66388595D01*
X75233380Y-66388595D01*
X75233380Y-66864785D01*
X76185761Y-67245738D02*
X76233380Y-67388595D01*
X76233380Y-67626690D01*
X76185761Y-67721928D01*
X76138142Y-67769547D01*
X76042904Y-67817166D01*
X75947666Y-67817166D01*
X75852428Y-67769547D01*
X75804809Y-67721928D01*
X75757190Y-67626690D01*
X75709571Y-67436214D01*
X75661952Y-67340976D01*
X75614333Y-67293357D01*
X75519095Y-67245738D01*
X75423857Y-67245738D01*
X75328619Y-67293357D01*
X75281000Y-67340976D01*
X75233380Y-67436214D01*
X75233380Y-67674309D01*
X75281000Y-67817166D01*
X76233380Y-68245738D02*
X75233380Y-68245738D01*
X75233380Y-68626690D01*
X75281000Y-68721928D01*
X75328619Y-68769547D01*
X75423857Y-68817166D01*
X75566714Y-68817166D01*
X75661952Y-68769547D01*
X75709571Y-68721928D01*
X75757190Y-68626690D01*
X75757190Y-68245738D01*
X75233380Y-69150500D02*
X75233380Y-69769547D01*
X75614333Y-69436214D01*
X75614333Y-69579071D01*
X75661952Y-69674309D01*
X75709571Y-69721928D01*
X75804809Y-69769547D01*
X76042904Y-69769547D01*
X76138142Y-69721928D01*
X76185761Y-69674309D01*
X76233380Y-69579071D01*
X76233380Y-69293357D01*
X76185761Y-69198119D01*
X76138142Y-69150500D01*
X75328619Y-70150500D02*
X75281000Y-70198119D01*
X75233380Y-70293357D01*
X75233380Y-70531452D01*
X75281000Y-70626690D01*
X75328619Y-70674309D01*
X75423857Y-70721928D01*
X75519095Y-70721928D01*
X75661952Y-70674309D01*
X76233380Y-70102880D01*
X76233380Y-70721928D01*
X76185761Y-71864785D02*
X76233380Y-72007642D01*
X76233380Y-72245738D01*
X76185761Y-72340976D01*
X76138142Y-72388595D01*
X76042904Y-72436214D01*
X75947666Y-72436214D01*
X75852428Y-72388595D01*
X75804809Y-72340976D01*
X75757190Y-72245738D01*
X75709571Y-72055261D01*
X75661952Y-71960023D01*
X75614333Y-71912404D01*
X75519095Y-71864785D01*
X75423857Y-71864785D01*
X75328619Y-71912404D01*
X75281000Y-71960023D01*
X75233380Y-72055261D01*
X75233380Y-72293357D01*
X75281000Y-72436214D01*
X76138142Y-73436214D02*
X76185761Y-73388595D01*
X76233380Y-73245738D01*
X76233380Y-73150500D01*
X76185761Y-73007642D01*
X76090523Y-72912404D01*
X75995285Y-72864785D01*
X75804809Y-72817166D01*
X75661952Y-72817166D01*
X75471476Y-72864785D01*
X75376238Y-72912404D01*
X75281000Y-73007642D01*
X75233380Y-73150500D01*
X75233380Y-73245738D01*
X75281000Y-73388595D01*
X75328619Y-73436214D01*
X76233380Y-74340976D02*
X76233380Y-73864785D01*
X75233380Y-73864785D01*
X75328619Y-74626690D02*
X75281000Y-74674309D01*
X75233380Y-74769547D01*
X75233380Y-75007642D01*
X75281000Y-75102880D01*
X75328619Y-75150500D01*
X75423857Y-75198119D01*
X75519095Y-75198119D01*
X75661952Y-75150500D01*
X76233380Y-74579071D01*
X76233380Y-75198119D01*
X78249571Y-66388595D02*
X78249571Y-66721928D01*
X78773380Y-66864785D02*
X78773380Y-66388595D01*
X77773380Y-66388595D01*
X77773380Y-66864785D01*
X78725761Y-67245738D02*
X78773380Y-67388595D01*
X78773380Y-67626690D01*
X78725761Y-67721928D01*
X78678142Y-67769547D01*
X78582904Y-67817166D01*
X78487666Y-67817166D01*
X78392428Y-67769547D01*
X78344809Y-67721928D01*
X78297190Y-67626690D01*
X78249571Y-67436214D01*
X78201952Y-67340976D01*
X78154333Y-67293357D01*
X78059095Y-67245738D01*
X77963857Y-67245738D01*
X77868619Y-67293357D01*
X77821000Y-67340976D01*
X77773380Y-67436214D01*
X77773380Y-67674309D01*
X77821000Y-67817166D01*
X78773380Y-68245738D02*
X77773380Y-68245738D01*
X77773380Y-68626690D01*
X77821000Y-68721928D01*
X77868619Y-68769547D01*
X77963857Y-68817166D01*
X78106714Y-68817166D01*
X78201952Y-68769547D01*
X78249571Y-68721928D01*
X78297190Y-68626690D01*
X78297190Y-68245738D01*
X77773380Y-69150500D02*
X77773380Y-69769547D01*
X78154333Y-69436214D01*
X78154333Y-69579071D01*
X78201952Y-69674309D01*
X78249571Y-69721928D01*
X78344809Y-69769547D01*
X78582904Y-69769547D01*
X78678142Y-69721928D01*
X78725761Y-69674309D01*
X78773380Y-69579071D01*
X78773380Y-69293357D01*
X78725761Y-69198119D01*
X78678142Y-69150500D01*
X77868619Y-70150500D02*
X77821000Y-70198119D01*
X77773380Y-70293357D01*
X77773380Y-70531452D01*
X77821000Y-70626690D01*
X77868619Y-70674309D01*
X77963857Y-70721928D01*
X78059095Y-70721928D01*
X78201952Y-70674309D01*
X78773380Y-70102880D01*
X78773380Y-70721928D01*
X77773380Y-71769547D02*
X77773380Y-72340976D01*
X78773380Y-72055261D02*
X77773380Y-72055261D01*
X77773380Y-72579071D02*
X78773380Y-73245738D01*
X77773380Y-73245738D02*
X78773380Y-72579071D01*
X77868619Y-73579071D02*
X77821000Y-73626690D01*
X77773380Y-73721928D01*
X77773380Y-73960023D01*
X77821000Y-74055261D01*
X77868619Y-74102880D01*
X77963857Y-74150500D01*
X78059095Y-74150500D01*
X78201952Y-74102880D01*
X78773380Y-73531452D01*
X78773380Y-74150500D01*
X80361000Y-66912404D02*
X80313380Y-66817166D01*
X80313380Y-66674309D01*
X80361000Y-66531452D01*
X80456238Y-66436214D01*
X80551476Y-66388595D01*
X80741952Y-66340976D01*
X80884809Y-66340976D01*
X81075285Y-66388595D01*
X81170523Y-66436214D01*
X81265761Y-66531452D01*
X81313380Y-66674309D01*
X81313380Y-66769547D01*
X81265761Y-66912404D01*
X81218142Y-66960023D01*
X80884809Y-66960023D01*
X80884809Y-66769547D01*
X81313380Y-67388595D02*
X80313380Y-67388595D01*
X81313380Y-67960023D01*
X80313380Y-67960023D01*
X81313380Y-68436214D02*
X80313380Y-68436214D01*
X80313380Y-68674309D01*
X80361000Y-68817166D01*
X80456238Y-68912404D01*
X80551476Y-68960023D01*
X80741952Y-69007642D01*
X80884809Y-69007642D01*
X81075285Y-68960023D01*
X81170523Y-68912404D01*
X81265761Y-68817166D01*
X81313380Y-68674309D01*
X81313380Y-68436214D01*
X82901000Y-66912404D02*
X82853380Y-66817166D01*
X82853380Y-66674309D01*
X82901000Y-66531452D01*
X82996238Y-66436214D01*
X83091476Y-66388595D01*
X83281952Y-66340976D01*
X83424809Y-66340976D01*
X83615285Y-66388595D01*
X83710523Y-66436214D01*
X83805761Y-66531452D01*
X83853380Y-66674309D01*
X83853380Y-66769547D01*
X83805761Y-66912404D01*
X83758142Y-66960023D01*
X83424809Y-66960023D01*
X83424809Y-66769547D01*
X83853380Y-67388595D02*
X82853380Y-67388595D01*
X83853380Y-67960023D01*
X82853380Y-67960023D01*
X83853380Y-68436214D02*
X82853380Y-68436214D01*
X82853380Y-68674309D01*
X82901000Y-68817166D01*
X82996238Y-68912404D01*
X83091476Y-68960023D01*
X83281952Y-69007642D01*
X83424809Y-69007642D01*
X83615285Y-68960023D01*
X83710523Y-68912404D01*
X83805761Y-68817166D01*
X83853380Y-68674309D01*
X83853380Y-68436214D01*
X95601000Y-66912404D02*
X95553380Y-66817166D01*
X95553380Y-66674309D01*
X95601000Y-66531452D01*
X95696238Y-66436214D01*
X95791476Y-66388595D01*
X95981952Y-66340976D01*
X96124809Y-66340976D01*
X96315285Y-66388595D01*
X96410523Y-66436214D01*
X96505761Y-66531452D01*
X96553380Y-66674309D01*
X96553380Y-66769547D01*
X96505761Y-66912404D01*
X96458142Y-66960023D01*
X96124809Y-66960023D01*
X96124809Y-66769547D01*
X96553380Y-67388595D02*
X95553380Y-67388595D01*
X96553380Y-67960023D01*
X95553380Y-67960023D01*
X96553380Y-68436214D02*
X95553380Y-68436214D01*
X95553380Y-68674309D01*
X95601000Y-68817166D01*
X95696238Y-68912404D01*
X95791476Y-68960023D01*
X95981952Y-69007642D01*
X96124809Y-69007642D01*
X96315285Y-68960023D01*
X96410523Y-68912404D01*
X96505761Y-68817166D01*
X96553380Y-68674309D01*
X96553380Y-68436214D01*
X98141000Y-66912404D02*
X98093380Y-66817166D01*
X98093380Y-66674309D01*
X98141000Y-66531452D01*
X98236238Y-66436214D01*
X98331476Y-66388595D01*
X98521952Y-66340976D01*
X98664809Y-66340976D01*
X98855285Y-66388595D01*
X98950523Y-66436214D01*
X99045761Y-66531452D01*
X99093380Y-66674309D01*
X99093380Y-66769547D01*
X99045761Y-66912404D01*
X98998142Y-66960023D01*
X98664809Y-66960023D01*
X98664809Y-66769547D01*
X99093380Y-67388595D02*
X98093380Y-67388595D01*
X99093380Y-67960023D01*
X98093380Y-67960023D01*
X99093380Y-68436214D02*
X98093380Y-68436214D01*
X98093380Y-68674309D01*
X98141000Y-68817166D01*
X98236238Y-68912404D01*
X98331476Y-68960023D01*
X98521952Y-69007642D01*
X98664809Y-69007642D01*
X98855285Y-68960023D01*
X98950523Y-68912404D01*
X99045761Y-68817166D01*
X99093380Y-68674309D01*
X99093380Y-68436214D01*
X110841000Y-66912404D02*
X110793380Y-66817166D01*
X110793380Y-66674309D01*
X110841000Y-66531452D01*
X110936238Y-66436214D01*
X111031476Y-66388595D01*
X111221952Y-66340976D01*
X111364809Y-66340976D01*
X111555285Y-66388595D01*
X111650523Y-66436214D01*
X111745761Y-66531452D01*
X111793380Y-66674309D01*
X111793380Y-66769547D01*
X111745761Y-66912404D01*
X111698142Y-66960023D01*
X111364809Y-66960023D01*
X111364809Y-66769547D01*
X111793380Y-67388595D02*
X110793380Y-67388595D01*
X111793380Y-67960023D01*
X110793380Y-67960023D01*
X111793380Y-68436214D02*
X110793380Y-68436214D01*
X110793380Y-68674309D01*
X110841000Y-68817166D01*
X110936238Y-68912404D01*
X111031476Y-68960023D01*
X111221952Y-69007642D01*
X111364809Y-69007642D01*
X111555285Y-68960023D01*
X111650523Y-68912404D01*
X111745761Y-68817166D01*
X111793380Y-68674309D01*
X111793380Y-68436214D01*
X113381000Y-66912404D02*
X113333380Y-66817166D01*
X113333380Y-66674309D01*
X113381000Y-66531452D01*
X113476238Y-66436214D01*
X113571476Y-66388595D01*
X113761952Y-66340976D01*
X113904809Y-66340976D01*
X114095285Y-66388595D01*
X114190523Y-66436214D01*
X114285761Y-66531452D01*
X114333380Y-66674309D01*
X114333380Y-66769547D01*
X114285761Y-66912404D01*
X114238142Y-66960023D01*
X113904809Y-66960023D01*
X113904809Y-66769547D01*
X114333380Y-67388595D02*
X113333380Y-67388595D01*
X114333380Y-67960023D01*
X113333380Y-67960023D01*
X114333380Y-68436214D02*
X113333380Y-68436214D01*
X113333380Y-68674309D01*
X113381000Y-68817166D01*
X113476238Y-68912404D01*
X113571476Y-68960023D01*
X113761952Y-69007642D01*
X113904809Y-69007642D01*
X114095285Y-68960023D01*
X114190523Y-68912404D01*
X114285761Y-68817166D01*
X114333380Y-68674309D01*
X114333380Y-68436214D01*
X91473380Y-66388595D02*
X90473380Y-66388595D01*
X90473380Y-66769547D01*
X90521000Y-66864785D01*
X90568619Y-66912404D01*
X90663857Y-66960023D01*
X90806714Y-66960023D01*
X90901952Y-66912404D01*
X90949571Y-66864785D01*
X90997190Y-66769547D01*
X90997190Y-66388595D01*
X90473380Y-67293357D02*
X91473380Y-67531452D01*
X90759095Y-67721928D01*
X91473380Y-67912404D01*
X90473380Y-68150500D01*
X91473380Y-69102880D02*
X90997190Y-68769547D01*
X91473380Y-68531452D02*
X90473380Y-68531452D01*
X90473380Y-68912404D01*
X90521000Y-69007642D01*
X90568619Y-69055261D01*
X90663857Y-69102880D01*
X90806714Y-69102880D01*
X90901952Y-69055261D01*
X90949571Y-69007642D01*
X90997190Y-68912404D01*
X90997190Y-68531452D01*
X90949571Y-70626690D02*
X90997190Y-70769547D01*
X91044809Y-70817166D01*
X91140047Y-70864785D01*
X91282904Y-70864785D01*
X91378142Y-70817166D01*
X91425761Y-70769547D01*
X91473380Y-70674309D01*
X91473380Y-70293357D01*
X90473380Y-70293357D01*
X90473380Y-70626690D01*
X90521000Y-70721928D01*
X90568619Y-70769547D01*
X90663857Y-70817166D01*
X90759095Y-70817166D01*
X90854333Y-70769547D01*
X90901952Y-70721928D01*
X90949571Y-70626690D01*
X90949571Y-70293357D01*
X91187666Y-71245738D02*
X91187666Y-71721928D01*
X91473380Y-71150500D02*
X90473380Y-71483833D01*
X91473380Y-71817166D01*
X90473380Y-72007642D02*
X90473380Y-72579071D01*
X91473380Y-72293357D02*
X90473380Y-72293357D01*
X90473380Y-72769547D02*
X90473380Y-73340976D01*
X91473380Y-73055261D02*
X90473380Y-73055261D01*
X88933380Y-66388595D02*
X87933380Y-66388595D01*
X87933380Y-66769547D01*
X87981000Y-66864785D01*
X88028619Y-66912404D01*
X88123857Y-66960023D01*
X88266714Y-66960023D01*
X88361952Y-66912404D01*
X88409571Y-66864785D01*
X88457190Y-66769547D01*
X88457190Y-66388595D01*
X87933380Y-67293357D02*
X88933380Y-67531452D01*
X88219095Y-67721928D01*
X88933380Y-67912404D01*
X87933380Y-68150500D01*
X88933380Y-69102880D02*
X88457190Y-68769547D01*
X88933380Y-68531452D02*
X87933380Y-68531452D01*
X87933380Y-68912404D01*
X87981000Y-69007642D01*
X88028619Y-69055261D01*
X88123857Y-69102880D01*
X88266714Y-69102880D01*
X88361952Y-69055261D01*
X88409571Y-69007642D01*
X88457190Y-68912404D01*
X88457190Y-68531452D01*
X88409571Y-70626690D02*
X88457190Y-70769547D01*
X88504809Y-70817166D01*
X88600047Y-70864785D01*
X88742904Y-70864785D01*
X88838142Y-70817166D01*
X88885761Y-70769547D01*
X88933380Y-70674309D01*
X88933380Y-70293357D01*
X87933380Y-70293357D01*
X87933380Y-70626690D01*
X87981000Y-70721928D01*
X88028619Y-70769547D01*
X88123857Y-70817166D01*
X88219095Y-70817166D01*
X88314333Y-70769547D01*
X88361952Y-70721928D01*
X88409571Y-70626690D01*
X88409571Y-70293357D01*
X88647666Y-71245738D02*
X88647666Y-71721928D01*
X88933380Y-71150500D02*
X87933380Y-71483833D01*
X88933380Y-71817166D01*
X87933380Y-72007642D02*
X87933380Y-72579071D01*
X88933380Y-72293357D02*
X87933380Y-72293357D01*
X87933380Y-72769547D02*
X87933380Y-73340976D01*
X88933380Y-73055261D02*
X87933380Y-73055261D01*
X106713380Y-66388595D02*
X105713380Y-66388595D01*
X105713380Y-66769547D01*
X105761000Y-66864785D01*
X105808619Y-66912404D01*
X105903857Y-66960023D01*
X106046714Y-66960023D01*
X106141952Y-66912404D01*
X106189571Y-66864785D01*
X106237190Y-66769547D01*
X106237190Y-66388595D01*
X105713380Y-67293357D02*
X106713380Y-67531452D01*
X105999095Y-67721928D01*
X106713380Y-67912404D01*
X105713380Y-68150500D01*
X106713380Y-69102880D02*
X106237190Y-68769547D01*
X106713380Y-68531452D02*
X105713380Y-68531452D01*
X105713380Y-68912404D01*
X105761000Y-69007642D01*
X105808619Y-69055261D01*
X105903857Y-69102880D01*
X106046714Y-69102880D01*
X106141952Y-69055261D01*
X106189571Y-69007642D01*
X106237190Y-68912404D01*
X106237190Y-68531452D01*
X106189571Y-70626690D02*
X106237190Y-70769547D01*
X106284809Y-70817166D01*
X106380047Y-70864785D01*
X106522904Y-70864785D01*
X106618142Y-70817166D01*
X106665761Y-70769547D01*
X106713380Y-70674309D01*
X106713380Y-70293357D01*
X105713380Y-70293357D01*
X105713380Y-70626690D01*
X105761000Y-70721928D01*
X105808619Y-70769547D01*
X105903857Y-70817166D01*
X105999095Y-70817166D01*
X106094333Y-70769547D01*
X106141952Y-70721928D01*
X106189571Y-70626690D01*
X106189571Y-70293357D01*
X106427666Y-71245738D02*
X106427666Y-71721928D01*
X106713380Y-71150500D02*
X105713380Y-71483833D01*
X106713380Y-71817166D01*
X105713380Y-72007642D02*
X105713380Y-72579071D01*
X106713380Y-72293357D02*
X105713380Y-72293357D01*
X105713380Y-72769547D02*
X105713380Y-73340976D01*
X106713380Y-73055261D02*
X105713380Y-73055261D01*
X104173380Y-66388595D02*
X103173380Y-66388595D01*
X103173380Y-66769547D01*
X103221000Y-66864785D01*
X103268619Y-66912404D01*
X103363857Y-66960023D01*
X103506714Y-66960023D01*
X103601952Y-66912404D01*
X103649571Y-66864785D01*
X103697190Y-66769547D01*
X103697190Y-66388595D01*
X103173380Y-67293357D02*
X104173380Y-67531452D01*
X103459095Y-67721928D01*
X104173380Y-67912404D01*
X103173380Y-68150500D01*
X104173380Y-69102880D02*
X103697190Y-68769547D01*
X104173380Y-68531452D02*
X103173380Y-68531452D01*
X103173380Y-68912404D01*
X103221000Y-69007642D01*
X103268619Y-69055261D01*
X103363857Y-69102880D01*
X103506714Y-69102880D01*
X103601952Y-69055261D01*
X103649571Y-69007642D01*
X103697190Y-68912404D01*
X103697190Y-68531452D01*
X103649571Y-70626690D02*
X103697190Y-70769547D01*
X103744809Y-70817166D01*
X103840047Y-70864785D01*
X103982904Y-70864785D01*
X104078142Y-70817166D01*
X104125761Y-70769547D01*
X104173380Y-70674309D01*
X104173380Y-70293357D01*
X103173380Y-70293357D01*
X103173380Y-70626690D01*
X103221000Y-70721928D01*
X103268619Y-70769547D01*
X103363857Y-70817166D01*
X103459095Y-70817166D01*
X103554333Y-70769547D01*
X103601952Y-70721928D01*
X103649571Y-70626690D01*
X103649571Y-70293357D01*
X103887666Y-71245738D02*
X103887666Y-71721928D01*
X104173380Y-71150500D02*
X103173380Y-71483833D01*
X104173380Y-71817166D01*
X103173380Y-72007642D02*
X103173380Y-72579071D01*
X104173380Y-72293357D02*
X103173380Y-72293357D01*
X103173380Y-72769547D02*
X103173380Y-73340976D01*
X104173380Y-73055261D02*
X103173380Y-73055261D01*
X119413380Y-66388595D02*
X118413380Y-66388595D01*
X118413380Y-66769547D01*
X118461000Y-66864785D01*
X118508619Y-66912404D01*
X118603857Y-66960023D01*
X118746714Y-66960023D01*
X118841952Y-66912404D01*
X118889571Y-66864785D01*
X118937190Y-66769547D01*
X118937190Y-66388595D01*
X118413380Y-67293357D02*
X119413380Y-67531452D01*
X118699095Y-67721928D01*
X119413380Y-67912404D01*
X118413380Y-68150500D01*
X119413380Y-69102880D02*
X118937190Y-68769547D01*
X119413380Y-68531452D02*
X118413380Y-68531452D01*
X118413380Y-68912404D01*
X118461000Y-69007642D01*
X118508619Y-69055261D01*
X118603857Y-69102880D01*
X118746714Y-69102880D01*
X118841952Y-69055261D01*
X118889571Y-69007642D01*
X118937190Y-68912404D01*
X118937190Y-68531452D01*
X118413380Y-70769547D02*
X118413380Y-70293357D01*
X118889571Y-70245738D01*
X118841952Y-70293357D01*
X118794333Y-70388595D01*
X118794333Y-70626690D01*
X118841952Y-70721928D01*
X118889571Y-70769547D01*
X118984809Y-70817166D01*
X119222904Y-70817166D01*
X119318142Y-70769547D01*
X119365761Y-70721928D01*
X119413380Y-70626690D01*
X119413380Y-70388595D01*
X119365761Y-70293357D01*
X119318142Y-70245738D01*
X118746714Y-71150500D02*
X119413380Y-71388595D01*
X118746714Y-71626690D01*
X118365761Y-72721928D02*
X119651476Y-71864785D01*
X118413380Y-72960023D02*
X118413380Y-73579071D01*
X118794333Y-73245738D01*
X118794333Y-73388595D01*
X118841952Y-73483833D01*
X118889571Y-73531452D01*
X118984809Y-73579071D01*
X119222904Y-73579071D01*
X119318142Y-73531452D01*
X119365761Y-73483833D01*
X119413380Y-73388595D01*
X119413380Y-73102880D01*
X119365761Y-73007642D01*
X119318142Y-72960023D01*
X119318142Y-74007642D02*
X119365761Y-74055261D01*
X119413380Y-74007642D01*
X119365761Y-73960023D01*
X119318142Y-74007642D01*
X119413380Y-74007642D01*
X118413380Y-74388595D02*
X118413380Y-75007642D01*
X118794333Y-74674309D01*
X118794333Y-74817166D01*
X118841952Y-74912404D01*
X118889571Y-74960023D01*
X118984809Y-75007642D01*
X119222904Y-75007642D01*
X119318142Y-74960023D01*
X119365761Y-74912404D01*
X119413380Y-74817166D01*
X119413380Y-74531452D01*
X119365761Y-74436214D01*
X119318142Y-74388595D01*
X118746714Y-75340976D02*
X119413380Y-75579071D01*
X118746714Y-75817166D01*
X121953380Y-66388595D02*
X120953380Y-66388595D01*
X120953380Y-66769547D01*
X121001000Y-66864785D01*
X121048619Y-66912404D01*
X121143857Y-66960023D01*
X121286714Y-66960023D01*
X121381952Y-66912404D01*
X121429571Y-66864785D01*
X121477190Y-66769547D01*
X121477190Y-66388595D01*
X120953380Y-67293357D02*
X121953380Y-67531452D01*
X121239095Y-67721928D01*
X121953380Y-67912404D01*
X120953380Y-68150500D01*
X121953380Y-69102880D02*
X121477190Y-68769547D01*
X121953380Y-68531452D02*
X120953380Y-68531452D01*
X120953380Y-68912404D01*
X121001000Y-69007642D01*
X121048619Y-69055261D01*
X121143857Y-69102880D01*
X121286714Y-69102880D01*
X121381952Y-69055261D01*
X121429571Y-69007642D01*
X121477190Y-68912404D01*
X121477190Y-68531452D01*
X120953380Y-70769547D02*
X120953380Y-70293357D01*
X121429571Y-70245738D01*
X121381952Y-70293357D01*
X121334333Y-70388595D01*
X121334333Y-70626690D01*
X121381952Y-70721928D01*
X121429571Y-70769547D01*
X121524809Y-70817166D01*
X121762904Y-70817166D01*
X121858142Y-70769547D01*
X121905761Y-70721928D01*
X121953380Y-70626690D01*
X121953380Y-70388595D01*
X121905761Y-70293357D01*
X121858142Y-70245738D01*
X121286714Y-71150500D02*
X121953380Y-71388595D01*
X121286714Y-71626690D01*
X120905761Y-72721928D02*
X122191476Y-71864785D01*
X120953380Y-72960023D02*
X120953380Y-73579071D01*
X121334333Y-73245738D01*
X121334333Y-73388595D01*
X121381952Y-73483833D01*
X121429571Y-73531452D01*
X121524809Y-73579071D01*
X121762904Y-73579071D01*
X121858142Y-73531452D01*
X121905761Y-73483833D01*
X121953380Y-73388595D01*
X121953380Y-73102880D01*
X121905761Y-73007642D01*
X121858142Y-72960023D01*
X121858142Y-74007642D02*
X121905761Y-74055261D01*
X121953380Y-74007642D01*
X121905761Y-73960023D01*
X121858142Y-74007642D01*
X121953380Y-74007642D01*
X120953380Y-74388595D02*
X120953380Y-75007642D01*
X121334333Y-74674309D01*
X121334333Y-74817166D01*
X121381952Y-74912404D01*
X121429571Y-74960023D01*
X121524809Y-75007642D01*
X121762904Y-75007642D01*
X121858142Y-74960023D01*
X121905761Y-74912404D01*
X121953380Y-74817166D01*
X121953380Y-74531452D01*
X121905761Y-74436214D01*
X121858142Y-74388595D01*
X121286714Y-75340976D02*
X121953380Y-75579071D01*
X121286714Y-75817166D01*
X124207666Y-66340976D02*
X124207666Y-66817166D01*
X124493380Y-66245738D02*
X123493380Y-66579071D01*
X124493380Y-66912404D01*
X123493380Y-67102880D02*
X123493380Y-67674309D01*
X124493380Y-67388595D02*
X123493380Y-67388595D01*
X123493380Y-67864785D02*
X123493380Y-68436214D01*
X124493380Y-68150500D02*
X123493380Y-68150500D01*
X124493380Y-68769547D02*
X123493380Y-68769547D01*
X124493380Y-69245738D02*
X123493380Y-69245738D01*
X124493380Y-69817166D01*
X123493380Y-69817166D01*
X124017190Y-70483833D02*
X124493380Y-70483833D01*
X123493380Y-70150500D02*
X124017190Y-70483833D01*
X123493380Y-70817166D01*
X124493380Y-71912404D02*
X123493380Y-71912404D01*
X123493380Y-72293357D01*
X123541000Y-72388595D01*
X123588619Y-72436214D01*
X123683857Y-72483833D01*
X123826714Y-72483833D01*
X123921952Y-72436214D01*
X123969571Y-72388595D01*
X124017190Y-72293357D01*
X124017190Y-71912404D01*
X124398142Y-73483833D02*
X124445761Y-73436214D01*
X124493380Y-73293357D01*
X124493380Y-73198119D01*
X124445761Y-73055261D01*
X124350523Y-72960023D01*
X124255285Y-72912404D01*
X124064809Y-72864785D01*
X123921952Y-72864785D01*
X123731476Y-72912404D01*
X123636238Y-72960023D01*
X123541000Y-73055261D01*
X123493380Y-73198119D01*
X123493380Y-73293357D01*
X123541000Y-73436214D01*
X123588619Y-73483833D01*
X124493380Y-74436214D02*
X124493380Y-73864785D01*
X124493380Y-74150500D02*
X123493380Y-74150500D01*
X123636238Y-74055261D01*
X123731476Y-73960023D01*
X123779095Y-73864785D01*
X124207666Y-79040976D02*
X124207666Y-79517166D01*
X124493380Y-78945738D02*
X123493380Y-79279071D01*
X124493380Y-79612404D01*
X123493380Y-79802880D02*
X123493380Y-80374309D01*
X124493380Y-80088595D02*
X123493380Y-80088595D01*
X123493380Y-80564785D02*
X123493380Y-81136214D01*
X124493380Y-80850500D02*
X123493380Y-80850500D01*
X124493380Y-81469547D02*
X123493380Y-81469547D01*
X124493380Y-81945738D02*
X123493380Y-81945738D01*
X124493380Y-82517166D01*
X123493380Y-82517166D01*
X124017190Y-83183833D02*
X124493380Y-83183833D01*
X123493380Y-82850500D02*
X124017190Y-83183833D01*
X123493380Y-83517166D01*
X124493380Y-84612404D02*
X123493380Y-84612404D01*
X123493380Y-84993357D01*
X123541000Y-85088595D01*
X123588619Y-85136214D01*
X123683857Y-85183833D01*
X123826714Y-85183833D01*
X123921952Y-85136214D01*
X123969571Y-85088595D01*
X124017190Y-84993357D01*
X124017190Y-84612404D01*
X124398142Y-86183833D02*
X124445761Y-86136214D01*
X124493380Y-85993357D01*
X124493380Y-85898119D01*
X124445761Y-85755261D01*
X124350523Y-85660023D01*
X124255285Y-85612404D01*
X124064809Y-85564785D01*
X123921952Y-85564785D01*
X123731476Y-85612404D01*
X123636238Y-85660023D01*
X123541000Y-85755261D01*
X123493380Y-85898119D01*
X123493380Y-85993357D01*
X123541000Y-86136214D01*
X123588619Y-86183833D01*
X123588619Y-86564785D02*
X123541000Y-86612404D01*
X123493380Y-86707642D01*
X123493380Y-86945738D01*
X123541000Y-87040976D01*
X123588619Y-87088595D01*
X123683857Y-87136214D01*
X123779095Y-87136214D01*
X123921952Y-87088595D01*
X124493380Y-86517166D01*
X124493380Y-87136214D01*
X121667666Y-79040976D02*
X121667666Y-79517166D01*
X121953380Y-78945738D02*
X120953380Y-79279071D01*
X121953380Y-79612404D01*
X120953380Y-79802880D02*
X120953380Y-80374309D01*
X121953380Y-80088595D02*
X120953380Y-80088595D01*
X120953380Y-80564785D02*
X120953380Y-81136214D01*
X121953380Y-80850500D02*
X120953380Y-80850500D01*
X121953380Y-81469547D02*
X120953380Y-81469547D01*
X121953380Y-81945738D02*
X120953380Y-81945738D01*
X121953380Y-82517166D01*
X120953380Y-82517166D01*
X121477190Y-83183833D02*
X121953380Y-83183833D01*
X120953380Y-82850500D02*
X121477190Y-83183833D01*
X120953380Y-83517166D01*
X121953380Y-84612404D02*
X120953380Y-84612404D01*
X120953380Y-84993357D01*
X121001000Y-85088595D01*
X121048619Y-85136214D01*
X121143857Y-85183833D01*
X121286714Y-85183833D01*
X121381952Y-85136214D01*
X121429571Y-85088595D01*
X121477190Y-84993357D01*
X121477190Y-84612404D01*
X121858142Y-86183833D02*
X121905761Y-86136214D01*
X121953380Y-85993357D01*
X121953380Y-85898119D01*
X121905761Y-85755261D01*
X121810523Y-85660023D01*
X121715285Y-85612404D01*
X121524809Y-85564785D01*
X121381952Y-85564785D01*
X121191476Y-85612404D01*
X121096238Y-85660023D01*
X121001000Y-85755261D01*
X120953380Y-85898119D01*
X120953380Y-85993357D01*
X121001000Y-86136214D01*
X121048619Y-86183833D01*
X120953380Y-86517166D02*
X120953380Y-87136214D01*
X121334333Y-86802880D01*
X121334333Y-86945738D01*
X121381952Y-87040976D01*
X121429571Y-87088595D01*
X121524809Y-87136214D01*
X121762904Y-87136214D01*
X121858142Y-87088595D01*
X121905761Y-87040976D01*
X121953380Y-86945738D01*
X121953380Y-86660023D01*
X121905761Y-86564785D01*
X121858142Y-86517166D01*
X119127666Y-79040976D02*
X119127666Y-79517166D01*
X119413380Y-78945738D02*
X118413380Y-79279071D01*
X119413380Y-79612404D01*
X118413380Y-79802880D02*
X118413380Y-80374309D01*
X119413380Y-80088595D02*
X118413380Y-80088595D01*
X118413380Y-80564785D02*
X118413380Y-81136214D01*
X119413380Y-80850500D02*
X118413380Y-80850500D01*
X119413380Y-81469547D02*
X118413380Y-81469547D01*
X119413380Y-81945738D02*
X118413380Y-81945738D01*
X119413380Y-82517166D01*
X118413380Y-82517166D01*
X118937190Y-83183833D02*
X119413380Y-83183833D01*
X118413380Y-82850500D02*
X118937190Y-83183833D01*
X118413380Y-83517166D01*
X119413380Y-84612404D02*
X118413380Y-84612404D01*
X118413380Y-84993357D01*
X118461000Y-85088595D01*
X118508619Y-85136214D01*
X118603857Y-85183833D01*
X118746714Y-85183833D01*
X118841952Y-85136214D01*
X118889571Y-85088595D01*
X118937190Y-84993357D01*
X118937190Y-84612404D01*
X119318142Y-86183833D02*
X119365761Y-86136214D01*
X119413380Y-85993357D01*
X119413380Y-85898119D01*
X119365761Y-85755261D01*
X119270523Y-85660023D01*
X119175285Y-85612404D01*
X118984809Y-85564785D01*
X118841952Y-85564785D01*
X118651476Y-85612404D01*
X118556238Y-85660023D01*
X118461000Y-85755261D01*
X118413380Y-85898119D01*
X118413380Y-85993357D01*
X118461000Y-86136214D01*
X118508619Y-86183833D01*
X118746714Y-87040976D02*
X119413380Y-87040976D01*
X118365761Y-86802880D02*
X119080047Y-86564785D01*
X119080047Y-87183833D01*
X116587666Y-79040976D02*
X116587666Y-79517166D01*
X116873380Y-78945738D02*
X115873380Y-79279071D01*
X116873380Y-79612404D01*
X115873380Y-79802880D02*
X115873380Y-80374309D01*
X116873380Y-80088595D02*
X115873380Y-80088595D01*
X115873380Y-80564785D02*
X115873380Y-81136214D01*
X116873380Y-80850500D02*
X115873380Y-80850500D01*
X116873380Y-81469547D02*
X115873380Y-81469547D01*
X116873380Y-81945738D02*
X115873380Y-81945738D01*
X116873380Y-82517166D01*
X115873380Y-82517166D01*
X116397190Y-83183833D02*
X116873380Y-83183833D01*
X115873380Y-82850500D02*
X116397190Y-83183833D01*
X115873380Y-83517166D01*
X116873380Y-84612404D02*
X115873380Y-84612404D01*
X115873380Y-84993357D01*
X115921000Y-85088595D01*
X115968619Y-85136214D01*
X116063857Y-85183833D01*
X116206714Y-85183833D01*
X116301952Y-85136214D01*
X116349571Y-85088595D01*
X116397190Y-84993357D01*
X116397190Y-84612404D01*
X116778142Y-86183833D02*
X116825761Y-86136214D01*
X116873380Y-85993357D01*
X116873380Y-85898119D01*
X116825761Y-85755261D01*
X116730523Y-85660023D01*
X116635285Y-85612404D01*
X116444809Y-85564785D01*
X116301952Y-85564785D01*
X116111476Y-85612404D01*
X116016238Y-85660023D01*
X115921000Y-85755261D01*
X115873380Y-85898119D01*
X115873380Y-85993357D01*
X115921000Y-86136214D01*
X115968619Y-86183833D01*
X115873380Y-87088595D02*
X115873380Y-86612404D01*
X116349571Y-86564785D01*
X116301952Y-86612404D01*
X116254333Y-86707642D01*
X116254333Y-86945738D01*
X116301952Y-87040976D01*
X116349571Y-87088595D01*
X116444809Y-87136214D01*
X116682904Y-87136214D01*
X116778142Y-87088595D01*
X116825761Y-87040976D01*
X116873380Y-86945738D01*
X116873380Y-86707642D01*
X116825761Y-86612404D01*
X116778142Y-86564785D01*
X114047666Y-79040976D02*
X114047666Y-79517166D01*
X114333380Y-78945738D02*
X113333380Y-79279071D01*
X114333380Y-79612404D01*
X113333380Y-79802880D02*
X113333380Y-80374309D01*
X114333380Y-80088595D02*
X113333380Y-80088595D01*
X113333380Y-80564785D02*
X113333380Y-81136214D01*
X114333380Y-80850500D02*
X113333380Y-80850500D01*
X114333380Y-81469547D02*
X113333380Y-81469547D01*
X114333380Y-81945738D02*
X113333380Y-81945738D01*
X114333380Y-82517166D01*
X113333380Y-82517166D01*
X113857190Y-83183833D02*
X114333380Y-83183833D01*
X113333380Y-82850500D02*
X113857190Y-83183833D01*
X113333380Y-83517166D01*
X114333380Y-84612404D02*
X113333380Y-84612404D01*
X113333380Y-84993357D01*
X113381000Y-85088595D01*
X113428619Y-85136214D01*
X113523857Y-85183833D01*
X113666714Y-85183833D01*
X113761952Y-85136214D01*
X113809571Y-85088595D01*
X113857190Y-84993357D01*
X113857190Y-84612404D01*
X114238142Y-86183833D02*
X114285761Y-86136214D01*
X114333380Y-85993357D01*
X114333380Y-85898119D01*
X114285761Y-85755261D01*
X114190523Y-85660023D01*
X114095285Y-85612404D01*
X113904809Y-85564785D01*
X113761952Y-85564785D01*
X113571476Y-85612404D01*
X113476238Y-85660023D01*
X113381000Y-85755261D01*
X113333380Y-85898119D01*
X113333380Y-85993357D01*
X113381000Y-86136214D01*
X113428619Y-86183833D01*
X113333380Y-86517166D02*
X113333380Y-87183833D01*
X114333380Y-86755261D01*
X111507666Y-79040976D02*
X111507666Y-79517166D01*
X111793380Y-78945738D02*
X110793380Y-79279071D01*
X111793380Y-79612404D01*
X110793380Y-79802880D02*
X110793380Y-80374309D01*
X111793380Y-80088595D02*
X110793380Y-80088595D01*
X110793380Y-80564785D02*
X110793380Y-81136214D01*
X111793380Y-80850500D02*
X110793380Y-80850500D01*
X111793380Y-81469547D02*
X110793380Y-81469547D01*
X111793380Y-81945738D02*
X110793380Y-81945738D01*
X111793380Y-82517166D01*
X110793380Y-82517166D01*
X111317190Y-83183833D02*
X111793380Y-83183833D01*
X110793380Y-82850500D02*
X111317190Y-83183833D01*
X110793380Y-83517166D01*
X111793380Y-84612404D02*
X110793380Y-84612404D01*
X110793380Y-84993357D01*
X110841000Y-85088595D01*
X110888619Y-85136214D01*
X110983857Y-85183833D01*
X111126714Y-85183833D01*
X111221952Y-85136214D01*
X111269571Y-85088595D01*
X111317190Y-84993357D01*
X111317190Y-84612404D01*
X111507666Y-85564785D02*
X111507666Y-86040976D01*
X111793380Y-85469547D02*
X110793380Y-85802880D01*
X111793380Y-86136214D01*
X110793380Y-86660023D02*
X110793380Y-86755261D01*
X110841000Y-86850500D01*
X110888619Y-86898119D01*
X110983857Y-86945738D01*
X111174333Y-86993357D01*
X111412428Y-86993357D01*
X111602904Y-86945738D01*
X111698142Y-86898119D01*
X111745761Y-86850500D01*
X111793380Y-86755261D01*
X111793380Y-86660023D01*
X111745761Y-86564785D01*
X111698142Y-86517166D01*
X111602904Y-86469547D01*
X111412428Y-86421928D01*
X111174333Y-86421928D01*
X110983857Y-86469547D01*
X110888619Y-86517166D01*
X110841000Y-86564785D01*
X110793380Y-86660023D01*
X108967666Y-79040976D02*
X108967666Y-79517166D01*
X109253380Y-78945738D02*
X108253380Y-79279071D01*
X109253380Y-79612404D01*
X108253380Y-79802880D02*
X108253380Y-80374309D01*
X109253380Y-80088595D02*
X108253380Y-80088595D01*
X108253380Y-80564785D02*
X108253380Y-81136214D01*
X109253380Y-80850500D02*
X108253380Y-80850500D01*
X109253380Y-81469547D02*
X108253380Y-81469547D01*
X109253380Y-81945738D02*
X108253380Y-81945738D01*
X109253380Y-82517166D01*
X108253380Y-82517166D01*
X108777190Y-83183833D02*
X109253380Y-83183833D01*
X108253380Y-82850500D02*
X108777190Y-83183833D01*
X108253380Y-83517166D01*
X109253380Y-84612404D02*
X108253380Y-84612404D01*
X108253380Y-84993357D01*
X108301000Y-85088595D01*
X108348619Y-85136214D01*
X108443857Y-85183833D01*
X108586714Y-85183833D01*
X108681952Y-85136214D01*
X108729571Y-85088595D01*
X108777190Y-84993357D01*
X108777190Y-84612404D01*
X108967666Y-85564785D02*
X108967666Y-86040976D01*
X109253380Y-85469547D02*
X108253380Y-85802880D01*
X109253380Y-86136214D01*
X108348619Y-86421928D02*
X108301000Y-86469547D01*
X108253380Y-86564785D01*
X108253380Y-86802880D01*
X108301000Y-86898119D01*
X108348619Y-86945738D01*
X108443857Y-86993357D01*
X108539095Y-86993357D01*
X108681952Y-86945738D01*
X109253380Y-86374309D01*
X109253380Y-86993357D01*
X106427666Y-79040976D02*
X106427666Y-79517166D01*
X106713380Y-78945738D02*
X105713380Y-79279071D01*
X106713380Y-79612404D01*
X105713380Y-79802880D02*
X105713380Y-80374309D01*
X106713380Y-80088595D02*
X105713380Y-80088595D01*
X105713380Y-80564785D02*
X105713380Y-81136214D01*
X106713380Y-80850500D02*
X105713380Y-80850500D01*
X106713380Y-81469547D02*
X105713380Y-81469547D01*
X106713380Y-81945738D02*
X105713380Y-81945738D01*
X106713380Y-82517166D01*
X105713380Y-82517166D01*
X106237190Y-83183833D02*
X106713380Y-83183833D01*
X105713380Y-82850500D02*
X106237190Y-83183833D01*
X105713380Y-83517166D01*
X106713380Y-84612404D02*
X105713380Y-84612404D01*
X105713380Y-84993357D01*
X105761000Y-85088595D01*
X105808619Y-85136214D01*
X105903857Y-85183833D01*
X106046714Y-85183833D01*
X106141952Y-85136214D01*
X106189571Y-85088595D01*
X106237190Y-84993357D01*
X106237190Y-84612404D01*
X106427666Y-85564785D02*
X106427666Y-86040976D01*
X106713380Y-85469547D02*
X105713380Y-85802880D01*
X106713380Y-86136214D01*
X105713380Y-86374309D02*
X105713380Y-86993357D01*
X106094333Y-86660023D01*
X106094333Y-86802880D01*
X106141952Y-86898119D01*
X106189571Y-86945738D01*
X106284809Y-86993357D01*
X106522904Y-86993357D01*
X106618142Y-86945738D01*
X106665761Y-86898119D01*
X106713380Y-86802880D01*
X106713380Y-86517166D01*
X106665761Y-86421928D01*
X106618142Y-86374309D01*
X103887666Y-79040976D02*
X103887666Y-79517166D01*
X104173380Y-78945738D02*
X103173380Y-79279071D01*
X104173380Y-79612404D01*
X103173380Y-79802880D02*
X103173380Y-80374309D01*
X104173380Y-80088595D02*
X103173380Y-80088595D01*
X103173380Y-80564785D02*
X103173380Y-81136214D01*
X104173380Y-80850500D02*
X103173380Y-80850500D01*
X104173380Y-81469547D02*
X103173380Y-81469547D01*
X104173380Y-81945738D02*
X103173380Y-81945738D01*
X104173380Y-82517166D01*
X103173380Y-82517166D01*
X103697190Y-83183833D02*
X104173380Y-83183833D01*
X103173380Y-82850500D02*
X103697190Y-83183833D01*
X103173380Y-83517166D01*
X104173380Y-84612404D02*
X103173380Y-84612404D01*
X103173380Y-84993357D01*
X103221000Y-85088595D01*
X103268619Y-85136214D01*
X103363857Y-85183833D01*
X103506714Y-85183833D01*
X103601952Y-85136214D01*
X103649571Y-85088595D01*
X103697190Y-84993357D01*
X103697190Y-84612404D01*
X103887666Y-85564785D02*
X103887666Y-86040976D01*
X104173380Y-85469547D02*
X103173380Y-85802880D01*
X104173380Y-86136214D01*
X103506714Y-86898119D02*
X104173380Y-86898119D01*
X103125761Y-86660023D02*
X103840047Y-86421928D01*
X103840047Y-87040976D01*
X101347666Y-79040976D02*
X101347666Y-79517166D01*
X101633380Y-78945738D02*
X100633380Y-79279071D01*
X101633380Y-79612404D01*
X100633380Y-79802880D02*
X100633380Y-80374309D01*
X101633380Y-80088595D02*
X100633380Y-80088595D01*
X100633380Y-80564785D02*
X100633380Y-81136214D01*
X101633380Y-80850500D02*
X100633380Y-80850500D01*
X101633380Y-81469547D02*
X100633380Y-81469547D01*
X101633380Y-81945738D02*
X100633380Y-81945738D01*
X101633380Y-82517166D01*
X100633380Y-82517166D01*
X101157190Y-83183833D02*
X101633380Y-83183833D01*
X100633380Y-82850500D02*
X101157190Y-83183833D01*
X100633380Y-83517166D01*
X101633380Y-84612404D02*
X100633380Y-84612404D01*
X100633380Y-84993357D01*
X100681000Y-85088595D01*
X100728619Y-85136214D01*
X100823857Y-85183833D01*
X100966714Y-85183833D01*
X101061952Y-85136214D01*
X101109571Y-85088595D01*
X101157190Y-84993357D01*
X101157190Y-84612404D01*
X101347666Y-85564785D02*
X101347666Y-86040976D01*
X101633380Y-85469547D02*
X100633380Y-85802880D01*
X101633380Y-86136214D01*
X100633380Y-86898119D02*
X100633380Y-86707642D01*
X100681000Y-86612404D01*
X100728619Y-86564785D01*
X100871476Y-86469547D01*
X101061952Y-86421928D01*
X101442904Y-86421928D01*
X101538142Y-86469547D01*
X101585761Y-86517166D01*
X101633380Y-86612404D01*
X101633380Y-86802880D01*
X101585761Y-86898119D01*
X101538142Y-86945738D01*
X101442904Y-86993357D01*
X101204809Y-86993357D01*
X101109571Y-86945738D01*
X101061952Y-86898119D01*
X101014333Y-86802880D01*
X101014333Y-86612404D01*
X101061952Y-86517166D01*
X101109571Y-86469547D01*
X101204809Y-86421928D01*
X98807666Y-79040976D02*
X98807666Y-79517166D01*
X99093380Y-78945738D02*
X98093380Y-79279071D01*
X99093380Y-79612404D01*
X98093380Y-79802880D02*
X98093380Y-80374309D01*
X99093380Y-80088595D02*
X98093380Y-80088595D01*
X98093380Y-80564785D02*
X98093380Y-81136214D01*
X99093380Y-80850500D02*
X98093380Y-80850500D01*
X99093380Y-81469547D02*
X98093380Y-81469547D01*
X99093380Y-81945738D02*
X98093380Y-81945738D01*
X99093380Y-82517166D01*
X98093380Y-82517166D01*
X98617190Y-83183833D02*
X99093380Y-83183833D01*
X98093380Y-82850500D02*
X98617190Y-83183833D01*
X98093380Y-83517166D01*
X99093380Y-84612404D02*
X98093380Y-84612404D01*
X98093380Y-84993357D01*
X98141000Y-85088595D01*
X98188619Y-85136214D01*
X98283857Y-85183833D01*
X98426714Y-85183833D01*
X98521952Y-85136214D01*
X98569571Y-85088595D01*
X98617190Y-84993357D01*
X98617190Y-84612404D01*
X98807666Y-85564785D02*
X98807666Y-86040976D01*
X99093380Y-85469547D02*
X98093380Y-85802880D01*
X99093380Y-86136214D01*
X98093380Y-86374309D02*
X98093380Y-87040976D01*
X99093380Y-86612404D01*
X96267666Y-79040976D02*
X96267666Y-79517166D01*
X96553380Y-78945738D02*
X95553380Y-79279071D01*
X96553380Y-79612404D01*
X95553380Y-79802880D02*
X95553380Y-80374309D01*
X96553380Y-80088595D02*
X95553380Y-80088595D01*
X95553380Y-80564785D02*
X95553380Y-81136214D01*
X96553380Y-80850500D02*
X95553380Y-80850500D01*
X96553380Y-81469547D02*
X95553380Y-81469547D01*
X96553380Y-81945738D02*
X95553380Y-81945738D01*
X96553380Y-82517166D01*
X95553380Y-82517166D01*
X96077190Y-83183833D02*
X96553380Y-83183833D01*
X95553380Y-82850500D02*
X96077190Y-83183833D01*
X95553380Y-83517166D01*
X96553380Y-84612404D02*
X95553380Y-84612404D01*
X95553380Y-84993357D01*
X95601000Y-85088595D01*
X95648619Y-85136214D01*
X95743857Y-85183833D01*
X95886714Y-85183833D01*
X95981952Y-85136214D01*
X96029571Y-85088595D01*
X96077190Y-84993357D01*
X96077190Y-84612404D01*
X96029571Y-85945738D02*
X96077190Y-86088595D01*
X96124809Y-86136214D01*
X96220047Y-86183833D01*
X96362904Y-86183833D01*
X96458142Y-86136214D01*
X96505761Y-86088595D01*
X96553380Y-85993357D01*
X96553380Y-85612404D01*
X95553380Y-85612404D01*
X95553380Y-85945738D01*
X95601000Y-86040976D01*
X95648619Y-86088595D01*
X95743857Y-86136214D01*
X95839095Y-86136214D01*
X95934333Y-86088595D01*
X95981952Y-86040976D01*
X96029571Y-85945738D01*
X96029571Y-85612404D01*
X96553380Y-87136214D02*
X96553380Y-86564785D01*
X96553380Y-86850500D02*
X95553380Y-86850500D01*
X95696238Y-86755261D01*
X95791476Y-86660023D01*
X95839095Y-86564785D01*
X93727666Y-79040976D02*
X93727666Y-79517166D01*
X94013380Y-78945738D02*
X93013380Y-79279071D01*
X94013380Y-79612404D01*
X93013380Y-79802880D02*
X93013380Y-80374309D01*
X94013380Y-80088595D02*
X93013380Y-80088595D01*
X93013380Y-80564785D02*
X93013380Y-81136214D01*
X94013380Y-80850500D02*
X93013380Y-80850500D01*
X94013380Y-81469547D02*
X93013380Y-81469547D01*
X94013380Y-81945738D02*
X93013380Y-81945738D01*
X94013380Y-82517166D01*
X93013380Y-82517166D01*
X93537190Y-83183833D02*
X94013380Y-83183833D01*
X93013380Y-82850500D02*
X93537190Y-83183833D01*
X93013380Y-83517166D01*
X94013380Y-84612404D02*
X93013380Y-84612404D01*
X93013380Y-84993357D01*
X93061000Y-85088595D01*
X93108619Y-85136214D01*
X93203857Y-85183833D01*
X93346714Y-85183833D01*
X93441952Y-85136214D01*
X93489571Y-85088595D01*
X93537190Y-84993357D01*
X93537190Y-84612404D01*
X93489571Y-85945738D02*
X93537190Y-86088595D01*
X93584809Y-86136214D01*
X93680047Y-86183833D01*
X93822904Y-86183833D01*
X93918142Y-86136214D01*
X93965761Y-86088595D01*
X94013380Y-85993357D01*
X94013380Y-85612404D01*
X93013380Y-85612404D01*
X93013380Y-85945738D01*
X93061000Y-86040976D01*
X93108619Y-86088595D01*
X93203857Y-86136214D01*
X93299095Y-86136214D01*
X93394333Y-86088595D01*
X93441952Y-86040976D01*
X93489571Y-85945738D01*
X93489571Y-85612404D01*
X93108619Y-86564785D02*
X93061000Y-86612404D01*
X93013380Y-86707642D01*
X93013380Y-86945738D01*
X93061000Y-87040976D01*
X93108619Y-87088595D01*
X93203857Y-87136214D01*
X93299095Y-87136214D01*
X93441952Y-87088595D01*
X94013380Y-86517166D01*
X94013380Y-87136214D01*
X91187666Y-79040976D02*
X91187666Y-79517166D01*
X91473380Y-78945738D02*
X90473380Y-79279071D01*
X91473380Y-79612404D01*
X90473380Y-79802880D02*
X90473380Y-80374309D01*
X91473380Y-80088595D02*
X90473380Y-80088595D01*
X90473380Y-80564785D02*
X90473380Y-81136214D01*
X91473380Y-80850500D02*
X90473380Y-80850500D01*
X91473380Y-81469547D02*
X90473380Y-81469547D01*
X91473380Y-81945738D02*
X90473380Y-81945738D01*
X91473380Y-82517166D01*
X90473380Y-82517166D01*
X90997190Y-83183833D02*
X91473380Y-83183833D01*
X90473380Y-82850500D02*
X90997190Y-83183833D01*
X90473380Y-83517166D01*
X91473380Y-84612404D02*
X90473380Y-84612404D01*
X90473380Y-84993357D01*
X90521000Y-85088595D01*
X90568619Y-85136214D01*
X90663857Y-85183833D01*
X90806714Y-85183833D01*
X90901952Y-85136214D01*
X90949571Y-85088595D01*
X90997190Y-84993357D01*
X90997190Y-84612404D01*
X90949571Y-85945738D02*
X90997190Y-86088595D01*
X91044809Y-86136214D01*
X91140047Y-86183833D01*
X91282904Y-86183833D01*
X91378142Y-86136214D01*
X91425761Y-86088595D01*
X91473380Y-85993357D01*
X91473380Y-85612404D01*
X90473380Y-85612404D01*
X90473380Y-85945738D01*
X90521000Y-86040976D01*
X90568619Y-86088595D01*
X90663857Y-86136214D01*
X90759095Y-86136214D01*
X90854333Y-86088595D01*
X90901952Y-86040976D01*
X90949571Y-85945738D01*
X90949571Y-85612404D01*
X90473380Y-86517166D02*
X90473380Y-87136214D01*
X90854333Y-86802880D01*
X90854333Y-86945738D01*
X90901952Y-87040976D01*
X90949571Y-87088595D01*
X91044809Y-87136214D01*
X91282904Y-87136214D01*
X91378142Y-87088595D01*
X91425761Y-87040976D01*
X91473380Y-86945738D01*
X91473380Y-86660023D01*
X91425761Y-86564785D01*
X91378142Y-86517166D01*
X88647666Y-79040976D02*
X88647666Y-79517166D01*
X88933380Y-78945738D02*
X87933380Y-79279071D01*
X88933380Y-79612404D01*
X87933380Y-79802880D02*
X87933380Y-80374309D01*
X88933380Y-80088595D02*
X87933380Y-80088595D01*
X87933380Y-80564785D02*
X87933380Y-81136214D01*
X88933380Y-80850500D02*
X87933380Y-80850500D01*
X88933380Y-81469547D02*
X87933380Y-81469547D01*
X88933380Y-81945738D02*
X87933380Y-81945738D01*
X88933380Y-82517166D01*
X87933380Y-82517166D01*
X88457190Y-83183833D02*
X88933380Y-83183833D01*
X87933380Y-82850500D02*
X88457190Y-83183833D01*
X87933380Y-83517166D01*
X88933380Y-84612404D02*
X87933380Y-84612404D01*
X87933380Y-84993357D01*
X87981000Y-85088595D01*
X88028619Y-85136214D01*
X88123857Y-85183833D01*
X88266714Y-85183833D01*
X88361952Y-85136214D01*
X88409571Y-85088595D01*
X88457190Y-84993357D01*
X88457190Y-84612404D01*
X88409571Y-85945738D02*
X88457190Y-86088595D01*
X88504809Y-86136214D01*
X88600047Y-86183833D01*
X88742904Y-86183833D01*
X88838142Y-86136214D01*
X88885761Y-86088595D01*
X88933380Y-85993357D01*
X88933380Y-85612404D01*
X87933380Y-85612404D01*
X87933380Y-85945738D01*
X87981000Y-86040976D01*
X88028619Y-86088595D01*
X88123857Y-86136214D01*
X88219095Y-86136214D01*
X88314333Y-86088595D01*
X88361952Y-86040976D01*
X88409571Y-85945738D01*
X88409571Y-85612404D01*
X88266714Y-87040976D02*
X88933380Y-87040976D01*
X87885761Y-86802880D02*
X88600047Y-86564785D01*
X88600047Y-87183833D01*
X86107666Y-79040976D02*
X86107666Y-79517166D01*
X86393380Y-78945738D02*
X85393380Y-79279071D01*
X86393380Y-79612404D01*
X85393380Y-79802880D02*
X85393380Y-80374309D01*
X86393380Y-80088595D02*
X85393380Y-80088595D01*
X85393380Y-80564785D02*
X85393380Y-81136214D01*
X86393380Y-80850500D02*
X85393380Y-80850500D01*
X86393380Y-81469547D02*
X85393380Y-81469547D01*
X86393380Y-81945738D02*
X85393380Y-81945738D01*
X86393380Y-82517166D01*
X85393380Y-82517166D01*
X85917190Y-83183833D02*
X86393380Y-83183833D01*
X85393380Y-82850500D02*
X85917190Y-83183833D01*
X85393380Y-83517166D01*
X86393380Y-84612404D02*
X85393380Y-84612404D01*
X85393380Y-84993357D01*
X85441000Y-85088595D01*
X85488619Y-85136214D01*
X85583857Y-85183833D01*
X85726714Y-85183833D01*
X85821952Y-85136214D01*
X85869571Y-85088595D01*
X85917190Y-84993357D01*
X85917190Y-84612404D01*
X85869571Y-85945738D02*
X85917190Y-86088595D01*
X85964809Y-86136214D01*
X86060047Y-86183833D01*
X86202904Y-86183833D01*
X86298142Y-86136214D01*
X86345761Y-86088595D01*
X86393380Y-85993357D01*
X86393380Y-85612404D01*
X85393380Y-85612404D01*
X85393380Y-85945738D01*
X85441000Y-86040976D01*
X85488619Y-86088595D01*
X85583857Y-86136214D01*
X85679095Y-86136214D01*
X85774333Y-86088595D01*
X85821952Y-86040976D01*
X85869571Y-85945738D01*
X85869571Y-85612404D01*
X85393380Y-87088595D02*
X85393380Y-86612404D01*
X85869571Y-86564785D01*
X85821952Y-86612404D01*
X85774333Y-86707642D01*
X85774333Y-86945738D01*
X85821952Y-87040976D01*
X85869571Y-87088595D01*
X85964809Y-87136214D01*
X86202904Y-87136214D01*
X86298142Y-87088595D01*
X86345761Y-87040976D01*
X86393380Y-86945738D01*
X86393380Y-86707642D01*
X86345761Y-86612404D01*
X86298142Y-86564785D01*
X83567666Y-79040976D02*
X83567666Y-79517166D01*
X83853380Y-78945738D02*
X82853380Y-79279071D01*
X83853380Y-79612404D01*
X82853380Y-79802880D02*
X82853380Y-80374309D01*
X83853380Y-80088595D02*
X82853380Y-80088595D01*
X82853380Y-80564785D02*
X82853380Y-81136214D01*
X83853380Y-80850500D02*
X82853380Y-80850500D01*
X83853380Y-81469547D02*
X82853380Y-81469547D01*
X83853380Y-81945738D02*
X82853380Y-81945738D01*
X83853380Y-82517166D01*
X82853380Y-82517166D01*
X83377190Y-83183833D02*
X83853380Y-83183833D01*
X82853380Y-82850500D02*
X83377190Y-83183833D01*
X82853380Y-83517166D01*
X83853380Y-84612404D02*
X82853380Y-84612404D01*
X82853380Y-84993357D01*
X82901000Y-85088595D01*
X82948619Y-85136214D01*
X83043857Y-85183833D01*
X83186714Y-85183833D01*
X83281952Y-85136214D01*
X83329571Y-85088595D01*
X83377190Y-84993357D01*
X83377190Y-84612404D01*
X83329571Y-85945738D02*
X83377190Y-86088595D01*
X83424809Y-86136214D01*
X83520047Y-86183833D01*
X83662904Y-86183833D01*
X83758142Y-86136214D01*
X83805761Y-86088595D01*
X83853380Y-85993357D01*
X83853380Y-85612404D01*
X82853380Y-85612404D01*
X82853380Y-85945738D01*
X82901000Y-86040976D01*
X82948619Y-86088595D01*
X83043857Y-86136214D01*
X83139095Y-86136214D01*
X83234333Y-86088595D01*
X83281952Y-86040976D01*
X83329571Y-85945738D01*
X83329571Y-85612404D01*
X82853380Y-86517166D02*
X82853380Y-87183833D01*
X83853380Y-86755261D01*
X80789571Y-79088595D02*
X80789571Y-79421928D01*
X81313380Y-79564785D02*
X81313380Y-79088595D01*
X80313380Y-79088595D01*
X80313380Y-79564785D01*
X81265761Y-79945738D02*
X81313380Y-80088595D01*
X81313380Y-80326690D01*
X81265761Y-80421928D01*
X81218142Y-80469547D01*
X81122904Y-80517166D01*
X81027666Y-80517166D01*
X80932428Y-80469547D01*
X80884809Y-80421928D01*
X80837190Y-80326690D01*
X80789571Y-80136214D01*
X80741952Y-80040976D01*
X80694333Y-79993357D01*
X80599095Y-79945738D01*
X80503857Y-79945738D01*
X80408619Y-79993357D01*
X80361000Y-80040976D01*
X80313380Y-80136214D01*
X80313380Y-80374309D01*
X80361000Y-80517166D01*
X81313380Y-80945738D02*
X80313380Y-80945738D01*
X80313380Y-81326690D01*
X80361000Y-81421928D01*
X80408619Y-81469547D01*
X80503857Y-81517166D01*
X80646714Y-81517166D01*
X80741952Y-81469547D01*
X80789571Y-81421928D01*
X80837190Y-81326690D01*
X80837190Y-80945738D01*
X80313380Y-81850500D02*
X80313380Y-82469547D01*
X80694333Y-82136214D01*
X80694333Y-82279071D01*
X80741952Y-82374309D01*
X80789571Y-82421928D01*
X80884809Y-82469547D01*
X81122904Y-82469547D01*
X81218142Y-82421928D01*
X81265761Y-82374309D01*
X81313380Y-82279071D01*
X81313380Y-81993357D01*
X81265761Y-81898119D01*
X81218142Y-81850500D01*
X80408619Y-82850500D02*
X80361000Y-82898119D01*
X80313380Y-82993357D01*
X80313380Y-83231452D01*
X80361000Y-83326690D01*
X80408619Y-83374309D01*
X80503857Y-83421928D01*
X80599095Y-83421928D01*
X80741952Y-83374309D01*
X81313380Y-82802880D01*
X81313380Y-83421928D01*
X81313380Y-85183833D02*
X80837190Y-84850500D01*
X81313380Y-84612404D02*
X80313380Y-84612404D01*
X80313380Y-84993357D01*
X80361000Y-85088595D01*
X80408619Y-85136214D01*
X80503857Y-85183833D01*
X80646714Y-85183833D01*
X80741952Y-85136214D01*
X80789571Y-85088595D01*
X80837190Y-84993357D01*
X80837190Y-84612404D01*
X80313380Y-85517166D02*
X81313380Y-86183833D01*
X80313380Y-86183833D02*
X81313380Y-85517166D01*
X80408619Y-86517166D02*
X80361000Y-86564785D01*
X80313380Y-86660023D01*
X80313380Y-86898119D01*
X80361000Y-86993357D01*
X80408619Y-87040976D01*
X80503857Y-87088595D01*
X80599095Y-87088595D01*
X80741952Y-87040976D01*
X81313380Y-86469547D01*
X81313380Y-87088595D01*
X78249571Y-79088595D02*
X78249571Y-79421928D01*
X78773380Y-79564785D02*
X78773380Y-79088595D01*
X77773380Y-79088595D01*
X77773380Y-79564785D01*
X78725761Y-79945738D02*
X78773380Y-80088595D01*
X78773380Y-80326690D01*
X78725761Y-80421928D01*
X78678142Y-80469547D01*
X78582904Y-80517166D01*
X78487666Y-80517166D01*
X78392428Y-80469547D01*
X78344809Y-80421928D01*
X78297190Y-80326690D01*
X78249571Y-80136214D01*
X78201952Y-80040976D01*
X78154333Y-79993357D01*
X78059095Y-79945738D01*
X77963857Y-79945738D01*
X77868619Y-79993357D01*
X77821000Y-80040976D01*
X77773380Y-80136214D01*
X77773380Y-80374309D01*
X77821000Y-80517166D01*
X78773380Y-80945738D02*
X77773380Y-80945738D01*
X77773380Y-81326690D01*
X77821000Y-81421928D01*
X77868619Y-81469547D01*
X77963857Y-81517166D01*
X78106714Y-81517166D01*
X78201952Y-81469547D01*
X78249571Y-81421928D01*
X78297190Y-81326690D01*
X78297190Y-80945738D01*
X77773380Y-81850500D02*
X77773380Y-82469547D01*
X78154333Y-82136214D01*
X78154333Y-82279071D01*
X78201952Y-82374309D01*
X78249571Y-82421928D01*
X78344809Y-82469547D01*
X78582904Y-82469547D01*
X78678142Y-82421928D01*
X78725761Y-82374309D01*
X78773380Y-82279071D01*
X78773380Y-81993357D01*
X78725761Y-81898119D01*
X78678142Y-81850500D01*
X77868619Y-82850500D02*
X77821000Y-82898119D01*
X77773380Y-82993357D01*
X77773380Y-83231452D01*
X77821000Y-83326690D01*
X77868619Y-83374309D01*
X77963857Y-83421928D01*
X78059095Y-83421928D01*
X78201952Y-83374309D01*
X78773380Y-82802880D01*
X78773380Y-83421928D01*
X78773380Y-85183833D02*
X78297190Y-84850500D01*
X78773380Y-84612404D02*
X77773380Y-84612404D01*
X77773380Y-84993357D01*
X77821000Y-85088595D01*
X77868619Y-85136214D01*
X77963857Y-85183833D01*
X78106714Y-85183833D01*
X78201952Y-85136214D01*
X78249571Y-85088595D01*
X78297190Y-84993357D01*
X78297190Y-84612404D01*
X78725761Y-85564785D02*
X78773380Y-85707642D01*
X78773380Y-85945738D01*
X78725761Y-86040976D01*
X78678142Y-86088595D01*
X78582904Y-86136214D01*
X78487666Y-86136214D01*
X78392428Y-86088595D01*
X78344809Y-86040976D01*
X78297190Y-85945738D01*
X78249571Y-85755261D01*
X78201952Y-85660023D01*
X78154333Y-85612404D01*
X78059095Y-85564785D01*
X77963857Y-85564785D01*
X77868619Y-85612404D01*
X77821000Y-85660023D01*
X77773380Y-85755261D01*
X77773380Y-85993357D01*
X77821000Y-86136214D01*
X77773380Y-86421928D02*
X77773380Y-86993357D01*
X78773380Y-86707642D02*
X77773380Y-86707642D01*
X78392428Y-87326690D02*
X78392428Y-88088595D01*
X78678142Y-89136214D02*
X78725761Y-89088595D01*
X78773380Y-88945738D01*
X78773380Y-88850500D01*
X78725761Y-88707642D01*
X78630523Y-88612404D01*
X78535285Y-88564785D01*
X78344809Y-88517166D01*
X78201952Y-88517166D01*
X78011476Y-88564785D01*
X77916238Y-88612404D01*
X77821000Y-88707642D01*
X77773380Y-88850500D01*
X77773380Y-88945738D01*
X77821000Y-89088595D01*
X77868619Y-89136214D01*
X78725761Y-89517166D02*
X78773380Y-89660023D01*
X78773380Y-89898119D01*
X78725761Y-89993357D01*
X78678142Y-90040976D01*
X78582904Y-90088595D01*
X78487666Y-90088595D01*
X78392428Y-90040976D01*
X78344809Y-89993357D01*
X78297190Y-89898119D01*
X78249571Y-89707642D01*
X78201952Y-89612404D01*
X78154333Y-89564785D01*
X78059095Y-89517166D01*
X77963857Y-89517166D01*
X77868619Y-89564785D01*
X77821000Y-89612404D01*
X77773380Y-89707642D01*
X77773380Y-89945738D01*
X77821000Y-90088595D01*
X75709571Y-79088595D02*
X75709571Y-79421928D01*
X76233380Y-79564785D02*
X76233380Y-79088595D01*
X75233380Y-79088595D01*
X75233380Y-79564785D01*
X76185761Y-79945738D02*
X76233380Y-80088595D01*
X76233380Y-80326690D01*
X76185761Y-80421928D01*
X76138142Y-80469547D01*
X76042904Y-80517166D01*
X75947666Y-80517166D01*
X75852428Y-80469547D01*
X75804809Y-80421928D01*
X75757190Y-80326690D01*
X75709571Y-80136214D01*
X75661952Y-80040976D01*
X75614333Y-79993357D01*
X75519095Y-79945738D01*
X75423857Y-79945738D01*
X75328619Y-79993357D01*
X75281000Y-80040976D01*
X75233380Y-80136214D01*
X75233380Y-80374309D01*
X75281000Y-80517166D01*
X76233380Y-80945738D02*
X75233380Y-80945738D01*
X75233380Y-81326690D01*
X75281000Y-81421928D01*
X75328619Y-81469547D01*
X75423857Y-81517166D01*
X75566714Y-81517166D01*
X75661952Y-81469547D01*
X75709571Y-81421928D01*
X75757190Y-81326690D01*
X75757190Y-80945738D01*
X75233380Y-81850500D02*
X75233380Y-82469547D01*
X75614333Y-82136214D01*
X75614333Y-82279071D01*
X75661952Y-82374309D01*
X75709571Y-82421928D01*
X75804809Y-82469547D01*
X76042904Y-82469547D01*
X76138142Y-82421928D01*
X76185761Y-82374309D01*
X76233380Y-82279071D01*
X76233380Y-81993357D01*
X76185761Y-81898119D01*
X76138142Y-81850500D01*
X75328619Y-82850500D02*
X75281000Y-82898119D01*
X75233380Y-82993357D01*
X75233380Y-83231452D01*
X75281000Y-83326690D01*
X75328619Y-83374309D01*
X75423857Y-83421928D01*
X75519095Y-83421928D01*
X75661952Y-83374309D01*
X76233380Y-82802880D01*
X76233380Y-83421928D01*
X76185761Y-84564785D02*
X76233380Y-84707642D01*
X76233380Y-84945738D01*
X76185761Y-85040976D01*
X76138142Y-85088595D01*
X76042904Y-85136214D01*
X75947666Y-85136214D01*
X75852428Y-85088595D01*
X75804809Y-85040976D01*
X75757190Y-84945738D01*
X75709571Y-84755261D01*
X75661952Y-84660023D01*
X75614333Y-84612404D01*
X75519095Y-84564785D01*
X75423857Y-84564785D01*
X75328619Y-84612404D01*
X75281000Y-84660023D01*
X75233380Y-84755261D01*
X75233380Y-84993357D01*
X75281000Y-85136214D01*
X76233380Y-85564785D02*
X75233380Y-85564785D01*
X75233380Y-85802880D01*
X75281000Y-85945738D01*
X75376238Y-86040976D01*
X75471476Y-86088595D01*
X75661952Y-86136214D01*
X75804809Y-86136214D01*
X75995285Y-86088595D01*
X76090523Y-86040976D01*
X76185761Y-85945738D01*
X76233380Y-85802880D01*
X76233380Y-85564785D01*
X75947666Y-86517166D02*
X75947666Y-86993357D01*
X76233380Y-86421928D02*
X75233380Y-86755261D01*
X76233380Y-87088595D01*
X75328619Y-87374309D02*
X75281000Y-87421928D01*
X75233380Y-87517166D01*
X75233380Y-87755261D01*
X75281000Y-87850500D01*
X75328619Y-87898119D01*
X75423857Y-87945738D01*
X75519095Y-87945738D01*
X75661952Y-87898119D01*
X76233380Y-87326690D01*
X76233380Y-87945738D01*
D11*
X122771000Y-65418000D02*
X122771000Y-90818000D01*
X120231000Y-90818000D02*
X120231000Y-65418000D01*
X117691000Y-90818000D02*
X120231000Y-90818000D01*
X117691000Y-65418000D02*
X117691000Y-90818000D01*
X115151000Y-90818000D02*
X115151000Y-65418000D01*
X112611000Y-90818000D02*
X115151000Y-90818000D01*
X112611000Y-65418000D02*
X112611000Y-90818000D01*
X110071000Y-90818000D02*
X110071000Y-65418000D01*
X107531000Y-90818000D02*
X110071000Y-90818000D01*
X107531000Y-65418000D02*
X107531000Y-90818000D01*
X104991000Y-90818000D02*
X104991000Y-65418000D01*
X102451000Y-90818000D02*
X104991000Y-90818000D01*
X102451000Y-65418000D02*
X102451000Y-90818000D01*
X99911000Y-90818000D02*
X99911000Y-65418000D01*
X97371000Y-90818000D02*
X99911000Y-90818000D01*
X97371000Y-65418000D02*
X97371000Y-90818000D01*
X94831000Y-90818000D02*
X94831000Y-65418000D01*
X92291000Y-90818000D02*
X94831000Y-90818000D01*
X92291000Y-65418000D02*
X92291000Y-90818000D01*
X89751000Y-90818000D02*
X89751000Y-65418000D01*
X87211000Y-90818000D02*
X89751000Y-90818000D01*
X87211000Y-65418000D02*
X87211000Y-90818000D01*
X84671000Y-90818000D02*
X84671000Y-65418000D01*
X82131000Y-90818000D02*
X82131000Y-65418000D01*
X79591000Y-90818000D02*
X79591000Y-65418000D01*
X77051000Y-90818000D02*
X77051000Y-65418000D01*
X74511000Y-90818000D02*
X74511000Y-65418000D01*
X125311000Y-90818000D02*
X125311000Y-65418000D01*
D10*
X124453714Y-60885714D02*
X124453714Y-61552380D01*
X124691809Y-60504761D02*
X124929904Y-61219047D01*
X124310857Y-61219047D01*
X123739428Y-60552380D02*
X123644190Y-60552380D01*
X123548952Y-60600000D01*
X123501333Y-60647619D01*
X123453714Y-60742857D01*
X123406095Y-60933333D01*
X123406095Y-61171428D01*
X123453714Y-61361904D01*
X123501333Y-61457142D01*
X123548952Y-61504761D01*
X123644190Y-61552380D01*
X123739428Y-61552380D01*
X123834666Y-61504761D01*
X123882285Y-61457142D01*
X123929904Y-61361904D01*
X123977523Y-61171428D01*
X123977523Y-60933333D01*
X123929904Y-60742857D01*
X123882285Y-60647619D01*
X123834666Y-60600000D01*
X123739428Y-60552380D01*
X124977523Y-63092380D02*
X124358476Y-63092380D01*
X124691809Y-63473333D01*
X124548952Y-63473333D01*
X124453714Y-63520952D01*
X124406095Y-63568571D01*
X124358476Y-63663809D01*
X124358476Y-63901904D01*
X124406095Y-63997142D01*
X124453714Y-64044761D01*
X124548952Y-64092380D01*
X124834666Y-64092380D01*
X124929904Y-64044761D01*
X124977523Y-63997142D01*
X123882285Y-64092380D02*
X123691809Y-64092380D01*
X123596571Y-64044761D01*
X123548952Y-63997142D01*
X123453714Y-63854285D01*
X123406095Y-63663809D01*
X123406095Y-63282857D01*
X123453714Y-63187619D01*
X123501333Y-63140000D01*
X123596571Y-63092380D01*
X123787047Y-63092380D01*
X123882285Y-63140000D01*
X123929904Y-63187619D01*
X123977523Y-63282857D01*
X123977523Y-63520952D01*
X123929904Y-63616190D01*
X123882285Y-63663809D01*
X123787047Y-63711428D01*
X123596571Y-63711428D01*
X123501333Y-63663809D01*
X123453714Y-63616190D01*
X123406095Y-63520952D01*
X122437523Y-60552380D02*
X121818476Y-60552380D01*
X122151809Y-60933333D01*
X122008952Y-60933333D01*
X121913714Y-60980952D01*
X121866095Y-61028571D01*
X121818476Y-61123809D01*
X121818476Y-61361904D01*
X121866095Y-61457142D01*
X121913714Y-61504761D01*
X122008952Y-61552380D01*
X122294666Y-61552380D01*
X122389904Y-61504761D01*
X122437523Y-61457142D01*
X121247047Y-60980952D02*
X121342285Y-60933333D01*
X121389904Y-60885714D01*
X121437523Y-60790476D01*
X121437523Y-60742857D01*
X121389904Y-60647619D01*
X121342285Y-60600000D01*
X121247047Y-60552380D01*
X121056571Y-60552380D01*
X120961333Y-60600000D01*
X120913714Y-60647619D01*
X120866095Y-60742857D01*
X120866095Y-60790476D01*
X120913714Y-60885714D01*
X120961333Y-60933333D01*
X121056571Y-60980952D01*
X121247047Y-60980952D01*
X121342285Y-61028571D01*
X121389904Y-61076190D01*
X121437523Y-61171428D01*
X121437523Y-61361904D01*
X121389904Y-61457142D01*
X121342285Y-61504761D01*
X121247047Y-61552380D01*
X121056571Y-61552380D01*
X120961333Y-61504761D01*
X120913714Y-61457142D01*
X120866095Y-61361904D01*
X120866095Y-61171428D01*
X120913714Y-61076190D01*
X120961333Y-61028571D01*
X121056571Y-60980952D01*
X122437523Y-63092380D02*
X121818476Y-63092380D01*
X122151809Y-63473333D01*
X122008952Y-63473333D01*
X121913714Y-63520952D01*
X121866095Y-63568571D01*
X121818476Y-63663809D01*
X121818476Y-63901904D01*
X121866095Y-63997142D01*
X121913714Y-64044761D01*
X122008952Y-64092380D01*
X122294666Y-64092380D01*
X122389904Y-64044761D01*
X122437523Y-63997142D01*
X121485142Y-63092380D02*
X120818476Y-63092380D01*
X121247047Y-64092380D01*
X119897523Y-60552380D02*
X119278476Y-60552380D01*
X119611809Y-60933333D01*
X119468952Y-60933333D01*
X119373714Y-60980952D01*
X119326095Y-61028571D01*
X119278476Y-61123809D01*
X119278476Y-61361904D01*
X119326095Y-61457142D01*
X119373714Y-61504761D01*
X119468952Y-61552380D01*
X119754666Y-61552380D01*
X119849904Y-61504761D01*
X119897523Y-61457142D01*
X118421333Y-60552380D02*
X118611809Y-60552380D01*
X118707047Y-60600000D01*
X118754666Y-60647619D01*
X118849904Y-60790476D01*
X118897523Y-60980952D01*
X118897523Y-61361904D01*
X118849904Y-61457142D01*
X118802285Y-61504761D01*
X118707047Y-61552380D01*
X118516571Y-61552380D01*
X118421333Y-61504761D01*
X118373714Y-61457142D01*
X118326095Y-61361904D01*
X118326095Y-61123809D01*
X118373714Y-61028571D01*
X118421333Y-60980952D01*
X118516571Y-60933333D01*
X118707047Y-60933333D01*
X118802285Y-60980952D01*
X118849904Y-61028571D01*
X118897523Y-61123809D01*
X119897523Y-63092380D02*
X119278476Y-63092380D01*
X119611809Y-63473333D01*
X119468952Y-63473333D01*
X119373714Y-63520952D01*
X119326095Y-63568571D01*
X119278476Y-63663809D01*
X119278476Y-63901904D01*
X119326095Y-63997142D01*
X119373714Y-64044761D01*
X119468952Y-64092380D01*
X119754666Y-64092380D01*
X119849904Y-64044761D01*
X119897523Y-63997142D01*
X118373714Y-63092380D02*
X118849904Y-63092380D01*
X118897523Y-63568571D01*
X118849904Y-63520952D01*
X118754666Y-63473333D01*
X118516571Y-63473333D01*
X118421333Y-63520952D01*
X118373714Y-63568571D01*
X118326095Y-63663809D01*
X118326095Y-63901904D01*
X118373714Y-63997142D01*
X118421333Y-64044761D01*
X118516571Y-64092380D01*
X118754666Y-64092380D01*
X118849904Y-64044761D01*
X118897523Y-63997142D01*
X117357523Y-60552380D02*
X116738476Y-60552380D01*
X117071809Y-60933333D01*
X116928952Y-60933333D01*
X116833714Y-60980952D01*
X116786095Y-61028571D01*
X116738476Y-61123809D01*
X116738476Y-61361904D01*
X116786095Y-61457142D01*
X116833714Y-61504761D01*
X116928952Y-61552380D01*
X117214666Y-61552380D01*
X117309904Y-61504761D01*
X117357523Y-61457142D01*
X115881333Y-60885714D02*
X115881333Y-61552380D01*
X116119428Y-60504761D02*
X116357523Y-61219047D01*
X115738476Y-61219047D01*
X117357523Y-63092380D02*
X116738476Y-63092380D01*
X117071809Y-63473333D01*
X116928952Y-63473333D01*
X116833714Y-63520952D01*
X116786095Y-63568571D01*
X116738476Y-63663809D01*
X116738476Y-63901904D01*
X116786095Y-63997142D01*
X116833714Y-64044761D01*
X116928952Y-64092380D01*
X117214666Y-64092380D01*
X117309904Y-64044761D01*
X117357523Y-63997142D01*
X116405142Y-63092380D02*
X115786095Y-63092380D01*
X116119428Y-63473333D01*
X115976571Y-63473333D01*
X115881333Y-63520952D01*
X115833714Y-63568571D01*
X115786095Y-63663809D01*
X115786095Y-63901904D01*
X115833714Y-63997142D01*
X115881333Y-64044761D01*
X115976571Y-64092380D01*
X116262285Y-64092380D01*
X116357523Y-64044761D01*
X116405142Y-63997142D01*
X114817523Y-60552380D02*
X114198476Y-60552380D01*
X114531809Y-60933333D01*
X114388952Y-60933333D01*
X114293714Y-60980952D01*
X114246095Y-61028571D01*
X114198476Y-61123809D01*
X114198476Y-61361904D01*
X114246095Y-61457142D01*
X114293714Y-61504761D01*
X114388952Y-61552380D01*
X114674666Y-61552380D01*
X114769904Y-61504761D01*
X114817523Y-61457142D01*
X113817523Y-60647619D02*
X113769904Y-60600000D01*
X113674666Y-60552380D01*
X113436571Y-60552380D01*
X113341333Y-60600000D01*
X113293714Y-60647619D01*
X113246095Y-60742857D01*
X113246095Y-60838095D01*
X113293714Y-60980952D01*
X113865142Y-61552380D01*
X113246095Y-61552380D01*
X114817523Y-63092380D02*
X114198476Y-63092380D01*
X114531809Y-63473333D01*
X114388952Y-63473333D01*
X114293714Y-63520952D01*
X114246095Y-63568571D01*
X114198476Y-63663809D01*
X114198476Y-63901904D01*
X114246095Y-63997142D01*
X114293714Y-64044761D01*
X114388952Y-64092380D01*
X114674666Y-64092380D01*
X114769904Y-64044761D01*
X114817523Y-63997142D01*
X113246095Y-64092380D02*
X113817523Y-64092380D01*
X113531809Y-64092380D02*
X113531809Y-63092380D01*
X113627047Y-63235238D01*
X113722285Y-63330476D01*
X113817523Y-63378095D01*
X112277523Y-60552380D02*
X111658476Y-60552380D01*
X111991809Y-60933333D01*
X111848952Y-60933333D01*
X111753714Y-60980952D01*
X111706095Y-61028571D01*
X111658476Y-61123809D01*
X111658476Y-61361904D01*
X111706095Y-61457142D01*
X111753714Y-61504761D01*
X111848952Y-61552380D01*
X112134666Y-61552380D01*
X112229904Y-61504761D01*
X112277523Y-61457142D01*
X111039428Y-60552380D02*
X110944190Y-60552380D01*
X110848952Y-60600000D01*
X110801333Y-60647619D01*
X110753714Y-60742857D01*
X110706095Y-60933333D01*
X110706095Y-61171428D01*
X110753714Y-61361904D01*
X110801333Y-61457142D01*
X110848952Y-61504761D01*
X110944190Y-61552380D01*
X111039428Y-61552380D01*
X111134666Y-61504761D01*
X111182285Y-61457142D01*
X111229904Y-61361904D01*
X111277523Y-61171428D01*
X111277523Y-60933333D01*
X111229904Y-60742857D01*
X111182285Y-60647619D01*
X111134666Y-60600000D01*
X111039428Y-60552380D01*
X112229904Y-63187619D02*
X112182285Y-63140000D01*
X112087047Y-63092380D01*
X111848952Y-63092380D01*
X111753714Y-63140000D01*
X111706095Y-63187619D01*
X111658476Y-63282857D01*
X111658476Y-63378095D01*
X111706095Y-63520952D01*
X112277523Y-64092380D01*
X111658476Y-64092380D01*
X111182285Y-64092380D02*
X110991809Y-64092380D01*
X110896571Y-64044761D01*
X110848952Y-63997142D01*
X110753714Y-63854285D01*
X110706095Y-63663809D01*
X110706095Y-63282857D01*
X110753714Y-63187619D01*
X110801333Y-63140000D01*
X110896571Y-63092380D01*
X111087047Y-63092380D01*
X111182285Y-63140000D01*
X111229904Y-63187619D01*
X111277523Y-63282857D01*
X111277523Y-63520952D01*
X111229904Y-63616190D01*
X111182285Y-63663809D01*
X111087047Y-63711428D01*
X110896571Y-63711428D01*
X110801333Y-63663809D01*
X110753714Y-63616190D01*
X110706095Y-63520952D01*
X109689904Y-60647619D02*
X109642285Y-60600000D01*
X109547047Y-60552380D01*
X109308952Y-60552380D01*
X109213714Y-60600000D01*
X109166095Y-60647619D01*
X109118476Y-60742857D01*
X109118476Y-60838095D01*
X109166095Y-60980952D01*
X109737523Y-61552380D01*
X109118476Y-61552380D01*
X108547047Y-60980952D02*
X108642285Y-60933333D01*
X108689904Y-60885714D01*
X108737523Y-60790476D01*
X108737523Y-60742857D01*
X108689904Y-60647619D01*
X108642285Y-60600000D01*
X108547047Y-60552380D01*
X108356571Y-60552380D01*
X108261333Y-60600000D01*
X108213714Y-60647619D01*
X108166095Y-60742857D01*
X108166095Y-60790476D01*
X108213714Y-60885714D01*
X108261333Y-60933333D01*
X108356571Y-60980952D01*
X108547047Y-60980952D01*
X108642285Y-61028571D01*
X108689904Y-61076190D01*
X108737523Y-61171428D01*
X108737523Y-61361904D01*
X108689904Y-61457142D01*
X108642285Y-61504761D01*
X108547047Y-61552380D01*
X108356571Y-61552380D01*
X108261333Y-61504761D01*
X108213714Y-61457142D01*
X108166095Y-61361904D01*
X108166095Y-61171428D01*
X108213714Y-61076190D01*
X108261333Y-61028571D01*
X108356571Y-60980952D01*
X109689904Y-63187619D02*
X109642285Y-63140000D01*
X109547047Y-63092380D01*
X109308952Y-63092380D01*
X109213714Y-63140000D01*
X109166095Y-63187619D01*
X109118476Y-63282857D01*
X109118476Y-63378095D01*
X109166095Y-63520952D01*
X109737523Y-64092380D01*
X109118476Y-64092380D01*
X108785142Y-63092380D02*
X108118476Y-63092380D01*
X108547047Y-64092380D01*
X107149904Y-60647619D02*
X107102285Y-60600000D01*
X107007047Y-60552380D01*
X106768952Y-60552380D01*
X106673714Y-60600000D01*
X106626095Y-60647619D01*
X106578476Y-60742857D01*
X106578476Y-60838095D01*
X106626095Y-60980952D01*
X107197523Y-61552380D01*
X106578476Y-61552380D01*
X105721333Y-60552380D02*
X105911809Y-60552380D01*
X106007047Y-60600000D01*
X106054666Y-60647619D01*
X106149904Y-60790476D01*
X106197523Y-60980952D01*
X106197523Y-61361904D01*
X106149904Y-61457142D01*
X106102285Y-61504761D01*
X106007047Y-61552380D01*
X105816571Y-61552380D01*
X105721333Y-61504761D01*
X105673714Y-61457142D01*
X105626095Y-61361904D01*
X105626095Y-61123809D01*
X105673714Y-61028571D01*
X105721333Y-60980952D01*
X105816571Y-60933333D01*
X106007047Y-60933333D01*
X106102285Y-60980952D01*
X106149904Y-61028571D01*
X106197523Y-61123809D01*
X107149904Y-63187619D02*
X107102285Y-63140000D01*
X107007047Y-63092380D01*
X106768952Y-63092380D01*
X106673714Y-63140000D01*
X106626095Y-63187619D01*
X106578476Y-63282857D01*
X106578476Y-63378095D01*
X106626095Y-63520952D01*
X107197523Y-64092380D01*
X106578476Y-64092380D01*
X105673714Y-63092380D02*
X106149904Y-63092380D01*
X106197523Y-63568571D01*
X106149904Y-63520952D01*
X106054666Y-63473333D01*
X105816571Y-63473333D01*
X105721333Y-63520952D01*
X105673714Y-63568571D01*
X105626095Y-63663809D01*
X105626095Y-63901904D01*
X105673714Y-63997142D01*
X105721333Y-64044761D01*
X105816571Y-64092380D01*
X106054666Y-64092380D01*
X106149904Y-64044761D01*
X106197523Y-63997142D01*
X104355904Y-60647619D02*
X104308285Y-60600000D01*
X104213047Y-60552380D01*
X103974952Y-60552380D01*
X103879714Y-60600000D01*
X103832095Y-60647619D01*
X103784476Y-60742857D01*
X103784476Y-60838095D01*
X103832095Y-60980952D01*
X104403523Y-61552380D01*
X103784476Y-61552380D01*
X102927333Y-60885714D02*
X102927333Y-61552380D01*
X103165428Y-60504761D02*
X103403523Y-61219047D01*
X102784476Y-61219047D01*
X104609904Y-63187619D02*
X104562285Y-63140000D01*
X104467047Y-63092380D01*
X104228952Y-63092380D01*
X104133714Y-63140000D01*
X104086095Y-63187619D01*
X104038476Y-63282857D01*
X104038476Y-63378095D01*
X104086095Y-63520952D01*
X104657523Y-64092380D01*
X104038476Y-64092380D01*
X103705142Y-63092380D02*
X103086095Y-63092380D01*
X103419428Y-63473333D01*
X103276571Y-63473333D01*
X103181333Y-63520952D01*
X103133714Y-63568571D01*
X103086095Y-63663809D01*
X103086095Y-63901904D01*
X103133714Y-63997142D01*
X103181333Y-64044761D01*
X103276571Y-64092380D01*
X103562285Y-64092380D01*
X103657523Y-64044761D01*
X103705142Y-63997142D01*
X102069904Y-60647619D02*
X102022285Y-60600000D01*
X101927047Y-60552380D01*
X101688952Y-60552380D01*
X101593714Y-60600000D01*
X101546095Y-60647619D01*
X101498476Y-60742857D01*
X101498476Y-60838095D01*
X101546095Y-60980952D01*
X102117523Y-61552380D01*
X101498476Y-61552380D01*
X101117523Y-60647619D02*
X101069904Y-60600000D01*
X100974666Y-60552380D01*
X100736571Y-60552380D01*
X100641333Y-60600000D01*
X100593714Y-60647619D01*
X100546095Y-60742857D01*
X100546095Y-60838095D01*
X100593714Y-60980952D01*
X101165142Y-61552380D01*
X100546095Y-61552380D01*
X102069904Y-63187619D02*
X102022285Y-63140000D01*
X101927047Y-63092380D01*
X101688952Y-63092380D01*
X101593714Y-63140000D01*
X101546095Y-63187619D01*
X101498476Y-63282857D01*
X101498476Y-63378095D01*
X101546095Y-63520952D01*
X102117523Y-64092380D01*
X101498476Y-64092380D01*
X100546095Y-64092380D02*
X101117523Y-64092380D01*
X100831809Y-64092380D02*
X100831809Y-63092380D01*
X100927047Y-63235238D01*
X101022285Y-63330476D01*
X101117523Y-63378095D01*
X99529904Y-60647619D02*
X99482285Y-60600000D01*
X99387047Y-60552380D01*
X99148952Y-60552380D01*
X99053714Y-60600000D01*
X99006095Y-60647619D01*
X98958476Y-60742857D01*
X98958476Y-60838095D01*
X99006095Y-60980952D01*
X99577523Y-61552380D01*
X98958476Y-61552380D01*
X98339428Y-60552380D02*
X98244190Y-60552380D01*
X98148952Y-60600000D01*
X98101333Y-60647619D01*
X98053714Y-60742857D01*
X98006095Y-60933333D01*
X98006095Y-61171428D01*
X98053714Y-61361904D01*
X98101333Y-61457142D01*
X98148952Y-61504761D01*
X98244190Y-61552380D01*
X98339428Y-61552380D01*
X98434666Y-61504761D01*
X98482285Y-61457142D01*
X98529904Y-61361904D01*
X98577523Y-61171428D01*
X98577523Y-60933333D01*
X98529904Y-60742857D01*
X98482285Y-60647619D01*
X98434666Y-60600000D01*
X98339428Y-60552380D01*
X98958476Y-64092380D02*
X99529904Y-64092380D01*
X99244190Y-64092380D02*
X99244190Y-63092380D01*
X99339428Y-63235238D01*
X99434666Y-63330476D01*
X99529904Y-63378095D01*
X98482285Y-64092380D02*
X98291809Y-64092380D01*
X98196571Y-64044761D01*
X98148952Y-63997142D01*
X98053714Y-63854285D01*
X98006095Y-63663809D01*
X98006095Y-63282857D01*
X98053714Y-63187619D01*
X98101333Y-63140000D01*
X98196571Y-63092380D01*
X98387047Y-63092380D01*
X98482285Y-63140000D01*
X98529904Y-63187619D01*
X98577523Y-63282857D01*
X98577523Y-63520952D01*
X98529904Y-63616190D01*
X98482285Y-63663809D01*
X98387047Y-63711428D01*
X98196571Y-63711428D01*
X98101333Y-63663809D01*
X98053714Y-63616190D01*
X98006095Y-63520952D01*
X96418476Y-61552380D02*
X96989904Y-61552380D01*
X96704190Y-61552380D02*
X96704190Y-60552380D01*
X96799428Y-60695238D01*
X96894666Y-60790476D01*
X96989904Y-60838095D01*
X95847047Y-60980952D02*
X95942285Y-60933333D01*
X95989904Y-60885714D01*
X96037523Y-60790476D01*
X96037523Y-60742857D01*
X95989904Y-60647619D01*
X95942285Y-60600000D01*
X95847047Y-60552380D01*
X95656571Y-60552380D01*
X95561333Y-60600000D01*
X95513714Y-60647619D01*
X95466095Y-60742857D01*
X95466095Y-60790476D01*
X95513714Y-60885714D01*
X95561333Y-60933333D01*
X95656571Y-60980952D01*
X95847047Y-60980952D01*
X95942285Y-61028571D01*
X95989904Y-61076190D01*
X96037523Y-61171428D01*
X96037523Y-61361904D01*
X95989904Y-61457142D01*
X95942285Y-61504761D01*
X95847047Y-61552380D01*
X95656571Y-61552380D01*
X95561333Y-61504761D01*
X95513714Y-61457142D01*
X95466095Y-61361904D01*
X95466095Y-61171428D01*
X95513714Y-61076190D01*
X95561333Y-61028571D01*
X95656571Y-60980952D01*
X96418476Y-64092380D02*
X96989904Y-64092380D01*
X96704190Y-64092380D02*
X96704190Y-63092380D01*
X96799428Y-63235238D01*
X96894666Y-63330476D01*
X96989904Y-63378095D01*
X96085142Y-63092380D02*
X95418476Y-63092380D01*
X95847047Y-64092380D01*
X93624476Y-61552380D02*
X94195904Y-61552380D01*
X93910190Y-61552380D02*
X93910190Y-60552380D01*
X94005428Y-60695238D01*
X94100666Y-60790476D01*
X94195904Y-60838095D01*
X92767333Y-60552380D02*
X92957809Y-60552380D01*
X93053047Y-60600000D01*
X93100666Y-60647619D01*
X93195904Y-60790476D01*
X93243523Y-60980952D01*
X93243523Y-61361904D01*
X93195904Y-61457142D01*
X93148285Y-61504761D01*
X93053047Y-61552380D01*
X92862571Y-61552380D01*
X92767333Y-61504761D01*
X92719714Y-61457142D01*
X92672095Y-61361904D01*
X92672095Y-61123809D01*
X92719714Y-61028571D01*
X92767333Y-60980952D01*
X92862571Y-60933333D01*
X93053047Y-60933333D01*
X93148285Y-60980952D01*
X93195904Y-61028571D01*
X93243523Y-61123809D01*
X93624476Y-64092380D02*
X94195904Y-64092380D01*
X93910190Y-64092380D02*
X93910190Y-63092380D01*
X94005428Y-63235238D01*
X94100666Y-63330476D01*
X94195904Y-63378095D01*
X92719714Y-63092380D02*
X93195904Y-63092380D01*
X93243523Y-63568571D01*
X93195904Y-63520952D01*
X93100666Y-63473333D01*
X92862571Y-63473333D01*
X92767333Y-63520952D01*
X92719714Y-63568571D01*
X92672095Y-63663809D01*
X92672095Y-63901904D01*
X92719714Y-63997142D01*
X92767333Y-64044761D01*
X92862571Y-64092380D01*
X93100666Y-64092380D01*
X93195904Y-64044761D01*
X93243523Y-63997142D01*
X91338476Y-61552380D02*
X91909904Y-61552380D01*
X91624190Y-61552380D02*
X91624190Y-60552380D01*
X91719428Y-60695238D01*
X91814666Y-60790476D01*
X91909904Y-60838095D01*
X90481333Y-60885714D02*
X90481333Y-61552380D01*
X90719428Y-60504761D02*
X90957523Y-61219047D01*
X90338476Y-61219047D01*
X91338476Y-63838380D02*
X91909904Y-63838380D01*
X91624190Y-63838380D02*
X91624190Y-62838380D01*
X91719428Y-62981238D01*
X91814666Y-63076476D01*
X91909904Y-63124095D01*
X91005142Y-62838380D02*
X90386095Y-62838380D01*
X90719428Y-63219333D01*
X90576571Y-63219333D01*
X90481333Y-63266952D01*
X90433714Y-63314571D01*
X90386095Y-63409809D01*
X90386095Y-63647904D01*
X90433714Y-63743142D01*
X90481333Y-63790761D01*
X90576571Y-63838380D01*
X90862285Y-63838380D01*
X90957523Y-63790761D01*
X91005142Y-63743142D01*
X88544476Y-61552380D02*
X89115904Y-61552380D01*
X88830190Y-61552380D02*
X88830190Y-60552380D01*
X88925428Y-60695238D01*
X89020666Y-60790476D01*
X89115904Y-60838095D01*
X88163523Y-60647619D02*
X88115904Y-60600000D01*
X88020666Y-60552380D01*
X87782571Y-60552380D01*
X87687333Y-60600000D01*
X87639714Y-60647619D01*
X87592095Y-60742857D01*
X87592095Y-60838095D01*
X87639714Y-60980952D01*
X88211142Y-61552380D01*
X87592095Y-61552380D01*
X88798476Y-64092380D02*
X89369904Y-64092380D01*
X89084190Y-64092380D02*
X89084190Y-63092380D01*
X89179428Y-63235238D01*
X89274666Y-63330476D01*
X89369904Y-63378095D01*
X87846095Y-64092380D02*
X88417523Y-64092380D01*
X88131809Y-64092380D02*
X88131809Y-63092380D01*
X88227047Y-63235238D01*
X88322285Y-63330476D01*
X88417523Y-63378095D01*
X86258476Y-61552380D02*
X86829904Y-61552380D01*
X86544190Y-61552380D02*
X86544190Y-60552380D01*
X86639428Y-60695238D01*
X86734666Y-60790476D01*
X86829904Y-60838095D01*
X85639428Y-60552380D02*
X85544190Y-60552380D01*
X85448952Y-60600000D01*
X85401333Y-60647619D01*
X85353714Y-60742857D01*
X85306095Y-60933333D01*
X85306095Y-61171428D01*
X85353714Y-61361904D01*
X85401333Y-61457142D01*
X85448952Y-61504761D01*
X85544190Y-61552380D01*
X85639428Y-61552380D01*
X85734666Y-61504761D01*
X85782285Y-61457142D01*
X85829904Y-61361904D01*
X85877523Y-61171428D01*
X85877523Y-60933333D01*
X85829904Y-60742857D01*
X85782285Y-60647619D01*
X85734666Y-60600000D01*
X85639428Y-60552380D01*
X86258476Y-64092380D02*
X86068000Y-64092380D01*
X85972761Y-64044761D01*
X85925142Y-63997142D01*
X85829904Y-63854285D01*
X85782285Y-63663809D01*
X85782285Y-63282857D01*
X85829904Y-63187619D01*
X85877523Y-63140000D01*
X85972761Y-63092380D01*
X86163238Y-63092380D01*
X86258476Y-63140000D01*
X86306095Y-63187619D01*
X86353714Y-63282857D01*
X86353714Y-63520952D01*
X86306095Y-63616190D01*
X86258476Y-63663809D01*
X86163238Y-63711428D01*
X85972761Y-63711428D01*
X85877523Y-63663809D01*
X85829904Y-63616190D01*
X85782285Y-63520952D01*
X83623238Y-60980952D02*
X83718476Y-60933333D01*
X83766095Y-60885714D01*
X83813714Y-60790476D01*
X83813714Y-60742857D01*
X83766095Y-60647619D01*
X83718476Y-60600000D01*
X83623238Y-60552380D01*
X83432761Y-60552380D01*
X83337523Y-60600000D01*
X83289904Y-60647619D01*
X83242285Y-60742857D01*
X83242285Y-60790476D01*
X83289904Y-60885714D01*
X83337523Y-60933333D01*
X83432761Y-60980952D01*
X83623238Y-60980952D01*
X83718476Y-61028571D01*
X83766095Y-61076190D01*
X83813714Y-61171428D01*
X83813714Y-61361904D01*
X83766095Y-61457142D01*
X83718476Y-61504761D01*
X83623238Y-61552380D01*
X83432761Y-61552380D01*
X83337523Y-61504761D01*
X83289904Y-61457142D01*
X83242285Y-61361904D01*
X83242285Y-61171428D01*
X83289904Y-61076190D01*
X83337523Y-61028571D01*
X83432761Y-60980952D01*
X83607333Y-63092380D02*
X82940666Y-63092380D01*
X83369238Y-64092380D01*
X80797523Y-60552380D02*
X80988000Y-60552380D01*
X81083238Y-60600000D01*
X81130857Y-60647619D01*
X81226095Y-60790476D01*
X81273714Y-60980952D01*
X81273714Y-61361904D01*
X81226095Y-61457142D01*
X81178476Y-61504761D01*
X81083238Y-61552380D01*
X80892761Y-61552380D01*
X80797523Y-61504761D01*
X80749904Y-61457142D01*
X80702285Y-61361904D01*
X80702285Y-61123809D01*
X80749904Y-61028571D01*
X80797523Y-60980952D01*
X80892761Y-60933333D01*
X81083238Y-60933333D01*
X81178476Y-60980952D01*
X81226095Y-61028571D01*
X81273714Y-61123809D01*
X80241904Y-63092380D02*
X80718095Y-63092380D01*
X80765714Y-63568571D01*
X80718095Y-63520952D01*
X80622857Y-63473333D01*
X80384761Y-63473333D01*
X80289523Y-63520952D01*
X80241904Y-63568571D01*
X80194285Y-63663809D01*
X80194285Y-63901904D01*
X80241904Y-63997142D01*
X80289523Y-64044761D01*
X80384761Y-64092380D01*
X80622857Y-64092380D01*
X80718095Y-64044761D01*
X80765714Y-63997142D01*
X78781333Y-63092380D02*
X78162285Y-63092380D01*
X78495619Y-63473333D01*
X78352761Y-63473333D01*
X78257523Y-63520952D01*
X78209904Y-63568571D01*
X78162285Y-63663809D01*
X78162285Y-63901904D01*
X78209904Y-63997142D01*
X78257523Y-64044761D01*
X78352761Y-64092380D01*
X78638476Y-64092380D01*
X78733714Y-64044761D01*
X78781333Y-63997142D01*
X78257523Y-60885714D02*
X78257523Y-61552380D01*
X78495619Y-60504761D02*
X78733714Y-61219047D01*
X78114666Y-61219047D01*
X75368285Y-64092380D02*
X75939714Y-64092380D01*
X75654000Y-64092380D02*
X75654000Y-63092380D01*
X75749238Y-63235238D01*
X75844476Y-63330476D01*
X75939714Y-63378095D01*
X76041314Y-60596819D02*
X75993695Y-60549200D01*
X75898457Y-60501580D01*
X75660361Y-60501580D01*
X75565123Y-60549200D01*
X75517504Y-60596819D01*
X75469885Y-60692057D01*
X75469885Y-60787295D01*
X75517504Y-60930152D01*
X76088933Y-61501580D01*
X75469885Y-61501580D01*
X140452380Y-51904761D02*
X140452380Y-51428571D01*
X140928571Y-51380952D01*
X140880952Y-51428571D01*
X140833333Y-51523809D01*
X140833333Y-51761904D01*
X140880952Y-51857142D01*
X140928571Y-51904761D01*
X141023809Y-51952380D01*
X141261904Y-51952380D01*
X141357142Y-51904761D01*
X141404761Y-51857142D01*
X141452380Y-51761904D01*
X141452380Y-51523809D01*
X141404761Y-51428571D01*
X141357142Y-51380952D01*
X141452380Y-52380952D02*
X140785714Y-52380952D01*
X140880952Y-52380952D02*
X140833333Y-52428571D01*
X140785714Y-52523809D01*
X140785714Y-52666666D01*
X140833333Y-52761904D01*
X140928571Y-52809523D01*
X141452380Y-52809523D01*
X140928571Y-52809523D02*
X140833333Y-52857142D01*
X140785714Y-52952380D01*
X140785714Y-53095238D01*
X140833333Y-53190476D01*
X140928571Y-53238095D01*
X141452380Y-53238095D01*
X141452380Y-53714285D02*
X140785714Y-53714285D01*
X140880952Y-53714285D02*
X140833333Y-53761904D01*
X140785714Y-53857142D01*
X140785714Y-54000000D01*
X140833333Y-54095238D01*
X140928571Y-54142857D01*
X141452380Y-54142857D01*
X140928571Y-54142857D02*
X140833333Y-54190476D01*
X140785714Y-54285714D01*
X140785714Y-54428571D01*
X140833333Y-54523809D01*
X140928571Y-54571428D01*
X141452380Y-54571428D01*
X148095238Y-58452380D02*
X148571428Y-58452380D01*
X148619047Y-58928571D01*
X148571428Y-58880952D01*
X148476190Y-58833333D01*
X148238095Y-58833333D01*
X148142857Y-58880952D01*
X148095238Y-58928571D01*
X148047619Y-59023809D01*
X148047619Y-59261904D01*
X148095238Y-59357142D01*
X148142857Y-59404761D01*
X148238095Y-59452380D01*
X148476190Y-59452380D01*
X148571428Y-59404761D01*
X148619047Y-59357142D01*
X147619047Y-59452380D02*
X147619047Y-58785714D01*
X147619047Y-58880952D02*
X147571428Y-58833333D01*
X147476190Y-58785714D01*
X147333333Y-58785714D01*
X147238095Y-58833333D01*
X147190476Y-58928571D01*
X147190476Y-59452380D01*
X147190476Y-58928571D02*
X147142857Y-58833333D01*
X147047619Y-58785714D01*
X146904761Y-58785714D01*
X146809523Y-58833333D01*
X146761904Y-58928571D01*
X146761904Y-59452380D01*
X146285714Y-59452380D02*
X146285714Y-58785714D01*
X146285714Y-58880952D02*
X146238095Y-58833333D01*
X146142857Y-58785714D01*
X146000000Y-58785714D01*
X145904761Y-58833333D01*
X145857142Y-58928571D01*
X145857142Y-59452380D01*
X145857142Y-58928571D02*
X145809523Y-58833333D01*
X145714285Y-58785714D01*
X145571428Y-58785714D01*
X145476190Y-58833333D01*
X145428571Y-58928571D01*
X145428571Y-59452380D01*
X70452380Y-143476190D02*
X70452380Y-142904761D01*
X70452380Y-143190476D02*
X69452380Y-143190476D01*
X69595238Y-143095238D01*
X69690476Y-143000000D01*
X69738095Y-142904761D01*
X69452380Y-144095238D02*
X69452380Y-144190476D01*
X69500000Y-144285714D01*
X69547619Y-144333333D01*
X69642857Y-144380952D01*
X69833333Y-144428571D01*
X70071428Y-144428571D01*
X70261904Y-144380952D01*
X70357142Y-144333333D01*
X70404761Y-144285714D01*
X70452380Y-144190476D01*
X70452380Y-144095238D01*
X70404761Y-144000000D01*
X70357142Y-143952380D01*
X70261904Y-143904761D01*
X70071428Y-143857142D01*
X69833333Y-143857142D01*
X69642857Y-143904761D01*
X69547619Y-143952380D01*
X69500000Y-144000000D01*
X69452380Y-144095238D01*
X70452380Y-144857142D02*
X69785714Y-144857142D01*
X69880952Y-144857142D02*
X69833333Y-144904761D01*
X69785714Y-145000000D01*
X69785714Y-145142857D01*
X69833333Y-145238095D01*
X69928571Y-145285714D01*
X70452380Y-145285714D01*
X69928571Y-145285714D02*
X69833333Y-145333333D01*
X69785714Y-145428571D01*
X69785714Y-145571428D01*
X69833333Y-145666666D01*
X69928571Y-145714285D01*
X70452380Y-145714285D01*
X70452380Y-146190476D02*
X69785714Y-146190476D01*
X69880952Y-146190476D02*
X69833333Y-146238095D01*
X69785714Y-146333333D01*
X69785714Y-146476190D01*
X69833333Y-146571428D01*
X69928571Y-146619047D01*
X70452380Y-146619047D01*
X69928571Y-146619047D02*
X69833333Y-146666666D01*
X69785714Y-146761904D01*
X69785714Y-146904761D01*
X69833333Y-147000000D01*
X69928571Y-147047619D01*
X70452380Y-147047619D01*
X68095238Y-142547619D02*
X68047619Y-142500000D01*
X67952380Y-142452380D01*
X67714285Y-142452380D01*
X67619047Y-142500000D01*
X67571428Y-142547619D01*
X67523809Y-142642857D01*
X67523809Y-142738095D01*
X67571428Y-142880952D01*
X68142857Y-143452380D01*
X67523809Y-143452380D01*
X66904761Y-142452380D02*
X66809523Y-142452380D01*
X66714285Y-142500000D01*
X66666666Y-142547619D01*
X66619047Y-142642857D01*
X66571428Y-142833333D01*
X66571428Y-143071428D01*
X66619047Y-143261904D01*
X66666666Y-143357142D01*
X66714285Y-143404761D01*
X66809523Y-143452380D01*
X66904761Y-143452380D01*
X67000000Y-143404761D01*
X67047619Y-143357142D01*
X67095238Y-143261904D01*
X67142857Y-143071428D01*
X67142857Y-142833333D01*
X67095238Y-142642857D01*
X67047619Y-142547619D01*
X67000000Y-142500000D01*
X66904761Y-142452380D01*
X66142857Y-143452380D02*
X66142857Y-142785714D01*
X66142857Y-142880952D02*
X66095238Y-142833333D01*
X66000000Y-142785714D01*
X65857142Y-142785714D01*
X65761904Y-142833333D01*
X65714285Y-142928571D01*
X65714285Y-143452380D01*
X65714285Y-142928571D02*
X65666666Y-142833333D01*
X65571428Y-142785714D01*
X65428571Y-142785714D01*
X65333333Y-142833333D01*
X65285714Y-142928571D01*
X65285714Y-143452380D01*
X64809523Y-143452380D02*
X64809523Y-142785714D01*
X64809523Y-142880952D02*
X64761904Y-142833333D01*
X64666666Y-142785714D01*
X64523809Y-142785714D01*
X64428571Y-142833333D01*
X64380952Y-142928571D01*
X64380952Y-143452380D01*
X64380952Y-142928571D02*
X64333333Y-142833333D01*
X64238095Y-142785714D01*
X64095238Y-142785714D01*
X64000000Y-142833333D01*
X63952380Y-142928571D01*
X63952380Y-143452380D01*
X74523800Y-64845040D02*
X74523800Y-59765040D01*
X74523800Y-59765040D02*
X125323800Y-59765040D01*
X125323800Y-59765040D02*
X125323800Y-64845040D01*
X125323800Y-64845040D02*
X74523800Y-64845040D01*
X74523800Y-64845040D02*
X74523800Y-62305040D01*
X74523800Y-62305040D02*
X125323800Y-62305040D01*
X125323800Y-62305040D02*
X125323800Y-59765040D01*
X125323800Y-59765040D02*
X122783800Y-59765040D01*
X122783800Y-59765040D02*
X122783800Y-64845040D01*
X122783800Y-64845040D02*
X120243800Y-64845040D01*
X120243800Y-64845040D02*
X120243800Y-59765040D01*
X120243800Y-59765040D02*
X117703800Y-59765040D01*
X117703800Y-59765040D02*
X117703800Y-64845040D01*
X117703800Y-64845040D02*
X115163800Y-64845040D01*
X115163800Y-64845040D02*
X115163800Y-59765040D01*
X115163800Y-59765040D02*
X112623800Y-59765040D01*
X112623800Y-59765040D02*
X112623800Y-64845040D01*
X112623800Y-64845040D02*
X110083800Y-64845040D01*
X110083800Y-64845040D02*
X110083800Y-59765040D01*
X110083800Y-59765040D02*
X107543800Y-59765040D01*
X107543800Y-59765040D02*
X107543800Y-64845040D01*
X107543800Y-64845040D02*
X105003800Y-64845040D01*
X105003800Y-64845040D02*
X105003800Y-59765040D01*
X105003800Y-59765040D02*
X102463800Y-59765040D01*
X102463800Y-59765040D02*
X102463800Y-64845040D01*
X102463800Y-64845040D02*
X99923800Y-64845040D01*
X99923800Y-64845040D02*
X99923800Y-59765040D01*
X99923800Y-59765040D02*
X97383800Y-59765040D01*
X97383800Y-59765040D02*
X97383800Y-64845040D01*
X97383800Y-64845040D02*
X94843800Y-64845040D01*
X94843800Y-64845040D02*
X94843800Y-59765040D01*
X94843800Y-59765040D02*
X92303800Y-59765040D01*
X92303800Y-59765040D02*
X92303800Y-64845040D01*
X92303800Y-64845040D02*
X89763800Y-64845040D01*
X89763800Y-64845040D02*
X89763800Y-59765040D01*
X89763800Y-59765040D02*
X87223800Y-59765040D01*
X87223800Y-59765040D02*
X87223800Y-64845040D01*
X87223800Y-64845040D02*
X84683800Y-64845040D01*
X84683800Y-64845040D02*
X84683800Y-59765040D01*
X84683800Y-59765040D02*
X82143800Y-59765040D01*
X82143800Y-59765040D02*
X82143800Y-64845040D01*
X82143800Y-64845040D02*
X79603800Y-64845040D01*
X79603800Y-64845040D02*
X79603800Y-59765040D01*
X79603800Y-59765040D02*
X77063800Y-59765040D01*
X77063800Y-59765040D02*
X77063800Y-64845040D01*
M02*
