M48
; DRILL file {KiCad (5.1.6)-1} date 09/10/20 03:52:00
; FORMAT={-:-/ absolute / metric / decimal}
; #@! TF.CreationDate,2020-09-10T03:52:00+02:00
; #@! TF.GenerationSoftware,Kicad,Pcbnew,(5.1.6)-1
; #@! TF.FileFunction,Plated,1,4,PTH
FMAT,2
METRIC
T1C0.400
T2C0.900
T3C1.000
%
G90
G05
T1
X58.5Y-85.5
X58.5Y-86.75
X58.5Y-88.0
X59.5Y-84.75
X59.5Y-88.75
X60.25Y-68.25
X60.75Y-84.75
X60.75Y-88.75
X62.0Y-72.0
X62.0Y-88.75
X62.5Y-84.75
X62.75Y-66.25
X62.75Y-68.5
X63.25Y-88.75
X63.75Y-85.25
X63.75Y-86.5
X63.75Y-87.75
X65.25Y-66.25
X65.25Y-68.5
X66.5Y-72.0
X67.375Y-84.625
X67.75Y-66.25
X67.75Y-68.25
X69.54Y-89.04
X69.995Y-82.005
X70.25Y-66.25
X70.25Y-68.5
X70.25Y-91.35
X70.25Y-93.89
X70.25Y-96.5
X70.25Y-99.0
X70.25Y-101.5
X70.5Y-84.0
X70.995Y-82.005
X71.75Y-72.0
X73.0Y-66.25
X73.0Y-68.25
X75.25Y-68.25
X75.5Y-137.0
X75.5Y-138.5
X75.5Y-140.0
X75.5Y-141.5
X75.5Y-143.0
X75.5Y-144.5
X77.0Y-137.0
X77.6Y-62.15
X78.5Y-137.0
X80.0Y-137.0
X81.5Y-137.0
X81.5Y-138.5
X81.5Y-140.0
X81.5Y-141.5
X81.5Y-143.0
X81.5Y-144.5
X82.3Y-67.55
X83.5Y-85.75
X84.35Y-62.4
X84.5Y-122.25
X84.5Y-123.5
X84.5Y-125.0
X84.5Y-126.25
X85.25Y-121.25
X85.5Y-127.0
X86.5Y-121.25
X86.75Y-127.0
X87.75Y-121.25
X88.0Y-127.0
X88.5Y-137.0
X88.5Y-138.5
X88.5Y-140.0
X88.5Y-141.5
X88.5Y-143.0
X88.5Y-144.5
X89.0Y-121.25
X89.25Y-127.0
X89.3Y-65.05
X90.0Y-137.0
X90.25Y-121.25
X90.25Y-122.5
X90.25Y-123.75
X90.25Y-125.0
X90.25Y-126.25
X91.0Y-85.75
X91.0Y-104.75
X91.5Y-121.25
X91.5Y-122.5
X92.5Y-72.25
X92.75Y-121.25
X92.75Y-122.5
X92.75Y-137.75
X93.0Y-85.75
X93.0Y-104.75
X93.25Y-77.0
X93.5Y-92.5
X94.0Y-121.25
X94.0Y-122.5
X94.075Y-138.575
X94.5Y-73.0
X94.5Y-140.0
X94.5Y-141.5
X94.5Y-143.0
X94.5Y-144.5
X95.0Y-85.75
X95.01Y-104.75
X95.22Y-98.1
X95.25Y-121.25
X95.25Y-122.5
X95.25Y-123.75
X95.35Y-64.65
X95.75Y-100.25
X96.97Y-104.75
X97.0Y-85.75
X97.06Y-96.68
X97.08Y-93.8
X97.2Y-77.43
X98.0Y-130.5
X98.97Y-104.75
X99.0Y-85.75
X101.01Y-85.75
X101.05Y-104.75
X102.2Y-130.2
X102.5Y-77.5
X102.98Y-85.75
X103.0Y-104.75
X103.4Y-130.2
X104.25Y-99.75
X104.65Y-64.85
X104.93Y-104.75
X104.96Y-85.75
X105.0Y-130.2
X105.5Y-76.5
X105.5Y-117.25
X106.2Y-130.2
X107.0Y-85.75
X107.0Y-104.75
X107.6Y-123.2
X107.6Y-124.6
X107.6Y-126.0
X107.6Y-127.4
X107.6Y-128.8
X107.6Y-130.2
X108.5Y-99.75
X109.0Y-85.75
X109.0Y-104.75
X110.325Y-61.925
X111.575Y-67.675
X111.6Y-81.2
X111.6Y-83.0
X112.02Y-107.78
X112.75Y-85.2
X113.0Y-92.0
X114.6Y-85.2
X114.75Y-92.0
X115.5Y-76.0
X116.2Y-81.2
X116.2Y-82.6
X116.2Y-84.0
X116.2Y-85.2
X116.5Y-78.75
X116.575Y-64.925
X117.75Y-74.25
X117.75Y-76.0
X118.2Y-87.4
X118.2Y-123.8
X119.75Y-118.5
X119.98Y-107.82
X120.0Y-87.4
X120.25Y-74.25
X120.5Y-76.5
X120.6Y-89.6
X120.6Y-90.8
X121.0Y-92.0
X121.6Y-87.4
X121.75Y-78.75
X121.95Y-61.8
X122.0Y-91.0
X123.0Y-74.25
X123.0Y-76.0
X123.0Y-92.0
X123.0Y-101.75
X123.6Y-88.2
X123.6Y-89.4
X123.6Y-90.8
X124.25Y-97.25
X125.25Y-76.0
X126.0Y-93.0
X126.0Y-97.25
X126.25Y-122.25
X127.4Y-102.8
X127.425Y-80.075
X128.25Y-79.25
X128.5Y-96.5
X128.5Y-104.5
X129.0Y-92.5
X129.5Y-98.0
X130.82Y-96.68
X131.5Y-115.5
X131.7Y-120.5
X132.2Y-122.5
X132.5Y-95.0
X132.5Y-106.75
X132.5Y-108.5
X132.5Y-110.5
X133.0Y-96.25
X133.25Y-102.0
X133.5Y-115.75
X134.5Y-106.75
X134.5Y-108.5
X134.5Y-110.5
X134.75Y-102.0
X135.0Y-81.2
X135.4Y-91.2
X135.5Y-70.0
X135.75Y-113.75
X135.75Y-122.25
X135.8Y-130.25
X136.25Y-102.0
X136.5Y-106.75
X136.5Y-108.6
X136.5Y-110.5
X136.5Y-112.75
X136.75Y-114.75
X138.0Y-120.25
X139.75Y-122.25
X140.0Y-102.75
X140.25Y-97.75
X140.5Y-115.5
X140.5Y-120.5
X141.4Y-93.0
X141.5Y-103.0
X141.8Y-89.4
X141.8Y-97.75
X144.5Y-87.0
T2
X111.25Y-137.75
X111.25Y-140.29
X120.5Y-137.75
X120.5Y-140.29
X129.75Y-137.75
X129.75Y-140.29
T3
X83.5Y-88.55
X83.5Y-91.09
X83.5Y-93.63
X83.5Y-96.17
X83.5Y-98.71
X83.5Y-101.25
X93.67Y-110.5
X96.21Y-110.5
X98.75Y-110.5
X101.29Y-110.5
X103.83Y-110.5
X106.37Y-110.5
X75.87Y-55.0
X75.87Y-57.54
X78.41Y-55.0
X78.41Y-57.54
X80.95Y-55.0
X80.95Y-57.54
X83.49Y-55.0
X83.49Y-57.54
X86.03Y-55.0
X86.03Y-57.54
X88.57Y-55.0
X88.57Y-57.54
X91.11Y-55.0
X91.11Y-57.54
X93.65Y-55.0
X93.65Y-57.54
X96.19Y-55.0
X96.19Y-57.54
X98.73Y-55.0
X98.73Y-57.54
X101.27Y-55.0
X101.27Y-57.54
X103.81Y-55.0
X103.81Y-57.54
X106.35Y-55.0
X106.35Y-57.54
X108.89Y-55.0
X108.89Y-57.54
X111.43Y-55.0
X111.43Y-57.54
X113.97Y-55.0
X113.97Y-57.54
X116.51Y-55.0
X116.51Y-57.54
X119.05Y-55.0
X119.05Y-57.54
X121.59Y-55.0
X121.59Y-57.54
X124.13Y-55.0
X124.13Y-57.54
X143.0Y-68.42
X143.0Y-70.96
X143.0Y-73.5
T0
M30
